<?xml version="1.0" encoding="UTF-8" standalone="no"?>
<!DOCTYPE svg PUBLIC "-//W3C//DTD SVG 1.1//EN"
 "http://www.w3.org/Graphics/SVG/1.1/DTD/svg11.dtd">
<!-- Generated by graphviz version 2.43.0 (0)
 -->
<!-- Title: ObjectComparator Pages: 1 -->
<svg width="117pt" height="237pt"
 viewBox="0.00 0.00 117.00 237.00" xmlns="http://www.w3.org/2000/svg" xmlns:xlink="http://www.w3.org/1999/xlink">
<g id="graph0" class="graph" transform="scale(1 1) rotate(0) translate(4 233)">
<title>ObjectComparator</title>
<polygon fill="white" stroke="transparent" points="-4,4 -4,-233 113,-233 113,4 -4,4"/>
<!-- Node1 -->
<g id="node1" class="node">
<title>Node1</title>
<g id="a_node1"><a xlink:title="ObjectComparator is used to compare persistent objects by given criterias.">
<polygon fill="#bfbfbf" stroke="black" points="0,-127.5 0,-228.5 109,-228.5 109,-127.5 0,-127.5"/>
<text text-anchor="middle" x="54.5" y="-216.5" font-family="Helvetica,sans-Serif" font-size="10.00">ObjectComparator</text>
<polyline fill="none" stroke="black" points="0,-209.5 109,-209.5 "/>
<text text-anchor="start" x="8" y="-197.5" font-family="Helvetica,sans-Serif" font-size="10.00">+ SORTTYPE_ASC</text>
<text text-anchor="start" x="8" y="-186.5" font-family="Helvetica,sans-Serif" font-size="10.00">+ SORTTYPE_DESC</text>
<text text-anchor="start" x="8" y="-175.5" font-family="Helvetica,sans-Serif" font-size="10.00">+ ATTRIB_OID</text>
<text text-anchor="start" x="8" y="-164.5" font-family="Helvetica,sans-Serif" font-size="10.00">+ ATTRIB_TYPE</text>
<polyline fill="none" stroke="black" points="0,-157.5 109,-157.5 "/>
<text text-anchor="start" x="8" y="-145.5" font-family="Helvetica,sans-Serif" font-size="10.00">+ __construct()</text>
<text text-anchor="start" x="8" y="-134.5" font-family="Helvetica,sans-Serif" font-size="10.00">+ compare()</text>
</a>
</g>
</g>
<!-- Node2 -->
<g id="node2" class="node">
<title>Node2</title>
<g id="a_node2"><a xlink:href="classwcmf_1_1lib_1_1model_1_1_node_comparator.html" target="_top" xlink:title="NodeComparator exists for compatibility reasons only.">
<polygon fill="white" stroke="black" points="0,-0.5 0,-90.5 109,-90.5 109,-0.5 0,-0.5"/>
<text text-anchor="middle" x="54.5" y="-78.5" font-family="Helvetica,sans-Serif" font-size="10.00">NodeComparator</text>
<polyline fill="none" stroke="black" points="0,-71.5 109,-71.5 "/>
<text text-anchor="start" x="8" y="-59.5" font-family="Helvetica,sans-Serif" font-size="10.00">+ SORTTYPE_ASC</text>
<text text-anchor="start" x="8" y="-48.5" font-family="Helvetica,sans-Serif" font-size="10.00">+ SORTTYPE_DESC</text>
<text text-anchor="start" x="8" y="-37.5" font-family="Helvetica,sans-Serif" font-size="10.00">+ ATTRIB_OID</text>
<text text-anchor="start" x="8" y="-26.5" font-family="Helvetica,sans-Serif" font-size="10.00">+ ATTRIB_TYPE</text>
<polyline fill="none" stroke="black" points="0,-19.5 109,-19.5 "/>
<text text-anchor="middle" x="54.5" y="-7.5" font-family="Helvetica,sans-Serif" font-size="10.00"> </text>
</a>
</g>
</g>
<!-- Node1&#45;&gt;Node2 -->
<g id="edge1" class="edge">
<title>Node1&#45;&gt;Node2</title>
<path fill="none" stroke="midnightblue" d="M54.5,-117.23C54.5,-108.24 54.5,-99.1 54.5,-90.52"/>
<polygon fill="none" stroke="midnightblue" points="51,-117.29 54.5,-127.29 58,-117.29 51,-117.29"/>
</g>
</g>
</svg>
