<?xml version="1.0" encoding="UTF-8" standalone="no"?>
<!DOCTYPE svg PUBLIC "-//W3C//DTD SVG 1.1//EN"
 "http://www.w3.org/Graphics/SVG/1.1/DTD/svg11.dtd">
<!-- Generated by graphviz version 2.43.0 (0)
 -->
<!-- Title: PersistenceActionKeyProvider Pages: 1 -->
<svg width="170pt" height="281pt"
 viewBox="0.00 0.00 170.00 281.00" xmlns="http://www.w3.org/2000/svg" xmlns:xlink="http://www.w3.org/1999/xlink">
<g id="graph0" class="graph" transform="scale(1 1) rotate(0) translate(4 277)">
<title>PersistenceActionKeyProvider</title>
<polygon fill="white" stroke="transparent" points="-4,4 -4,-277 166,-277 166,4 -4,4"/>
<!-- Node1 -->
<g id="node1" class="node">
<title>Node1</title>
<g id="a_node1"><a xlink:title="PersistenceActionKeyProvider searches for action keys in the application storage.">
<polygon fill="#bfbfbf" stroke="black" points="0,-0.5 0,-156.5 162,-156.5 162,-0.5 0,-0.5"/>
<text text-anchor="middle" x="81" y="-144.5" font-family="Helvetica,sans-Serif" font-size="10.00">PersistenceActionKeyProvider</text>
<polyline fill="none" stroke="black" points="0,-137.5 162,-137.5 "/>
<text text-anchor="middle" x="81" y="-125.5" font-family="Helvetica,sans-Serif" font-size="10.00"> </text>
<polyline fill="none" stroke="black" points="0,-118.5 162,-118.5 "/>
<text text-anchor="start" x="8" y="-106.5" font-family="Helvetica,sans-Serif" font-size="10.00">+ __construct()</text>
<text text-anchor="start" x="8" y="-95.5" font-family="Helvetica,sans-Serif" font-size="10.00">+ __destruct()</text>
<text text-anchor="start" x="8" y="-84.5" font-family="Helvetica,sans-Serif" font-size="10.00">+ setEntityType()</text>
<text text-anchor="start" x="8" y="-73.5" font-family="Helvetica,sans-Serif" font-size="10.00">+ setValueMap()</text>
<text text-anchor="start" x="8" y="-62.5" font-family="Helvetica,sans-Serif" font-size="10.00">+ containsKey()</text>
<text text-anchor="start" x="8" y="-51.5" font-family="Helvetica,sans-Serif" font-size="10.00">+ getKeyValue()</text>
<text text-anchor="start" x="8" y="-40.5" font-family="Helvetica,sans-Serif" font-size="10.00">+ getId()</text>
<text text-anchor="start" x="8" y="-29.5" font-family="Helvetica,sans-Serif" font-size="10.00">+ keyChanged()</text>
<text text-anchor="start" x="8" y="-18.5" font-family="Helvetica,sans-Serif" font-size="10.00"># getAllKeyValues()</text>
<text text-anchor="start" x="8" y="-7.5" font-family="Helvetica,sans-Serif" font-size="10.00"># getSingleKeyValue()</text>
</a>
</g>
</g>
<!-- Node2 -->
<g id="node2" class="node">
<title>Node2</title>
<g id="a_node2"><a xlink:href="interfacewcmf_1_1lib_1_1config_1_1_action_key_provider.html" target="_top" xlink:title="Implementations of ActionKeyProvider search for action keys.">
<polygon fill="white" stroke="black" points="28,-193.5 28,-272.5 134,-272.5 134,-193.5 28,-193.5"/>
<text text-anchor="middle" x="81" y="-260.5" font-family="Helvetica,sans-Serif" font-size="10.00">ActionKeyProvider</text>
<polyline fill="none" stroke="black" points="28,-253.5 134,-253.5 "/>
<text text-anchor="middle" x="81" y="-241.5" font-family="Helvetica,sans-Serif" font-size="10.00"> </text>
<polyline fill="none" stroke="black" points="28,-234.5 134,-234.5 "/>
<text text-anchor="start" x="36" y="-222.5" font-family="Helvetica,sans-Serif" font-size="10.00">+ containsKey()</text>
<text text-anchor="start" x="36" y="-211.5" font-family="Helvetica,sans-Serif" font-size="10.00">+ getKeyValue()</text>
<text text-anchor="start" x="36" y="-200.5" font-family="Helvetica,sans-Serif" font-size="10.00">+ getId()</text>
</a>
</g>
</g>
<!-- Node2&#45;&gt;Node1 -->
<g id="edge1" class="edge">
<title>Node2&#45;&gt;Node1</title>
<path fill="none" stroke="midnightblue" d="M81,-183.08C81,-174.61 81,-165.62 81,-156.61"/>
<polygon fill="none" stroke="midnightblue" points="77.5,-183.12 81,-193.12 84.5,-183.12 77.5,-183.12"/>
</g>
</g>
</svg>
