<?xml version="1.0" encoding="UTF-8" standalone="no"?>
<!DOCTYPE svg PUBLIC "-//W3C//DTD SVG 1.1//EN"
 "http://www.w3.org/Graphics/SVG/1.1/DTD/svg11.dtd">
<!-- Generated by graphviz version 2.43.0 (0)
 -->
<!-- Title: AbstractLogger Pages: 1 -->
<svg width="292pt" height="507pt"
 viewBox="0.00 0.00 291.50 507.00" xmlns="http://www.w3.org/2000/svg" xmlns:xlink="http://www.w3.org/1999/xlink">
<g id="graph0" class="graph" transform="scale(1 1) rotate(0) translate(4 503)">
<title>AbstractLogger</title>
<polygon fill="white" stroke="transparent" points="-4,4 -4,-503 287.5,-503 287.5,4 -4,4"/>
<!-- Node1 -->
<g id="node1" class="node">
<title>Node1</title>
<g id="a_node1"><a xlink:title="AbstractLogger is the abstract base class for Logger implementations.">
<polygon fill="#bfbfbf" stroke="black" points="77.5,-226.5 77.5,-283.5 186.5,-283.5 186.5,-226.5 77.5,-226.5"/>
<text text-anchor="middle" x="132" y="-271.5" font-family="Helvetica,sans-Serif" font-size="10.00">AbstractLogger</text>
<polyline fill="none" stroke="black" points="77.5,-264.5 186.5,-264.5 "/>
<text text-anchor="middle" x="132" y="-252.5" font-family="Helvetica,sans-Serif" font-size="10.00"> </text>
<polyline fill="none" stroke="black" points="77.5,-245.5 186.5,-245.5 "/>
<text text-anchor="start" x="85.5" y="-233.5" font-family="Helvetica,sans-Serif" font-size="10.00">+ logByErrorType()</text>
</a>
</g>
</g>
<!-- Node3 -->
<g id="node3" class="node">
<title>Node3</title>
<g id="a_node3"><a xlink:href="classwcmf_1_1lib_1_1core_1_1impl_1_1_log4php_logger.html" target="_top" xlink:title="Log4phpLogger is a wrapper for the log4php library.">
<polygon fill="white" stroke="black" points="0,-0.5 0,-189.5 114,-189.5 114,-0.5 0,-0.5"/>
<text text-anchor="middle" x="57" y="-177.5" font-family="Helvetica,sans-Serif" font-size="10.00">Log4phpLogger</text>
<polyline fill="none" stroke="black" points="0,-170.5 114,-170.5 "/>
<text text-anchor="middle" x="57" y="-158.5" font-family="Helvetica,sans-Serif" font-size="10.00"> </text>
<polyline fill="none" stroke="black" points="0,-151.5 114,-151.5 "/>
<text text-anchor="start" x="8" y="-139.5" font-family="Helvetica,sans-Serif" font-size="10.00">+ __construct()</text>
<text text-anchor="start" x="8" y="-128.5" font-family="Helvetica,sans-Serif" font-size="10.00">+ trace()</text>
<text text-anchor="start" x="8" y="-117.5" font-family="Helvetica,sans-Serif" font-size="10.00">+ debug()</text>
<text text-anchor="start" x="8" y="-106.5" font-family="Helvetica,sans-Serif" font-size="10.00">+ info()</text>
<text text-anchor="start" x="8" y="-95.5" font-family="Helvetica,sans-Serif" font-size="10.00">+ warn()</text>
<text text-anchor="start" x="8" y="-84.5" font-family="Helvetica,sans-Serif" font-size="10.00">+ error()</text>
<text text-anchor="start" x="8" y="-73.5" font-family="Helvetica,sans-Serif" font-size="10.00">+ fatal()</text>
<text text-anchor="start" x="8" y="-62.5" font-family="Helvetica,sans-Serif" font-size="10.00">+ isDebugEnabled()</text>
<text text-anchor="start" x="8" y="-51.5" font-family="Helvetica,sans-Serif" font-size="10.00">+ isInfoEnabled()</text>
<text text-anchor="start" x="8" y="-40.5" font-family="Helvetica,sans-Serif" font-size="10.00">+ isWarnEnabled()</text>
<text text-anchor="start" x="8" y="-29.5" font-family="Helvetica,sans-Serif" font-size="10.00">+ isErrorEnabled()</text>
<text text-anchor="start" x="8" y="-18.5" font-family="Helvetica,sans-Serif" font-size="10.00">+ isFatalEnabled()</text>
<text text-anchor="start" x="8" y="-7.5" font-family="Helvetica,sans-Serif" font-size="10.00">+ getLogger()</text>
</a>
</g>
</g>
<!-- Node1&#45;&gt;Node3 -->
<g id="edge2" class="edge">
<title>Node1&#45;&gt;Node3</title>
<path fill="none" stroke="midnightblue" d="M114.59,-217.32C110.56,-208.82 106.08,-199.4 101.47,-189.68"/>
<polygon fill="none" stroke="midnightblue" points="111.49,-218.95 118.94,-226.48 117.81,-215.94 111.49,-218.95"/>
</g>
<!-- Node4 -->
<g id="node4" class="node">
<title>Node4</title>
<g id="a_node4"><a xlink:href="classwcmf_1_1lib_1_1core_1_1impl_1_1_monolog_file_logger.html" target="_top" xlink:title="MonologFileLogger is a wrapper for the Monolog library that logs to files.">
<polygon fill="white" stroke="black" points="132.5,-0.5 132.5,-189.5 283.5,-189.5 283.5,-0.5 132.5,-0.5"/>
<text text-anchor="middle" x="208" y="-177.5" font-family="Helvetica,sans-Serif" font-size="10.00">MonologFileLogger</text>
<polyline fill="none" stroke="black" points="132.5,-170.5 283.5,-170.5 "/>
<text text-anchor="start" x="140.5" y="-158.5" font-family="Helvetica,sans-Serif" font-size="10.00">+ ROOT_SECTION_NAME</text>
<text text-anchor="start" x="140.5" y="-147.5" font-family="Helvetica,sans-Serif" font-size="10.00">+ LOGGER_SECTION_NAME</text>
<polyline fill="none" stroke="black" points="132.5,-140.5 283.5,-140.5 "/>
<text text-anchor="start" x="140.5" y="-128.5" font-family="Helvetica,sans-Serif" font-size="10.00">+ __construct()</text>
<text text-anchor="start" x="140.5" y="-117.5" font-family="Helvetica,sans-Serif" font-size="10.00">+ debug()</text>
<text text-anchor="start" x="140.5" y="-106.5" font-family="Helvetica,sans-Serif" font-size="10.00">+ info()</text>
<text text-anchor="start" x="140.5" y="-95.5" font-family="Helvetica,sans-Serif" font-size="10.00">+ warn()</text>
<text text-anchor="start" x="140.5" y="-84.5" font-family="Helvetica,sans-Serif" font-size="10.00">+ error()</text>
<text text-anchor="start" x="140.5" y="-73.5" font-family="Helvetica,sans-Serif" font-size="10.00">+ fatal()</text>
<text text-anchor="start" x="140.5" y="-62.5" font-family="Helvetica,sans-Serif" font-size="10.00">+ isDebugEnabled()</text>
<text text-anchor="start" x="140.5" y="-51.5" font-family="Helvetica,sans-Serif" font-size="10.00">+ isInfoEnabled()</text>
<text text-anchor="start" x="140.5" y="-40.5" font-family="Helvetica,sans-Serif" font-size="10.00">+ isWarnEnabled()</text>
<text text-anchor="start" x="140.5" y="-29.5" font-family="Helvetica,sans-Serif" font-size="10.00">+ isErrorEnabled()</text>
<text text-anchor="start" x="140.5" y="-18.5" font-family="Helvetica,sans-Serif" font-size="10.00">+ isFatalEnabled()</text>
<text text-anchor="start" x="140.5" y="-7.5" font-family="Helvetica,sans-Serif" font-size="10.00">+ getLogger()</text>
</a>
</g>
</g>
<!-- Node1&#45;&gt;Node4 -->
<g id="edge3" class="edge">
<title>Node1&#45;&gt;Node4</title>
<path fill="none" stroke="midnightblue" d="M149.65,-217.32C153.73,-208.82 158.26,-199.4 162.94,-189.68"/>
<polygon fill="none" stroke="midnightblue" points="146.42,-215.95 145.24,-226.48 152.73,-218.98 146.42,-215.95"/>
</g>
<!-- Node2 -->
<g id="node2" class="node">
<title>Node2</title>
<g id="a_node2"><a xlink:href="interfacewcmf_1_1lib_1_1core_1_1_logger.html" target="_top" xlink:title="Interface for logger implementations.">
<polygon fill="white" stroke="black" points="75,-320.5 75,-498.5 189,-498.5 189,-320.5 75,-320.5"/>
<text text-anchor="middle" x="132" y="-486.5" font-family="Helvetica,sans-Serif" font-size="10.00">Logger</text>
<polyline fill="none" stroke="black" points="75,-479.5 189,-479.5 "/>
<text text-anchor="middle" x="132" y="-467.5" font-family="Helvetica,sans-Serif" font-size="10.00"> </text>
<polyline fill="none" stroke="black" points="75,-460.5 189,-460.5 "/>
<text text-anchor="start" x="83" y="-448.5" font-family="Helvetica,sans-Serif" font-size="10.00">+ debug()</text>
<text text-anchor="start" x="83" y="-437.5" font-family="Helvetica,sans-Serif" font-size="10.00">+ info()</text>
<text text-anchor="start" x="83" y="-426.5" font-family="Helvetica,sans-Serif" font-size="10.00">+ warn()</text>
<text text-anchor="start" x="83" y="-415.5" font-family="Helvetica,sans-Serif" font-size="10.00">+ error()</text>
<text text-anchor="start" x="83" y="-404.5" font-family="Helvetica,sans-Serif" font-size="10.00">+ fatal()</text>
<text text-anchor="start" x="83" y="-393.5" font-family="Helvetica,sans-Serif" font-size="10.00">+ isDebugEnabled()</text>
<text text-anchor="start" x="83" y="-382.5" font-family="Helvetica,sans-Serif" font-size="10.00">+ isInfoEnabled()</text>
<text text-anchor="start" x="83" y="-371.5" font-family="Helvetica,sans-Serif" font-size="10.00">+ isWarnEnabled()</text>
<text text-anchor="start" x="83" y="-360.5" font-family="Helvetica,sans-Serif" font-size="10.00">+ isErrorEnabled()</text>
<text text-anchor="start" x="83" y="-349.5" font-family="Helvetica,sans-Serif" font-size="10.00">+ isFatalEnabled()</text>
<text text-anchor="start" x="83" y="-338.5" font-family="Helvetica,sans-Serif" font-size="10.00">+ logByErrorType()</text>
<text text-anchor="start" x="83" y="-327.5" font-family="Helvetica,sans-Serif" font-size="10.00">+ getLogger()</text>
</a>
</g>
</g>
<!-- Node2&#45;&gt;Node1 -->
<g id="edge1" class="edge">
<title>Node2&#45;&gt;Node1</title>
<path fill="none" stroke="midnightblue" d="M132,-310.17C132,-300.66 132,-291.65 132,-283.81"/>
<polygon fill="none" stroke="midnightblue" points="128.5,-310.23 132,-320.23 135.5,-310.23 128.5,-310.23"/>
</g>
</g>
</svg>
