<?xml version="1.0" encoding="UTF-8" standalone="no"?>
<!DOCTYPE svg PUBLIC "-//W3C//DTD SVG 1.1//EN"
 "http://www.w3.org/Graphics/SVG/1.1/DTD/svg11.dtd">
<!-- Generated by graphviz version 2.43.0 (0)
 -->
<!-- Title: ChainedPermissionManager Pages: 1 -->
<svg width="244pt" height="672pt"
 viewBox="0.00 0.00 244.00 672.00" xmlns="http://www.w3.org/2000/svg" xmlns:xlink="http://www.w3.org/1999/xlink">
<g id="graph0" class="graph" transform="scale(1 1) rotate(0) translate(4 668)">
<title>ChainedPermissionManager</title>
<polygon fill="white" stroke="transparent" points="-4,4 -4,-668 240,-668 240,4 -4,4"/>
<!-- Node1 -->
<g id="node1" class="node">
<title>Node1</title>
<g id="a_node1"><a xlink:title="ChainedPermissionManager retrieves authorization rules included managers.">
<polygon fill="#bfbfbf" stroke="black" points="11,-0.5 11,-101.5 164,-101.5 164,-0.5 11,-0.5"/>
<text text-anchor="middle" x="87.5" y="-89.5" font-family="Helvetica,sans-Serif" font-size="10.00">ChainedPermissionManager</text>
<polyline fill="none" stroke="black" points="11,-82.5 164,-82.5 "/>
<text text-anchor="middle" x="87.5" y="-70.5" font-family="Helvetica,sans-Serif" font-size="10.00"> </text>
<polyline fill="none" stroke="black" points="11,-63.5 164,-63.5 "/>
<text text-anchor="start" x="19" y="-51.5" font-family="Helvetica,sans-Serif" font-size="10.00">+ setManagers()</text>
<text text-anchor="start" x="19" y="-40.5" font-family="Helvetica,sans-Serif" font-size="10.00">+ getPermissions()</text>
<text text-anchor="start" x="19" y="-29.5" font-family="Helvetica,sans-Serif" font-size="10.00">+ setPermissions()</text>
<text text-anchor="start" x="19" y="-18.5" font-family="Helvetica,sans-Serif" font-size="10.00">+ createPermission()</text>
<text text-anchor="start" x="19" y="-7.5" font-family="Helvetica,sans-Serif" font-size="10.00">+ removePermission()</text>
</a>
</g>
</g>
<!-- Node2 -->
<g id="node2" class="node">
<title>Node2</title>
<g id="a_node2"><a xlink:href="classwcmf_1_1lib_1_1security_1_1impl_1_1_abstract_permission_manager.html" target="_top" xlink:title="AbstractPermissionManager is the base class for concrete PermissionManager implementations.">
<polygon fill="white" stroke="black" points="57,-138.5 57,-459.5 236,-459.5 236,-138.5 57,-138.5"/>
<text text-anchor="middle" x="146.5" y="-447.5" font-family="Helvetica,sans-Serif" font-size="10.00">AbstractPermissionManager</text>
<polyline fill="none" stroke="black" points="57,-440.5 236,-440.5 "/>
<text text-anchor="start" x="65" y="-428.5" font-family="Helvetica,sans-Serif" font-size="10.00">+ RESOURCE_TYPE_ENTITY_TYPE</text>
<text text-anchor="start" x="65" y="-417.5" font-family="Helvetica,sans-Serif" font-size="10.00">+ RESOURCE_TYPE_ENTITY</text>
<text text-anchor="start" x="65" y="-406.5" font-family="Helvetica,sans-Serif" font-size="10.00">_TYPE_PROPERTY</text>
<text text-anchor="start" x="65" y="-395.5" font-family="Helvetica,sans-Serif" font-size="10.00">+ RESOURCE_TYPE_ENTITY</text>
<text text-anchor="start" x="65" y="-384.5" font-family="Helvetica,sans-Serif" font-size="10.00">_INSTANCE</text>
<text text-anchor="start" x="65" y="-373.5" font-family="Helvetica,sans-Serif" font-size="10.00">+ RESOURCE_TYPE_ENTITY</text>
<text text-anchor="start" x="65" y="-362.5" font-family="Helvetica,sans-Serif" font-size="10.00">_INSTANCE_PROPERTY</text>
<text text-anchor="start" x="65" y="-351.5" font-family="Helvetica,sans-Serif" font-size="10.00">+ RESOURCE_TYPE_OTHER</text>
<text text-anchor="start" x="65" y="-340.5" font-family="Helvetica,sans-Serif" font-size="10.00"># $persistenceFacade</text>
<text text-anchor="start" x="65" y="-329.5" font-family="Helvetica,sans-Serif" font-size="10.00"># $session</text>
<text text-anchor="start" x="65" y="-318.5" font-family="Helvetica,sans-Serif" font-size="10.00"># $dynamicRoles</text>
<text text-anchor="start" x="65" y="-307.5" font-family="Helvetica,sans-Serif" font-size="10.00"># $principalFactory</text>
<polyline fill="none" stroke="black" points="57,-300.5 236,-300.5 "/>
<text text-anchor="start" x="65" y="-288.5" font-family="Helvetica,sans-Serif" font-size="10.00">+ __construct()</text>
<text text-anchor="start" x="65" y="-277.5" font-family="Helvetica,sans-Serif" font-size="10.00">+ setPrincipalFactory()</text>
<text text-anchor="start" x="65" y="-266.5" font-family="Helvetica,sans-Serif" font-size="10.00">+ authorize()</text>
<text text-anchor="start" x="65" y="-255.5" font-family="Helvetica,sans-Serif" font-size="10.00">+ addTempPermission()</text>
<text text-anchor="start" x="65" y="-244.5" font-family="Helvetica,sans-Serif" font-size="10.00">+ removeTempPermission()</text>
<text text-anchor="start" x="65" y="-233.5" font-family="Helvetica,sans-Serif" font-size="10.00">+ hasTempPermission()</text>
<text text-anchor="start" x="65" y="-222.5" font-family="Helvetica,sans-Serif" font-size="10.00">+ clearTempPermissions()</text>
<text text-anchor="start" x="65" y="-211.5" font-family="Helvetica,sans-Serif" font-size="10.00"># authorizeAction()</text>
<text text-anchor="start" x="65" y="-200.5" font-family="Helvetica,sans-Serif" font-size="10.00"># getDefaultPolicy()</text>
<text text-anchor="start" x="65" y="-189.5" font-family="Helvetica,sans-Serif" font-size="10.00"># parseResource()</text>
<text text-anchor="start" x="65" y="-178.5" font-family="Helvetica,sans-Serif" font-size="10.00"># deserializePermissions()</text>
<text text-anchor="start" x="65" y="-167.5" font-family="Helvetica,sans-Serif" font-size="10.00"># serializePermissions()</text>
<text text-anchor="start" x="65" y="-156.5" font-family="Helvetica,sans-Serif" font-size="10.00"># matchRoles()</text>
<text text-anchor="start" x="65" y="-145.5" font-family="Helvetica,sans-Serif" font-size="10.00"># matchRole()</text>
</a>
</g>
</g>
<!-- Node2&#45;&gt;Node1 -->
<g id="edge1" class="edge">
<title>Node2&#45;&gt;Node1</title>
<path fill="none" stroke="midnightblue" d="M105.82,-128.41C103.56,-118.97 101.4,-109.96 99.41,-101.65"/>
<polygon fill="none" stroke="midnightblue" points="102.48,-129.48 108.22,-138.38 109.29,-127.84 102.48,-129.48"/>
</g>
<!-- Node3 -->
<g id="node3" class="node">
<title>Node3</title>
<g id="a_node3"><a xlink:href="interfacewcmf_1_1lib_1_1security_1_1_permission_manager.html" target="_top" xlink:title="PermissionManager implementations are used to handle all authorization requests.">
<polygon fill="white" stroke="black" points="0,-496.5 0,-663.5 175,-663.5 175,-496.5 0,-496.5"/>
<text text-anchor="middle" x="87.5" y="-651.5" font-family="Helvetica,sans-Serif" font-size="10.00">PermissionManager</text>
<polyline fill="none" stroke="black" points="0,-644.5 175,-644.5 "/>
<text text-anchor="start" x="8" y="-632.5" font-family="Helvetica,sans-Serif" font-size="10.00">+ PERMISSION_MODIFIER</text>
<text text-anchor="start" x="8" y="-621.5" font-family="Helvetica,sans-Serif" font-size="10.00">_ALLOW</text>
<text text-anchor="start" x="8" y="-610.5" font-family="Helvetica,sans-Serif" font-size="10.00">+ PERMISSION_MODIFIER_DENY</text>
<polyline fill="none" stroke="black" points="0,-603.5 175,-603.5 "/>
<text text-anchor="start" x="8" y="-591.5" font-family="Helvetica,sans-Serif" font-size="10.00">+ authorize()</text>
<text text-anchor="start" x="8" y="-580.5" font-family="Helvetica,sans-Serif" font-size="10.00">+ addTempPermission()</text>
<text text-anchor="start" x="8" y="-569.5" font-family="Helvetica,sans-Serif" font-size="10.00">+ removeTempPermission()</text>
<text text-anchor="start" x="8" y="-558.5" font-family="Helvetica,sans-Serif" font-size="10.00">+ hasTempPermission()</text>
<text text-anchor="start" x="8" y="-547.5" font-family="Helvetica,sans-Serif" font-size="10.00">+ clearTempPermissions()</text>
<text text-anchor="start" x="8" y="-536.5" font-family="Helvetica,sans-Serif" font-size="10.00">+ getPermissions()</text>
<text text-anchor="start" x="8" y="-525.5" font-family="Helvetica,sans-Serif" font-size="10.00">+ setPermissions()</text>
<text text-anchor="start" x="8" y="-514.5" font-family="Helvetica,sans-Serif" font-size="10.00">+ createPermission()</text>
<text text-anchor="start" x="8" y="-503.5" font-family="Helvetica,sans-Serif" font-size="10.00">+ removePermission()</text>
</a>
</g>
</g>
<!-- Node3&#45;&gt;Node1 -->
<g id="edge3" class="edge">
<title>Node3&#45;&gt;Node1</title>
<path fill="none" stroke="midnightblue" d="M54.04,-486.36C51.8,-477.54 49.88,-468.66 48.5,-460 25.93,-318.68 18.26,-277.88 48.5,-138 51.13,-125.82 55.64,-113.29 60.68,-101.7"/>
<polygon fill="none" stroke="midnightblue" points="50.73,-487.53 56.71,-496.28 57.49,-485.72 50.73,-487.53"/>
</g>
<!-- Node3&#45;&gt;Node2 -->
<g id="edge2" class="edge">
<title>Node3&#45;&gt;Node2</title>
<path fill="none" stroke="midnightblue" d="M107.09,-486.38C108.92,-477.71 110.81,-468.77 112.73,-459.71"/>
<polygon fill="none" stroke="midnightblue" points="103.61,-485.92 104.96,-496.42 110.46,-487.36 103.61,-485.92"/>
</g>
</g>
</svg>
