<?xml version="1.0" encoding="UTF-8" standalone="no"?>
<!DOCTYPE svg PUBLIC "-//W3C//DTD SVG 1.1//EN"
 "http://www.w3.org/Graphics/SVG/1.1/DTD/svg11.dtd">
<!-- Generated by graphviz version 2.43.0 (0)
 -->
<!-- Title: DotOutputStrategy Pages: 1 -->
<svg width="147pt" height="226pt"
 viewBox="0.00 0.00 147.00 226.00" xmlns="http://www.w3.org/2000/svg" xmlns:xlink="http://www.w3.org/1999/xlink">
<g id="graph0" class="graph" transform="scale(1 1) rotate(0) translate(4 222)">
<title>DotOutputStrategy</title>
<polygon fill="white" stroke="transparent" points="-4,4 -4,-222 143,-222 143,4 -4,4"/>
<!-- Node1 -->
<g id="node1" class="node">
<title>Node1</title>
<g id="a_node1"><a xlink:title="DotOutputStrategy outputs an object&#39;s content in a dot file.">
<polygon fill="#bfbfbf" stroke="black" points="0,-0.5 0,-101.5 139,-101.5 139,-0.5 0,-0.5"/>
<text text-anchor="middle" x="69.5" y="-89.5" font-family="Helvetica,sans-Serif" font-size="10.00">DotOutputStrategy</text>
<polyline fill="none" stroke="black" points="0,-82.5 139,-82.5 "/>
<text text-anchor="start" x="8" y="-70.5" font-family="Helvetica,sans-Serif" font-size="10.00">+ DEFAULT_NODE_STYLE</text>
<text text-anchor="start" x="8" y="-59.5" font-family="Helvetica,sans-Serif" font-size="10.00">+ DEFAULT_EDGE_STYLE</text>
<polyline fill="none" stroke="black" points="0,-52.5 139,-52.5 "/>
<text text-anchor="start" x="8" y="-40.5" font-family="Helvetica,sans-Serif" font-size="10.00">+ __construct()</text>
<text text-anchor="start" x="8" y="-29.5" font-family="Helvetica,sans-Serif" font-size="10.00">+ writeHeader()</text>
<text text-anchor="start" x="8" y="-18.5" font-family="Helvetica,sans-Serif" font-size="10.00">+ writeFooter()</text>
<text text-anchor="start" x="8" y="-7.5" font-family="Helvetica,sans-Serif" font-size="10.00">+ writeObject()</text>
</a>
</g>
</g>
<!-- Node2 -->
<g id="node2" class="node">
<title>Node2</title>
<g id="a_node2"><a xlink:href="interfacewcmf_1_1lib_1_1persistence_1_1output_1_1_output_strategy.html" target="_top" xlink:title="OutputStrategy defines the interface for classes that write an object&#39;s content to a destination (cal...">
<polygon fill="white" stroke="black" points="22,-138.5 22,-217.5 117,-217.5 117,-138.5 22,-138.5"/>
<text text-anchor="middle" x="69.5" y="-205.5" font-family="Helvetica,sans-Serif" font-size="10.00">OutputStrategy</text>
<polyline fill="none" stroke="black" points="22,-198.5 117,-198.5 "/>
<text text-anchor="middle" x="69.5" y="-186.5" font-family="Helvetica,sans-Serif" font-size="10.00"> </text>
<polyline fill="none" stroke="black" points="22,-179.5 117,-179.5 "/>
<text text-anchor="start" x="30" y="-167.5" font-family="Helvetica,sans-Serif" font-size="10.00">+ writeHeader()</text>
<text text-anchor="start" x="30" y="-156.5" font-family="Helvetica,sans-Serif" font-size="10.00">+ writeFooter()</text>
<text text-anchor="start" x="30" y="-145.5" font-family="Helvetica,sans-Serif" font-size="10.00">+ writeObject()</text>
</a>
</g>
</g>
<!-- Node2&#45;&gt;Node1 -->
<g id="edge1" class="edge">
<title>Node2&#45;&gt;Node1</title>
<path fill="none" stroke="midnightblue" d="M69.5,-128.41C69.5,-119.64 69.5,-110.49 69.5,-101.69"/>
<polygon fill="none" stroke="midnightblue" points="66,-128.48 69.5,-138.48 73,-128.48 66,-128.48"/>
</g>
</g>
</svg>
