<?xml version="1.0" encoding="UTF-8" standalone="no"?>
<!DOCTYPE svg PUBLIC "-//W3C//DTD SVG 1.1//EN"
 "http://www.w3.org/Graphics/SVG/1.1/DTD/svg11.dtd">
<!-- Generated by graphviz version 2.43.0 (0)
 -->
<!-- Title: PersistenceOperation Pages: 1 -->
<svg width="334pt" height="226pt"
 viewBox="0.00 0.00 333.50 226.00" xmlns="http://www.w3.org/2000/svg" xmlns:xlink="http://www.w3.org/1999/xlink">
<g id="graph0" class="graph" transform="scale(1 1) rotate(0) translate(4 222)">
<title>PersistenceOperation</title>
<polygon fill="white" stroke="transparent" points="-4,4 -4,-222 329.5,-222 329.5,4 -4,4"/>
<!-- Node1 -->
<g id="node1" class="node">
<title>Node1</title>
<g id="a_node1"><a xlink:title="A PersistenceOperation instance holds data necessary to accomplish an operation on the persistent sto...">
<polygon fill="#bfbfbf" stroke="black" points="101,-94.5 101,-217.5 222,-217.5 222,-94.5 101,-94.5"/>
<text text-anchor="middle" x="161.5" y="-205.5" font-family="Helvetica,sans-Serif" font-size="10.00">PersistenceOperation</text>
<polyline fill="none" stroke="black" points="101,-198.5 222,-198.5 "/>
<text text-anchor="start" x="109" y="-186.5" font-family="Helvetica,sans-Serif" font-size="10.00"># $type</text>
<text text-anchor="start" x="109" y="-175.5" font-family="Helvetica,sans-Serif" font-size="10.00"># $values</text>
<text text-anchor="start" x="109" y="-164.5" font-family="Helvetica,sans-Serif" font-size="10.00"># $criteria</text>
<polyline fill="none" stroke="black" points="101,-157.5 222,-157.5 "/>
<text text-anchor="start" x="109" y="-145.5" font-family="Helvetica,sans-Serif" font-size="10.00">+ __construct()</text>
<text text-anchor="start" x="109" y="-134.5" font-family="Helvetica,sans-Serif" font-size="10.00">+ getType()</text>
<text text-anchor="start" x="109" y="-123.5" font-family="Helvetica,sans-Serif" font-size="10.00">+ getValues()</text>
<text text-anchor="start" x="109" y="-112.5" font-family="Helvetica,sans-Serif" font-size="10.00">+ getCriteria()</text>
<text text-anchor="start" x="109" y="-101.5" font-family="Helvetica,sans-Serif" font-size="10.00">+ __toString()</text>
</a>
</g>
</g>
<!-- Node2 -->
<g id="node2" class="node">
<title>Node2</title>
<g id="a_node2"><a xlink:href="classwcmf_1_1lib_1_1persistence_1_1_delete_operation.html" target="_top" xlink:title="DeleteOperation holds data necessary to accomplish an delete operation on the persistent store.">
<polygon fill="white" stroke="black" points="0,-0.5 0,-57.5 97,-57.5 97,-0.5 0,-0.5"/>
<text text-anchor="middle" x="48.5" y="-45.5" font-family="Helvetica,sans-Serif" font-size="10.00">DeleteOperation</text>
<polyline fill="none" stroke="black" points="0,-38.5 97,-38.5 "/>
<text text-anchor="middle" x="48.5" y="-26.5" font-family="Helvetica,sans-Serif" font-size="10.00"> </text>
<polyline fill="none" stroke="black" points="0,-19.5 97,-19.5 "/>
<text text-anchor="start" x="8" y="-7.5" font-family="Helvetica,sans-Serif" font-size="10.00">+ __construct()</text>
</a>
</g>
</g>
<!-- Node1&#45;&gt;Node2 -->
<g id="edge1" class="edge">
<title>Node1&#45;&gt;Node2</title>
<path fill="none" stroke="midnightblue" d="M99.87,-86.83C90.58,-76.55 81.48,-66.48 73.58,-57.74"/>
<polygon fill="none" stroke="midnightblue" points="97.35,-89.26 106.66,-94.33 102.55,-84.57 97.35,-89.26"/>
</g>
<!-- Node3 -->
<g id="node3" class="node">
<title>Node3</title>
<g id="a_node3"><a xlink:href="classwcmf_1_1lib_1_1persistence_1_1_insert_operation.html" target="_top" xlink:title="InsertOperation holds data necessary to accomplish an insert operation on the persistent store.">
<polygon fill="white" stroke="black" points="115.5,-0.5 115.5,-57.5 207.5,-57.5 207.5,-0.5 115.5,-0.5"/>
<text text-anchor="middle" x="161.5" y="-45.5" font-family="Helvetica,sans-Serif" font-size="10.00">InsertOperation</text>
<polyline fill="none" stroke="black" points="115.5,-38.5 207.5,-38.5 "/>
<text text-anchor="middle" x="161.5" y="-26.5" font-family="Helvetica,sans-Serif" font-size="10.00"> </text>
<polyline fill="none" stroke="black" points="115.5,-19.5 207.5,-19.5 "/>
<text text-anchor="start" x="123.5" y="-7.5" font-family="Helvetica,sans-Serif" font-size="10.00">+ __construct()</text>
</a>
</g>
</g>
<!-- Node1&#45;&gt;Node3 -->
<g id="edge2" class="edge">
<title>Node1&#45;&gt;Node3</title>
<path fill="none" stroke="midnightblue" d="M161.5,-84.14C161.5,-74.8 161.5,-65.71 161.5,-57.74"/>
<polygon fill="none" stroke="midnightblue" points="158,-84.33 161.5,-94.33 165,-84.33 158,-84.33"/>
</g>
<!-- Node4 -->
<g id="node4" class="node">
<title>Node4</title>
<g id="a_node4"><a xlink:href="classwcmf_1_1lib_1_1persistence_1_1_update_operation.html" target="_top" xlink:title="UpdateOperation instances hold data necessary to accomplish an update operation on the persistent sto...">
<polygon fill="white" stroke="black" points="225.5,-0.5 225.5,-57.5 325.5,-57.5 325.5,-0.5 225.5,-0.5"/>
<text text-anchor="middle" x="275.5" y="-45.5" font-family="Helvetica,sans-Serif" font-size="10.00">UpdateOperation</text>
<polyline fill="none" stroke="black" points="225.5,-38.5 325.5,-38.5 "/>
<text text-anchor="middle" x="275.5" y="-26.5" font-family="Helvetica,sans-Serif" font-size="10.00"> </text>
<polyline fill="none" stroke="black" points="225.5,-19.5 325.5,-19.5 "/>
<text text-anchor="middle" x="275.5" y="-7.5" font-family="Helvetica,sans-Serif" font-size="10.00"> </text>
</a>
</g>
</g>
<!-- Node1&#45;&gt;Node4 -->
<g id="edge3" class="edge">
<title>Node1&#45;&gt;Node4</title>
<path fill="none" stroke="midnightblue" d="M223.67,-86.83C233.05,-76.55 242.23,-66.48 250.2,-57.74"/>
<polygon fill="none" stroke="midnightblue" points="220.98,-84.58 216.83,-94.33 226.15,-89.3 220.98,-84.58"/>
</g>
</g>
</svg>
