<?xml version="1.0" encoding="UTF-8" standalone="no"?>
<!DOCTYPE svg PUBLIC "-//W3C//DTD SVG 1.1//EN"
 "http://www.w3.org/Graphics/SVG/1.1/DTD/svg11.dtd">
<!-- Generated by graphviz version 2.43.0 (0)
 -->
<!-- Title: FileCache Pages: 1 -->
<svg width="103pt" height="292pt"
 viewBox="0.00 0.00 103.00 292.00" xmlns="http://www.w3.org/2000/svg" xmlns:xlink="http://www.w3.org/1999/xlink">
<g id="graph0" class="graph" transform="scale(1 1) rotate(0) translate(4 288)">
<title>FileCache</title>
<polygon fill="white" stroke="transparent" points="-4,4 -4,-288 99,-288 99,4 -4,4"/>
<!-- Node1 -->
<g id="node1" class="node">
<title>Node1</title>
<g id="a_node1"><a xlink:title="FileCache provides simple caching functionality.">
<polygon fill="#bfbfbf" stroke="black" points="0,-0.5 0,-134.5 95,-134.5 95,-0.5 0,-0.5"/>
<text text-anchor="middle" x="47.5" y="-122.5" font-family="Helvetica,sans-Serif" font-size="10.00">FileCache</text>
<polyline fill="none" stroke="black" points="0,-115.5 95,-115.5 "/>
<text text-anchor="middle" x="47.5" y="-103.5" font-family="Helvetica,sans-Serif" font-size="10.00"> </text>
<polyline fill="none" stroke="black" points="0,-96.5 95,-96.5 "/>
<text text-anchor="start" x="8" y="-84.5" font-family="Helvetica,sans-Serif" font-size="10.00">+ __construct()</text>
<text text-anchor="start" x="8" y="-73.5" font-family="Helvetica,sans-Serif" font-size="10.00">+ setCacheDir()</text>
<text text-anchor="start" x="8" y="-62.5" font-family="Helvetica,sans-Serif" font-size="10.00">+ exists()</text>
<text text-anchor="start" x="8" y="-51.5" font-family="Helvetica,sans-Serif" font-size="10.00">+ getDate()</text>
<text text-anchor="start" x="8" y="-40.5" font-family="Helvetica,sans-Serif" font-size="10.00">+ get()</text>
<text text-anchor="start" x="8" y="-29.5" font-family="Helvetica,sans-Serif" font-size="10.00">+ put()</text>
<text text-anchor="start" x="8" y="-18.5" font-family="Helvetica,sans-Serif" font-size="10.00">+ clear()</text>
<text text-anchor="start" x="8" y="-7.5" font-family="Helvetica,sans-Serif" font-size="10.00">+ clearAll()</text>
</a>
</g>
</g>
<!-- Node2 -->
<g id="node2" class="node">
<title>Node2</title>
<g id="a_node2"><a xlink:href="interfacewcmf_1_1lib_1_1io_1_1_cache.html" target="_top" xlink:title="Cache defines the interface for cache implementations.">
<polygon fill="white" stroke="black" points="10.5,-171.5 10.5,-283.5 84.5,-283.5 84.5,-171.5 10.5,-171.5"/>
<text text-anchor="middle" x="47.5" y="-271.5" font-family="Helvetica,sans-Serif" font-size="10.00">Cache</text>
<polyline fill="none" stroke="black" points="10.5,-264.5 84.5,-264.5 "/>
<text text-anchor="middle" x="47.5" y="-252.5" font-family="Helvetica,sans-Serif" font-size="10.00"> </text>
<polyline fill="none" stroke="black" points="10.5,-245.5 84.5,-245.5 "/>
<text text-anchor="start" x="18.5" y="-233.5" font-family="Helvetica,sans-Serif" font-size="10.00">+ exists()</text>
<text text-anchor="start" x="18.5" y="-222.5" font-family="Helvetica,sans-Serif" font-size="10.00">+ getDate()</text>
<text text-anchor="start" x="18.5" y="-211.5" font-family="Helvetica,sans-Serif" font-size="10.00">+ get()</text>
<text text-anchor="start" x="18.5" y="-200.5" font-family="Helvetica,sans-Serif" font-size="10.00">+ put()</text>
<text text-anchor="start" x="18.5" y="-189.5" font-family="Helvetica,sans-Serif" font-size="10.00">+ clear()</text>
<text text-anchor="start" x="18.5" y="-178.5" font-family="Helvetica,sans-Serif" font-size="10.00">+ clearAll()</text>
</a>
</g>
</g>
<!-- Node2&#45;&gt;Node1 -->
<g id="edge1" class="edge">
<title>Node2&#45;&gt;Node1</title>
<path fill="none" stroke="midnightblue" d="M47.5,-161.09C47.5,-152.34 47.5,-143.35 47.5,-134.59"/>
<polygon fill="none" stroke="midnightblue" points="44,-161.24 47.5,-171.24 51,-161.24 44,-161.24"/>
</g>
</g>
</svg>
