<?xml version="1.0" encoding="UTF-8" standalone="no"?>
<!DOCTYPE svg PUBLIC "-//W3C//DTD SVG 1.1//EN"
 "http://www.w3.org/Graphics/SVG/1.1/DTD/svg11.dtd">
<!-- Generated by graphviz version 2.43.0 (0)
 -->
<!-- Title: ValueChangeEvent Pages: 1 -->
<svg width="123pt" height="215pt"
 viewBox="0.00 0.00 123.00 215.00" xmlns="http://www.w3.org/2000/svg" xmlns:xlink="http://www.w3.org/1999/xlink">
<g id="graph0" class="graph" transform="scale(1 1) rotate(0) translate(4 211)">
<title>ValueChangeEvent</title>
<polygon fill="white" stroke="transparent" points="-4,4 -4,-211 119,-211 119,4 -4,4"/>
<!-- Node1 -->
<g id="node1" class="node">
<title>Node1</title>
<g id="a_node1"><a xlink:title="ValueChangeEvent signals a change of a value of a PersistentObject instance.">
<polygon fill="#bfbfbf" stroke="black" points="3.5,-0.5 3.5,-101.5 111.5,-101.5 111.5,-0.5 3.5,-0.5"/>
<text text-anchor="middle" x="57.5" y="-89.5" font-family="Helvetica,sans-Serif" font-size="10.00">ValueChangeEvent</text>
<polyline fill="none" stroke="black" points="3.5,-82.5 111.5,-82.5 "/>
<text text-anchor="start" x="11.5" y="-70.5" font-family="Helvetica,sans-Serif" font-size="10.00">+ NAME</text>
<polyline fill="none" stroke="black" points="3.5,-63.5 111.5,-63.5 "/>
<text text-anchor="start" x="11.5" y="-51.5" font-family="Helvetica,sans-Serif" font-size="10.00">+ __construct()</text>
<text text-anchor="start" x="11.5" y="-40.5" font-family="Helvetica,sans-Serif" font-size="10.00">+ getObject()</text>
<text text-anchor="start" x="11.5" y="-29.5" font-family="Helvetica,sans-Serif" font-size="10.00">+ getValueName()</text>
<text text-anchor="start" x="11.5" y="-18.5" font-family="Helvetica,sans-Serif" font-size="10.00">+ getOldValue()</text>
<text text-anchor="start" x="11.5" y="-7.5" font-family="Helvetica,sans-Serif" font-size="10.00">+ getNewValue()</text>
</a>
</g>
</g>
<!-- Node2 -->
<g id="node2" class="node">
<title>Node2</title>
<g id="a_node2"><a xlink:href="classwcmf_1_1lib_1_1core_1_1_event.html" target="_top" xlink:title="Event is the base class for all events.">
<polygon fill="white" stroke="black" points="0,-138.5 0,-206.5 115,-206.5 115,-138.5 0,-138.5"/>
<text text-anchor="middle" x="57.5" y="-194.5" font-family="Helvetica,sans-Serif" font-size="10.00">Event</text>
<polyline fill="none" stroke="black" points="0,-187.5 115,-187.5 "/>
<text text-anchor="middle" x="57.5" y="-175.5" font-family="Helvetica,sans-Serif" font-size="10.00"> </text>
<polyline fill="none" stroke="black" points="0,-168.5 115,-168.5 "/>
<text text-anchor="start" x="8" y="-156.5" font-family="Helvetica,sans-Serif" font-size="10.00">+ stopPropagation()</text>
<text text-anchor="start" x="8" y="-145.5" font-family="Helvetica,sans-Serif" font-size="10.00">+ isStopped()</text>
</a>
</g>
</g>
<!-- Node2&#45;&gt;Node1 -->
<g id="edge1" class="edge">
<title>Node2&#45;&gt;Node1</title>
<path fill="none" stroke="midnightblue" d="M57.5,-128.05C57.5,-119.47 57.5,-110.41 57.5,-101.65"/>
<polygon fill="none" stroke="midnightblue" points="54,-128.21 57.5,-138.21 61,-128.21 54,-128.21"/>
</g>
</g>
</svg>
