<?xml version="1.0" encoding="UTF-8" standalone="no"?>
<!DOCTYPE svg PUBLIC "-//W3C//DTD SVG 1.1//EN"
 "http://www.w3.org/Graphics/SVG/1.1/DTD/svg11.dtd">
<!-- Generated by graphviz version 2.43.0 (0)
 -->
<!-- Title: SoapFormat Pages: 1 -->
<svg width="147pt" height="645pt"
 viewBox="0.00 0.00 147.00 645.00" xmlns="http://www.w3.org/2000/svg" xmlns:xlink="http://www.w3.org/1999/xlink">
<g id="graph0" class="graph" transform="scale(1 1) rotate(0) translate(4 641)">
<title>SoapFormat</title>
<polygon fill="white" stroke="transparent" points="-4,4 -4,-641 143,-641 143,4 -4,4"/>
<!-- Node1 -->
<g id="node1" class="node">
<title>Node1</title>
<g id="a_node1"><a xlink:title="SoapFormat implements the SOAP request/response format.">
<polygon fill="#bfbfbf" stroke="black" points="11,-0.5 11,-134.5 128,-134.5 128,-0.5 11,-0.5"/>
<text text-anchor="middle" x="69.5" y="-122.5" font-family="Helvetica,sans-Serif" font-size="10.00">SoapFormat</text>
<polyline fill="none" stroke="black" points="11,-115.5 128,-115.5 "/>
<text text-anchor="start" x="19" y="-103.5" font-family="Helvetica,sans-Serif" font-size="10.00"># $serializer</text>
<polyline fill="none" stroke="black" points="11,-96.5 128,-96.5 "/>
<text text-anchor="start" x="19" y="-84.5" font-family="Helvetica,sans-Serif" font-size="10.00">+ __construct()</text>
<text text-anchor="start" x="19" y="-73.5" font-family="Helvetica,sans-Serif" font-size="10.00">+ getMimeType()</text>
<text text-anchor="start" x="19" y="-62.5" font-family="Helvetica,sans-Serif" font-size="10.00">+ isCached()</text>
<text text-anchor="start" x="19" y="-51.5" font-family="Helvetica,sans-Serif" font-size="10.00">+ getCacheDate()</text>
<text text-anchor="start" x="19" y="-40.5" font-family="Helvetica,sans-Serif" font-size="10.00">+ setSerializer()</text>
<text text-anchor="start" x="19" y="-29.5" font-family="Helvetica,sans-Serif" font-size="10.00"># isSerializedNode()</text>
<text text-anchor="start" x="19" y="-18.5" font-family="Helvetica,sans-Serif" font-size="10.00"># serializeNode()</text>
<text text-anchor="start" x="19" y="-7.5" font-family="Helvetica,sans-Serif" font-size="10.00"># deserializeNode()</text>
</a>
</g>
</g>
<!-- Node2 -->
<g id="node2" class="node">
<title>Node2</title>
<g id="a_node2"><a xlink:href="classwcmf_1_1lib_1_1presentation_1_1format_1_1impl_1_1_hierarchical_format.html" target="_top" xlink:title="HierarchicalFormat is used as base class for formats that are able to represent hierarchical data lik...">
<polygon fill="white" stroke="black" points="4.5,-171.5 4.5,-283.5 134.5,-283.5 134.5,-171.5 4.5,-171.5"/>
<text text-anchor="middle" x="69.5" y="-271.5" font-family="Helvetica,sans-Serif" font-size="10.00">HierarchicalFormat</text>
<polyline fill="none" stroke="black" points="4.5,-264.5 134.5,-264.5 "/>
<text text-anchor="middle" x="69.5" y="-252.5" font-family="Helvetica,sans-Serif" font-size="10.00"> </text>
<polyline fill="none" stroke="black" points="4.5,-245.5 134.5,-245.5 "/>
<text text-anchor="start" x="12.5" y="-233.5" font-family="Helvetica,sans-Serif" font-size="10.00"># deserializeValues()</text>
<text text-anchor="start" x="12.5" y="-222.5" font-family="Helvetica,sans-Serif" font-size="10.00"># serializeValues()</text>
<text text-anchor="start" x="12.5" y="-211.5" font-family="Helvetica,sans-Serif" font-size="10.00"># isSerializedNode()</text>
<text text-anchor="start" x="12.5" y="-200.5" font-family="Helvetica,sans-Serif" font-size="10.00"># isDeserializedNode()</text>
<text text-anchor="start" x="12.5" y="-189.5" font-family="Helvetica,sans-Serif" font-size="10.00"># serializeNode()</text>
<text text-anchor="start" x="12.5" y="-178.5" font-family="Helvetica,sans-Serif" font-size="10.00"># deserializeNode()</text>
</a>
</g>
</g>
<!-- Node2&#45;&gt;Node1 -->
<g id="edge1" class="edge">
<title>Node2&#45;&gt;Node1</title>
<path fill="none" stroke="midnightblue" d="M69.5,-161.09C69.5,-152.34 69.5,-143.35 69.5,-134.59"/>
<polygon fill="none" stroke="midnightblue" points="66,-161.24 69.5,-171.24 73,-161.24 66,-161.24"/>
</g>
<!-- Node3 -->
<g id="node3" class="node">
<title>Node3</title>
<g id="a_node3"><a xlink:href="classwcmf_1_1lib_1_1presentation_1_1format_1_1impl_1_1_abstract_format.html" target="_top" xlink:title="AbstractFormat is used as base class for specialized formats.">
<polygon fill="white" stroke="black" points="0,-320.5 0,-487.5 139,-487.5 139,-320.5 0,-320.5"/>
<text text-anchor="middle" x="69.5" y="-475.5" font-family="Helvetica,sans-Serif" font-size="10.00">AbstractFormat</text>
<polyline fill="none" stroke="black" points="0,-468.5 139,-468.5 "/>
<text text-anchor="middle" x="69.5" y="-456.5" font-family="Helvetica,sans-Serif" font-size="10.00"> </text>
<polyline fill="none" stroke="black" points="0,-449.5 139,-449.5 "/>
<text text-anchor="start" x="8" y="-437.5" font-family="Helvetica,sans-Serif" font-size="10.00">+ deserialize()</text>
<text text-anchor="start" x="8" y="-426.5" font-family="Helvetica,sans-Serif" font-size="10.00">+ serialize()</text>
<text text-anchor="start" x="8" y="-415.5" font-family="Helvetica,sans-Serif" font-size="10.00">+ getResponseHeaders()</text>
<text text-anchor="start" x="8" y="-404.5" font-family="Helvetica,sans-Serif" font-size="10.00"># beforeDeserialize()</text>
<text text-anchor="start" x="8" y="-393.5" font-family="Helvetica,sans-Serif" font-size="10.00"># deserializeValues()</text>
<text text-anchor="start" x="8" y="-382.5" font-family="Helvetica,sans-Serif" font-size="10.00"># afterDeserialize()</text>
<text text-anchor="start" x="8" y="-371.5" font-family="Helvetica,sans-Serif" font-size="10.00"># beforeSerialize()</text>
<text text-anchor="start" x="8" y="-360.5" font-family="Helvetica,sans-Serif" font-size="10.00"># serializeValues()</text>
<text text-anchor="start" x="8" y="-349.5" font-family="Helvetica,sans-Serif" font-size="10.00"># afterSerialize()</text>
<text text-anchor="start" x="8" y="-338.5" font-family="Helvetica,sans-Serif" font-size="10.00"># getNode()</text>
<text text-anchor="start" x="8" y="-327.5" font-family="Helvetica,sans-Serif" font-size="10.00"># filterValue()</text>
</a>
</g>
</g>
<!-- Node3&#45;&gt;Node2 -->
<g id="edge2" class="edge">
<title>Node3&#45;&gt;Node2</title>
<path fill="none" stroke="midnightblue" d="M69.5,-310.23C69.5,-301.27 69.5,-292.39 69.5,-283.97"/>
<polygon fill="none" stroke="midnightblue" points="66,-310.35 69.5,-320.35 73,-310.35 66,-310.35"/>
</g>
<!-- Node4 -->
<g id="node4" class="node">
<title>Node4</title>
<g id="a_node4"><a xlink:href="interfacewcmf_1_1lib_1_1presentation_1_1format_1_1_format.html" target="_top" xlink:title="Format defines the interface for all format classes.">
<polygon fill="white" stroke="black" points="0,-524.5 0,-636.5 139,-636.5 139,-524.5 0,-524.5"/>
<text text-anchor="middle" x="69.5" y="-624.5" font-family="Helvetica,sans-Serif" font-size="10.00">Format</text>
<polyline fill="none" stroke="black" points="0,-617.5 139,-617.5 "/>
<text text-anchor="middle" x="69.5" y="-605.5" font-family="Helvetica,sans-Serif" font-size="10.00"> </text>
<polyline fill="none" stroke="black" points="0,-598.5 139,-598.5 "/>
<text text-anchor="start" x="8" y="-586.5" font-family="Helvetica,sans-Serif" font-size="10.00">+ getMimeType()</text>
<text text-anchor="start" x="8" y="-575.5" font-family="Helvetica,sans-Serif" font-size="10.00">+ deserialize()</text>
<text text-anchor="start" x="8" y="-564.5" font-family="Helvetica,sans-Serif" font-size="10.00">+ serialize()</text>
<text text-anchor="start" x="8" y="-553.5" font-family="Helvetica,sans-Serif" font-size="10.00">+ isCached()</text>
<text text-anchor="start" x="8" y="-542.5" font-family="Helvetica,sans-Serif" font-size="10.00">+ getCacheDate()</text>
<text text-anchor="start" x="8" y="-531.5" font-family="Helvetica,sans-Serif" font-size="10.00">+ getResponseHeaders()</text>
</a>
</g>
</g>
<!-- Node4&#45;&gt;Node3 -->
<g id="edge3" class="edge">
<title>Node4&#45;&gt;Node3</title>
<path fill="none" stroke="midnightblue" d="M69.5,-514.24C69.5,-505.54 69.5,-496.53 69.5,-487.59"/>
<polygon fill="none" stroke="midnightblue" points="66,-514.29 69.5,-524.29 73,-514.29 66,-514.29"/>
</g>
</g>
</svg>
