<?xml version="1.0" encoding="UTF-8" standalone="no"?>
<!DOCTYPE svg PUBLIC "-//W3C//DTD SVG 1.1//EN"
 "http://www.w3.org/Graphics/SVG/1.1/DTD/svg11.dtd">
<!-- Generated by graphviz version 2.43.0 (0)
 -->
<!-- Title: DefaultUnionQueryProvider Pages: 1 -->
<svg width="159pt" height="193pt"
 viewBox="0.00 0.00 159.00 193.00" xmlns="http://www.w3.org/2000/svg" xmlns:xlink="http://www.w3.org/1999/xlink">
<g id="graph0" class="graph" transform="scale(1 1) rotate(0) translate(4 189)">
<title>DefaultUnionQueryProvider</title>
<polygon fill="white" stroke="transparent" points="-4,4 -4,-189 155,-189 155,4 -4,4"/>
<!-- Node1 -->
<g id="node1" class="node">
<title>Node1</title>
<g id="a_node1"><a xlink:title="DefaultUnionQueryProvider provides queries for multiple types using the PersistentFacade::loadObjects...">
<polygon fill="#bfbfbf" stroke="black" points="0,-0.5 0,-79.5 151,-79.5 151,-0.5 0,-0.5"/>
<text text-anchor="middle" x="75.5" y="-67.5" font-family="Helvetica,sans-Serif" font-size="10.00">DefaultUnionQueryProvider</text>
<polyline fill="none" stroke="black" points="0,-60.5 151,-60.5 "/>
<text text-anchor="start" x="8" y="-48.5" font-family="Helvetica,sans-Serif" font-size="10.00"># $queries</text>
<polyline fill="none" stroke="black" points="0,-41.5 151,-41.5 "/>
<text text-anchor="start" x="8" y="-29.5" font-family="Helvetica,sans-Serif" font-size="10.00">+ __construct()</text>
<text text-anchor="start" x="8" y="-18.5" font-family="Helvetica,sans-Serif" font-size="10.00">+ getIds()</text>
<text text-anchor="start" x="8" y="-7.5" font-family="Helvetica,sans-Serif" font-size="10.00">+ execute()</text>
</a>
</g>
</g>
<!-- Node2 -->
<g id="node2" class="node">
<title>Node2</title>
<g id="a_node2"><a xlink:href="interfacewcmf_1_1lib_1_1persistence_1_1_union_query_provider.html" target="_top" xlink:title="UnionQueryProvider is used to provide queries to a union query.">
<polygon fill="white" stroke="black" points="18,-116.5 18,-184.5 133,-184.5 133,-116.5 18,-116.5"/>
<text text-anchor="middle" x="75.5" y="-172.5" font-family="Helvetica,sans-Serif" font-size="10.00">UnionQueryProvider</text>
<polyline fill="none" stroke="black" points="18,-165.5 133,-165.5 "/>
<text text-anchor="middle" x="75.5" y="-153.5" font-family="Helvetica,sans-Serif" font-size="10.00"> </text>
<polyline fill="none" stroke="black" points="18,-146.5 133,-146.5 "/>
<text text-anchor="start" x="26" y="-134.5" font-family="Helvetica,sans-Serif" font-size="10.00">+ getIds()</text>
<text text-anchor="start" x="26" y="-123.5" font-family="Helvetica,sans-Serif" font-size="10.00">+ execute()</text>
</a>
</g>
</g>
<!-- Node2&#45;&gt;Node1 -->
<g id="edge1" class="edge">
<title>Node2&#45;&gt;Node1</title>
<path fill="none" stroke="midnightblue" d="M75.5,-106.27C75.5,-97.48 75.5,-88.28 75.5,-79.65"/>
<polygon fill="none" stroke="midnightblue" points="72,-106.36 75.5,-116.36 79,-106.36 72,-106.36"/>
</g>
</g>
</svg>
