<?xml version="1.0" encoding="UTF-8" standalone="no"?>
<!DOCTYPE svg PUBLIC "-//W3C//DTD SVG 1.1//EN"
 "http://www.w3.org/Graphics/SVG/1.1/DTD/svg11.dtd">
<!-- Generated by graphviz version 2.43.0 (0)
 -->
<!-- Title: ObjectQueryUnionQueryProvider Pages: 1 -->
<svg width="184pt" height="204pt"
 viewBox="0.00 0.00 184.00 204.00" xmlns="http://www.w3.org/2000/svg" xmlns:xlink="http://www.w3.org/1999/xlink">
<g id="graph0" class="graph" transform="scale(1 1) rotate(0) translate(4 200)">
<title>ObjectQueryUnionQueryProvider</title>
<polygon fill="white" stroke="transparent" points="-4,4 -4,-200 180,-200 180,4 -4,4"/>
<!-- Node1 -->
<g id="node1" class="node">
<title>Node1</title>
<g id="a_node1"><a xlink:title="ObjectQueryUnionQueryProvider provides queries as ObjectQuery instances.">
<polygon fill="#bfbfbf" stroke="black" points="0,-0.5 0,-90.5 176,-90.5 176,-0.5 0,-0.5"/>
<text text-anchor="middle" x="88" y="-78.5" font-family="Helvetica,sans-Serif" font-size="10.00">ObjectQueryUnionQueryProvider</text>
<polyline fill="none" stroke="black" points="0,-71.5 176,-71.5 "/>
<text text-anchor="start" x="8" y="-59.5" font-family="Helvetica,sans-Serif" font-size="10.00"># $queries</text>
<polyline fill="none" stroke="black" points="0,-52.5 176,-52.5 "/>
<text text-anchor="start" x="8" y="-40.5" font-family="Helvetica,sans-Serif" font-size="10.00">+ __construct()</text>
<text text-anchor="start" x="8" y="-29.5" font-family="Helvetica,sans-Serif" font-size="10.00">+ getIds()</text>
<text text-anchor="start" x="8" y="-18.5" font-family="Helvetica,sans-Serif" font-size="10.00">+ execute()</text>
<text text-anchor="start" x="8" y="-7.5" font-family="Helvetica,sans-Serif" font-size="10.00">+ getLastQueryStrings()</text>
</a>
</g>
</g>
<!-- Node2 -->
<g id="node2" class="node">
<title>Node2</title>
<g id="a_node2"><a xlink:href="interfacewcmf_1_1lib_1_1persistence_1_1_union_query_provider.html" target="_top" xlink:title="UnionQueryProvider is used to provide queries to a union query.">
<polygon fill="white" stroke="black" points="30.5,-127.5 30.5,-195.5 145.5,-195.5 145.5,-127.5 30.5,-127.5"/>
<text text-anchor="middle" x="88" y="-183.5" font-family="Helvetica,sans-Serif" font-size="10.00">UnionQueryProvider</text>
<polyline fill="none" stroke="black" points="30.5,-176.5 145.5,-176.5 "/>
<text text-anchor="middle" x="88" y="-164.5" font-family="Helvetica,sans-Serif" font-size="10.00"> </text>
<polyline fill="none" stroke="black" points="30.5,-157.5 145.5,-157.5 "/>
<text text-anchor="start" x="38.5" y="-145.5" font-family="Helvetica,sans-Serif" font-size="10.00">+ getIds()</text>
<text text-anchor="start" x="38.5" y="-134.5" font-family="Helvetica,sans-Serif" font-size="10.00">+ execute()</text>
</a>
</g>
</g>
<!-- Node2&#45;&gt;Node1 -->
<g id="edge1" class="edge">
<title>Node2&#45;&gt;Node1</title>
<path fill="none" stroke="midnightblue" d="M88,-116.97C88,-108.35 88,-99.28 88,-90.64"/>
<polygon fill="none" stroke="midnightblue" points="84.5,-117.22 88,-127.22 91.5,-117.22 84.5,-117.22"/>
</g>
</g>
</svg>
