<?xml version="1.0" encoding="UTF-8" standalone="no"?>
<!DOCTYPE svg PUBLIC "-//W3C//DTD SVG 1.1//EN"
 "http://www.w3.org/Graphics/SVG/1.1/DTD/svg11.dtd">
<!-- Generated by graphviz version 2.43.0 (0)
 -->
<!-- Title: GenericFormat Pages: 1 -->
<svg width="149pt" height="496pt"
 viewBox="0.00 0.00 149.00 496.00" xmlns="http://www.w3.org/2000/svg" xmlns:xlink="http://www.w3.org/1999/xlink">
<g id="graph0" class="graph" transform="scale(1 1) rotate(0) translate(4 492)">
<title>GenericFormat</title>
<polygon fill="white" stroke="transparent" points="-4,4 -4,-492 145,-492 145,4 -4,4"/>
<!-- Node1 -->
<g id="node1" class="node">
<title>Node1</title>
<g id="a_node1"><a xlink:title="GenericFormat is used to output arbitrary responses.">
<polygon fill="#bfbfbf" stroke="black" points="0,-0.5 0,-134.5 141,-134.5 141,-0.5 0,-0.5"/>
<text text-anchor="middle" x="70.5" y="-122.5" font-family="Helvetica,sans-Serif" font-size="10.00">GenericFormat</text>
<polyline fill="none" stroke="black" points="0,-115.5 141,-115.5 "/>
<text text-anchor="start" x="8" y="-103.5" font-family="Helvetica,sans-Serif" font-size="10.00">+ CACHE_SECTION</text>
<text text-anchor="start" x="8" y="-92.5" font-family="Helvetica,sans-Serif" font-size="10.00"># $cache</text>
<polyline fill="none" stroke="black" points="0,-85.5 141,-85.5 "/>
<text text-anchor="start" x="8" y="-73.5" font-family="Helvetica,sans-Serif" font-size="10.00">+ __construct()</text>
<text text-anchor="start" x="8" y="-62.5" font-family="Helvetica,sans-Serif" font-size="10.00">+ getMimeType()</text>
<text text-anchor="start" x="8" y="-51.5" font-family="Helvetica,sans-Serif" font-size="10.00"># getCache()</text>
<text text-anchor="start" x="8" y="-40.5" font-family="Helvetica,sans-Serif" font-size="10.00"># getBaseCacheSection()</text>
<text text-anchor="start" x="8" y="-29.5" font-family="Helvetica,sans-Serif" font-size="10.00"># deserializeValues()</text>
<text text-anchor="start" x="8" y="-18.5" font-family="Helvetica,sans-Serif" font-size="10.00"># serializeValues()</text>
<text text-anchor="start" x="8" y="-7.5" font-family="Helvetica,sans-Serif" font-size="10.00"># afterSerialize()</text>
</a>
</g>
</g>
<!-- Node2 -->
<g id="node2" class="node">
<title>Node2</title>
<g id="a_node2"><a xlink:href="classwcmf_1_1lib_1_1presentation_1_1format_1_1impl_1_1_abstract_format.html" target="_top" xlink:title="AbstractFormat is used as base class for specialized formats.">
<polygon fill="white" stroke="black" points="1,-171.5 1,-338.5 140,-338.5 140,-171.5 1,-171.5"/>
<text text-anchor="middle" x="70.5" y="-326.5" font-family="Helvetica,sans-Serif" font-size="10.00">AbstractFormat</text>
<polyline fill="none" stroke="black" points="1,-319.5 140,-319.5 "/>
<text text-anchor="middle" x="70.5" y="-307.5" font-family="Helvetica,sans-Serif" font-size="10.00"> </text>
<polyline fill="none" stroke="black" points="1,-300.5 140,-300.5 "/>
<text text-anchor="start" x="9" y="-288.5" font-family="Helvetica,sans-Serif" font-size="10.00">+ deserialize()</text>
<text text-anchor="start" x="9" y="-277.5" font-family="Helvetica,sans-Serif" font-size="10.00">+ serialize()</text>
<text text-anchor="start" x="9" y="-266.5" font-family="Helvetica,sans-Serif" font-size="10.00">+ getResponseHeaders()</text>
<text text-anchor="start" x="9" y="-255.5" font-family="Helvetica,sans-Serif" font-size="10.00"># beforeDeserialize()</text>
<text text-anchor="start" x="9" y="-244.5" font-family="Helvetica,sans-Serif" font-size="10.00"># deserializeValues()</text>
<text text-anchor="start" x="9" y="-233.5" font-family="Helvetica,sans-Serif" font-size="10.00"># afterDeserialize()</text>
<text text-anchor="start" x="9" y="-222.5" font-family="Helvetica,sans-Serif" font-size="10.00"># beforeSerialize()</text>
<text text-anchor="start" x="9" y="-211.5" font-family="Helvetica,sans-Serif" font-size="10.00"># serializeValues()</text>
<text text-anchor="start" x="9" y="-200.5" font-family="Helvetica,sans-Serif" font-size="10.00"># afterSerialize()</text>
<text text-anchor="start" x="9" y="-189.5" font-family="Helvetica,sans-Serif" font-size="10.00"># getNode()</text>
<text text-anchor="start" x="9" y="-178.5" font-family="Helvetica,sans-Serif" font-size="10.00"># filterValue()</text>
</a>
</g>
</g>
<!-- Node2&#45;&gt;Node1 -->
<g id="edge1" class="edge">
<title>Node2&#45;&gt;Node1</title>
<path fill="none" stroke="midnightblue" d="M70.5,-161.19C70.5,-152.22 70.5,-143.26 70.5,-134.64"/>
<polygon fill="none" stroke="midnightblue" points="67,-161.29 70.5,-171.29 74,-161.29 67,-161.29"/>
</g>
<!-- Node3 -->
<g id="node3" class="node">
<title>Node3</title>
<g id="a_node3"><a xlink:href="interfacewcmf_1_1lib_1_1presentation_1_1format_1_1_format.html" target="_top" xlink:title="Format defines the interface for all format classes.">
<polygon fill="white" stroke="black" points="1,-375.5 1,-487.5 140,-487.5 140,-375.5 1,-375.5"/>
<text text-anchor="middle" x="70.5" y="-475.5" font-family="Helvetica,sans-Serif" font-size="10.00">Format</text>
<polyline fill="none" stroke="black" points="1,-468.5 140,-468.5 "/>
<text text-anchor="middle" x="70.5" y="-456.5" font-family="Helvetica,sans-Serif" font-size="10.00"> </text>
<polyline fill="none" stroke="black" points="1,-449.5 140,-449.5 "/>
<text text-anchor="start" x="9" y="-437.5" font-family="Helvetica,sans-Serif" font-size="10.00">+ getMimeType()</text>
<text text-anchor="start" x="9" y="-426.5" font-family="Helvetica,sans-Serif" font-size="10.00">+ deserialize()</text>
<text text-anchor="start" x="9" y="-415.5" font-family="Helvetica,sans-Serif" font-size="10.00">+ serialize()</text>
<text text-anchor="start" x="9" y="-404.5" font-family="Helvetica,sans-Serif" font-size="10.00">+ isCached()</text>
<text text-anchor="start" x="9" y="-393.5" font-family="Helvetica,sans-Serif" font-size="10.00">+ getCacheDate()</text>
<text text-anchor="start" x="9" y="-382.5" font-family="Helvetica,sans-Serif" font-size="10.00">+ getResponseHeaders()</text>
</a>
</g>
</g>
<!-- Node3&#45;&gt;Node2 -->
<g id="edge2" class="edge">
<title>Node3&#45;&gt;Node2</title>
<path fill="none" stroke="midnightblue" d="M70.5,-365.24C70.5,-356.54 70.5,-347.53 70.5,-338.59"/>
<polygon fill="none" stroke="midnightblue" points="67,-365.29 70.5,-375.29 74,-365.29 67,-365.29"/>
</g>
</g>
</svg>
