<?xml version="1.0" encoding="UTF-8" standalone="no"?>
<!DOCTYPE svg PUBLIC "-//W3C//DTD SVG 1.1//EN"
 "http://www.w3.org/Graphics/SVG/1.1/DTD/svg11.dtd">
<!-- Generated by graphviz version 2.43.0 (0)
 -->
<!-- Title: NullLockHandler Pages: 1 -->
<svg width="120pt" height="270pt"
 viewBox="0.00 0.00 120.00 270.00" xmlns="http://www.w3.org/2000/svg" xmlns:xlink="http://www.w3.org/1999/xlink">
<g id="graph0" class="graph" transform="scale(1 1) rotate(0) translate(4 266)">
<title>NullLockHandler</title>
<polygon fill="white" stroke="transparent" points="-4,4 -4,-266 116,-266 116,4 -4,4"/>
<!-- Node1 -->
<g id="node1" class="node">
<title>Node1</title>
<g id="a_node1"><a xlink:title="NullLockHandler acts as if no LockHandler was installed.">
<polygon fill="#bfbfbf" stroke="black" points="0,-0.5 0,-112.5 112,-112.5 112,-0.5 0,-0.5"/>
<text text-anchor="middle" x="56" y="-100.5" font-family="Helvetica,sans-Serif" font-size="10.00">NullLockHandler</text>
<polyline fill="none" stroke="black" points="0,-93.5 112,-93.5 "/>
<text text-anchor="middle" x="56" y="-81.5" font-family="Helvetica,sans-Serif" font-size="10.00"> </text>
<polyline fill="none" stroke="black" points="0,-74.5 112,-74.5 "/>
<text text-anchor="start" x="8" y="-62.5" font-family="Helvetica,sans-Serif" font-size="10.00">+ aquireLock()</text>
<text text-anchor="start" x="8" y="-51.5" font-family="Helvetica,sans-Serif" font-size="10.00">+ releaseLock()</text>
<text text-anchor="start" x="8" y="-40.5" font-family="Helvetica,sans-Serif" font-size="10.00">+ releaseLocks()</text>
<text text-anchor="start" x="8" y="-29.5" font-family="Helvetica,sans-Serif" font-size="10.00">+ releaseAllLocks()</text>
<text text-anchor="start" x="8" y="-18.5" font-family="Helvetica,sans-Serif" font-size="10.00">+ getLock()</text>
<text text-anchor="start" x="8" y="-7.5" font-family="Helvetica,sans-Serif" font-size="10.00">+ updateLock()</text>
</a>
</g>
</g>
<!-- Node2 -->
<g id="node2" class="node">
<title>Node2</title>
<g id="a_node2"><a xlink:href="interfacewcmf_1_1lib_1_1persistence_1_1concurrency_1_1_lock_handler.html" target="_top" xlink:title="LockHandler defines the interface for LockHandler implementations.">
<polygon fill="white" stroke="black" points="0,-149.5 0,-261.5 112,-261.5 112,-149.5 0,-149.5"/>
<text text-anchor="middle" x="56" y="-249.5" font-family="Helvetica,sans-Serif" font-size="10.00">LockHandler</text>
<polyline fill="none" stroke="black" points="0,-242.5 112,-242.5 "/>
<text text-anchor="middle" x="56" y="-230.5" font-family="Helvetica,sans-Serif" font-size="10.00"> </text>
<polyline fill="none" stroke="black" points="0,-223.5 112,-223.5 "/>
<text text-anchor="start" x="8" y="-211.5" font-family="Helvetica,sans-Serif" font-size="10.00">+ aquireLock()</text>
<text text-anchor="start" x="8" y="-200.5" font-family="Helvetica,sans-Serif" font-size="10.00">+ releaseLock()</text>
<text text-anchor="start" x="8" y="-189.5" font-family="Helvetica,sans-Serif" font-size="10.00">+ releaseLocks()</text>
<text text-anchor="start" x="8" y="-178.5" font-family="Helvetica,sans-Serif" font-size="10.00">+ releaseAllLocks()</text>
<text text-anchor="start" x="8" y="-167.5" font-family="Helvetica,sans-Serif" font-size="10.00">+ getLock()</text>
<text text-anchor="start" x="8" y="-156.5" font-family="Helvetica,sans-Serif" font-size="10.00">+ updateLock()</text>
</a>
</g>
</g>
<!-- Node2&#45;&gt;Node1 -->
<g id="edge1" class="edge">
<title>Node2&#45;&gt;Node1</title>
<path fill="none" stroke="midnightblue" d="M56,-139.18C56,-130.43 56,-121.52 56,-112.96"/>
<polygon fill="none" stroke="midnightblue" points="52.5,-139.34 56,-149.34 59.5,-139.34 52.5,-139.34"/>
</g>
</g>
</svg>
