<?xml version="1.0" encoding="UTF-8" standalone="no"?>
<!DOCTYPE svg PUBLIC "-//W3C//DTD SVG 1.1//EN"
 "http://www.w3.org/Graphics/SVG/1.1/DTD/svg11.dtd">
<!-- Generated by graphviz version 2.43.0 (0)
 -->
<!-- Title: Log4phpLogger Pages: 1 -->
<svg width="162pt" height="507pt"
 viewBox="0.00 0.00 161.50 507.00" xmlns="http://www.w3.org/2000/svg" xmlns:xlink="http://www.w3.org/1999/xlink">
<g id="graph0" class="graph" transform="scale(1 1) rotate(0) translate(4 503)">
<title>Log4phpLogger</title>
<polygon fill="white" stroke="transparent" points="-4,4 -4,-503 157.5,-503 157.5,4 -4,4"/>
<!-- Node1 -->
<g id="node1" class="node">
<title>Node1</title>
<g id="a_node1"><a xlink:title="Log4phpLogger is a wrapper for the log4php library.">
<polygon fill="#bfbfbf" stroke="black" points="0,-0.5 0,-189.5 114,-189.5 114,-0.5 0,-0.5"/>
<text text-anchor="middle" x="57" y="-177.5" font-family="Helvetica,sans-Serif" font-size="10.00">Log4phpLogger</text>
<polyline fill="none" stroke="black" points="0,-170.5 114,-170.5 "/>
<text text-anchor="middle" x="57" y="-158.5" font-family="Helvetica,sans-Serif" font-size="10.00"> </text>
<polyline fill="none" stroke="black" points="0,-151.5 114,-151.5 "/>
<text text-anchor="start" x="8" y="-139.5" font-family="Helvetica,sans-Serif" font-size="10.00">+ __construct()</text>
<text text-anchor="start" x="8" y="-128.5" font-family="Helvetica,sans-Serif" font-size="10.00">+ trace()</text>
<text text-anchor="start" x="8" y="-117.5" font-family="Helvetica,sans-Serif" font-size="10.00">+ debug()</text>
<text text-anchor="start" x="8" y="-106.5" font-family="Helvetica,sans-Serif" font-size="10.00">+ info()</text>
<text text-anchor="start" x="8" y="-95.5" font-family="Helvetica,sans-Serif" font-size="10.00">+ warn()</text>
<text text-anchor="start" x="8" y="-84.5" font-family="Helvetica,sans-Serif" font-size="10.00">+ error()</text>
<text text-anchor="start" x="8" y="-73.5" font-family="Helvetica,sans-Serif" font-size="10.00">+ fatal()</text>
<text text-anchor="start" x="8" y="-62.5" font-family="Helvetica,sans-Serif" font-size="10.00">+ isDebugEnabled()</text>
<text text-anchor="start" x="8" y="-51.5" font-family="Helvetica,sans-Serif" font-size="10.00">+ isInfoEnabled()</text>
<text text-anchor="start" x="8" y="-40.5" font-family="Helvetica,sans-Serif" font-size="10.00">+ isWarnEnabled()</text>
<text text-anchor="start" x="8" y="-29.5" font-family="Helvetica,sans-Serif" font-size="10.00">+ isErrorEnabled()</text>
<text text-anchor="start" x="8" y="-18.5" font-family="Helvetica,sans-Serif" font-size="10.00">+ isFatalEnabled()</text>
<text text-anchor="start" x="8" y="-7.5" font-family="Helvetica,sans-Serif" font-size="10.00">+ getLogger()</text>
</a>
</g>
</g>
<!-- Node2 -->
<g id="node2" class="node">
<title>Node2</title>
<g id="a_node2"><a xlink:href="classwcmf_1_1lib_1_1core_1_1impl_1_1_abstract_logger.html" target="_top" xlink:title="AbstractLogger is the abstract base class for Logger implementations.">
<polygon fill="white" stroke="black" points="44.5,-226.5 44.5,-283.5 153.5,-283.5 153.5,-226.5 44.5,-226.5"/>
<text text-anchor="middle" x="99" y="-271.5" font-family="Helvetica,sans-Serif" font-size="10.00">AbstractLogger</text>
<polyline fill="none" stroke="black" points="44.5,-264.5 153.5,-264.5 "/>
<text text-anchor="middle" x="99" y="-252.5" font-family="Helvetica,sans-Serif" font-size="10.00"> </text>
<polyline fill="none" stroke="black" points="44.5,-245.5 153.5,-245.5 "/>
<text text-anchor="start" x="52.5" y="-233.5" font-family="Helvetica,sans-Serif" font-size="10.00">+ logByErrorType()</text>
</a>
</g>
</g>
<!-- Node2&#45;&gt;Node1 -->
<g id="edge1" class="edge">
<title>Node2&#45;&gt;Node1</title>
<path fill="none" stroke="midnightblue" d="M89.1,-216.77C86.88,-208.42 84.43,-199.2 81.9,-189.68"/>
<polygon fill="none" stroke="midnightblue" points="85.73,-217.71 91.68,-226.48 92.5,-215.91 85.73,-217.71"/>
</g>
<!-- Node3 -->
<g id="node3" class="node">
<title>Node3</title>
<g id="a_node3"><a xlink:href="interfacewcmf_1_1lib_1_1core_1_1_logger.html" target="_top" xlink:title="Interface for logger implementations.">
<polygon fill="white" stroke="black" points="0,-320.5 0,-498.5 114,-498.5 114,-320.5 0,-320.5"/>
<text text-anchor="middle" x="57" y="-486.5" font-family="Helvetica,sans-Serif" font-size="10.00">Logger</text>
<polyline fill="none" stroke="black" points="0,-479.5 114,-479.5 "/>
<text text-anchor="middle" x="57" y="-467.5" font-family="Helvetica,sans-Serif" font-size="10.00"> </text>
<polyline fill="none" stroke="black" points="0,-460.5 114,-460.5 "/>
<text text-anchor="start" x="8" y="-448.5" font-family="Helvetica,sans-Serif" font-size="10.00">+ debug()</text>
<text text-anchor="start" x="8" y="-437.5" font-family="Helvetica,sans-Serif" font-size="10.00">+ info()</text>
<text text-anchor="start" x="8" y="-426.5" font-family="Helvetica,sans-Serif" font-size="10.00">+ warn()</text>
<text text-anchor="start" x="8" y="-415.5" font-family="Helvetica,sans-Serif" font-size="10.00">+ error()</text>
<text text-anchor="start" x="8" y="-404.5" font-family="Helvetica,sans-Serif" font-size="10.00">+ fatal()</text>
<text text-anchor="start" x="8" y="-393.5" font-family="Helvetica,sans-Serif" font-size="10.00">+ isDebugEnabled()</text>
<text text-anchor="start" x="8" y="-382.5" font-family="Helvetica,sans-Serif" font-size="10.00">+ isInfoEnabled()</text>
<text text-anchor="start" x="8" y="-371.5" font-family="Helvetica,sans-Serif" font-size="10.00">+ isWarnEnabled()</text>
<text text-anchor="start" x="8" y="-360.5" font-family="Helvetica,sans-Serif" font-size="10.00">+ isErrorEnabled()</text>
<text text-anchor="start" x="8" y="-349.5" font-family="Helvetica,sans-Serif" font-size="10.00">+ isFatalEnabled()</text>
<text text-anchor="start" x="8" y="-338.5" font-family="Helvetica,sans-Serif" font-size="10.00">+ logByErrorType()</text>
<text text-anchor="start" x="8" y="-327.5" font-family="Helvetica,sans-Serif" font-size="10.00">+ getLogger()</text>
</a>
</g>
</g>
<!-- Node3&#45;&gt;Node1 -->
<g id="edge3" class="edge">
<title>Node3&#45;&gt;Node1</title>
<path fill="none" stroke="midnightblue" d="M38.87,-310.31C37.71,-301.44 36.72,-292.57 36,-284 33.42,-253.24 35.57,-219.72 39.32,-189.61"/>
<polygon fill="none" stroke="midnightblue" points="35.42,-310.89 40.25,-320.31 42.35,-309.93 35.42,-310.89"/>
</g>
<!-- Node3&#45;&gt;Node2 -->
<g id="edge2" class="edge">
<title>Node3&#45;&gt;Node2</title>
<path fill="none" stroke="midnightblue" d="M84,-310.47C86.65,-300.85 89.16,-291.73 91.34,-283.81"/>
<polygon fill="none" stroke="midnightblue" points="80.59,-309.66 81.31,-320.23 87.34,-311.52 80.59,-309.66"/>
</g>
</g>
</svg>
