<?xml version="1.0" encoding="UTF-8" standalone="no"?>
<!DOCTYPE svg PUBLIC "-//W3C//DTD SVG 1.1//EN"
 "http://www.w3.org/Graphics/SVG/1.1/DTD/svg11.dtd">
<!-- Generated by graphviz version 2.43.0 (0)
 -->
<!-- Title: DefaultPrincipalFactory Pages: 1 -->
<svg width="138pt" height="215pt"
 viewBox="0.00 0.00 138.00 215.00" xmlns="http://www.w3.org/2000/svg" xmlns:xlink="http://www.w3.org/1999/xlink">
<g id="graph0" class="graph" transform="scale(1 1) rotate(0) translate(4 211)">
<title>DefaultPrincipalFactory</title>
<polygon fill="white" stroke="transparent" points="-4,4 -4,-211 134,-211 134,4 -4,4"/>
<!-- Node1 -->
<g id="node1" class="node">
<title>Node1</title>
<g id="a_node1"><a xlink:title="Default implementation of PrincipalFactory.">
<polygon fill="#bfbfbf" stroke="black" points="0,-0.5 0,-90.5 130,-90.5 130,-0.5 0,-0.5"/>
<text text-anchor="middle" x="65" y="-78.5" font-family="Helvetica,sans-Serif" font-size="10.00">DefaultPrincipalFactory</text>
<polyline fill="none" stroke="black" points="0,-71.5 130,-71.5 "/>
<text text-anchor="middle" x="65" y="-59.5" font-family="Helvetica,sans-Serif" font-size="10.00"> </text>
<polyline fill="none" stroke="black" points="0,-52.5 130,-52.5 "/>
<text text-anchor="start" x="8" y="-40.5" font-family="Helvetica,sans-Serif" font-size="10.00">+ __construct()</text>
<text text-anchor="start" x="8" y="-29.5" font-family="Helvetica,sans-Serif" font-size="10.00">+ getUser()</text>
<text text-anchor="start" x="8" y="-18.5" font-family="Helvetica,sans-Serif" font-size="10.00">+ getUserRoles()</text>
<text text-anchor="start" x="8" y="-7.5" font-family="Helvetica,sans-Serif" font-size="10.00">+ getRole()</text>
</a>
</g>
</g>
<!-- Node2 -->
<g id="node2" class="node">
<title>Node2</title>
<g id="a_node2"><a xlink:href="interfacewcmf_1_1lib_1_1security_1_1principal_1_1_principal_factory.html" target="_top" xlink:title="PrincipalFactory implementations are used to retrieve User and Role instances.">
<polygon fill="white" stroke="black" points="14.5,-127.5 14.5,-206.5 115.5,-206.5 115.5,-127.5 14.5,-127.5"/>
<text text-anchor="middle" x="65" y="-194.5" font-family="Helvetica,sans-Serif" font-size="10.00">PrincipalFactory</text>
<polyline fill="none" stroke="black" points="14.5,-187.5 115.5,-187.5 "/>
<text text-anchor="middle" x="65" y="-175.5" font-family="Helvetica,sans-Serif" font-size="10.00"> </text>
<polyline fill="none" stroke="black" points="14.5,-168.5 115.5,-168.5 "/>
<text text-anchor="start" x="22.5" y="-156.5" font-family="Helvetica,sans-Serif" font-size="10.00">+ getUser()</text>
<text text-anchor="start" x="22.5" y="-145.5" font-family="Helvetica,sans-Serif" font-size="10.00">+ getUserRoles()</text>
<text text-anchor="start" x="22.5" y="-134.5" font-family="Helvetica,sans-Serif" font-size="10.00">+ getRole()</text>
</a>
</g>
</g>
<!-- Node2&#45;&gt;Node1 -->
<g id="edge1" class="edge">
<title>Node2&#45;&gt;Node1</title>
<path fill="none" stroke="midnightblue" d="M65,-117.19C65,-108.49 65,-99.48 65,-90.91"/>
<polygon fill="none" stroke="midnightblue" points="61.5,-117.2 65,-127.2 68.5,-117.2 61.5,-117.2"/>
</g>
</g>
</svg>
