<?xml version="1.0" encoding="UTF-8" standalone="no"?>
<!DOCTYPE svg PUBLIC "-//W3C//DTD SVG 1.1//EN"
 "http://www.w3.org/Graphics/SVG/1.1/DTD/svg11.dtd">
<!-- Generated by graphviz version 2.43.0 (0)
 -->
<!-- Title: AbstractRole Pages: 1 -->
<svg width="309pt" height="843pt"
 viewBox="0.00 0.00 308.50 843.00" xmlns="http://www.w3.org/2000/svg" xmlns:xlink="http://www.w3.org/1999/xlink">
<g id="graph0" class="graph" transform="scale(1 1) rotate(0) translate(4 839)">
<title>AbstractRole</title>
<polygon fill="white" stroke="transparent" points="-4,4 -4,-839 304.5,-839 304.5,4 -4,4"/>
<!-- Node1 -->
<g id="node1" class="node">
<title>Node1</title>
<g id="a_node1"><a xlink:title="Default implementation of a role.">
<polygon fill="#bfbfbf" stroke="black" points="132.5,-0.5 132.5,-79.5 234.5,-79.5 234.5,-0.5 132.5,-0.5"/>
<text text-anchor="middle" x="183.5" y="-67.5" font-family="Helvetica,sans-Serif" font-size="10.00">AbstractRole</text>
<polyline fill="none" stroke="black" points="132.5,-60.5 234.5,-60.5 "/>
<text text-anchor="middle" x="183.5" y="-48.5" font-family="Helvetica,sans-Serif" font-size="10.00"> </text>
<polyline fill="none" stroke="black" points="132.5,-41.5 234.5,-41.5 "/>
<text text-anchor="start" x="140.5" y="-29.5" font-family="Helvetica,sans-Serif" font-size="10.00">+ setName()</text>
<text text-anchor="start" x="140.5" y="-18.5" font-family="Helvetica,sans-Serif" font-size="10.00">+ getName()</text>
<text text-anchor="start" x="140.5" y="-7.5" font-family="Helvetica,sans-Serif" font-size="10.00">+ validateValue()</text>
</a>
</g>
</g>
<!-- Node2 -->
<g id="node2" class="node">
<title>Node2</title>
<g id="a_node2"><a xlink:href="classwcmf_1_1lib_1_1model_1_1_node.html" target="_top" xlink:title="Node adds the concept of relations to PersistentObject.">
<polygon fill="white" stroke="black" points="13,-116.5 13,-360.5 202,-360.5 202,-116.5 13,-116.5"/>
<text text-anchor="middle" x="107.5" y="-348.5" font-family="Helvetica,sans-Serif" font-size="10.00">Node</text>
<polyline fill="none" stroke="black" points="13,-341.5 202,-341.5 "/>
<text text-anchor="start" x="21" y="-329.5" font-family="Helvetica,sans-Serif" font-size="10.00">+ RELATION_STATE_UNINITIALIZED</text>
<text text-anchor="start" x="21" y="-318.5" font-family="Helvetica,sans-Serif" font-size="10.00">+ RELATION_STATE_INITIALIZING</text>
<text text-anchor="start" x="21" y="-307.5" font-family="Helvetica,sans-Serif" font-size="10.00">+ RELATION_STATE_INITIALIZED</text>
<text text-anchor="start" x="21" y="-296.5" font-family="Helvetica,sans-Serif" font-size="10.00">+ RELATION_STATE_LOADED</text>
<polyline fill="none" stroke="black" points="13,-289.5 202,-289.5 "/>
<text text-anchor="start" x="21" y="-277.5" font-family="Helvetica,sans-Serif" font-size="10.00">+ __construct()</text>
<text text-anchor="start" x="21" y="-266.5" font-family="Helvetica,sans-Serif" font-size="10.00">+ __clone()</text>
<text text-anchor="start" x="21" y="-255.5" font-family="Helvetica,sans-Serif" font-size="10.00">+ getValueNames()</text>
<text text-anchor="start" x="21" y="-244.5" font-family="Helvetica,sans-Serif" font-size="10.00">+ getValue()</text>
<text text-anchor="start" x="21" y="-233.5" font-family="Helvetica,sans-Serif" font-size="10.00">+ setValue()</text>
<text text-anchor="start" x="21" y="-222.5" font-family="Helvetica,sans-Serif" font-size="10.00">+ removeValue()</text>
<text text-anchor="start" x="21" y="-211.5" font-family="Helvetica,sans-Serif" font-size="10.00">+ getIndispensableObjects()</text>
<text text-anchor="start" x="21" y="-200.5" font-family="Helvetica,sans-Serif" font-size="10.00">+ mergeValues()</text>
<text text-anchor="start" x="21" y="-189.5" font-family="Helvetica,sans-Serif" font-size="10.00">+ getRelationNames()</text>
<text text-anchor="start" x="21" y="-178.5" font-family="Helvetica,sans-Serif" font-size="10.00">+ addNode()</text>
<text text-anchor="start" x="21" y="-167.5" font-family="Helvetica,sans-Serif" font-size="10.00">and 25 more...</text>
<text text-anchor="start" x="21" y="-156.5" font-family="Helvetica,sans-Serif" font-size="10.00">+ filter()</text>
<text text-anchor="start" x="21" y="-145.5" font-family="Helvetica,sans-Serif" font-size="10.00"># loadRelations()</text>
<text text-anchor="start" x="21" y="-134.5" font-family="Helvetica,sans-Serif" font-size="10.00"># getRelations()</text>
<text text-anchor="start" x="21" y="-123.5" font-family="Helvetica,sans-Serif" font-size="10.00"># mergeObjectLists()</text>
</a>
</g>
</g>
<!-- Node2&#45;&gt;Node1 -->
<g id="edge1" class="edge">
<title>Node2&#45;&gt;Node1</title>
<path fill="none" stroke="midnightblue" d="M157.97,-107C161.72,-97.32 165.28,-88.11 168.49,-79.81"/>
<polygon fill="none" stroke="midnightblue" points="154.68,-105.82 154.33,-116.41 161.21,-108.35 154.68,-105.82"/>
</g>
<!-- Node3 -->
<g id="node3" class="node">
<title>Node3</title>
<g id="a_node3"><a xlink:href="classwcmf_1_1lib_1_1persistence_1_1impl_1_1_default_persistent_object.html" target="_top" xlink:title="DefaultPersistentObject is the base class of all persistent objects.">
<polygon fill="white" stroke="black" points="7,-397.5 7,-597.5 208,-597.5 208,-397.5 7,-397.5"/>
<text text-anchor="middle" x="107.5" y="-585.5" font-family="Helvetica,sans-Serif" font-size="10.00">DefaultPersistentObject</text>
<polyline fill="none" stroke="black" points="7,-578.5 208,-578.5 "/>
<text text-anchor="middle" x="107.5" y="-566.5" font-family="Helvetica,sans-Serif" font-size="10.00"> </text>
<polyline fill="none" stroke="black" points="7,-559.5 208,-559.5 "/>
<text text-anchor="start" x="15" y="-547.5" font-family="Helvetica,sans-Serif" font-size="10.00">+ __construct()</text>
<text text-anchor="start" x="15" y="-536.5" font-family="Helvetica,sans-Serif" font-size="10.00">+ getType()</text>
<text text-anchor="start" x="15" y="-525.5" font-family="Helvetica,sans-Serif" font-size="10.00">+ getMapper()</text>
<text text-anchor="start" x="15" y="-514.5" font-family="Helvetica,sans-Serif" font-size="10.00">+ getOID()</text>
<text text-anchor="start" x="15" y="-503.5" font-family="Helvetica,sans-Serif" font-size="10.00">+ setOID()</text>
<text text-anchor="start" x="15" y="-492.5" font-family="Helvetica,sans-Serif" font-size="10.00">+ getState()</text>
<text text-anchor="start" x="15" y="-481.5" font-family="Helvetica,sans-Serif" font-size="10.00">+ setState()</text>
<text text-anchor="start" x="15" y="-470.5" font-family="Helvetica,sans-Serif" font-size="10.00">+ delete()</text>
<text text-anchor="start" x="15" y="-459.5" font-family="Helvetica,sans-Serif" font-size="10.00">+ __clone()</text>
<text text-anchor="start" x="15" y="-448.5" font-family="Helvetica,sans-Serif" font-size="10.00">+ copyValues()</text>
<text text-anchor="start" x="15" y="-437.5" font-family="Helvetica,sans-Serif" font-size="10.00">and 32 more...</text>
<text text-anchor="start" x="15" y="-426.5" font-family="Helvetica,sans-Serif" font-size="10.00"># setOIDInternal()</text>
<text text-anchor="start" x="15" y="-415.5" font-family="Helvetica,sans-Serif" font-size="10.00"># setValueInternal()</text>
<text text-anchor="start" x="15" y="-404.5" font-family="Helvetica,sans-Serif" font-size="10.00"># validateValueAgainstValidateType()</text>
</a>
</g>
</g>
<!-- Node3&#45;&gt;Node2 -->
<g id="edge2" class="edge">
<title>Node3&#45;&gt;Node2</title>
<path fill="none" stroke="midnightblue" d="M107.5,-387.05C107.5,-378.41 107.5,-369.65 107.5,-360.93"/>
<polygon fill="none" stroke="midnightblue" points="104,-387.14 107.5,-397.14 111,-387.14 104,-387.14"/>
</g>
<!-- Node4 -->
<g id="node4" class="node">
<title>Node4</title>
<g id="a_node4"><a xlink:href="interfacewcmf_1_1lib_1_1persistence_1_1_persistent_object.html" target="_top" xlink:title="PersistentObject defines the interface of all persistent objects.">
<polygon fill="white" stroke="black" points="0,-634.5 0,-834.5 107,-834.5 107,-634.5 0,-634.5"/>
<text text-anchor="middle" x="53.5" y="-822.5" font-family="Helvetica,sans-Serif" font-size="10.00">PersistentObject</text>
<polyline fill="none" stroke="black" points="0,-815.5 107,-815.5 "/>
<text text-anchor="start" x="8" y="-803.5" font-family="Helvetica,sans-Serif" font-size="10.00">+ STATE_CLEAN</text>
<text text-anchor="start" x="8" y="-792.5" font-family="Helvetica,sans-Serif" font-size="10.00">+ STATE_DIRTY</text>
<text text-anchor="start" x="8" y="-781.5" font-family="Helvetica,sans-Serif" font-size="10.00">+ STATE_NEW</text>
<text text-anchor="start" x="8" y="-770.5" font-family="Helvetica,sans-Serif" font-size="10.00">+ STATE_DELETED</text>
<polyline fill="none" stroke="black" points="0,-763.5 107,-763.5 "/>
<text text-anchor="start" x="8" y="-751.5" font-family="Helvetica,sans-Serif" font-size="10.00">+ getType()</text>
<text text-anchor="start" x="8" y="-740.5" font-family="Helvetica,sans-Serif" font-size="10.00">+ getMapper()</text>
<text text-anchor="start" x="8" y="-729.5" font-family="Helvetica,sans-Serif" font-size="10.00">+ getOID()</text>
<text text-anchor="start" x="8" y="-718.5" font-family="Helvetica,sans-Serif" font-size="10.00">+ setOID()</text>
<text text-anchor="start" x="8" y="-707.5" font-family="Helvetica,sans-Serif" font-size="10.00">+ getState()</text>
<text text-anchor="start" x="8" y="-696.5" font-family="Helvetica,sans-Serif" font-size="10.00">+ setState()</text>
<text text-anchor="start" x="8" y="-685.5" font-family="Helvetica,sans-Serif" font-size="10.00">+ delete()</text>
<text text-anchor="start" x="8" y="-674.5" font-family="Helvetica,sans-Serif" font-size="10.00">+ __clone()</text>
<text text-anchor="start" x="8" y="-663.5" font-family="Helvetica,sans-Serif" font-size="10.00">+ copyValues()</text>
<text text-anchor="start" x="8" y="-652.5" font-family="Helvetica,sans-Serif" font-size="10.00">+ mergeValues()</text>
<text text-anchor="start" x="8" y="-641.5" font-family="Helvetica,sans-Serif" font-size="10.00">and 28 more...</text>
</a>
</g>
</g>
<!-- Node4&#45;&gt;Node3 -->
<g id="edge3" class="edge">
<title>Node4&#45;&gt;Node3</title>
<path fill="none" stroke="midnightblue" d="M78.6,-624.27C80.63,-615.45 82.66,-606.58 84.67,-597.84"/>
<polygon fill="none" stroke="midnightblue" points="75.15,-623.65 76.32,-634.18 81.97,-625.22 75.15,-623.65"/>
</g>
<!-- Node5 -->
<g id="node5" class="node">
<title>Node5</title>
<g id="a_node5"><a xlink:title=" ">
<polygon fill="white" stroke="#bfbfbf" points="125.5,-706 125.5,-763 199.5,-763 199.5,-706 125.5,-706"/>
<text text-anchor="middle" x="162.5" y="-751" font-family="Helvetica,sans-Serif" font-size="10.00">Serializable</text>
<polyline fill="none" stroke="#bfbfbf" points="125.5,-744 199.5,-744 "/>
<text text-anchor="middle" x="162.5" y="-732" font-family="Helvetica,sans-Serif" font-size="10.00"> </text>
<polyline fill="none" stroke="#bfbfbf" points="125.5,-725 199.5,-725 "/>
<text text-anchor="middle" x="162.5" y="-713" font-family="Helvetica,sans-Serif" font-size="10.00"> </text>
</a>
</g>
</g>
<!-- Node5&#45;&gt;Node3 -->
<g id="edge4" class="edge">
<title>Node5&#45;&gt;Node3</title>
<path fill="none" stroke="midnightblue" d="M153.63,-695.62C147.42,-669.07 138.81,-632.27 130.71,-597.66"/>
<polygon fill="none" stroke="midnightblue" points="150.29,-696.68 155.97,-705.62 157.1,-695.09 150.29,-696.68"/>
</g>
<!-- Node6 -->
<g id="node6" class="node">
<title>Node6</title>
<g id="a_node6"><a xlink:href="interfacewcmf_1_1lib_1_1security_1_1principal_1_1_role.html" target="_top" xlink:title="Role is the interface for user roles.">
<polygon fill="white" stroke="black" points="220.5,-204.5 220.5,-272.5 300.5,-272.5 300.5,-204.5 220.5,-204.5"/>
<text text-anchor="middle" x="260.5" y="-260.5" font-family="Helvetica,sans-Serif" font-size="10.00">Role</text>
<polyline fill="none" stroke="black" points="220.5,-253.5 300.5,-253.5 "/>
<text text-anchor="middle" x="260.5" y="-241.5" font-family="Helvetica,sans-Serif" font-size="10.00"> </text>
<polyline fill="none" stroke="black" points="220.5,-234.5 300.5,-234.5 "/>
<text text-anchor="start" x="228.5" y="-222.5" font-family="Helvetica,sans-Serif" font-size="10.00">+ setName()</text>
<text text-anchor="start" x="228.5" y="-211.5" font-family="Helvetica,sans-Serif" font-size="10.00">+ getName()</text>
</a>
</g>
</g>
<!-- Node6&#45;&gt;Node1 -->
<g id="edge5" class="edge">
<title>Node6&#45;&gt;Node1</title>
<path fill="none" stroke="midnightblue" d="M243.62,-194.43C230.19,-160.15 211.56,-112.6 198.61,-79.56"/>
<polygon fill="none" stroke="midnightblue" points="240.53,-196.13 247.44,-204.17 247.05,-193.58 240.53,-196.13"/>
</g>
</g>
</svg>
