<?xml version="1.0" encoding="UTF-8" standalone="no"?>
<!DOCTYPE svg PUBLIC "-//W3C//DTD SVG 1.1//EN"
 "http://www.w3.org/Graphics/SVG/1.1/DTD/svg11.dtd">
<!-- Generated by graphviz version 2.43.0 (0)
 -->
<!-- Title: FileListStrategy Pages: 1 -->
<svg width="100pt" height="182pt"
 viewBox="0.00 0.00 100.00 182.00" xmlns="http://www.w3.org/2000/svg" xmlns:xlink="http://www.w3.org/1999/xlink">
<g id="graph0" class="graph" transform="scale(1 1) rotate(0) translate(4 178)">
<title>FileListStrategy</title>
<polygon fill="white" stroke="transparent" points="-4,4 -4,-178 96,-178 96,4 -4,4"/>
<!-- Node1 -->
<g id="node1" class="node">
<title>Node1</title>
<g id="a_node1"><a xlink:title="FileListStrategy implements a list of key value pairs that is retrieved from an configuration section...">
<polygon fill="#bfbfbf" stroke="black" points="0,-0.5 0,-68.5 92,-68.5 92,-0.5 0,-0.5"/>
<text text-anchor="middle" x="46" y="-56.5" font-family="Helvetica,sans-Serif" font-size="10.00">FileListStrategy</text>
<polyline fill="none" stroke="black" points="0,-49.5 92,-49.5 "/>
<text text-anchor="middle" x="46" y="-37.5" font-family="Helvetica,sans-Serif" font-size="10.00"> </text>
<polyline fill="none" stroke="black" points="0,-30.5 92,-30.5 "/>
<text text-anchor="start" x="8" y="-18.5" font-family="Helvetica,sans-Serif" font-size="10.00">+ getList()</text>
<text text-anchor="start" x="8" y="-7.5" font-family="Helvetica,sans-Serif" font-size="10.00">+ isStatic()</text>
</a>
</g>
</g>
<!-- Node2 -->
<g id="node2" class="node">
<title>Node2</title>
<g id="a_node2"><a xlink:href="interfacewcmf_1_1lib_1_1presentation_1_1control_1_1lists_1_1_list_strategy.html" target="_top" xlink:title="ListStrategy defines the interface for classes that retrieve value lists.">
<polygon fill="white" stroke="black" points="8.5,-105.5 8.5,-173.5 83.5,-173.5 83.5,-105.5 8.5,-105.5"/>
<text text-anchor="middle" x="46" y="-161.5" font-family="Helvetica,sans-Serif" font-size="10.00">ListStrategy</text>
<polyline fill="none" stroke="black" points="8.5,-154.5 83.5,-154.5 "/>
<text text-anchor="middle" x="46" y="-142.5" font-family="Helvetica,sans-Serif" font-size="10.00"> </text>
<polyline fill="none" stroke="black" points="8.5,-135.5 83.5,-135.5 "/>
<text text-anchor="start" x="16.5" y="-123.5" font-family="Helvetica,sans-Serif" font-size="10.00">+ getList()</text>
<text text-anchor="start" x="16.5" y="-112.5" font-family="Helvetica,sans-Serif" font-size="10.00">+ isStatic()</text>
</a>
</g>
</g>
<!-- Node2&#45;&gt;Node1 -->
<g id="edge1" class="edge">
<title>Node2&#45;&gt;Node1</title>
<path fill="none" stroke="midnightblue" d="M46,-95.14C46,-86.26 46,-77.04 46,-68.59"/>
<polygon fill="none" stroke="midnightblue" points="42.5,-95.34 46,-105.34 49.5,-95.34 42.5,-95.34"/>
</g>
</g>
</svg>
