<?xml version="1.0" encoding="UTF-8" standalone="no"?>
<!DOCTYPE svg PUBLIC "-//W3C//DTD SVG 1.1//EN"
 "http://www.w3.org/Graphics/SVG/1.1/DTD/svg11.dtd">
<!-- Generated by graphviz version 2.43.0 (0)
 -->
<!-- Title: ListStrategy Pages: 1 -->
<svg width="606pt" height="204pt"
 viewBox="0.00 0.00 606.00 204.00" xmlns="http://www.w3.org/2000/svg" xmlns:xlink="http://www.w3.org/1999/xlink">
<g id="graph0" class="graph" transform="scale(1 1) rotate(0) translate(4 200)">
<title>ListStrategy</title>
<polygon fill="white" stroke="transparent" points="-4,4 -4,-200 602,-200 602,4 -4,4"/>
<!-- Node1 -->
<g id="node1" class="node">
<title>Node1</title>
<g id="a_node1"><a xlink:title="ListStrategy defines the interface for classes that retrieve value lists.">
<polygon fill="#bfbfbf" stroke="black" points="247.5,-127.5 247.5,-195.5 322.5,-195.5 322.5,-127.5 247.5,-127.5"/>
<text text-anchor="middle" x="285" y="-183.5" font-family="Helvetica,sans-Serif" font-size="10.00">ListStrategy</text>
<polyline fill="none" stroke="black" points="247.5,-176.5 322.5,-176.5 "/>
<text text-anchor="middle" x="285" y="-164.5" font-family="Helvetica,sans-Serif" font-size="10.00"> </text>
<polyline fill="none" stroke="black" points="247.5,-157.5 322.5,-157.5 "/>
<text text-anchor="start" x="255.5" y="-145.5" font-family="Helvetica,sans-Serif" font-size="10.00">+ getList()</text>
<text text-anchor="start" x="255.5" y="-134.5" font-family="Helvetica,sans-Serif" font-size="10.00">+ isStatic()</text>
</a>
</g>
</g>
<!-- Node2 -->
<g id="node2" class="node">
<title>Node2</title>
<g id="a_node2"><a xlink:href="classwcmf_1_1lib_1_1presentation_1_1control_1_1lists_1_1impl_1_1_config_list_strategy.html" target="_top" xlink:title="ConfigListStrategy implements a list of key/value pairs that is retrieved from a configuration sectio...">
<polygon fill="white" stroke="black" points="0,-11.5 0,-79.5 106,-79.5 106,-11.5 0,-11.5"/>
<text text-anchor="middle" x="53" y="-67.5" font-family="Helvetica,sans-Serif" font-size="10.00">ConfigListStrategy</text>
<polyline fill="none" stroke="black" points="0,-60.5 106,-60.5 "/>
<text text-anchor="middle" x="53" y="-48.5" font-family="Helvetica,sans-Serif" font-size="10.00"> </text>
<polyline fill="none" stroke="black" points="0,-41.5 106,-41.5 "/>
<text text-anchor="start" x="8" y="-29.5" font-family="Helvetica,sans-Serif" font-size="10.00">+ getList()</text>
<text text-anchor="start" x="8" y="-18.5" font-family="Helvetica,sans-Serif" font-size="10.00">+ isStatic()</text>
</a>
</g>
</g>
<!-- Node1&#45;&gt;Node2 -->
<g id="edge1" class="edge">
<title>Node1&#45;&gt;Node2</title>
<path fill="none" stroke="midnightblue" d="M237.9,-144.62C202.99,-132.06 154.78,-113.01 115,-91 108.86,-87.6 102.6,-83.7 96.54,-79.66"/>
<polygon fill="none" stroke="midnightblue" points="236.77,-147.94 247.37,-147.99 239.12,-141.35 236.77,-147.94"/>
</g>
<!-- Node3 -->
<g id="node3" class="node">
<title>Node3</title>
<g id="a_node3"><a xlink:href="classwcmf_1_1lib_1_1presentation_1_1control_1_1lists_1_1impl_1_1_file_list_strategy.html" target="_top" xlink:title="FileListStrategy implements a list of key value pairs that is retrieved from an configuration section...">
<polygon fill="white" stroke="black" points="124,-11.5 124,-79.5 216,-79.5 216,-11.5 124,-11.5"/>
<text text-anchor="middle" x="170" y="-67.5" font-family="Helvetica,sans-Serif" font-size="10.00">FileListStrategy</text>
<polyline fill="none" stroke="black" points="124,-60.5 216,-60.5 "/>
<text text-anchor="middle" x="170" y="-48.5" font-family="Helvetica,sans-Serif" font-size="10.00"> </text>
<polyline fill="none" stroke="black" points="124,-41.5 216,-41.5 "/>
<text text-anchor="start" x="132" y="-29.5" font-family="Helvetica,sans-Serif" font-size="10.00">+ getList()</text>
<text text-anchor="start" x="132" y="-18.5" font-family="Helvetica,sans-Serif" font-size="10.00">+ isStatic()</text>
</a>
</g>
</g>
<!-- Node1&#45;&gt;Node3 -->
<g id="edge2" class="edge">
<title>Node1&#45;&gt;Node3</title>
<path fill="none" stroke="midnightblue" d="M244.17,-120.02C230.82,-106.79 216.15,-92.25 203.41,-79.62"/>
<polygon fill="none" stroke="midnightblue" points="241.86,-122.67 251.43,-127.22 246.79,-117.69 241.86,-122.67"/>
</g>
<!-- Node4 -->
<g id="node4" class="node">
<title>Node4</title>
<g id="a_node4"><a xlink:href="classwcmf_1_1lib_1_1presentation_1_1control_1_1lists_1_1impl_1_1_fixed_list_strategy.html" target="_top" xlink:title="FixedListStrategy implements a constant list of key/value pairs.">
<polygon fill="white" stroke="black" points="234.5,-11.5 234.5,-79.5 335.5,-79.5 335.5,-11.5 234.5,-11.5"/>
<text text-anchor="middle" x="285" y="-67.5" font-family="Helvetica,sans-Serif" font-size="10.00">FixedListStrategy</text>
<polyline fill="none" stroke="black" points="234.5,-60.5 335.5,-60.5 "/>
<text text-anchor="middle" x="285" y="-48.5" font-family="Helvetica,sans-Serif" font-size="10.00"> </text>
<polyline fill="none" stroke="black" points="234.5,-41.5 335.5,-41.5 "/>
<text text-anchor="start" x="242.5" y="-29.5" font-family="Helvetica,sans-Serif" font-size="10.00">+ getList()</text>
<text text-anchor="start" x="242.5" y="-18.5" font-family="Helvetica,sans-Serif" font-size="10.00">+ isStatic()</text>
</a>
</g>
</g>
<!-- Node1&#45;&gt;Node4 -->
<g id="edge3" class="edge">
<title>Node1&#45;&gt;Node4</title>
<path fill="none" stroke="midnightblue" d="M285,-117.06C285,-104.64 285,-91.32 285,-79.62"/>
<polygon fill="none" stroke="midnightblue" points="281.5,-117.22 285,-127.22 288.5,-117.22 281.5,-117.22"/>
</g>
<!-- Node5 -->
<g id="node5" class="node">
<title>Node5</title>
<g id="a_node5"><a xlink:href="classwcmf_1_1lib_1_1presentation_1_1control_1_1lists_1_1impl_1_1_function_list_strategy.html" target="_top" xlink:title="FunctionListStrategy implements a list of key/value pairs that is retrieved by a global function.">
<polygon fill="white" stroke="black" points="354,-11.5 354,-79.5 470,-79.5 470,-11.5 354,-11.5"/>
<text text-anchor="middle" x="412" y="-67.5" font-family="Helvetica,sans-Serif" font-size="10.00">FunctionListStrategy</text>
<polyline fill="none" stroke="black" points="354,-60.5 470,-60.5 "/>
<text text-anchor="middle" x="412" y="-48.5" font-family="Helvetica,sans-Serif" font-size="10.00"> </text>
<polyline fill="none" stroke="black" points="354,-41.5 470,-41.5 "/>
<text text-anchor="start" x="362" y="-29.5" font-family="Helvetica,sans-Serif" font-size="10.00">+ getList()</text>
<text text-anchor="start" x="362" y="-18.5" font-family="Helvetica,sans-Serif" font-size="10.00">+ isStatic()</text>
</a>
</g>
</g>
<!-- Node1&#45;&gt;Node5 -->
<g id="edge4" class="edge">
<title>Node1&#45;&gt;Node5</title>
<path fill="none" stroke="midnightblue" d="M329.69,-120.39C344.54,-107.06 360.9,-92.37 375.1,-79.62"/>
<polygon fill="none" stroke="midnightblue" points="327.18,-117.94 322.08,-127.22 331.85,-123.14 327.18,-117.94"/>
</g>
<!-- Node6 -->
<g id="node6" class="node">
<title>Node6</title>
<g id="a_node6"><a xlink:href="classwcmf_1_1lib_1_1presentation_1_1control_1_1lists_1_1impl_1_1_node_list_strategy.html" target="_top" xlink:title="NodeListStrategy implements a list of entities that is retrieved from the store, where the keys are t...">
<polygon fill="white" stroke="black" points="488,-0.5 488,-90.5 598,-90.5 598,-0.5 488,-0.5"/>
<text text-anchor="middle" x="543" y="-78.5" font-family="Helvetica,sans-Serif" font-size="10.00">NodeListStrategy</text>
<polyline fill="none" stroke="black" points="488,-71.5 598,-71.5 "/>
<text text-anchor="start" x="496" y="-59.5" font-family="Helvetica,sans-Serif" font-size="10.00">+ CACHE_SECTION</text>
<text text-anchor="start" x="496" y="-48.5" font-family="Helvetica,sans-Serif" font-size="10.00"># $cache</text>
<polyline fill="none" stroke="black" points="488,-41.5 598,-41.5 "/>
<text text-anchor="start" x="496" y="-29.5" font-family="Helvetica,sans-Serif" font-size="10.00">+ __construct()</text>
<text text-anchor="start" x="496" y="-18.5" font-family="Helvetica,sans-Serif" font-size="10.00">+ getList()</text>
<text text-anchor="start" x="496" y="-7.5" font-family="Helvetica,sans-Serif" font-size="10.00">+ isStatic()</text>
</a>
</g>
</g>
<!-- Node1&#45;&gt;Node6 -->
<g id="edge5" class="edge">
<title>Node1&#45;&gt;Node6</title>
<path fill="none" stroke="midnightblue" d="M332.49,-147.33C372.68,-135.29 431.21,-115.62 479,-91 481.89,-89.51 484.8,-87.91 487.7,-86.23"/>
<polygon fill="none" stroke="midnightblue" points="331.28,-144.03 322.68,-150.22 333.26,-150.75 331.28,-144.03"/>
</g>
</g>
</svg>
