<?xml version="1.0" encoding="UTF-8" standalone="no"?>
<!DOCTYPE svg PUBLIC "-//W3C//DTD SVG 1.1//EN"
 "http://www.w3.org/Graphics/SVG/1.1/DTD/svg11.dtd">
<!-- Generated by graphviz version 2.43.0 (0)
 -->
<!-- Title: Message Pages: 1 -->
<svg width="99pt" height="193pt"
 viewBox="0.00 0.00 99.00 193.00" xmlns="http://www.w3.org/2000/svg" xmlns:xlink="http://www.w3.org/1999/xlink">
<g id="graph0" class="graph" transform="scale(1 1) rotate(0) translate(4 189)">
<title>Message</title>
<polygon fill="white" stroke="transparent" points="-4,4 -4,-189 95,-189 95,4 -4,4"/>
<!-- Node1 -->
<g id="node1" class="node">
<title>Node1</title>
<g id="a_node1"><a xlink:title="Message is used to get localized messages to be used in the user interface.">
<polygon fill="#bfbfbf" stroke="black" points="10,-116.5 10,-184.5 81,-184.5 81,-116.5 10,-116.5"/>
<text text-anchor="middle" x="45.5" y="-172.5" font-family="Helvetica,sans-Serif" font-size="10.00">Message</text>
<polyline fill="none" stroke="black" points="10,-165.5 81,-165.5 "/>
<text text-anchor="middle" x="45.5" y="-153.5" font-family="Helvetica,sans-Serif" font-size="10.00"> </text>
<polyline fill="none" stroke="black" points="10,-146.5 81,-146.5 "/>
<text text-anchor="start" x="18" y="-134.5" font-family="Helvetica,sans-Serif" font-size="10.00">+ getText()</text>
<text text-anchor="start" x="18" y="-123.5" font-family="Helvetica,sans-Serif" font-size="10.00">+ getAll()</text>
</a>
</g>
</g>
<!-- Node2 -->
<g id="node2" class="node">
<title>Node2</title>
<g id="a_node2"><a xlink:href="classwcmf_1_1lib_1_1i18n_1_1impl_1_1_file_message.html" target="_top" xlink:title="FileMessage retrieves localized messages from files, that are stored in the localization directory.">
<polygon fill="white" stroke="black" points="0,-0.5 0,-79.5 91,-79.5 91,-0.5 0,-0.5"/>
<text text-anchor="middle" x="45.5" y="-67.5" font-family="Helvetica,sans-Serif" font-size="10.00">FileMessage</text>
<polyline fill="none" stroke="black" points="0,-60.5 91,-60.5 "/>
<text text-anchor="middle" x="45.5" y="-48.5" font-family="Helvetica,sans-Serif" font-size="10.00"> </text>
<polyline fill="none" stroke="black" points="0,-41.5 91,-41.5 "/>
<text text-anchor="start" x="8" y="-29.5" font-family="Helvetica,sans-Serif" font-size="10.00">+ __construct()</text>
<text text-anchor="start" x="8" y="-18.5" font-family="Helvetica,sans-Serif" font-size="10.00">+ getText()</text>
<text text-anchor="start" x="8" y="-7.5" font-family="Helvetica,sans-Serif" font-size="10.00">+ getAll()</text>
</a>
</g>
</g>
<!-- Node1&#45;&gt;Node2 -->
<g id="edge1" class="edge">
<title>Node1&#45;&gt;Node2</title>
<path fill="none" stroke="midnightblue" d="M45.5,-106.27C45.5,-97.48 45.5,-88.28 45.5,-79.65"/>
<polygon fill="none" stroke="midnightblue" points="42,-106.36 45.5,-116.36 49,-106.36 42,-106.36"/>
</g>
</g>
</svg>
