<?xml version="1.0" encoding="UTF-8" standalone="no"?>
<!DOCTYPE svg PUBLIC "-//W3C//DTD SVG 1.1//EN"
 "http://www.w3.org/Graphics/SVG/1.1/DTD/svg11.dtd">
<!-- Generated by graphviz version 2.43.0 (0)
 -->
<!-- Title: Session Pages: 1 -->
<svg width="267pt" height="716pt"
 viewBox="0.00 0.00 267.00 716.00" xmlns="http://www.w3.org/2000/svg" xmlns:xlink="http://www.w3.org/1999/xlink">
<g id="graph0" class="graph" transform="scale(1 1) rotate(0) translate(4 712)">
<title>Session</title>
<polygon fill="white" stroke="transparent" points="-4,4 -4,-712 263,-712 263,4 -4,4"/>
<!-- Node1 -->
<g id="node1" class="node">
<title>Node1</title>
<g id="a_node1"><a xlink:title="Session is the interface for session implementations and defines access to session variables.">
<polygon fill="#bfbfbf" stroke="black" points="81,-551.5 81,-707.5 177,-707.5 177,-551.5 81,-551.5"/>
<text text-anchor="middle" x="129" y="-695.5" font-family="Helvetica,sans-Serif" font-size="10.00">Session</text>
<polyline fill="none" stroke="black" points="81,-688.5 177,-688.5 "/>
<text text-anchor="middle" x="129" y="-676.5" font-family="Helvetica,sans-Serif" font-size="10.00"> </text>
<polyline fill="none" stroke="black" points="81,-669.5 177,-669.5 "/>
<text text-anchor="start" x="89" y="-657.5" font-family="Helvetica,sans-Serif" font-size="10.00">+ isStarted()</text>
<text text-anchor="start" x="89" y="-646.5" font-family="Helvetica,sans-Serif" font-size="10.00">+ getID()</text>
<text text-anchor="start" x="89" y="-635.5" font-family="Helvetica,sans-Serif" font-size="10.00">+ get()</text>
<text text-anchor="start" x="89" y="-624.5" font-family="Helvetica,sans-Serif" font-size="10.00">+ set()</text>
<text text-anchor="start" x="89" y="-613.5" font-family="Helvetica,sans-Serif" font-size="10.00">+ remove()</text>
<text text-anchor="start" x="89" y="-602.5" font-family="Helvetica,sans-Serif" font-size="10.00">+ exist()</text>
<text text-anchor="start" x="89" y="-591.5" font-family="Helvetica,sans-Serif" font-size="10.00">+ clear()</text>
<text text-anchor="start" x="89" y="-580.5" font-family="Helvetica,sans-Serif" font-size="10.00">+ destroy()</text>
<text text-anchor="start" x="89" y="-569.5" font-family="Helvetica,sans-Serif" font-size="10.00">+ setAuthUser()</text>
<text text-anchor="start" x="89" y="-558.5" font-family="Helvetica,sans-Serif" font-size="10.00">+ getAuthUser()</text>
</a>
</g>
</g>
<!-- Node2 -->
<g id="node2" class="node">
<title>Node2</title>
<g id="a_node2"><a xlink:href="classwcmf_1_1lib_1_1core_1_1impl_1_1_default_session.html" target="_top" xlink:title="DefaultSession uses the default PHP session implementation:">
<polygon fill="white" stroke="black" points="0,-325.5 0,-514.5 122,-514.5 122,-325.5 0,-325.5"/>
<text text-anchor="middle" x="61" y="-502.5" font-family="Helvetica,sans-Serif" font-size="10.00">DefaultSession</text>
<polyline fill="none" stroke="black" points="0,-495.5 122,-495.5 "/>
<text text-anchor="start" x="8" y="-483.5" font-family="Helvetica,sans-Serif" font-size="10.00">+ AUTH_USER_NAME</text>
<polyline fill="none" stroke="black" points="0,-476.5 122,-476.5 "/>
<text text-anchor="start" x="8" y="-464.5" font-family="Helvetica,sans-Serif" font-size="10.00">+ __construct()</text>
<text text-anchor="start" x="8" y="-453.5" font-family="Helvetica,sans-Serif" font-size="10.00">+ __destruct()</text>
<text text-anchor="start" x="8" y="-442.5" font-family="Helvetica,sans-Serif" font-size="10.00">+ isStarted()</text>
<text text-anchor="start" x="8" y="-431.5" font-family="Helvetica,sans-Serif" font-size="10.00">+ getID()</text>
<text text-anchor="start" x="8" y="-420.5" font-family="Helvetica,sans-Serif" font-size="10.00">+ get()</text>
<text text-anchor="start" x="8" y="-409.5" font-family="Helvetica,sans-Serif" font-size="10.00">+ set()</text>
<text text-anchor="start" x="8" y="-398.5" font-family="Helvetica,sans-Serif" font-size="10.00">+ remove()</text>
<text text-anchor="start" x="8" y="-387.5" font-family="Helvetica,sans-Serif" font-size="10.00">+ exist()</text>
<text text-anchor="start" x="8" y="-376.5" font-family="Helvetica,sans-Serif" font-size="10.00">+ clear()</text>
<text text-anchor="start" x="8" y="-365.5" font-family="Helvetica,sans-Serif" font-size="10.00">+ destroy()</text>
<text text-anchor="start" x="8" y="-354.5" font-family="Helvetica,sans-Serif" font-size="10.00">+ setAuthUser()</text>
<text text-anchor="start" x="8" y="-343.5" font-family="Helvetica,sans-Serif" font-size="10.00">+ getAuthUser()</text>
<text text-anchor="start" x="8" y="-332.5" font-family="Helvetica,sans-Serif" font-size="10.00"># getCookiePrefix()</text>
</a>
</g>
</g>
<!-- Node1&#45;&gt;Node2 -->
<g id="edge1" class="edge">
<title>Node1&#45;&gt;Node2</title>
<path fill="none" stroke="midnightblue" d="M100.55,-541.69C97.64,-532.81 94.68,-523.77 91.75,-514.82"/>
<polygon fill="none" stroke="midnightblue" points="97.24,-542.82 103.68,-551.23 103.89,-540.64 97.24,-542.82"/>
</g>
<!-- Node4 -->
<g id="node4" class="node">
<title>Node4</title>
<g id="a_node4"><a xlink:href="interfacewcmf_1_1lib_1_1core_1_1_token_based_session.html" target="_top" xlink:title="A session that requires clients to send a token for authentication.">
<polygon fill="white" stroke="black" points="140,-386 140,-454 256,-454 256,-386 140,-386"/>
<text text-anchor="middle" x="198" y="-442" font-family="Helvetica,sans-Serif" font-size="10.00">TokenBasedSession</text>
<polyline fill="none" stroke="black" points="140,-435 256,-435 "/>
<text text-anchor="middle" x="198" y="-423" font-family="Helvetica,sans-Serif" font-size="10.00"> </text>
<polyline fill="none" stroke="black" points="140,-416 256,-416 "/>
<text text-anchor="start" x="148" y="-404" font-family="Helvetica,sans-Serif" font-size="10.00">+ getHeaderName()</text>
<text text-anchor="start" x="148" y="-393" font-family="Helvetica,sans-Serif" font-size="10.00">+ getCookieName()</text>
</a>
</g>
</g>
<!-- Node1&#45;&gt;Node4 -->
<g id="edge3" class="edge">
<title>Node1&#45;&gt;Node4</title>
<path fill="none" stroke="midnightblue" d="M157.86,-541.71C168.15,-510.78 179.12,-477.77 186.99,-454.1"/>
<polygon fill="none" stroke="midnightblue" points="154.53,-540.64 154.69,-551.23 161.17,-542.85 154.53,-540.64"/>
</g>
<!-- Node3 -->
<g id="node3" class="node">
<title>Node3</title>
<g id="a_node3"><a xlink:href="classwcmf_1_1lib_1_1core_1_1impl_1_1_auth_token_session.html" target="_top" xlink:title="AuthTokenSession is a DefaultSession, but additionally requires clients to send a token in the X&#45;Auth...">
<polygon fill="white" stroke="black" points="3,-88.5 3,-200.5 119,-200.5 119,-88.5 3,-88.5"/>
<text text-anchor="middle" x="61" y="-188.5" font-family="Helvetica,sans-Serif" font-size="10.00">AuthTokenSession</text>
<polyline fill="none" stroke="black" points="3,-181.5 119,-181.5 "/>
<text text-anchor="start" x="11" y="-169.5" font-family="Helvetica,sans-Serif" font-size="10.00">+ TOKEN_HEADER</text>
<polyline fill="none" stroke="black" points="3,-162.5 119,-162.5 "/>
<text text-anchor="start" x="11" y="-150.5" font-family="Helvetica,sans-Serif" font-size="10.00">+ __construct()</text>
<text text-anchor="start" x="11" y="-139.5" font-family="Helvetica,sans-Serif" font-size="10.00">+ getHeaderName()</text>
<text text-anchor="start" x="11" y="-128.5" font-family="Helvetica,sans-Serif" font-size="10.00">+ getCookieName()</text>
<text text-anchor="start" x="11" y="-117.5" font-family="Helvetica,sans-Serif" font-size="10.00">+ setAuthUser()</text>
<text text-anchor="start" x="11" y="-106.5" font-family="Helvetica,sans-Serif" font-size="10.00">+ getAuthUser()</text>
<text text-anchor="start" x="11" y="-95.5" font-family="Helvetica,sans-Serif" font-size="10.00"># isTokenValid()</text>
</a>
</g>
</g>
<!-- Node2&#45;&gt;Node3 -->
<g id="edge2" class="edge">
<title>Node2&#45;&gt;Node3</title>
<path fill="none" stroke="midnightblue" d="M61,-314.95C61,-276.13 61,-233.58 61,-200.83"/>
<polygon fill="none" stroke="midnightblue" points="57.5,-315.26 61,-325.26 64.5,-315.26 57.5,-315.26"/>
</g>
<!-- Node4&#45;&gt;Node3 -->
<g id="edge4" class="edge">
<title>Node4&#45;&gt;Node3</title>
<path fill="none" stroke="midnightblue" d="M174.56,-376.92C160.66,-351.63 142.91,-318.68 128,-289 113.5,-260.13 98.2,-227.53 85.88,-200.71"/>
<polygon fill="none" stroke="midnightblue" points="171.6,-378.81 179.49,-385.88 177.73,-375.43 171.6,-378.81"/>
</g>
<!-- Node5 -->
<g id="node5" class="node">
<title>Node5</title>
<g id="a_node5"><a xlink:href="classwcmf_1_1lib_1_1core_1_1impl_1_1_client_side_session.html" target="_top" xlink:title="ClientSideSession has no server state as it stores the data in cookies.">
<polygon fill="white" stroke="black" points="137,-0.5 137,-288.5 259,-288.5 259,-0.5 137,-0.5"/>
<text text-anchor="middle" x="198" y="-276.5" font-family="Helvetica,sans-Serif" font-size="10.00">ClientSideSession</text>
<polyline fill="none" stroke="black" points="137,-269.5 259,-269.5 "/>
<text text-anchor="start" x="145" y="-257.5" font-family="Helvetica,sans-Serif" font-size="10.00">+ TOKEN_HEADER</text>
<text text-anchor="start" x="145" y="-246.5" font-family="Helvetica,sans-Serif" font-size="10.00">+ AUTH_TYPE</text>
<text text-anchor="start" x="145" y="-235.5" font-family="Helvetica,sans-Serif" font-size="10.00">+ AUTH_USER_NAME</text>
<polyline fill="none" stroke="black" points="137,-228.5 259,-228.5 "/>
<text text-anchor="start" x="145" y="-216.5" font-family="Helvetica,sans-Serif" font-size="10.00">+ __construct()</text>
<text text-anchor="start" x="145" y="-205.5" font-family="Helvetica,sans-Serif" font-size="10.00">+ getHeaderName()</text>
<text text-anchor="start" x="145" y="-194.5" font-family="Helvetica,sans-Serif" font-size="10.00">+ getCookieName()</text>
<text text-anchor="start" x="145" y="-183.5" font-family="Helvetica,sans-Serif" font-size="10.00">+ isStarted()</text>
<text text-anchor="start" x="145" y="-172.5" font-family="Helvetica,sans-Serif" font-size="10.00">+ getID()</text>
<text text-anchor="start" x="145" y="-161.5" font-family="Helvetica,sans-Serif" font-size="10.00">+ get()</text>
<text text-anchor="start" x="145" y="-150.5" font-family="Helvetica,sans-Serif" font-size="10.00">+ set()</text>
<text text-anchor="start" x="145" y="-139.5" font-family="Helvetica,sans-Serif" font-size="10.00">+ remove()</text>
<text text-anchor="start" x="145" y="-128.5" font-family="Helvetica,sans-Serif" font-size="10.00">+ exist()</text>
<text text-anchor="start" x="145" y="-117.5" font-family="Helvetica,sans-Serif" font-size="10.00">+ clear()</text>
<text text-anchor="start" x="145" y="-106.5" font-family="Helvetica,sans-Serif" font-size="10.00">+ destroy()</text>
<text text-anchor="start" x="145" y="-95.5" font-family="Helvetica,sans-Serif" font-size="10.00">+ setAuthUser()</text>
<text text-anchor="start" x="145" y="-84.5" font-family="Helvetica,sans-Serif" font-size="10.00">+ getAuthUser()</text>
<text text-anchor="start" x="145" y="-73.5" font-family="Helvetica,sans-Serif" font-size="10.00"># getCookiePrefix()</text>
<text text-anchor="start" x="145" y="-62.5" font-family="Helvetica,sans-Serif" font-size="10.00"># createToken()</text>
<text text-anchor="start" x="145" y="-51.5" font-family="Helvetica,sans-Serif" font-size="10.00"># getTokenIssuer()</text>
<text text-anchor="start" x="145" y="-40.5" font-family="Helvetica,sans-Serif" font-size="10.00"># getTokenSigner()</text>
<text text-anchor="start" x="145" y="-29.5" font-family="Helvetica,sans-Serif" font-size="10.00"># getTokenData()</text>
<text text-anchor="start" x="145" y="-18.5" font-family="Helvetica,sans-Serif" font-size="10.00"># serializeValue()</text>
<text text-anchor="start" x="145" y="-7.5" font-family="Helvetica,sans-Serif" font-size="10.00"># unserializeValue()</text>
</a>
</g>
</g>
<!-- Node4&#45;&gt;Node5 -->
<g id="edge5" class="edge">
<title>Node4&#45;&gt;Node5</title>
<path fill="none" stroke="midnightblue" d="M198,-375.61C198,-351.65 198,-320.39 198,-288.66"/>
<polygon fill="none" stroke="midnightblue" points="194.5,-375.74 198,-385.74 201.5,-375.74 194.5,-375.74"/>
</g>
</g>
</svg>
