<?xml version="1.0" encoding="UTF-8" standalone="no"?>
<!DOCTYPE svg PUBLIC "-//W3C//DTD SVG 1.1//EN"
 "http://www.w3.org/Graphics/SVG/1.1/DTD/svg11.dtd">
<!-- Generated by graphviz version 2.43.0 (0)
 -->
<!-- Title: PermissionManager Pages: 1 -->
<svg width="582pt" height="716pt"
 viewBox="0.00 0.00 582.00 716.00" xmlns="http://www.w3.org/2000/svg" xmlns:xlink="http://www.w3.org/1999/xlink">
<g id="graph0" class="graph" transform="scale(1 1) rotate(0) translate(4 712)">
<title>PermissionManager</title>
<polygon fill="white" stroke="transparent" points="-4,4 -4,-712 578,-712 578,4 -4,4"/>
<!-- Node1 -->
<g id="node1" class="node">
<title>Node1</title>
<g id="a_node1"><a xlink:title="PermissionManager implementations are used to handle all authorization requests.">
<polygon fill="#bfbfbf" stroke="black" points="187,-540.5 187,-707.5 362,-707.5 362,-540.5 187,-540.5"/>
<text text-anchor="middle" x="274.5" y="-695.5" font-family="Helvetica,sans-Serif" font-size="10.00">PermissionManager</text>
<polyline fill="none" stroke="black" points="187,-688.5 362,-688.5 "/>
<text text-anchor="start" x="195" y="-676.5" font-family="Helvetica,sans-Serif" font-size="10.00">+ PERMISSION_MODIFIER</text>
<text text-anchor="start" x="195" y="-665.5" font-family="Helvetica,sans-Serif" font-size="10.00">_ALLOW</text>
<text text-anchor="start" x="195" y="-654.5" font-family="Helvetica,sans-Serif" font-size="10.00">+ PERMISSION_MODIFIER_DENY</text>
<polyline fill="none" stroke="black" points="187,-647.5 362,-647.5 "/>
<text text-anchor="start" x="195" y="-635.5" font-family="Helvetica,sans-Serif" font-size="10.00">+ authorize()</text>
<text text-anchor="start" x="195" y="-624.5" font-family="Helvetica,sans-Serif" font-size="10.00">+ addTempPermission()</text>
<text text-anchor="start" x="195" y="-613.5" font-family="Helvetica,sans-Serif" font-size="10.00">+ removeTempPermission()</text>
<text text-anchor="start" x="195" y="-602.5" font-family="Helvetica,sans-Serif" font-size="10.00">+ hasTempPermission()</text>
<text text-anchor="start" x="195" y="-591.5" font-family="Helvetica,sans-Serif" font-size="10.00">+ clearTempPermissions()</text>
<text text-anchor="start" x="195" y="-580.5" font-family="Helvetica,sans-Serif" font-size="10.00">+ getPermissions()</text>
<text text-anchor="start" x="195" y="-569.5" font-family="Helvetica,sans-Serif" font-size="10.00">+ setPermissions()</text>
<text text-anchor="start" x="195" y="-558.5" font-family="Helvetica,sans-Serif" font-size="10.00">+ createPermission()</text>
<text text-anchor="start" x="195" y="-547.5" font-family="Helvetica,sans-Serif" font-size="10.00">+ removePermission()</text>
</a>
</g>
</g>
<!-- Node2 -->
<g id="node2" class="node">
<title>Node2</title>
<g id="a_node2"><a xlink:href="classwcmf_1_1lib_1_1security_1_1impl_1_1_abstract_permission_manager.html" target="_top" xlink:title="AbstractPermissionManager is the base class for concrete PermissionManager implementations.">
<polygon fill="white" stroke="black" points="185,-182.5 185,-503.5 364,-503.5 364,-182.5 185,-182.5"/>
<text text-anchor="middle" x="274.5" y="-491.5" font-family="Helvetica,sans-Serif" font-size="10.00">AbstractPermissionManager</text>
<polyline fill="none" stroke="black" points="185,-484.5 364,-484.5 "/>
<text text-anchor="start" x="193" y="-472.5" font-family="Helvetica,sans-Serif" font-size="10.00">+ RESOURCE_TYPE_ENTITY_TYPE</text>
<text text-anchor="start" x="193" y="-461.5" font-family="Helvetica,sans-Serif" font-size="10.00">+ RESOURCE_TYPE_ENTITY</text>
<text text-anchor="start" x="193" y="-450.5" font-family="Helvetica,sans-Serif" font-size="10.00">_TYPE_PROPERTY</text>
<text text-anchor="start" x="193" y="-439.5" font-family="Helvetica,sans-Serif" font-size="10.00">+ RESOURCE_TYPE_ENTITY</text>
<text text-anchor="start" x="193" y="-428.5" font-family="Helvetica,sans-Serif" font-size="10.00">_INSTANCE</text>
<text text-anchor="start" x="193" y="-417.5" font-family="Helvetica,sans-Serif" font-size="10.00">+ RESOURCE_TYPE_ENTITY</text>
<text text-anchor="start" x="193" y="-406.5" font-family="Helvetica,sans-Serif" font-size="10.00">_INSTANCE_PROPERTY</text>
<text text-anchor="start" x="193" y="-395.5" font-family="Helvetica,sans-Serif" font-size="10.00">+ RESOURCE_TYPE_OTHER</text>
<text text-anchor="start" x="193" y="-384.5" font-family="Helvetica,sans-Serif" font-size="10.00"># $persistenceFacade</text>
<text text-anchor="start" x="193" y="-373.5" font-family="Helvetica,sans-Serif" font-size="10.00"># $session</text>
<text text-anchor="start" x="193" y="-362.5" font-family="Helvetica,sans-Serif" font-size="10.00"># $dynamicRoles</text>
<text text-anchor="start" x="193" y="-351.5" font-family="Helvetica,sans-Serif" font-size="10.00"># $principalFactory</text>
<polyline fill="none" stroke="black" points="185,-344.5 364,-344.5 "/>
<text text-anchor="start" x="193" y="-332.5" font-family="Helvetica,sans-Serif" font-size="10.00">+ __construct()</text>
<text text-anchor="start" x="193" y="-321.5" font-family="Helvetica,sans-Serif" font-size="10.00">+ setPrincipalFactory()</text>
<text text-anchor="start" x="193" y="-310.5" font-family="Helvetica,sans-Serif" font-size="10.00">+ authorize()</text>
<text text-anchor="start" x="193" y="-299.5" font-family="Helvetica,sans-Serif" font-size="10.00">+ addTempPermission()</text>
<text text-anchor="start" x="193" y="-288.5" font-family="Helvetica,sans-Serif" font-size="10.00">+ removeTempPermission()</text>
<text text-anchor="start" x="193" y="-277.5" font-family="Helvetica,sans-Serif" font-size="10.00">+ hasTempPermission()</text>
<text text-anchor="start" x="193" y="-266.5" font-family="Helvetica,sans-Serif" font-size="10.00">+ clearTempPermissions()</text>
<text text-anchor="start" x="193" y="-255.5" font-family="Helvetica,sans-Serif" font-size="10.00"># authorizeAction()</text>
<text text-anchor="start" x="193" y="-244.5" font-family="Helvetica,sans-Serif" font-size="10.00"># getDefaultPolicy()</text>
<text text-anchor="start" x="193" y="-233.5" font-family="Helvetica,sans-Serif" font-size="10.00"># parseResource()</text>
<text text-anchor="start" x="193" y="-222.5" font-family="Helvetica,sans-Serif" font-size="10.00"># deserializePermissions()</text>
<text text-anchor="start" x="193" y="-211.5" font-family="Helvetica,sans-Serif" font-size="10.00"># serializePermissions()</text>
<text text-anchor="start" x="193" y="-200.5" font-family="Helvetica,sans-Serif" font-size="10.00"># matchRoles()</text>
<text text-anchor="start" x="193" y="-189.5" font-family="Helvetica,sans-Serif" font-size="10.00"># matchRole()</text>
</a>
</g>
</g>
<!-- Node1&#45;&gt;Node2 -->
<g id="edge1" class="edge">
<title>Node1&#45;&gt;Node2</title>
<path fill="none" stroke="midnightblue" d="M274.5,-530.38C274.5,-521.71 274.5,-512.77 274.5,-503.71"/>
<polygon fill="none" stroke="midnightblue" points="271,-530.42 274.5,-540.42 278,-530.42 271,-530.42"/>
</g>
<!-- Node3 -->
<g id="node3" class="node">
<title>Node3</title>
<g id="a_node3"><a xlink:href="classwcmf_1_1lib_1_1security_1_1impl_1_1_chained_permission_manager.html" target="_top" xlink:title="ChainedPermissionManager retrieves authorization rules included managers.">
<polygon fill="white" stroke="black" points="0,-22.5 0,-123.5 153,-123.5 153,-22.5 0,-22.5"/>
<text text-anchor="middle" x="76.5" y="-111.5" font-family="Helvetica,sans-Serif" font-size="10.00">ChainedPermissionManager</text>
<polyline fill="none" stroke="black" points="0,-104.5 153,-104.5 "/>
<text text-anchor="middle" x="76.5" y="-92.5" font-family="Helvetica,sans-Serif" font-size="10.00"> </text>
<polyline fill="none" stroke="black" points="0,-85.5 153,-85.5 "/>
<text text-anchor="start" x="8" y="-73.5" font-family="Helvetica,sans-Serif" font-size="10.00">+ setManagers()</text>
<text text-anchor="start" x="8" y="-62.5" font-family="Helvetica,sans-Serif" font-size="10.00">+ getPermissions()</text>
<text text-anchor="start" x="8" y="-51.5" font-family="Helvetica,sans-Serif" font-size="10.00">+ setPermissions()</text>
<text text-anchor="start" x="8" y="-40.5" font-family="Helvetica,sans-Serif" font-size="10.00">+ createPermission()</text>
<text text-anchor="start" x="8" y="-29.5" font-family="Helvetica,sans-Serif" font-size="10.00">+ removePermission()</text>
</a>
</g>
</g>
<!-- Node1&#45;&gt;Node3 -->
<g id="edge5" class="edge">
<title>Node1&#45;&gt;Node3</title>
<path fill="none" stroke="midnightblue" d="M179.03,-554.58C163.67,-539.55 149.55,-522.53 139.5,-504 72.15,-379.81 69.62,-207.24 73.12,-123.51"/>
<polygon fill="none" stroke="midnightblue" points="176.99,-557.47 186.66,-561.8 181.8,-552.39 176.99,-557.47"/>
</g>
<!-- Node4 -->
<g id="node4" class="node">
<title>Node4</title>
<g id="a_node4"><a xlink:href="classwcmf_1_1lib_1_1security_1_1impl_1_1_default_permission_manager.html" target="_top" xlink:title="DefaultPermissionManager retrieves authorization rules the storage.">
<polygon fill="white" stroke="black" points="171.5,-0.5 171.5,-145.5 323.5,-145.5 323.5,-0.5 171.5,-0.5"/>
<text text-anchor="middle" x="247.5" y="-133.5" font-family="Helvetica,sans-Serif" font-size="10.00">DefaultPermissionManager</text>
<polyline fill="none" stroke="black" points="171.5,-126.5 323.5,-126.5 "/>
<text text-anchor="middle" x="247.5" y="-114.5" font-family="Helvetica,sans-Serif" font-size="10.00"> </text>
<polyline fill="none" stroke="black" points="171.5,-107.5 323.5,-107.5 "/>
<text text-anchor="start" x="179.5" y="-95.5" font-family="Helvetica,sans-Serif" font-size="10.00">+ __construct()</text>
<text text-anchor="start" x="179.5" y="-84.5" font-family="Helvetica,sans-Serif" font-size="10.00">+ setPermissionType()</text>
<text text-anchor="start" x="179.5" y="-73.5" font-family="Helvetica,sans-Serif" font-size="10.00">+ getPermissions()</text>
<text text-anchor="start" x="179.5" y="-62.5" font-family="Helvetica,sans-Serif" font-size="10.00">+ setPermissions()</text>
<text text-anchor="start" x="179.5" y="-51.5" font-family="Helvetica,sans-Serif" font-size="10.00">+ createPermission()</text>
<text text-anchor="start" x="179.5" y="-40.5" font-family="Helvetica,sans-Serif" font-size="10.00">+ removePermission()</text>
<text text-anchor="start" x="179.5" y="-29.5" font-family="Helvetica,sans-Serif" font-size="10.00"># modifyPermission()</text>
<text text-anchor="start" x="179.5" y="-18.5" font-family="Helvetica,sans-Serif" font-size="10.00"># getPermissionInstance()</text>
<text text-anchor="start" x="179.5" y="-7.5" font-family="Helvetica,sans-Serif" font-size="10.00"># createPermissionObject()</text>
</a>
</g>
</g>
<!-- Node1&#45;&gt;Node4 -->
<g id="edge6" class="edge">
<title>Node1&#45;&gt;Node4</title>
<path fill="none" stroke="midnightblue" d="M189.6,-531.56C184.39,-522.68 179.89,-513.45 176.5,-504 128.17,-369.3 135.47,-319.1 176.5,-182 180.23,-169.53 185.92,-157.17 192.48,-145.51"/>
<polygon fill="none" stroke="midnightblue" points="186.79,-533.66 195.03,-540.31 192.73,-529.97 186.79,-533.66"/>
</g>
<!-- Node5 -->
<g id="node5" class="node">
<title>Node5</title>
<g id="a_node5"><a xlink:href="classwcmf_1_1lib_1_1security_1_1impl_1_1_static_permission_manager.html" target="_top" xlink:title="StaticPermissionManager retrieves authorization rules from the application configuration.">
<polygon fill="white" stroke="black" points="341.5,-11.5 341.5,-134.5 499.5,-134.5 499.5,-11.5 341.5,-11.5"/>
<text text-anchor="middle" x="420.5" y="-122.5" font-family="Helvetica,sans-Serif" font-size="10.00">StaticPermissionManager</text>
<polyline fill="none" stroke="black" points="341.5,-115.5 499.5,-115.5 "/>
<text text-anchor="start" x="349.5" y="-103.5" font-family="Helvetica,sans-Serif" font-size="10.00">+ AUTHORIZATION_SECTION</text>
<polyline fill="none" stroke="black" points="341.5,-96.5 499.5,-96.5 "/>
<text text-anchor="start" x="349.5" y="-84.5" font-family="Helvetica,sans-Serif" font-size="10.00">+ __construct()</text>
<text text-anchor="start" x="349.5" y="-73.5" font-family="Helvetica,sans-Serif" font-size="10.00">+ getPermissions()</text>
<text text-anchor="start" x="349.5" y="-62.5" font-family="Helvetica,sans-Serif" font-size="10.00">+ setPermissions()</text>
<text text-anchor="start" x="349.5" y="-51.5" font-family="Helvetica,sans-Serif" font-size="10.00">+ createPermission()</text>
<text text-anchor="start" x="349.5" y="-40.5" font-family="Helvetica,sans-Serif" font-size="10.00">+ removePermission()</text>
<text text-anchor="start" x="349.5" y="-29.5" font-family="Helvetica,sans-Serif" font-size="10.00"># modifyPermission()</text>
<text text-anchor="start" x="349.5" y="-18.5" font-family="Helvetica,sans-Serif" font-size="10.00"># getConfigurationInstance()</text>
</a>
</g>
</g>
<!-- Node1&#45;&gt;Node5 -->
<g id="edge8" class="edge">
<title>Node1&#45;&gt;Node5</title>
<path fill="none" stroke="midnightblue" d="M358.8,-531.73C364.45,-522.76 369.48,-513.47 373.5,-504 387.6,-470.78 407.03,-244.95 415.83,-134.53"/>
<polygon fill="none" stroke="midnightblue" points="355.79,-529.94 353.21,-540.22 361.64,-533.79 355.79,-529.94"/>
</g>
<!-- Node6 -->
<g id="node6" class="node">
<title>Node6</title>
<g id="a_node6"><a xlink:href="classwcmf_1_1lib_1_1security_1_1impl_1_1_null_permission_manager.html" target="_top" xlink:title="NullPermissionManager acts like an absent PermissionManager.">
<polygon fill="white" stroke="black" points="421,-270.5 421,-415.5 574,-415.5 574,-270.5 421,-270.5"/>
<text text-anchor="middle" x="497.5" y="-403.5" font-family="Helvetica,sans-Serif" font-size="10.00">NullPermissionManager</text>
<polyline fill="none" stroke="black" points="421,-396.5 574,-396.5 "/>
<text text-anchor="middle" x="497.5" y="-384.5" font-family="Helvetica,sans-Serif" font-size="10.00"> </text>
<polyline fill="none" stroke="black" points="421,-377.5 574,-377.5 "/>
<text text-anchor="start" x="429" y="-365.5" font-family="Helvetica,sans-Serif" font-size="10.00">+ authorize()</text>
<text text-anchor="start" x="429" y="-354.5" font-family="Helvetica,sans-Serif" font-size="10.00">+ addTempPermission()</text>
<text text-anchor="start" x="429" y="-343.5" font-family="Helvetica,sans-Serif" font-size="10.00">+ removeTempPermission()</text>
<text text-anchor="start" x="429" y="-332.5" font-family="Helvetica,sans-Serif" font-size="10.00">+ hasTempPermission()</text>
<text text-anchor="start" x="429" y="-321.5" font-family="Helvetica,sans-Serif" font-size="10.00">+ clearTempPermissions()</text>
<text text-anchor="start" x="429" y="-310.5" font-family="Helvetica,sans-Serif" font-size="10.00">+ getPermissions()</text>
<text text-anchor="start" x="429" y="-299.5" font-family="Helvetica,sans-Serif" font-size="10.00">+ setPermissions()</text>
<text text-anchor="start" x="429" y="-288.5" font-family="Helvetica,sans-Serif" font-size="10.00">+ createPermission()</text>
<text text-anchor="start" x="429" y="-277.5" font-family="Helvetica,sans-Serif" font-size="10.00">+ removePermission()</text>
</a>
</g>
</g>
<!-- Node1&#45;&gt;Node6 -->
<g id="edge7" class="edge">
<title>Node1&#45;&gt;Node6</title>
<path fill="none" stroke="midnightblue" d="M369.55,-544.17C382.66,-531.39 395.41,-517.8 406.5,-504 428.12,-477.1 447.7,-444.42 463.11,-415.63"/>
<polygon fill="none" stroke="midnightblue" points="367.03,-541.74 362.24,-551.18 371.88,-546.79 367.03,-541.74"/>
</g>
<!-- Node2&#45;&gt;Node3 -->
<g id="edge2" class="edge">
<title>Node2&#45;&gt;Node3</title>
<path fill="none" stroke="midnightblue" d="M178.54,-212.11C155.26,-180.6 131.75,-148.78 113.18,-123.64"/>
<polygon fill="none" stroke="midnightblue" points="176.01,-214.58 184.77,-220.55 181.64,-210.42 176.01,-214.58"/>
</g>
<!-- Node2&#45;&gt;Node4 -->
<g id="edge3" class="edge">
<title>Node2&#45;&gt;Node4</title>
<path fill="none" stroke="midnightblue" d="M257.39,-172.22C256.47,-163.06 255.57,-154.15 254.72,-145.67"/>
<polygon fill="none" stroke="midnightblue" points="253.92,-172.63 258.4,-182.23 260.88,-171.93 253.92,-172.63"/>
</g>
<!-- Node2&#45;&gt;Node5 -->
<g id="edge4" class="edge">
<title>Node2&#45;&gt;Node5</title>
<path fill="none" stroke="midnightblue" d="M366.44,-173.23C373.85,-159.63 380.98,-146.55 387.49,-134.59"/>
<polygon fill="none" stroke="midnightblue" points="363.25,-171.78 361.54,-182.23 369.39,-175.13 363.25,-171.78"/>
</g>
</g>
</svg>
