<?xml version="1.0" encoding="UTF-8" standalone="no"?>
<!DOCTYPE svg PUBLIC "-//W3C//DTD SVG 1.1//EN"
 "http://www.w3.org/Graphics/SVG/1.1/DTD/svg11.dtd">
<!-- Generated by graphviz version 2.43.0 (0)
 -->
<!-- Title: AuthenticationManager Pages: 1 -->
<svg width="175pt" height="171pt"
 viewBox="0.00 0.00 175.00 171.00" xmlns="http://www.w3.org/2000/svg" xmlns:xlink="http://www.w3.org/1999/xlink">
<g id="graph0" class="graph" transform="scale(1 1) rotate(0) translate(4 167)">
<title>AuthenticationManager</title>
<polygon fill="white" stroke="transparent" points="-4,4 -4,-167 171,-167 171,4 -4,4"/>
<!-- Node1 -->
<g id="node1" class="node">
<title>Node1</title>
<g id="a_node1"><a xlink:title="AuthenticationManager implementations are used to handle all authentication requests.">
<polygon fill="#bfbfbf" stroke="black" points="18,-105.5 18,-162.5 149,-162.5 149,-105.5 18,-105.5"/>
<text text-anchor="middle" x="83.5" y="-150.5" font-family="Helvetica,sans-Serif" font-size="10.00">AuthenticationManager</text>
<polyline fill="none" stroke="black" points="18,-143.5 149,-143.5 "/>
<text text-anchor="middle" x="83.5" y="-131.5" font-family="Helvetica,sans-Serif" font-size="10.00"> </text>
<polyline fill="none" stroke="black" points="18,-124.5 149,-124.5 "/>
<text text-anchor="start" x="26" y="-112.5" font-family="Helvetica,sans-Serif" font-size="10.00">+ login()</text>
</a>
</g>
</g>
<!-- Node2 -->
<g id="node2" class="node">
<title>Node2</title>
<g id="a_node2"><a xlink:href="classwcmf_1_1lib_1_1security_1_1impl_1_1_default_authentication_manager.html" target="_top" xlink:title="DefaultAuthenticationManager uses PrincipalFactory to get a User instance that matches the given logi...">
<polygon fill="white" stroke="black" points="0,-0.5 0,-68.5 167,-68.5 167,-0.5 0,-0.5"/>
<text text-anchor="middle" x="83.5" y="-56.5" font-family="Helvetica,sans-Serif" font-size="10.00">DefaultAuthenticationManager</text>
<polyline fill="none" stroke="black" points="0,-49.5 167,-49.5 "/>
<text text-anchor="middle" x="83.5" y="-37.5" font-family="Helvetica,sans-Serif" font-size="10.00"> </text>
<polyline fill="none" stroke="black" points="0,-30.5 167,-30.5 "/>
<text text-anchor="start" x="8" y="-18.5" font-family="Helvetica,sans-Serif" font-size="10.00">+ __construct()</text>
<text text-anchor="start" x="8" y="-7.5" font-family="Helvetica,sans-Serif" font-size="10.00">+ login()</text>
</a>
</g>
</g>
<!-- Node1&#45;&gt;Node2 -->
<g id="edge1" class="edge">
<title>Node1&#45;&gt;Node2</title>
<path fill="none" stroke="midnightblue" d="M83.5,-95.06C83.5,-86.39 83.5,-77.24 83.5,-68.79"/>
<polygon fill="none" stroke="midnightblue" points="80,-95.32 83.5,-105.32 87,-95.32 80,-95.32"/>
</g>
</g>
</svg>
