<?xml version="1.0" encoding="UTF-8" standalone="no"?>
<!DOCTYPE svg PUBLIC "-//W3C//DTD SVG 1.1//EN"
 "http://www.w3.org/Graphics/SVG/1.1/DTD/svg11.dtd">
<!-- Generated by graphviz version 2.43.0 (0)
 -->
<!-- Title: FixedListStrategy Pages: 1 -->
<svg width="109pt" height="182pt"
 viewBox="0.00 0.00 109.00 182.00" xmlns="http://www.w3.org/2000/svg" xmlns:xlink="http://www.w3.org/1999/xlink">
<g id="graph0" class="graph" transform="scale(1 1) rotate(0) translate(4 178)">
<title>FixedListStrategy</title>
<polygon fill="white" stroke="transparent" points="-4,4 -4,-178 105,-178 105,4 -4,4"/>
<!-- Node1 -->
<g id="node1" class="node">
<title>Node1</title>
<g id="a_node1"><a xlink:title="FixedListStrategy implements a constant list of key/value pairs.">
<polygon fill="#bfbfbf" stroke="black" points="0,-0.5 0,-68.5 101,-68.5 101,-0.5 0,-0.5"/>
<text text-anchor="middle" x="50.5" y="-56.5" font-family="Helvetica,sans-Serif" font-size="10.00">FixedListStrategy</text>
<polyline fill="none" stroke="black" points="0,-49.5 101,-49.5 "/>
<text text-anchor="middle" x="50.5" y="-37.5" font-family="Helvetica,sans-Serif" font-size="10.00"> </text>
<polyline fill="none" stroke="black" points="0,-30.5 101,-30.5 "/>
<text text-anchor="start" x="8" y="-18.5" font-family="Helvetica,sans-Serif" font-size="10.00">+ getList()</text>
<text text-anchor="start" x="8" y="-7.5" font-family="Helvetica,sans-Serif" font-size="10.00">+ isStatic()</text>
</a>
</g>
</g>
<!-- Node2 -->
<g id="node2" class="node">
<title>Node2</title>
<g id="a_node2"><a xlink:href="interfacewcmf_1_1lib_1_1presentation_1_1control_1_1lists_1_1_list_strategy.html" target="_top" xlink:title="ListStrategy defines the interface for classes that retrieve value lists.">
<polygon fill="white" stroke="black" points="13,-105.5 13,-173.5 88,-173.5 88,-105.5 13,-105.5"/>
<text text-anchor="middle" x="50.5" y="-161.5" font-family="Helvetica,sans-Serif" font-size="10.00">ListStrategy</text>
<polyline fill="none" stroke="black" points="13,-154.5 88,-154.5 "/>
<text text-anchor="middle" x="50.5" y="-142.5" font-family="Helvetica,sans-Serif" font-size="10.00"> </text>
<polyline fill="none" stroke="black" points="13,-135.5 88,-135.5 "/>
<text text-anchor="start" x="21" y="-123.5" font-family="Helvetica,sans-Serif" font-size="10.00">+ getList()</text>
<text text-anchor="start" x="21" y="-112.5" font-family="Helvetica,sans-Serif" font-size="10.00">+ isStatic()</text>
</a>
</g>
</g>
<!-- Node2&#45;&gt;Node1 -->
<g id="edge1" class="edge">
<title>Node2&#45;&gt;Node1</title>
<path fill="none" stroke="midnightblue" d="M50.5,-95.14C50.5,-86.26 50.5,-77.04 50.5,-68.59"/>
<polygon fill="none" stroke="midnightblue" points="47,-95.34 50.5,-105.34 54,-95.34 47,-95.34"/>
</g>
</g>
</svg>
