<?xml version="1.0" encoding="UTF-8" standalone="no"?>
<!DOCTYPE svg PUBLIC "-//W3C//DTD SVG 1.1//EN"
 "http://www.w3.org/Graphics/SVG/1.1/DTD/svg11.dtd">
<!-- Generated by graphviz version 2.43.0 (0)
 -->
<!-- Title: PropertyChangeEvent Pages: 1 -->
<svg width="130pt" height="215pt"
 viewBox="0.00 0.00 130.00 215.00" xmlns="http://www.w3.org/2000/svg" xmlns:xlink="http://www.w3.org/1999/xlink">
<g id="graph0" class="graph" transform="scale(1 1) rotate(0) translate(4 211)">
<title>PropertyChangeEvent</title>
<polygon fill="white" stroke="transparent" points="-4,4 -4,-211 126,-211 126,4 -4,4"/>
<!-- Node1 -->
<g id="node1" class="node">
<title>Node1</title>
<g id="a_node1"><a xlink:title="PropertyChangeEvent signals a change of a property of a PersistentObject instance.">
<polygon fill="#bfbfbf" stroke="black" points="0,-0.5 0,-101.5 122,-101.5 122,-0.5 0,-0.5"/>
<text text-anchor="middle" x="61" y="-89.5" font-family="Helvetica,sans-Serif" font-size="10.00">PropertyChangeEvent</text>
<polyline fill="none" stroke="black" points="0,-82.5 122,-82.5 "/>
<text text-anchor="start" x="8" y="-70.5" font-family="Helvetica,sans-Serif" font-size="10.00">+ NAME</text>
<polyline fill="none" stroke="black" points="0,-63.5 122,-63.5 "/>
<text text-anchor="start" x="8" y="-51.5" font-family="Helvetica,sans-Serif" font-size="10.00">+ __construct()</text>
<text text-anchor="start" x="8" y="-40.5" font-family="Helvetica,sans-Serif" font-size="10.00">+ getObject()</text>
<text text-anchor="start" x="8" y="-29.5" font-family="Helvetica,sans-Serif" font-size="10.00">+ getPropertyName()</text>
<text text-anchor="start" x="8" y="-18.5" font-family="Helvetica,sans-Serif" font-size="10.00">+ getOldValue()</text>
<text text-anchor="start" x="8" y="-7.5" font-family="Helvetica,sans-Serif" font-size="10.00">+ getNewValue()</text>
</a>
</g>
</g>
<!-- Node2 -->
<g id="node2" class="node">
<title>Node2</title>
<g id="a_node2"><a xlink:href="classwcmf_1_1lib_1_1core_1_1_event.html" target="_top" xlink:title="Event is the base class for all events.">
<polygon fill="white" stroke="black" points="3.5,-138.5 3.5,-206.5 118.5,-206.5 118.5,-138.5 3.5,-138.5"/>
<text text-anchor="middle" x="61" y="-194.5" font-family="Helvetica,sans-Serif" font-size="10.00">Event</text>
<polyline fill="none" stroke="black" points="3.5,-187.5 118.5,-187.5 "/>
<text text-anchor="middle" x="61" y="-175.5" font-family="Helvetica,sans-Serif" font-size="10.00"> </text>
<polyline fill="none" stroke="black" points="3.5,-168.5 118.5,-168.5 "/>
<text text-anchor="start" x="11.5" y="-156.5" font-family="Helvetica,sans-Serif" font-size="10.00">+ stopPropagation()</text>
<text text-anchor="start" x="11.5" y="-145.5" font-family="Helvetica,sans-Serif" font-size="10.00">+ isStopped()</text>
</a>
</g>
</g>
<!-- Node2&#45;&gt;Node1 -->
<g id="edge1" class="edge">
<title>Node2&#45;&gt;Node1</title>
<path fill="none" stroke="midnightblue" d="M61,-128.05C61,-119.47 61,-110.41 61,-101.65"/>
<polygon fill="none" stroke="midnightblue" points="57.5,-128.21 61,-138.21 64.5,-128.21 57.5,-128.21"/>
</g>
</g>
</svg>
