<?xml version="1.0" encoding="UTF-8" standalone="no"?>
<!DOCTYPE svg PUBLIC "-//W3C//DTD SVG 1.1//EN"
 "http://www.w3.org/Graphics/SVG/1.1/DTD/svg11.dtd">
<!-- Generated by graphviz version 2.43.0 (0)
 -->
<!-- Title: AbstractDocument Pages: 1 -->
<svg width="361pt" height="386pt"
 viewBox="0.00 0.00 360.50 386.00" xmlns="http://www.w3.org/2000/svg" xmlns:xlink="http://www.w3.org/1999/xlink">
<g id="graph0" class="graph" transform="scale(1 1) rotate(0) translate(4 382)">
<title>AbstractDocument</title>
<polygon fill="white" stroke="transparent" points="-4,4 -4,-382 356.5,-382 356.5,4 -4,4"/>
<!-- Node1 -->
<g id="node1" class="node">
<title>Node1</title>
<g id="a_node1"><a xlink:title="AbstractFormat is used as base class for specialized documents.">
<polygon fill="#bfbfbf" stroke="black" points="122.5,-127.5 122.5,-228.5 229.5,-228.5 229.5,-127.5 122.5,-127.5"/>
<text text-anchor="middle" x="176" y="-216.5" font-family="Helvetica,sans-Serif" font-size="10.00">AbstractDocument</text>
<polyline fill="none" stroke="black" points="122.5,-209.5 229.5,-209.5 "/>
<text text-anchor="middle" x="176" y="-197.5" font-family="Helvetica,sans-Serif" font-size="10.00"> </text>
<polyline fill="none" stroke="black" points="122.5,-190.5 229.5,-190.5 "/>
<text text-anchor="start" x="130.5" y="-178.5" font-family="Helvetica,sans-Serif" font-size="10.00">+ __construct()</text>
<text text-anchor="start" x="130.5" y="-167.5" font-family="Helvetica,sans-Serif" font-size="10.00">+ getMimeType()</text>
<text text-anchor="start" x="130.5" y="-156.5" font-family="Helvetica,sans-Serif" font-size="10.00">+ isDownload()</text>
<text text-anchor="start" x="130.5" y="-145.5" font-family="Helvetica,sans-Serif" font-size="10.00">+ getFilename()</text>
<text text-anchor="start" x="130.5" y="-134.5" font-family="Helvetica,sans-Serif" font-size="10.00">+ getCacheDate()</text>
</a>
</g>
</g>
<!-- Node3 -->
<g id="node3" class="node">
<title>Node3</title>
<g id="a_node3"><a xlink:href="classwcmf_1_1lib_1_1presentation_1_1impl_1_1_file_document.html" target="_top" xlink:title="FileDocument represents a local file.">
<polygon fill="white" stroke="black" points="0,-0.5 0,-90.5 104,-90.5 104,-0.5 0,-0.5"/>
<text text-anchor="middle" x="52" y="-78.5" font-family="Helvetica,sans-Serif" font-size="10.00">FileDocument</text>
<polyline fill="none" stroke="black" points="0,-71.5 104,-71.5 "/>
<text text-anchor="middle" x="52" y="-59.5" font-family="Helvetica,sans-Serif" font-size="10.00"> </text>
<polyline fill="none" stroke="black" points="0,-52.5 104,-52.5 "/>
<text text-anchor="start" x="8" y="-40.5" font-family="Helvetica,sans-Serif" font-size="10.00">+ __construct()</text>
<text text-anchor="start" x="8" y="-29.5" font-family="Helvetica,sans-Serif" font-size="10.00">+ getCacheDate()</text>
<text text-anchor="start" x="8" y="-18.5" font-family="Helvetica,sans-Serif" font-size="10.00">+ getContent()</text>
<text text-anchor="start" x="8" y="-7.5" font-family="Helvetica,sans-Serif" font-size="10.00">+ output()</text>
</a>
</g>
</g>
<!-- Node1&#45;&gt;Node3 -->
<g id="edge2" class="edge">
<title>Node1&#45;&gt;Node3</title>
<path fill="none" stroke="midnightblue" d="M121.69,-119.84C112.35,-110.01 102.77,-99.93 93.82,-90.52"/>
<polygon fill="none" stroke="midnightblue" points="119.34,-122.45 128.77,-127.29 124.42,-117.63 119.34,-122.45"/>
</g>
<!-- Node4 -->
<g id="node4" class="node">
<title>Node4</title>
<g id="a_node4"><a xlink:href="classwcmf_1_1lib_1_1presentation_1_1impl_1_1_memory_document.html" target="_top" xlink:title="MemoryDocument represents content that resides in memory.">
<polygon fill="white" stroke="black" points="122.5,-6 122.5,-85 229.5,-85 229.5,-6 122.5,-6"/>
<text text-anchor="middle" x="176" y="-73" font-family="Helvetica,sans-Serif" font-size="10.00">MemoryDocument</text>
<polyline fill="none" stroke="black" points="122.5,-66 229.5,-66 "/>
<text text-anchor="middle" x="176" y="-54" font-family="Helvetica,sans-Serif" font-size="10.00"> </text>
<polyline fill="none" stroke="black" points="122.5,-47 229.5,-47 "/>
<text text-anchor="start" x="130.5" y="-35" font-family="Helvetica,sans-Serif" font-size="10.00">+ __construct()</text>
<text text-anchor="start" x="130.5" y="-24" font-family="Helvetica,sans-Serif" font-size="10.00">+ getContent()</text>
<text text-anchor="start" x="130.5" y="-13" font-family="Helvetica,sans-Serif" font-size="10.00">+ output()</text>
</a>
</g>
</g>
<!-- Node1&#45;&gt;Node4 -->
<g id="edge3" class="edge">
<title>Node1&#45;&gt;Node4</title>
<path fill="none" stroke="midnightblue" d="M176,-117C176,-106.16 176,-95.13 176,-85.11"/>
<polygon fill="none" stroke="midnightblue" points="172.5,-117.29 176,-127.29 179.5,-117.29 172.5,-117.29"/>
</g>
<!-- Node5 -->
<g id="node5" class="node">
<title>Node5</title>
<g id="a_node5"><a xlink:href="classwcmf_1_1lib_1_1presentation_1_1impl_1_1_remote_document.html" target="_top" xlink:title="RemoteDocument represents a remote file retrieved via cURL.">
<polygon fill="white" stroke="black" points="247.5,-6 247.5,-85 352.5,-85 352.5,-6 247.5,-6"/>
<text text-anchor="middle" x="300" y="-73" font-family="Helvetica,sans-Serif" font-size="10.00">RemoteDocument</text>
<polyline fill="none" stroke="black" points="247.5,-66 352.5,-66 "/>
<text text-anchor="middle" x="300" y="-54" font-family="Helvetica,sans-Serif" font-size="10.00"> </text>
<polyline fill="none" stroke="black" points="247.5,-47 352.5,-47 "/>
<text text-anchor="start" x="255.5" y="-35" font-family="Helvetica,sans-Serif" font-size="10.00">+ __construct()</text>
<text text-anchor="start" x="255.5" y="-24" font-family="Helvetica,sans-Serif" font-size="10.00">+ getContent()</text>
<text text-anchor="start" x="255.5" y="-13" font-family="Helvetica,sans-Serif" font-size="10.00">+ output()</text>
</a>
</g>
</g>
<!-- Node1&#45;&gt;Node5 -->
<g id="edge4" class="edge">
<title>Node1&#45;&gt;Node5</title>
<path fill="none" stroke="midnightblue" d="M230.15,-120.01C241.36,-108.22 252.91,-96.06 263.31,-85.11"/>
<polygon fill="none" stroke="midnightblue" points="227.58,-117.63 223.23,-127.29 232.66,-122.45 227.58,-117.63"/>
</g>
<!-- Node2 -->
<g id="node2" class="node">
<title>Node2</title>
<g id="a_node2"><a xlink:href="interfacewcmf_1_1lib_1_1presentation_1_1_response_document.html" target="_top" xlink:title="ResponseDocument is the interface for media returned in a response when using the DownloadFormat.">
<polygon fill="white" stroke="black" points="119,-265.5 119,-377.5 233,-377.5 233,-265.5 119,-265.5"/>
<text text-anchor="middle" x="176" y="-365.5" font-family="Helvetica,sans-Serif" font-size="10.00">ResponseDocument</text>
<polyline fill="none" stroke="black" points="119,-358.5 233,-358.5 "/>
<text text-anchor="middle" x="176" y="-346.5" font-family="Helvetica,sans-Serif" font-size="10.00"> </text>
<polyline fill="none" stroke="black" points="119,-339.5 233,-339.5 "/>
<text text-anchor="start" x="127" y="-327.5" font-family="Helvetica,sans-Serif" font-size="10.00">+ getMimeType()</text>
<text text-anchor="start" x="127" y="-316.5" font-family="Helvetica,sans-Serif" font-size="10.00">+ isDownload()</text>
<text text-anchor="start" x="127" y="-305.5" font-family="Helvetica,sans-Serif" font-size="10.00">+ getFilename()</text>
<text text-anchor="start" x="127" y="-294.5" font-family="Helvetica,sans-Serif" font-size="10.00">+ getCacheDate()</text>
<text text-anchor="start" x="127" y="-283.5" font-family="Helvetica,sans-Serif" font-size="10.00">+ getContent()</text>
<text text-anchor="start" x="127" y="-272.5" font-family="Helvetica,sans-Serif" font-size="10.00">+ output()</text>
</a>
</g>
</g>
<!-- Node2&#45;&gt;Node1 -->
<g id="edge1" class="edge">
<title>Node2&#45;&gt;Node1</title>
<path fill="none" stroke="midnightblue" d="M176,-255.34C176,-246.38 176,-237.29 176,-228.66"/>
<polygon fill="none" stroke="midnightblue" points="172.5,-255.39 176,-265.39 179.5,-255.39 172.5,-255.39"/>
</g>
</g>
</svg>
