<?xml version="1.0" encoding="UTF-8" standalone="no"?>
<!DOCTYPE svg PUBLIC "-//W3C//DTD SVG 1.1//EN"
 "http://www.w3.org/Graphics/SVG/1.1/DTD/svg11.dtd">
<!-- Generated by graphviz version 2.43.0 (0)
 -->
<!-- Title: ConcurrencyController Pages: 1 -->
<svg width="156pt" height="347pt"
 viewBox="0.00 0.00 156.00 347.00" xmlns="http://www.w3.org/2000/svg" xmlns:xlink="http://www.w3.org/1999/xlink">
<g id="graph0" class="graph" transform="scale(1 1) rotate(0) translate(4 343)">
<title>ConcurrencyController</title>
<polygon fill="white" stroke="transparent" points="-4,4 -4,-343 152,-343 152,4 -4,4"/>
<!-- Node1 -->
<g id="node1" class="node">
<title>Node1</title>
<g id="a_node1"><a xlink:title="ConcurrencyController is used to lock/unlock objects.">
<polygon fill="#bfbfbf" stroke="black" points="11.5,-0.5 11.5,-79.5 136.5,-79.5 136.5,-0.5 11.5,-0.5"/>
<text text-anchor="middle" x="74" y="-67.5" font-family="Helvetica,sans-Serif" font-size="10.00">ConcurrencyController</text>
<polyline fill="none" stroke="black" points="11.5,-60.5 136.5,-60.5 "/>
<text text-anchor="middle" x="74" y="-48.5" font-family="Helvetica,sans-Serif" font-size="10.00"> </text>
<polyline fill="none" stroke="black" points="11.5,-41.5 136.5,-41.5 "/>
<text text-anchor="start" x="19.5" y="-29.5" font-family="Helvetica,sans-Serif" font-size="10.00">+ __construct()</text>
<text text-anchor="start" x="19.5" y="-18.5" font-family="Helvetica,sans-Serif" font-size="10.00"># validate()</text>
<text text-anchor="start" x="19.5" y="-7.5" font-family="Helvetica,sans-Serif" font-size="10.00"># doExecute()</text>
</a>
</g>
</g>
<!-- Node2 -->
<g id="node2" class="node">
<title>Node2</title>
<g id="a_node2"><a xlink:href="classwcmf_1_1lib_1_1presentation_1_1_controller.html" target="_top" xlink:title="Controller is the base class of all controllers.">
<polygon fill="white" stroke="black" points="0,-116.5 0,-338.5 148,-338.5 148,-116.5 0,-116.5"/>
<text text-anchor="middle" x="74" y="-326.5" font-family="Helvetica,sans-Serif" font-size="10.00">Controller</text>
<polyline fill="none" stroke="black" points="0,-319.5 148,-319.5 "/>
<text text-anchor="start" x="8" y="-307.5" font-family="Helvetica,sans-Serif" font-size="10.00">+ CSRF_TOKEN_PARAM</text>
<polyline fill="none" stroke="black" points="0,-300.5 148,-300.5 "/>
<text text-anchor="start" x="8" y="-288.5" font-family="Helvetica,sans-Serif" font-size="10.00">+ __construct()</text>
<text text-anchor="start" x="8" y="-277.5" font-family="Helvetica,sans-Serif" font-size="10.00">+ initialize()</text>
<text text-anchor="start" x="8" y="-266.5" font-family="Helvetica,sans-Serif" font-size="10.00">+ execute()</text>
<text text-anchor="start" x="8" y="-255.5" font-family="Helvetica,sans-Serif" font-size="10.00">+ getRequest()</text>
<text text-anchor="start" x="8" y="-244.5" font-family="Helvetica,sans-Serif" font-size="10.00">+ getResponse()</text>
<text text-anchor="start" x="8" y="-233.5" font-family="Helvetica,sans-Serif" font-size="10.00"># validate()</text>
<text text-anchor="start" x="8" y="-222.5" font-family="Helvetica,sans-Serif" font-size="10.00"># doExecute()</text>
<text text-anchor="start" x="8" y="-211.5" font-family="Helvetica,sans-Serif" font-size="10.00"># executeSubAction()</text>
<text text-anchor="start" x="8" y="-200.5" font-family="Helvetica,sans-Serif" font-size="10.00"># redirect()</text>
<text text-anchor="start" x="8" y="-189.5" font-family="Helvetica,sans-Serif" font-size="10.00"># getLogger()</text>
<text text-anchor="start" x="8" y="-178.5" font-family="Helvetica,sans-Serif" font-size="10.00"># getSession()</text>
<text text-anchor="start" x="8" y="-167.5" font-family="Helvetica,sans-Serif" font-size="10.00"># getPersistenceFacade()</text>
<text text-anchor="start" x="8" y="-156.5" font-family="Helvetica,sans-Serif" font-size="10.00"># getPermissionManager()</text>
<text text-anchor="start" x="8" y="-145.5" font-family="Helvetica,sans-Serif" font-size="10.00"># getActionMapper()</text>
<text text-anchor="start" x="8" y="-134.5" font-family="Helvetica,sans-Serif" font-size="10.00"># getLocalization()</text>
<text text-anchor="start" x="8" y="-123.5" font-family="Helvetica,sans-Serif" font-size="10.00">and 11 more...</text>
</a>
</g>
</g>
<!-- Node2&#45;&gt;Node1 -->
<g id="edge1" class="edge">
<title>Node2&#45;&gt;Node1</title>
<path fill="none" stroke="midnightblue" d="M74,-106.43C74,-96.94 74,-87.86 74,-79.66"/>
<polygon fill="none" stroke="midnightblue" points="70.5,-106.45 74,-116.45 77.5,-106.45 70.5,-106.45"/>
</g>
</g>
</svg>
