<?xml version="1.0" encoding="UTF-8" standalone="no"?>
<!DOCTYPE svg PUBLIC "-//W3C//DTD SVG 1.1//EN"
 "http://www.w3.org/Graphics/SVG/1.1/DTD/svg11.dtd">
<!-- Generated by graphviz version 2.43.0 (0)
 -->
<!-- Title: PDF Pages: 1 -->
<svg width="125pt" height="259pt"
 viewBox="0.00 0.00 125.00 259.00" xmlns="http://www.w3.org/2000/svg" xmlns:xlink="http://www.w3.org/1999/xlink">
<g id="graph0" class="graph" transform="scale(1 1) rotate(0) translate(4 255)">
<title>PDF</title>
<polygon fill="white" stroke="transparent" points="-4,4 -4,-255 121,-255 121,4 -4,4"/>
<!-- Node1 -->
<g id="node1" class="node">
<title>Node1</title>
<g id="a_node1"><a xlink:title="PDF extends FPDF/FPDI.">
<polygon fill="#bfbfbf" stroke="black" points="0,-0.5 0,-156.5 117,-156.5 117,-0.5 0,-0.5"/>
<text text-anchor="middle" x="58.5" y="-144.5" font-family="Helvetica,sans-Serif" font-size="10.00">PDF</text>
<polyline fill="none" stroke="black" points="0,-137.5 117,-137.5 "/>
<text text-anchor="middle" x="58.5" y="-125.5" font-family="Helvetica,sans-Serif" font-size="10.00"> </text>
<polyline fill="none" stroke="black" points="0,-118.5 117,-118.5 "/>
<text text-anchor="start" x="8" y="-106.5" font-family="Helvetica,sans-Serif" font-size="10.00">+ Header()</text>
<text text-anchor="start" x="8" y="-95.5" font-family="Helvetica,sans-Serif" font-size="10.00">+ startPage()</text>
<text text-anchor="start" x="8" y="-84.5" font-family="Helvetica,sans-Serif" font-size="10.00">+ endPage()</text>
<text text-anchor="start" x="8" y="-73.5" font-family="Helvetica,sans-Serif" font-size="10.00">+ isPageStarted()</text>
<text text-anchor="start" x="8" y="-62.5" font-family="Helvetica,sans-Serif" font-size="10.00">+ isPageEnded()</text>
<text text-anchor="start" x="8" y="-51.5" font-family="Helvetica,sans-Serif" font-size="10.00">+ moveDown()</text>
<text text-anchor="start" x="8" y="-40.5" font-family="Helvetica,sans-Serif" font-size="10.00">+ moveRight()</text>
<text text-anchor="start" x="8" y="-29.5" font-family="Helvetica,sans-Serif" font-size="10.00">+ numberOfLines()</text>
<text text-anchor="start" x="8" y="-18.5" font-family="Helvetica,sans-Serif" font-size="10.00">+ CheckPageBreak()</text>
<text text-anchor="start" x="8" y="-7.5" font-family="Helvetica,sans-Serif" font-size="10.00">+ NbLines()</text>
</a>
</g>
</g>
<!-- Node2 -->
<g id="node2" class="node">
<title>Node2</title>
<g id="a_node2"><a xlink:title=" ">
<polygon fill="white" stroke="#bfbfbf" points="39,-193.5 39,-250.5 78,-250.5 78,-193.5 39,-193.5"/>
<text text-anchor="middle" x="58.5" y="-238.5" font-family="Helvetica,sans-Serif" font-size="10.00">FPDI</text>
<polyline fill="none" stroke="#bfbfbf" points="39,-231.5 78,-231.5 "/>
<text text-anchor="middle" x="58.5" y="-219.5" font-family="Helvetica,sans-Serif" font-size="10.00"> </text>
<polyline fill="none" stroke="#bfbfbf" points="39,-212.5 78,-212.5 "/>
<text text-anchor="middle" x="58.5" y="-200.5" font-family="Helvetica,sans-Serif" font-size="10.00"> </text>
</a>
</g>
</g>
<!-- Node2&#45;&gt;Node1 -->
<g id="edge1" class="edge">
<title>Node2&#45;&gt;Node1</title>
<path fill="none" stroke="midnightblue" d="M58.5,-183.34C58.5,-175.04 58.5,-165.96 58.5,-156.74"/>
<polygon fill="none" stroke="midnightblue" points="55,-183.38 58.5,-193.38 62,-183.38 55,-183.38"/>
</g>
</g>
</svg>
