<?xml version="1.0" encoding="UTF-8" standalone="no"?>
<!DOCTYPE svg PUBLIC "-//W3C//DTD SVG 1.1//EN"
 "http://www.w3.org/Graphics/SVG/1.1/DTD/svg11.dtd">
<!-- Generated by graphviz version 2.43.0 (0)
 -->
<!-- Title: AuditingOutputStrategy Pages: 1 -->
<svg width="139pt" height="215pt"
 viewBox="0.00 0.00 139.00 215.00" xmlns="http://www.w3.org/2000/svg" xmlns:xlink="http://www.w3.org/1999/xlink">
<g id="graph0" class="graph" transform="scale(1 1) rotate(0) translate(4 211)">
<title>AuditingOutputStrategy</title>
<polygon fill="white" stroke="transparent" points="-4,4 -4,-211 135,-211 135,4 -4,4"/>
<!-- Node1 -->
<g id="node1" class="node">
<title>Node1</title>
<g id="a_node1"><a xlink:title="AuditingOutputStrategy outputs object changes to the logger category AuditingOutputStrategy,...">
<polygon fill="#bfbfbf" stroke="black" points="0,-0.5 0,-90.5 131,-90.5 131,-0.5 0,-0.5"/>
<text text-anchor="middle" x="65.5" y="-78.5" font-family="Helvetica,sans-Serif" font-size="10.00">AuditingOutputStrategy</text>
<polyline fill="none" stroke="black" points="0,-71.5 131,-71.5 "/>
<text text-anchor="middle" x="65.5" y="-59.5" font-family="Helvetica,sans-Serif" font-size="10.00"> </text>
<polyline fill="none" stroke="black" points="0,-52.5 131,-52.5 "/>
<text text-anchor="start" x="8" y="-40.5" font-family="Helvetica,sans-Serif" font-size="10.00">+ __construct()</text>
<text text-anchor="start" x="8" y="-29.5" font-family="Helvetica,sans-Serif" font-size="10.00">+ writeHeader()</text>
<text text-anchor="start" x="8" y="-18.5" font-family="Helvetica,sans-Serif" font-size="10.00">+ writeFooter()</text>
<text text-anchor="start" x="8" y="-7.5" font-family="Helvetica,sans-Serif" font-size="10.00">+ writeObject()</text>
</a>
</g>
</g>
<!-- Node2 -->
<g id="node2" class="node">
<title>Node2</title>
<g id="a_node2"><a xlink:href="interfacewcmf_1_1lib_1_1persistence_1_1output_1_1_output_strategy.html" target="_top" xlink:title="OutputStrategy defines the interface for classes that write an object&#39;s content to a destination (cal...">
<polygon fill="white" stroke="black" points="18,-127.5 18,-206.5 113,-206.5 113,-127.5 18,-127.5"/>
<text text-anchor="middle" x="65.5" y="-194.5" font-family="Helvetica,sans-Serif" font-size="10.00">OutputStrategy</text>
<polyline fill="none" stroke="black" points="18,-187.5 113,-187.5 "/>
<text text-anchor="middle" x="65.5" y="-175.5" font-family="Helvetica,sans-Serif" font-size="10.00"> </text>
<polyline fill="none" stroke="black" points="18,-168.5 113,-168.5 "/>
<text text-anchor="start" x="26" y="-156.5" font-family="Helvetica,sans-Serif" font-size="10.00">+ writeHeader()</text>
<text text-anchor="start" x="26" y="-145.5" font-family="Helvetica,sans-Serif" font-size="10.00">+ writeFooter()</text>
<text text-anchor="start" x="26" y="-134.5" font-family="Helvetica,sans-Serif" font-size="10.00">+ writeObject()</text>
</a>
</g>
</g>
<!-- Node2&#45;&gt;Node1 -->
<g id="edge1" class="edge">
<title>Node2&#45;&gt;Node1</title>
<path fill="none" stroke="midnightblue" d="M65.5,-117.19C65.5,-108.49 65.5,-99.48 65.5,-90.91"/>
<polygon fill="none" stroke="midnightblue" points="62,-117.2 65.5,-127.2 69,-117.2 62,-117.2"/>
</g>
</g>
</svg>
