<?xml version="1.0" encoding="UTF-8" standalone="no"?>
<!DOCTYPE svg PUBLIC "-//W3C//DTD SVG 1.1//EN"
 "http://www.w3.org/Graphics/SVG/1.1/DTD/svg11.dtd">
<!-- Generated by graphviz version 2.43.0 (0)
 -->
<!-- Title: DionysosNodeSerializer Pages: 1 -->
<svg width="141pt" height="331pt"
 viewBox="0.00 0.00 141.00 331.00" xmlns="http://www.w3.org/2000/svg" xmlns:xlink="http://www.w3.org/1999/xlink">
<g id="graph0" class="graph" transform="scale(1 1) rotate(0) translate(4 327)">
<title>DionysosNodeSerializer</title>
<polygon fill="white" stroke="transparent" points="-4,4 -4,-327 137,-327 137,4 -4,4"/>
<!-- Node1 -->
<g id="node1" class="node">
<title>Node1</title>
<g id="a_node1"><a xlink:title="DionysosNodeSerializer is used to serialize Nodes into the Dionysos format and vice versa.">
<polygon fill="#bfbfbf" stroke="black" points="0,-0.5 0,-79.5 133,-79.5 133,-0.5 0,-0.5"/>
<text text-anchor="middle" x="66.5" y="-67.5" font-family="Helvetica,sans-Serif" font-size="10.00">DionysosNodeSerializer</text>
<polyline fill="none" stroke="black" points="0,-60.5 133,-60.5 "/>
<text text-anchor="start" x="8" y="-48.5" font-family="Helvetica,sans-Serif" font-size="10.00">+ NODE_KEYS</text>
<polyline fill="none" stroke="black" points="0,-41.5 133,-41.5 "/>
<text text-anchor="start" x="8" y="-29.5" font-family="Helvetica,sans-Serif" font-size="10.00">+ isSerializedNode()</text>
<text text-anchor="start" x="8" y="-18.5" font-family="Helvetica,sans-Serif" font-size="10.00">+ deserializeNode()</text>
<text text-anchor="start" x="8" y="-7.5" font-family="Helvetica,sans-Serif" font-size="10.00">+ serializeNode()</text>
</a>
</g>
</g>
<!-- Node2 -->
<g id="node2" class="node">
<title>Node2</title>
<g id="a_node2"><a xlink:href="classwcmf_1_1lib_1_1model_1_1impl_1_1_abstract_node_serializer.html" target="_top" xlink:title="NodeSerializerBase is a base class for NodeSerialize implementations.">
<polygon fill="white" stroke="black" points="2.5,-116.5 2.5,-206.5 130.5,-206.5 130.5,-116.5 2.5,-116.5"/>
<text text-anchor="middle" x="66.5" y="-194.5" font-family="Helvetica,sans-Serif" font-size="10.00">AbstractNodeSerializer</text>
<polyline fill="none" stroke="black" points="2.5,-187.5 130.5,-187.5 "/>
<text text-anchor="middle" x="66.5" y="-175.5" font-family="Helvetica,sans-Serif" font-size="10.00"> </text>
<polyline fill="none" stroke="black" points="2.5,-168.5 130.5,-168.5 "/>
<text text-anchor="start" x="10.5" y="-156.5" font-family="Helvetica,sans-Serif" font-size="10.00">+ __construct()</text>
<text text-anchor="start" x="10.5" y="-145.5" font-family="Helvetica,sans-Serif" font-size="10.00"># getNodeTemplate()</text>
<text text-anchor="start" x="10.5" y="-134.5" font-family="Helvetica,sans-Serif" font-size="10.00"># deserializeValue()</text>
<text text-anchor="start" x="10.5" y="-123.5" font-family="Helvetica,sans-Serif" font-size="10.00"># isMultiValued()</text>
</a>
</g>
</g>
<!-- Node2&#45;&gt;Node1 -->
<g id="edge1" class="edge">
<title>Node2&#45;&gt;Node1</title>
<path fill="none" stroke="midnightblue" d="M66.5,-106.08C66.5,-97.23 66.5,-88.23 66.5,-79.86"/>
<polygon fill="none" stroke="midnightblue" points="63,-106.34 66.5,-116.34 70,-106.34 63,-106.34"/>
</g>
<!-- Node3 -->
<g id="node3" class="node">
<title>Node3</title>
<g id="a_node3"><a xlink:href="interfacewcmf_1_1lib_1_1model_1_1_node_serializer.html" target="_top" xlink:title="NodeSerializer implementations are used to serialize Nodes into an array representation or deserializ...">
<polygon fill="white" stroke="black" points="8,-243.5 8,-322.5 125,-322.5 125,-243.5 8,-243.5"/>
<text text-anchor="middle" x="66.5" y="-310.5" font-family="Helvetica,sans-Serif" font-size="10.00">NodeSerializer</text>
<polyline fill="none" stroke="black" points="8,-303.5 125,-303.5 "/>
<text text-anchor="middle" x="66.5" y="-291.5" font-family="Helvetica,sans-Serif" font-size="10.00"> </text>
<polyline fill="none" stroke="black" points="8,-284.5 125,-284.5 "/>
<text text-anchor="start" x="16" y="-272.5" font-family="Helvetica,sans-Serif" font-size="10.00">+ isSerializedNode()</text>
<text text-anchor="start" x="16" y="-261.5" font-family="Helvetica,sans-Serif" font-size="10.00">+ deserializeNode()</text>
<text text-anchor="start" x="16" y="-250.5" font-family="Helvetica,sans-Serif" font-size="10.00">+ serializeNode()</text>
</a>
</g>
</g>
<!-- Node3&#45;&gt;Node2 -->
<g id="edge2" class="edge">
<title>Node3&#45;&gt;Node2</title>
<path fill="none" stroke="midnightblue" d="M66.5,-233.19C66.5,-224.49 66.5,-215.48 66.5,-206.91"/>
<polygon fill="none" stroke="midnightblue" points="63,-233.2 66.5,-243.2 70,-233.2 63,-233.2"/>
</g>
</g>
</svg>
