<?xml version="1.0" encoding="UTF-8" standalone="no"?>
<!DOCTYPE svg PUBLIC "-//W3C//DTD SVG 1.1//EN"
 "http://www.w3.org/Graphics/SVG/1.1/DTD/svg11.dtd">
<!-- Generated by graphviz version 2.43.0 (0)
 -->
<!-- Title: ConfigChangeEvent Pages: 1 -->
<svg width="123pt" height="171pt"
 viewBox="0.00 0.00 123.00 171.00" xmlns="http://www.w3.org/2000/svg" xmlns:xlink="http://www.w3.org/1999/xlink">
<g id="graph0" class="graph" transform="scale(1 1) rotate(0) translate(4 167)">
<title>ConfigChangeEvent</title>
<polygon fill="white" stroke="transparent" points="-4,4 -4,-167 119,-167 119,4 -4,4"/>
<!-- Node1 -->
<g id="node1" class="node">
<title>Node1</title>
<g id="a_node1"><a xlink:title="ConfigChangeEvent signals a change of the application configuration.">
<polygon fill="#bfbfbf" stroke="black" points="1.5,-0.5 1.5,-57.5 113.5,-57.5 113.5,-0.5 1.5,-0.5"/>
<text text-anchor="middle" x="57.5" y="-45.5" font-family="Helvetica,sans-Serif" font-size="10.00">ConfigChangeEvent</text>
<polyline fill="none" stroke="black" points="1.5,-38.5 113.5,-38.5 "/>
<text text-anchor="start" x="9.5" y="-26.5" font-family="Helvetica,sans-Serif" font-size="10.00">+ NAME</text>
<polyline fill="none" stroke="black" points="1.5,-19.5 113.5,-19.5 "/>
<text text-anchor="middle" x="57.5" y="-7.5" font-family="Helvetica,sans-Serif" font-size="10.00"> </text>
</a>
</g>
</g>
<!-- Node2 -->
<g id="node2" class="node">
<title>Node2</title>
<g id="a_node2"><a xlink:href="classwcmf_1_1lib_1_1core_1_1_event.html" target="_top" xlink:title="Event is the base class for all events.">
<polygon fill="white" stroke="black" points="0,-94.5 0,-162.5 115,-162.5 115,-94.5 0,-94.5"/>
<text text-anchor="middle" x="57.5" y="-150.5" font-family="Helvetica,sans-Serif" font-size="10.00">Event</text>
<polyline fill="none" stroke="black" points="0,-143.5 115,-143.5 "/>
<text text-anchor="middle" x="57.5" y="-131.5" font-family="Helvetica,sans-Serif" font-size="10.00"> </text>
<polyline fill="none" stroke="black" points="0,-124.5 115,-124.5 "/>
<text text-anchor="start" x="8" y="-112.5" font-family="Helvetica,sans-Serif" font-size="10.00">+ stopPropagation()</text>
<text text-anchor="start" x="8" y="-101.5" font-family="Helvetica,sans-Serif" font-size="10.00">+ isStopped()</text>
</a>
</g>
</g>
<!-- Node2&#45;&gt;Node1 -->
<g id="edge1" class="edge">
<title>Node2&#45;&gt;Node1</title>
<path fill="none" stroke="midnightblue" d="M57.5,-84.45C57.5,-75.4 57.5,-66.09 57.5,-57.78"/>
<polygon fill="none" stroke="midnightblue" points="54,-84.49 57.5,-94.49 61,-84.49 54,-84.49"/>
</g>
</g>
</svg>
