<?xml version="1.0" encoding="UTF-8" standalone="no"?>
<!DOCTYPE svg PUBLIC "-//W3C//DTD SVG 1.1//EN"
 "http://www.w3.org/Graphics/SVG/1.1/DTD/svg11.dtd">
<!-- Generated by graphviz version 2.43.0 (0)
 -->
<!-- Title: Event Pages: 1 -->
<svg width="978pt" height="259pt"
 viewBox="0.00 0.00 977.50 259.00" xmlns="http://www.w3.org/2000/svg" xmlns:xlink="http://www.w3.org/1999/xlink">
<g id="graph0" class="graph" transform="scale(1 1) rotate(0) translate(4 255)">
<title>Event</title>
<polygon fill="white" stroke="transparent" points="-4,4 -4,-255 973.5,-255 973.5,4 -4,4"/>
<!-- Node1 -->
<g id="node1" class="node">
<title>Node1</title>
<g id="a_node1"><a xlink:title="Event is the base class for all events.">
<polygon fill="#bfbfbf" stroke="black" points="386.5,-182.5 386.5,-250.5 501.5,-250.5 501.5,-182.5 386.5,-182.5"/>
<text text-anchor="middle" x="444" y="-238.5" font-family="Helvetica,sans-Serif" font-size="10.00">Event</text>
<polyline fill="none" stroke="black" points="386.5,-231.5 501.5,-231.5 "/>
<text text-anchor="middle" x="444" y="-219.5" font-family="Helvetica,sans-Serif" font-size="10.00"> </text>
<polyline fill="none" stroke="black" points="386.5,-212.5 501.5,-212.5 "/>
<text text-anchor="start" x="394.5" y="-200.5" font-family="Helvetica,sans-Serif" font-size="10.00">+ stopPropagation()</text>
<text text-anchor="start" x="394.5" y="-189.5" font-family="Helvetica,sans-Serif" font-size="10.00">+ isStopped()</text>
</a>
</g>
</g>
<!-- Node2 -->
<g id="node2" class="node">
<title>Node2</title>
<g id="a_node2"><a xlink:href="classwcmf_1_1lib_1_1config_1_1_config_change_event.html" target="_top" xlink:title="ConfigChangeEvent signals a change of the application configuration.">
<polygon fill="white" stroke="black" points="0,-44.5 0,-101.5 112,-101.5 112,-44.5 0,-44.5"/>
<text text-anchor="middle" x="56" y="-89.5" font-family="Helvetica,sans-Serif" font-size="10.00">ConfigChangeEvent</text>
<polyline fill="none" stroke="black" points="0,-82.5 112,-82.5 "/>
<text text-anchor="start" x="8" y="-70.5" font-family="Helvetica,sans-Serif" font-size="10.00">+ NAME</text>
<polyline fill="none" stroke="black" points="0,-63.5 112,-63.5 "/>
<text text-anchor="middle" x="56" y="-51.5" font-family="Helvetica,sans-Serif" font-size="10.00"> </text>
</a>
</g>
</g>
<!-- Node1&#45;&gt;Node2 -->
<g id="edge1" class="edge">
<title>Node1&#45;&gt;Node2</title>
<path fill="none" stroke="midnightblue" d="M375.97,-212.94C307.44,-207.7 200.71,-192.08 121,-146 102.19,-135.13 85.83,-116.93 74.23,-101.55"/>
<polygon fill="none" stroke="midnightblue" points="376,-216.45 386.22,-213.67 376.49,-209.47 376,-216.45"/>
</g>
<!-- Node3 -->
<g id="node3" class="node">
<title>Node3</title>
<g id="a_node3"><a xlink:href="classwcmf_1_1lib_1_1persistence_1_1_persistence_event.html" target="_top" xlink:title="PersistentEvent signals create/update/delete operations on a persistent entity.">
<polygon fill="white" stroke="black" points="130.5,-28 130.5,-118 231.5,-118 231.5,-28 130.5,-28"/>
<text text-anchor="middle" x="181" y="-106" font-family="Helvetica,sans-Serif" font-size="10.00">PersistenceEvent</text>
<polyline fill="none" stroke="black" points="130.5,-99 231.5,-99 "/>
<text text-anchor="start" x="138.5" y="-87" font-family="Helvetica,sans-Serif" font-size="10.00">+ NAME</text>
<polyline fill="none" stroke="black" points="130.5,-80 231.5,-80 "/>
<text text-anchor="start" x="138.5" y="-68" font-family="Helvetica,sans-Serif" font-size="10.00">+ __construct()</text>
<text text-anchor="start" x="138.5" y="-57" font-family="Helvetica,sans-Serif" font-size="10.00">+ getObject()</text>
<text text-anchor="start" x="138.5" y="-46" font-family="Helvetica,sans-Serif" font-size="10.00">+ getAction()</text>
<text text-anchor="start" x="138.5" y="-35" font-family="Helvetica,sans-Serif" font-size="10.00">+ getOldOid()</text>
</a>
</g>
</g>
<!-- Node1&#45;&gt;Node3 -->
<g id="edge2" class="edge">
<title>Node1&#45;&gt;Node3</title>
<path fill="none" stroke="midnightblue" d="M376.56,-202.21C334.89,-191.72 281.76,-174.06 241,-146 230.01,-138.43 219.9,-128.33 211.24,-118.08"/>
<polygon fill="none" stroke="midnightblue" points="375.81,-205.63 386.36,-204.59 377.47,-198.82 375.81,-205.63"/>
</g>
<!-- Node4 -->
<g id="node4" class="node">
<title>Node4</title>
<g id="a_node4"><a xlink:href="classwcmf_1_1lib_1_1persistence_1_1_property_change_event.html" target="_top" xlink:title="PropertyChangeEvent signals a change of a property of a PersistentObject instance.">
<polygon fill="white" stroke="black" points="250,-22.5 250,-123.5 372,-123.5 372,-22.5 250,-22.5"/>
<text text-anchor="middle" x="311" y="-111.5" font-family="Helvetica,sans-Serif" font-size="10.00">PropertyChangeEvent</text>
<polyline fill="none" stroke="black" points="250,-104.5 372,-104.5 "/>
<text text-anchor="start" x="258" y="-92.5" font-family="Helvetica,sans-Serif" font-size="10.00">+ NAME</text>
<polyline fill="none" stroke="black" points="250,-85.5 372,-85.5 "/>
<text text-anchor="start" x="258" y="-73.5" font-family="Helvetica,sans-Serif" font-size="10.00">+ __construct()</text>
<text text-anchor="start" x="258" y="-62.5" font-family="Helvetica,sans-Serif" font-size="10.00">+ getObject()</text>
<text text-anchor="start" x="258" y="-51.5" font-family="Helvetica,sans-Serif" font-size="10.00">+ getPropertyName()</text>
<text text-anchor="start" x="258" y="-40.5" font-family="Helvetica,sans-Serif" font-size="10.00">+ getOldValue()</text>
<text text-anchor="start" x="258" y="-29.5" font-family="Helvetica,sans-Serif" font-size="10.00">+ getNewValue()</text>
</a>
</g>
</g>
<!-- Node1&#45;&gt;Node4 -->
<g id="edge3" class="edge">
<title>Node1&#45;&gt;Node4</title>
<path fill="none" stroke="midnightblue" d="M405.66,-174.71C390.67,-158.76 373.33,-140.32 357.63,-123.61"/>
<polygon fill="none" stroke="midnightblue" points="403.42,-177.44 412.82,-182.32 408.52,-172.64 403.42,-177.44"/>
</g>
<!-- Node5 -->
<g id="node5" class="node">
<title>Node5</title>
<g id="a_node5"><a xlink:href="classwcmf_1_1lib_1_1persistence_1_1_state_change_event.html" target="_top" xlink:title="StateChangeEvent signals a change of the state of a PersistentObject instance.">
<polygon fill="white" stroke="black" points="390.5,-28 390.5,-118 497.5,-118 497.5,-28 390.5,-28"/>
<text text-anchor="middle" x="444" y="-106" font-family="Helvetica,sans-Serif" font-size="10.00">StateChangeEvent</text>
<polyline fill="none" stroke="black" points="390.5,-99 497.5,-99 "/>
<text text-anchor="start" x="398.5" y="-87" font-family="Helvetica,sans-Serif" font-size="10.00">+ NAME</text>
<polyline fill="none" stroke="black" points="390.5,-80 497.5,-80 "/>
<text text-anchor="start" x="398.5" y="-68" font-family="Helvetica,sans-Serif" font-size="10.00">+ __construct()</text>
<text text-anchor="start" x="398.5" y="-57" font-family="Helvetica,sans-Serif" font-size="10.00">+ getObject()</text>
<text text-anchor="start" x="398.5" y="-46" font-family="Helvetica,sans-Serif" font-size="10.00">+ getOldValue()</text>
<text text-anchor="start" x="398.5" y="-35" font-family="Helvetica,sans-Serif" font-size="10.00">+ getNewValue()</text>
</a>
</g>
</g>
<!-- Node1&#45;&gt;Node5 -->
<g id="edge4" class="edge">
<title>Node1&#45;&gt;Node5</title>
<path fill="none" stroke="midnightblue" d="M444,-172.06C444,-154.97 444,-135.38 444,-118.22"/>
<polygon fill="none" stroke="midnightblue" points="440.5,-172.32 444,-182.32 447.5,-172.32 440.5,-172.32"/>
</g>
<!-- Node6 -->
<g id="node6" class="node">
<title>Node6</title>
<g id="a_node6"><a xlink:href="classwcmf_1_1lib_1_1persistence_1_1_transaction_event.html" target="_top" xlink:title="TransactionEvent instances are fired at different phases of a transaction.">
<polygon fill="white" stroke="black" points="516,-6 516,-140 632,-140 632,-6 516,-6"/>
<text text-anchor="middle" x="574" y="-128" font-family="Helvetica,sans-Serif" font-size="10.00">TransactionEvent</text>
<polyline fill="none" stroke="black" points="516,-121 632,-121 "/>
<text text-anchor="start" x="524" y="-109" font-family="Helvetica,sans-Serif" font-size="10.00">+ NAME</text>
<text text-anchor="start" x="524" y="-98" font-family="Helvetica,sans-Serif" font-size="10.00">+ BEFORE_COMMIT</text>
<text text-anchor="start" x="524" y="-87" font-family="Helvetica,sans-Serif" font-size="10.00">+ AFTER_COMMIT</text>
<text text-anchor="start" x="524" y="-76" font-family="Helvetica,sans-Serif" font-size="10.00">+ AFTER_ROLLBACK</text>
<polyline fill="none" stroke="black" points="516,-69 632,-69 "/>
<text text-anchor="start" x="524" y="-57" font-family="Helvetica,sans-Serif" font-size="10.00">+ __construct()</text>
<text text-anchor="start" x="524" y="-46" font-family="Helvetica,sans-Serif" font-size="10.00">+ getPhase()</text>
<text text-anchor="start" x="524" y="-35" font-family="Helvetica,sans-Serif" font-size="10.00">+ getInsertedOids()</text>
<text text-anchor="start" x="524" y="-24" font-family="Helvetica,sans-Serif" font-size="10.00">+ getUpdatedOids()</text>
<text text-anchor="start" x="524" y="-13" font-family="Helvetica,sans-Serif" font-size="10.00">+ getDeletedOids()</text>
</a>
</g>
</g>
<!-- Node1&#45;&gt;Node6 -->
<g id="edge5" class="edge">
<title>Node1&#45;&gt;Node6</title>
<path fill="none" stroke="midnightblue" d="M481.37,-174.83C492.14,-163.1 504.17,-150.01 515.89,-137.25"/>
<polygon fill="none" stroke="midnightblue" points="478.67,-172.59 474.48,-182.32 483.82,-177.33 478.67,-172.59"/>
</g>
<!-- Node7 -->
<g id="node7" class="node">
<title>Node7</title>
<g id="a_node7"><a xlink:href="classwcmf_1_1lib_1_1persistence_1_1_value_change_event.html" target="_top" xlink:title="ValueChangeEvent signals a change of a value of a PersistentObject instance.">
<polygon fill="white" stroke="black" points="650,-22.5 650,-123.5 758,-123.5 758,-22.5 650,-22.5"/>
<text text-anchor="middle" x="704" y="-111.5" font-family="Helvetica,sans-Serif" font-size="10.00">ValueChangeEvent</text>
<polyline fill="none" stroke="black" points="650,-104.5 758,-104.5 "/>
<text text-anchor="start" x="658" y="-92.5" font-family="Helvetica,sans-Serif" font-size="10.00">+ NAME</text>
<polyline fill="none" stroke="black" points="650,-85.5 758,-85.5 "/>
<text text-anchor="start" x="658" y="-73.5" font-family="Helvetica,sans-Serif" font-size="10.00">+ __construct()</text>
<text text-anchor="start" x="658" y="-62.5" font-family="Helvetica,sans-Serif" font-size="10.00">+ getObject()</text>
<text text-anchor="start" x="658" y="-51.5" font-family="Helvetica,sans-Serif" font-size="10.00">+ getValueName()</text>
<text text-anchor="start" x="658" y="-40.5" font-family="Helvetica,sans-Serif" font-size="10.00">+ getOldValue()</text>
<text text-anchor="start" x="658" y="-29.5" font-family="Helvetica,sans-Serif" font-size="10.00">+ getNewValue()</text>
</a>
</g>
</g>
<!-- Node1&#45;&gt;Node7 -->
<g id="edge6" class="edge">
<title>Node1&#45;&gt;Node7</title>
<path fill="none" stroke="midnightblue" d="M511.84,-200.78C551.79,-189.95 601.97,-172.45 641,-146 650.21,-139.76 658.92,-131.85 666.75,-123.58"/>
<polygon fill="none" stroke="midnightblue" points="510.7,-197.46 501.92,-203.39 512.48,-204.23 510.7,-197.46"/>
</g>
<!-- Node8 -->
<g id="node8" class="node">
<title>Node8</title>
<g id="a_node8"><a xlink:href="classwcmf_1_1lib_1_1presentation_1_1_application_event.html" target="_top" xlink:title="ApplicationEvent instances are fired at different stages of the program flow.">
<polygon fill="white" stroke="black" points="776.5,-0.5 776.5,-145.5 969.5,-145.5 969.5,-0.5 776.5,-0.5"/>
<text text-anchor="middle" x="873" y="-133.5" font-family="Helvetica,sans-Serif" font-size="10.00">ApplicationEvent</text>
<polyline fill="none" stroke="black" points="776.5,-126.5 969.5,-126.5 "/>
<text text-anchor="start" x="784.5" y="-114.5" font-family="Helvetica,sans-Serif" font-size="10.00">+ NAME</text>
<text text-anchor="start" x="784.5" y="-103.5" font-family="Helvetica,sans-Serif" font-size="10.00">+ BEFORE_ROUTE_ACTION</text>
<text text-anchor="start" x="784.5" y="-92.5" font-family="Helvetica,sans-Serif" font-size="10.00">+ BEFORE_INITIALIZE_CONTROLLER</text>
<text text-anchor="start" x="784.5" y="-81.5" font-family="Helvetica,sans-Serif" font-size="10.00">+ BEFORE_EXECUTE_CONTROLLER</text>
<text text-anchor="start" x="784.5" y="-70.5" font-family="Helvetica,sans-Serif" font-size="10.00">+ AFTER_EXECUTE_CONTROLLER</text>
<polyline fill="none" stroke="black" points="776.5,-63.5 969.5,-63.5 "/>
<text text-anchor="start" x="784.5" y="-51.5" font-family="Helvetica,sans-Serif" font-size="10.00">+ __construct()</text>
<text text-anchor="start" x="784.5" y="-40.5" font-family="Helvetica,sans-Serif" font-size="10.00">+ getStage()</text>
<text text-anchor="start" x="784.5" y="-29.5" font-family="Helvetica,sans-Serif" font-size="10.00">+ getRequest()</text>
<text text-anchor="start" x="784.5" y="-18.5" font-family="Helvetica,sans-Serif" font-size="10.00">+ getResponse()</text>
<text text-anchor="start" x="784.5" y="-7.5" font-family="Helvetica,sans-Serif" font-size="10.00">+ getController()</text>
</a>
</g>
</g>
<!-- Node1&#45;&gt;Node8 -->
<g id="edge7" class="edge">
<title>Node1&#45;&gt;Node8</title>
<path fill="none" stroke="midnightblue" d="M511.76,-208.59C578.75,-200.02 683.11,-181.9 767,-146 770.07,-144.69 773.14,-143.28 776.21,-141.8"/>
<polygon fill="none" stroke="midnightblue" points="511.23,-205.13 501.74,-209.84 512.1,-212.08 511.23,-205.13"/>
</g>
</g>
</svg>
