<?xml version="1.0" encoding="UTF-8" standalone="no"?>
<!DOCTYPE svg PUBLIC "-//W3C//DTD SVG 1.1//EN"
 "http://www.w3.org/Graphics/SVG/1.1/DTD/svg11.dtd">
<!-- Generated by graphviz version 2.43.0 (0)
 -->
<!-- Title: OptimisticLockException Pages: 1 -->
<svg width="145pt" height="171pt"
 viewBox="0.00 0.00 145.00 171.00" xmlns="http://www.w3.org/2000/svg" xmlns:xlink="http://www.w3.org/1999/xlink">
<g id="graph0" class="graph" transform="scale(1 1) rotate(0) translate(4 167)">
<title>OptimisticLockException</title>
<polygon fill="white" stroke="transparent" points="-4,4 -4,-167 141,-167 141,4 -4,4"/>
<!-- Node1 -->
<g id="node1" class="node">
<title>Node1</title>
<g id="a_node1"><a xlink:title="OptimisticLockException signals an exception when trying to create an optimistic lock.">
<polygon fill="#bfbfbf" stroke="black" points="0,-0.5 0,-68.5 137,-68.5 137,-0.5 0,-0.5"/>
<text text-anchor="middle" x="68.5" y="-56.5" font-family="Helvetica,sans-Serif" font-size="10.00">OptimisticLockException</text>
<polyline fill="none" stroke="black" points="0,-49.5 137,-49.5 "/>
<text text-anchor="middle" x="68.5" y="-37.5" font-family="Helvetica,sans-Serif" font-size="10.00"> </text>
<polyline fill="none" stroke="black" points="0,-30.5 137,-30.5 "/>
<text text-anchor="start" x="8" y="-18.5" font-family="Helvetica,sans-Serif" font-size="10.00">+ __construct()</text>
<text text-anchor="start" x="8" y="-7.5" font-family="Helvetica,sans-Serif" font-size="10.00">+ getCurrentState()</text>
</a>
</g>
</g>
<!-- Node2 -->
<g id="node2" class="node">
<title>Node2</title>
<g id="a_node2"><a xlink:title=" ">
<polygon fill="white" stroke="#bfbfbf" points="36,-105.5 36,-162.5 101,-162.5 101,-105.5 36,-105.5"/>
<text text-anchor="middle" x="68.5" y="-150.5" font-family="Helvetica,sans-Serif" font-size="10.00">Exception</text>
<polyline fill="none" stroke="#bfbfbf" points="36,-143.5 101,-143.5 "/>
<text text-anchor="middle" x="68.5" y="-131.5" font-family="Helvetica,sans-Serif" font-size="10.00"> </text>
<polyline fill="none" stroke="#bfbfbf" points="36,-124.5 101,-124.5 "/>
<text text-anchor="middle" x="68.5" y="-112.5" font-family="Helvetica,sans-Serif" font-size="10.00"> </text>
</a>
</g>
</g>
<!-- Node2&#45;&gt;Node1 -->
<g id="edge1" class="edge">
<title>Node2&#45;&gt;Node1</title>
<path fill="none" stroke="midnightblue" d="M68.5,-95.06C68.5,-86.39 68.5,-77.24 68.5,-68.79"/>
<polygon fill="none" stroke="midnightblue" points="65,-95.32 68.5,-105.32 72,-95.32 65,-95.32"/>
</g>
</g>
</svg>
