<?xml version="1.0" encoding="UTF-8" standalone="no"?>
<!DOCTYPE svg PUBLIC "-//W3C//DTD SVG 1.1//EN"
 "http://www.w3.org/Graphics/SVG/1.1/DTD/svg11.dtd">
<!-- Generated by graphviz version 2.43.0 (0)
 -->
<!-- Title: RemoteDocument Pages: 1 -->
<svg width="122pt" height="375pt"
 viewBox="0.00 0.00 122.00 375.00" xmlns="http://www.w3.org/2000/svg" xmlns:xlink="http://www.w3.org/1999/xlink">
<g id="graph0" class="graph" transform="scale(1 1) rotate(0) translate(4 371)">
<title>RemoteDocument</title>
<polygon fill="white" stroke="transparent" points="-4,4 -4,-371 118,-371 118,4 -4,4"/>
<!-- Node1 -->
<g id="node1" class="node">
<title>Node1</title>
<g id="a_node1"><a xlink:title="RemoteDocument represents a remote file retrieved via cURL.">
<polygon fill="#bfbfbf" stroke="black" points="4.5,-0.5 4.5,-79.5 109.5,-79.5 109.5,-0.5 4.5,-0.5"/>
<text text-anchor="middle" x="57" y="-67.5" font-family="Helvetica,sans-Serif" font-size="10.00">RemoteDocument</text>
<polyline fill="none" stroke="black" points="4.5,-60.5 109.5,-60.5 "/>
<text text-anchor="middle" x="57" y="-48.5" font-family="Helvetica,sans-Serif" font-size="10.00"> </text>
<polyline fill="none" stroke="black" points="4.5,-41.5 109.5,-41.5 "/>
<text text-anchor="start" x="12.5" y="-29.5" font-family="Helvetica,sans-Serif" font-size="10.00">+ __construct()</text>
<text text-anchor="start" x="12.5" y="-18.5" font-family="Helvetica,sans-Serif" font-size="10.00">+ getContent()</text>
<text text-anchor="start" x="12.5" y="-7.5" font-family="Helvetica,sans-Serif" font-size="10.00">+ output()</text>
</a>
</g>
</g>
<!-- Node2 -->
<g id="node2" class="node">
<title>Node2</title>
<g id="a_node2"><a xlink:href="classwcmf_1_1lib_1_1presentation_1_1impl_1_1_abstract_document.html" target="_top" xlink:title="AbstractFormat is used as base class for specialized documents.">
<polygon fill="white" stroke="black" points="3.5,-116.5 3.5,-217.5 110.5,-217.5 110.5,-116.5 3.5,-116.5"/>
<text text-anchor="middle" x="57" y="-205.5" font-family="Helvetica,sans-Serif" font-size="10.00">AbstractDocument</text>
<polyline fill="none" stroke="black" points="3.5,-198.5 110.5,-198.5 "/>
<text text-anchor="middle" x="57" y="-186.5" font-family="Helvetica,sans-Serif" font-size="10.00"> </text>
<polyline fill="none" stroke="black" points="3.5,-179.5 110.5,-179.5 "/>
<text text-anchor="start" x="11.5" y="-167.5" font-family="Helvetica,sans-Serif" font-size="10.00">+ __construct()</text>
<text text-anchor="start" x="11.5" y="-156.5" font-family="Helvetica,sans-Serif" font-size="10.00">+ getMimeType()</text>
<text text-anchor="start" x="11.5" y="-145.5" font-family="Helvetica,sans-Serif" font-size="10.00">+ isDownload()</text>
<text text-anchor="start" x="11.5" y="-134.5" font-family="Helvetica,sans-Serif" font-size="10.00">+ getFilename()</text>
<text text-anchor="start" x="11.5" y="-123.5" font-family="Helvetica,sans-Serif" font-size="10.00">+ getCacheDate()</text>
</a>
</g>
</g>
<!-- Node2&#45;&gt;Node1 -->
<g id="edge1" class="edge">
<title>Node2&#45;&gt;Node1</title>
<path fill="none" stroke="midnightblue" d="M57,-106.19C57,-97.22 57,-88.18 57,-79.81"/>
<polygon fill="none" stroke="midnightblue" points="53.5,-106.24 57,-116.24 60.5,-106.24 53.5,-106.24"/>
</g>
<!-- Node3 -->
<g id="node3" class="node">
<title>Node3</title>
<g id="a_node3"><a xlink:href="interfacewcmf_1_1lib_1_1presentation_1_1_response_document.html" target="_top" xlink:title="ResponseDocument is the interface for media returned in a response when using the DownloadFormat.">
<polygon fill="white" stroke="black" points="0,-254.5 0,-366.5 114,-366.5 114,-254.5 0,-254.5"/>
<text text-anchor="middle" x="57" y="-354.5" font-family="Helvetica,sans-Serif" font-size="10.00">ResponseDocument</text>
<polyline fill="none" stroke="black" points="0,-347.5 114,-347.5 "/>
<text text-anchor="middle" x="57" y="-335.5" font-family="Helvetica,sans-Serif" font-size="10.00"> </text>
<polyline fill="none" stroke="black" points="0,-328.5 114,-328.5 "/>
<text text-anchor="start" x="8" y="-316.5" font-family="Helvetica,sans-Serif" font-size="10.00">+ getMimeType()</text>
<text text-anchor="start" x="8" y="-305.5" font-family="Helvetica,sans-Serif" font-size="10.00">+ isDownload()</text>
<text text-anchor="start" x="8" y="-294.5" font-family="Helvetica,sans-Serif" font-size="10.00">+ getFilename()</text>
<text text-anchor="start" x="8" y="-283.5" font-family="Helvetica,sans-Serif" font-size="10.00">+ getCacheDate()</text>
<text text-anchor="start" x="8" y="-272.5" font-family="Helvetica,sans-Serif" font-size="10.00">+ getContent()</text>
<text text-anchor="start" x="8" y="-261.5" font-family="Helvetica,sans-Serif" font-size="10.00">+ output()</text>
</a>
</g>
</g>
<!-- Node3&#45;&gt;Node2 -->
<g id="edge2" class="edge">
<title>Node3&#45;&gt;Node2</title>
<path fill="none" stroke="midnightblue" d="M57,-244.34C57,-235.38 57,-226.29 57,-217.66"/>
<polygon fill="none" stroke="midnightblue" points="53.5,-244.39 57,-254.39 60.5,-244.39 53.5,-244.39"/>
</g>
</g>
</svg>
