<?xml version="1.0" encoding="UTF-8" standalone="no"?>
<!DOCTYPE svg PUBLIC "-//W3C//DTD SVG 1.1//EN"
 "http://www.w3.org/Graphics/SVG/1.1/DTD/svg11.dtd">
<!-- Generated by graphviz version 2.43.0 (0)
 -->
<!-- Title: Role Pages: 1 -->
<svg width="110pt" height="193pt"
 viewBox="0.00 0.00 110.00 193.00" xmlns="http://www.w3.org/2000/svg" xmlns:xlink="http://www.w3.org/1999/xlink">
<g id="graph0" class="graph" transform="scale(1 1) rotate(0) translate(4 189)">
<title>Role</title>
<polygon fill="white" stroke="transparent" points="-4,4 -4,-189 106,-189 106,4 -4,4"/>
<!-- Node1 -->
<g id="node1" class="node">
<title>Node1</title>
<g id="a_node1"><a xlink:title="Role is the interface for user roles.">
<polygon fill="#bfbfbf" stroke="black" points="11,-116.5 11,-184.5 91,-184.5 91,-116.5 11,-116.5"/>
<text text-anchor="middle" x="51" y="-172.5" font-family="Helvetica,sans-Serif" font-size="10.00">Role</text>
<polyline fill="none" stroke="black" points="11,-165.5 91,-165.5 "/>
<text text-anchor="middle" x="51" y="-153.5" font-family="Helvetica,sans-Serif" font-size="10.00"> </text>
<polyline fill="none" stroke="black" points="11,-146.5 91,-146.5 "/>
<text text-anchor="start" x="19" y="-134.5" font-family="Helvetica,sans-Serif" font-size="10.00">+ setName()</text>
<text text-anchor="start" x="19" y="-123.5" font-family="Helvetica,sans-Serif" font-size="10.00">+ getName()</text>
</a>
</g>
</g>
<!-- Node2 -->
<g id="node2" class="node">
<title>Node2</title>
<g id="a_node2"><a xlink:href="classwcmf_1_1lib_1_1security_1_1principal_1_1impl_1_1_abstract_role.html" target="_top" xlink:title="Default implementation of a role.">
<polygon fill="white" stroke="black" points="0,-0.5 0,-79.5 102,-79.5 102,-0.5 0,-0.5"/>
<text text-anchor="middle" x="51" y="-67.5" font-family="Helvetica,sans-Serif" font-size="10.00">AbstractRole</text>
<polyline fill="none" stroke="black" points="0,-60.5 102,-60.5 "/>
<text text-anchor="middle" x="51" y="-48.5" font-family="Helvetica,sans-Serif" font-size="10.00"> </text>
<polyline fill="none" stroke="black" points="0,-41.5 102,-41.5 "/>
<text text-anchor="start" x="8" y="-29.5" font-family="Helvetica,sans-Serif" font-size="10.00">+ setName()</text>
<text text-anchor="start" x="8" y="-18.5" font-family="Helvetica,sans-Serif" font-size="10.00">+ getName()</text>
<text text-anchor="start" x="8" y="-7.5" font-family="Helvetica,sans-Serif" font-size="10.00">+ validateValue()</text>
</a>
</g>
</g>
<!-- Node1&#45;&gt;Node2 -->
<g id="edge1" class="edge">
<title>Node1&#45;&gt;Node2</title>
<path fill="none" stroke="midnightblue" d="M51,-106.27C51,-97.48 51,-88.28 51,-79.65"/>
<polygon fill="none" stroke="midnightblue" points="47.5,-106.36 51,-116.36 54.5,-106.36 47.5,-106.36"/>
</g>
</g>
</svg>
