<?xml version="1.0" encoding="UTF-8" standalone="no"?>
<!DOCTYPE svg PUBLIC "-//W3C//DTD SVG 1.1//EN"
 "http://www.w3.org/Graphics/SVG/1.1/DTD/svg11.dtd">
<!-- Generated by graphviz version 2.43.0 (0)
 -->
<!-- Title: Cache Pages: 1 -->
<svg width="194pt" height="292pt"
 viewBox="0.00 0.00 193.50 292.00" xmlns="http://www.w3.org/2000/svg" xmlns:xlink="http://www.w3.org/1999/xlink">
<g id="graph0" class="graph" transform="scale(1 1) rotate(0) translate(4 288)">
<title>Cache</title>
<polygon fill="white" stroke="transparent" points="-4,4 -4,-288 189.5,-288 189.5,4 -4,4"/>
<!-- Node1 -->
<g id="node1" class="node">
<title>Node1</title>
<g id="a_node1"><a xlink:title="Cache defines the interface for cache implementations.">
<polygon fill="#bfbfbf" stroke="black" points="61.5,-171.5 61.5,-283.5 135.5,-283.5 135.5,-171.5 61.5,-171.5"/>
<text text-anchor="middle" x="98.5" y="-271.5" font-family="Helvetica,sans-Serif" font-size="10.00">Cache</text>
<polyline fill="none" stroke="black" points="61.5,-264.5 135.5,-264.5 "/>
<text text-anchor="middle" x="98.5" y="-252.5" font-family="Helvetica,sans-Serif" font-size="10.00"> </text>
<polyline fill="none" stroke="black" points="61.5,-245.5 135.5,-245.5 "/>
<text text-anchor="start" x="69.5" y="-233.5" font-family="Helvetica,sans-Serif" font-size="10.00">+ exists()</text>
<text text-anchor="start" x="69.5" y="-222.5" font-family="Helvetica,sans-Serif" font-size="10.00">+ getDate()</text>
<text text-anchor="start" x="69.5" y="-211.5" font-family="Helvetica,sans-Serif" font-size="10.00">+ get()</text>
<text text-anchor="start" x="69.5" y="-200.5" font-family="Helvetica,sans-Serif" font-size="10.00">+ put()</text>
<text text-anchor="start" x="69.5" y="-189.5" font-family="Helvetica,sans-Serif" font-size="10.00">+ clear()</text>
<text text-anchor="start" x="69.5" y="-178.5" font-family="Helvetica,sans-Serif" font-size="10.00">+ clearAll()</text>
</a>
</g>
</g>
<!-- Node2 -->
<g id="node2" class="node">
<title>Node2</title>
<g id="a_node2"><a xlink:href="classwcmf_1_1lib_1_1io_1_1impl_1_1_file_cache.html" target="_top" xlink:title="FileCache provides simple caching functionality.">
<polygon fill="white" stroke="black" points="0,-0.5 0,-134.5 95,-134.5 95,-0.5 0,-0.5"/>
<text text-anchor="middle" x="47.5" y="-122.5" font-family="Helvetica,sans-Serif" font-size="10.00">FileCache</text>
<polyline fill="none" stroke="black" points="0,-115.5 95,-115.5 "/>
<text text-anchor="middle" x="47.5" y="-103.5" font-family="Helvetica,sans-Serif" font-size="10.00"> </text>
<polyline fill="none" stroke="black" points="0,-96.5 95,-96.5 "/>
<text text-anchor="start" x="8" y="-84.5" font-family="Helvetica,sans-Serif" font-size="10.00">+ __construct()</text>
<text text-anchor="start" x="8" y="-73.5" font-family="Helvetica,sans-Serif" font-size="10.00">+ setCacheDir()</text>
<text text-anchor="start" x="8" y="-62.5" font-family="Helvetica,sans-Serif" font-size="10.00">+ exists()</text>
<text text-anchor="start" x="8" y="-51.5" font-family="Helvetica,sans-Serif" font-size="10.00">+ getDate()</text>
<text text-anchor="start" x="8" y="-40.5" font-family="Helvetica,sans-Serif" font-size="10.00">+ get()</text>
<text text-anchor="start" x="8" y="-29.5" font-family="Helvetica,sans-Serif" font-size="10.00">+ put()</text>
<text text-anchor="start" x="8" y="-18.5" font-family="Helvetica,sans-Serif" font-size="10.00">+ clear()</text>
<text text-anchor="start" x="8" y="-7.5" font-family="Helvetica,sans-Serif" font-size="10.00">+ clearAll()</text>
</a>
</g>
</g>
<!-- Node1&#45;&gt;Node2 -->
<g id="edge1" class="edge">
<title>Node1&#45;&gt;Node2</title>
<path fill="none" stroke="midnightblue" d="M77.57,-161.66C74.69,-152.73 71.72,-143.54 68.83,-134.59"/>
<polygon fill="none" stroke="midnightblue" points="74.26,-162.8 80.66,-171.24 80.92,-160.65 74.26,-162.8"/>
</g>
<!-- Node3 -->
<g id="node3" class="node">
<title>Node3</title>
<g id="a_node3"><a xlink:href="classwcmf_1_1lib_1_1io_1_1impl_1_1_null_cache.html" target="_top" xlink:title="NullCache acts as no cache.">
<polygon fill="white" stroke="black" points="113.5,-17 113.5,-118 185.5,-118 185.5,-17 113.5,-17"/>
<text text-anchor="middle" x="149.5" y="-106" font-family="Helvetica,sans-Serif" font-size="10.00">NullCache</text>
<polyline fill="none" stroke="black" points="113.5,-99 185.5,-99 "/>
<text text-anchor="middle" x="149.5" y="-87" font-family="Helvetica,sans-Serif" font-size="10.00"> </text>
<polyline fill="none" stroke="black" points="113.5,-80 185.5,-80 "/>
<text text-anchor="start" x="121.5" y="-68" font-family="Helvetica,sans-Serif" font-size="10.00">+ exists()</text>
<text text-anchor="start" x="121.5" y="-57" font-family="Helvetica,sans-Serif" font-size="10.00">+ get()</text>
<text text-anchor="start" x="121.5" y="-46" font-family="Helvetica,sans-Serif" font-size="10.00">+ put()</text>
<text text-anchor="start" x="121.5" y="-35" font-family="Helvetica,sans-Serif" font-size="10.00">+ clear()</text>
<text text-anchor="start" x="121.5" y="-24" font-family="Helvetica,sans-Serif" font-size="10.00">+ clearAll()</text>
</a>
</g>
</g>
<!-- Node1&#45;&gt;Node3 -->
<g id="edge2" class="edge">
<title>Node1&#45;&gt;Node3</title>
<path fill="none" stroke="midnightblue" d="M119.52,-161.38C124.18,-146.95 129.04,-131.88 133.46,-118.19"/>
<polygon fill="none" stroke="midnightblue" points="116.08,-160.65 116.34,-171.24 122.74,-162.8 116.08,-160.65"/>
</g>
</g>
</svg>
