<?xml version="1.0" encoding="UTF-8" standalone="no"?>
<!DOCTYPE svg PUBLIC "-//W3C//DTD SVG 1.1//EN"
 "http://www.w3.org/Graphics/SVG/1.1/DTD/svg11.dtd">
<!-- Generated by graphviz version 2.43.0 (0)
 -->
<!-- Title: Logger Pages: 1 -->
<svg width="296pt" height="507pt"
 viewBox="0.00 0.00 295.50 507.00" xmlns="http://www.w3.org/2000/svg" xmlns:xlink="http://www.w3.org/1999/xlink">
<g id="graph0" class="graph" transform="scale(1 1) rotate(0) translate(4 503)">
<title>Logger</title>
<polygon fill="white" stroke="transparent" points="-4,4 -4,-503 291.5,-503 291.5,4 -4,4"/>
<!-- Node1 -->
<g id="node1" class="node">
<title>Node1</title>
<g id="a_node1"><a xlink:title="Interface for logger implementations.">
<polygon fill="#bfbfbf" stroke="black" points="76,-320.5 76,-498.5 190,-498.5 190,-320.5 76,-320.5"/>
<text text-anchor="middle" x="133" y="-486.5" font-family="Helvetica,sans-Serif" font-size="10.00">Logger</text>
<polyline fill="none" stroke="black" points="76,-479.5 190,-479.5 "/>
<text text-anchor="middle" x="133" y="-467.5" font-family="Helvetica,sans-Serif" font-size="10.00"> </text>
<polyline fill="none" stroke="black" points="76,-460.5 190,-460.5 "/>
<text text-anchor="start" x="84" y="-448.5" font-family="Helvetica,sans-Serif" font-size="10.00">+ debug()</text>
<text text-anchor="start" x="84" y="-437.5" font-family="Helvetica,sans-Serif" font-size="10.00">+ info()</text>
<text text-anchor="start" x="84" y="-426.5" font-family="Helvetica,sans-Serif" font-size="10.00">+ warn()</text>
<text text-anchor="start" x="84" y="-415.5" font-family="Helvetica,sans-Serif" font-size="10.00">+ error()</text>
<text text-anchor="start" x="84" y="-404.5" font-family="Helvetica,sans-Serif" font-size="10.00">+ fatal()</text>
<text text-anchor="start" x="84" y="-393.5" font-family="Helvetica,sans-Serif" font-size="10.00">+ isDebugEnabled()</text>
<text text-anchor="start" x="84" y="-382.5" font-family="Helvetica,sans-Serif" font-size="10.00">+ isInfoEnabled()</text>
<text text-anchor="start" x="84" y="-371.5" font-family="Helvetica,sans-Serif" font-size="10.00">+ isWarnEnabled()</text>
<text text-anchor="start" x="84" y="-360.5" font-family="Helvetica,sans-Serif" font-size="10.00">+ isErrorEnabled()</text>
<text text-anchor="start" x="84" y="-349.5" font-family="Helvetica,sans-Serif" font-size="10.00">+ isFatalEnabled()</text>
<text text-anchor="start" x="84" y="-338.5" font-family="Helvetica,sans-Serif" font-size="10.00">+ logByErrorType()</text>
<text text-anchor="start" x="84" y="-327.5" font-family="Helvetica,sans-Serif" font-size="10.00">+ getLogger()</text>
</a>
</g>
</g>
<!-- Node2 -->
<g id="node2" class="node">
<title>Node2</title>
<g id="a_node2"><a xlink:href="classwcmf_1_1lib_1_1core_1_1impl_1_1_abstract_logger.html" target="_top" xlink:title="AbstractLogger is the abstract base class for Logger implementations.">
<polygon fill="white" stroke="black" points="78.5,-226.5 78.5,-283.5 187.5,-283.5 187.5,-226.5 78.5,-226.5"/>
<text text-anchor="middle" x="133" y="-271.5" font-family="Helvetica,sans-Serif" font-size="10.00">AbstractLogger</text>
<polyline fill="none" stroke="black" points="78.5,-264.5 187.5,-264.5 "/>
<text text-anchor="middle" x="133" y="-252.5" font-family="Helvetica,sans-Serif" font-size="10.00"> </text>
<polyline fill="none" stroke="black" points="78.5,-245.5 187.5,-245.5 "/>
<text text-anchor="start" x="86.5" y="-233.5" font-family="Helvetica,sans-Serif" font-size="10.00">+ logByErrorType()</text>
</a>
</g>
</g>
<!-- Node1&#45;&gt;Node2 -->
<g id="edge1" class="edge">
<title>Node1&#45;&gt;Node2</title>
<path fill="none" stroke="midnightblue" d="M133,-310.17C133,-300.66 133,-291.65 133,-283.81"/>
<polygon fill="none" stroke="midnightblue" points="129.5,-310.23 133,-320.23 136.5,-310.23 129.5,-310.23"/>
</g>
<!-- Node3 -->
<g id="node3" class="node">
<title>Node3</title>
<g id="a_node3"><a xlink:href="classwcmf_1_1lib_1_1core_1_1impl_1_1_log4php_logger.html" target="_top" xlink:title="Log4phpLogger is a wrapper for the log4php library.">
<polygon fill="white" stroke="black" points="0,-0.5 0,-189.5 114,-189.5 114,-0.5 0,-0.5"/>
<text text-anchor="middle" x="57" y="-177.5" font-family="Helvetica,sans-Serif" font-size="10.00">Log4phpLogger</text>
<polyline fill="none" stroke="black" points="0,-170.5 114,-170.5 "/>
<text text-anchor="middle" x="57" y="-158.5" font-family="Helvetica,sans-Serif" font-size="10.00"> </text>
<polyline fill="none" stroke="black" points="0,-151.5 114,-151.5 "/>
<text text-anchor="start" x="8" y="-139.5" font-family="Helvetica,sans-Serif" font-size="10.00">+ __construct()</text>
<text text-anchor="start" x="8" y="-128.5" font-family="Helvetica,sans-Serif" font-size="10.00">+ trace()</text>
<text text-anchor="start" x="8" y="-117.5" font-family="Helvetica,sans-Serif" font-size="10.00">+ debug()</text>
<text text-anchor="start" x="8" y="-106.5" font-family="Helvetica,sans-Serif" font-size="10.00">+ info()</text>
<text text-anchor="start" x="8" y="-95.5" font-family="Helvetica,sans-Serif" font-size="10.00">+ warn()</text>
<text text-anchor="start" x="8" y="-84.5" font-family="Helvetica,sans-Serif" font-size="10.00">+ error()</text>
<text text-anchor="start" x="8" y="-73.5" font-family="Helvetica,sans-Serif" font-size="10.00">+ fatal()</text>
<text text-anchor="start" x="8" y="-62.5" font-family="Helvetica,sans-Serif" font-size="10.00">+ isDebugEnabled()</text>
<text text-anchor="start" x="8" y="-51.5" font-family="Helvetica,sans-Serif" font-size="10.00">+ isInfoEnabled()</text>
<text text-anchor="start" x="8" y="-40.5" font-family="Helvetica,sans-Serif" font-size="10.00">+ isWarnEnabled()</text>
<text text-anchor="start" x="8" y="-29.5" font-family="Helvetica,sans-Serif" font-size="10.00">+ isErrorEnabled()</text>
<text text-anchor="start" x="8" y="-18.5" font-family="Helvetica,sans-Serif" font-size="10.00">+ isFatalEnabled()</text>
<text text-anchor="start" x="8" y="-7.5" font-family="Helvetica,sans-Serif" font-size="10.00">+ getLogger()</text>
</a>
</g>
</g>
<!-- Node1&#45;&gt;Node3 -->
<g id="edge4" class="edge">
<title>Node1&#45;&gt;Node3</title>
<path fill="none" stroke="midnightblue" d="M79.23,-311.14C75.65,-302.14 72.48,-293.01 70,-284 61.7,-253.88 57.79,-220.07 56.14,-189.51"/>
<polygon fill="none" stroke="midnightblue" points="76.04,-312.57 83.11,-320.46 82.5,-309.88 76.04,-312.57"/>
</g>
<!-- Node4 -->
<g id="node4" class="node">
<title>Node4</title>
<g id="a_node4"><a xlink:href="classwcmf_1_1lib_1_1core_1_1impl_1_1_monolog_file_logger.html" target="_top" xlink:title="MonologFileLogger is a wrapper for the Monolog library that logs to files.">
<polygon fill="white" stroke="black" points="136.5,-0.5 136.5,-189.5 287.5,-189.5 287.5,-0.5 136.5,-0.5"/>
<text text-anchor="middle" x="212" y="-177.5" font-family="Helvetica,sans-Serif" font-size="10.00">MonologFileLogger</text>
<polyline fill="none" stroke="black" points="136.5,-170.5 287.5,-170.5 "/>
<text text-anchor="start" x="144.5" y="-158.5" font-family="Helvetica,sans-Serif" font-size="10.00">+ ROOT_SECTION_NAME</text>
<text text-anchor="start" x="144.5" y="-147.5" font-family="Helvetica,sans-Serif" font-size="10.00">+ LOGGER_SECTION_NAME</text>
<polyline fill="none" stroke="black" points="136.5,-140.5 287.5,-140.5 "/>
<text text-anchor="start" x="144.5" y="-128.5" font-family="Helvetica,sans-Serif" font-size="10.00">+ __construct()</text>
<text text-anchor="start" x="144.5" y="-117.5" font-family="Helvetica,sans-Serif" font-size="10.00">+ debug()</text>
<text text-anchor="start" x="144.5" y="-106.5" font-family="Helvetica,sans-Serif" font-size="10.00">+ info()</text>
<text text-anchor="start" x="144.5" y="-95.5" font-family="Helvetica,sans-Serif" font-size="10.00">+ warn()</text>
<text text-anchor="start" x="144.5" y="-84.5" font-family="Helvetica,sans-Serif" font-size="10.00">+ error()</text>
<text text-anchor="start" x="144.5" y="-73.5" font-family="Helvetica,sans-Serif" font-size="10.00">+ fatal()</text>
<text text-anchor="start" x="144.5" y="-62.5" font-family="Helvetica,sans-Serif" font-size="10.00">+ isDebugEnabled()</text>
<text text-anchor="start" x="144.5" y="-51.5" font-family="Helvetica,sans-Serif" font-size="10.00">+ isInfoEnabled()</text>
<text text-anchor="start" x="144.5" y="-40.5" font-family="Helvetica,sans-Serif" font-size="10.00">+ isWarnEnabled()</text>
<text text-anchor="start" x="144.5" y="-29.5" font-family="Helvetica,sans-Serif" font-size="10.00">+ isErrorEnabled()</text>
<text text-anchor="start" x="144.5" y="-18.5" font-family="Helvetica,sans-Serif" font-size="10.00">+ isFatalEnabled()</text>
<text text-anchor="start" x="144.5" y="-7.5" font-family="Helvetica,sans-Serif" font-size="10.00">+ getLogger()</text>
</a>
</g>
</g>
<!-- Node1&#45;&gt;Node4 -->
<g id="edge5" class="edge">
<title>Node1&#45;&gt;Node4</title>
<path fill="none" stroke="midnightblue" d="M187.52,-311.15C191.19,-302.15 194.43,-293.02 197,-284 205.56,-253.92 209.82,-220.13 211.8,-189.57"/>
<polygon fill="none" stroke="midnightblue" points="184.25,-309.91 183.56,-320.48 190.69,-312.64 184.25,-309.91"/>
</g>
<!-- Node2&#45;&gt;Node3 -->
<g id="edge2" class="edge">
<title>Node2&#45;&gt;Node3</title>
<path fill="none" stroke="midnightblue" d="M115.35,-217.32C111.27,-208.82 106.74,-199.4 102.06,-189.68"/>
<polygon fill="none" stroke="midnightblue" points="112.27,-218.98 119.76,-226.48 118.58,-215.95 112.27,-218.98"/>
</g>
<!-- Node2&#45;&gt;Node4 -->
<g id="edge3" class="edge">
<title>Node2&#45;&gt;Node4</title>
<path fill="none" stroke="midnightblue" d="M151.34,-217.32C155.59,-208.82 160.3,-199.4 165.16,-189.68"/>
<polygon fill="none" stroke="midnightblue" points="148.1,-215.97 146.76,-226.48 154.36,-219.1 148.1,-215.97"/>
</g>
</g>
</svg>
