<?xml version="1.0" encoding="UTF-8" standalone="no"?>
<!DOCTYPE svg PUBLIC "-//W3C//DTD SVG 1.1//EN"
 "http://www.w3.org/Graphics/SVG/1.1/DTD/svg11.dtd">
<!-- Generated by graphviz version 2.43.0 (0)
 -->
<!-- Title: OutputStrategy Pages: 1 -->
<svg width="594pt" height="540pt"
 viewBox="0.00 0.00 594.00 540.00" xmlns="http://www.w3.org/2000/svg" xmlns:xlink="http://www.w3.org/1999/xlink">
<g id="graph0" class="graph" transform="scale(1 1) rotate(0) translate(4 536)">
<title>OutputStrategy</title>
<polygon fill="white" stroke="transparent" points="-4,4 -4,-536 590,-536 590,4 -4,4"/>
<!-- Node1 -->
<g id="node1" class="node">
<title>Node1</title>
<g id="a_node1"><a xlink:title="OutputStrategy defines the interface for classes that write an object&#39;s content to a destination (cal...">
<polygon fill="#bfbfbf" stroke="black" points="252,-452.5 252,-531.5 347,-531.5 347,-452.5 252,-452.5"/>
<text text-anchor="middle" x="299.5" y="-519.5" font-family="Helvetica,sans-Serif" font-size="10.00">OutputStrategy</text>
<polyline fill="none" stroke="black" points="252,-512.5 347,-512.5 "/>
<text text-anchor="middle" x="299.5" y="-500.5" font-family="Helvetica,sans-Serif" font-size="10.00"> </text>
<polyline fill="none" stroke="black" points="252,-493.5 347,-493.5 "/>
<text text-anchor="start" x="260" y="-481.5" font-family="Helvetica,sans-Serif" font-size="10.00">+ writeHeader()</text>
<text text-anchor="start" x="260" y="-470.5" font-family="Helvetica,sans-Serif" font-size="10.00">+ writeFooter()</text>
<text text-anchor="start" x="260" y="-459.5" font-family="Helvetica,sans-Serif" font-size="10.00">+ writeObject()</text>
</a>
</g>
</g>
<!-- Node2 -->
<g id="node2" class="node">
<title>Node2</title>
<g id="a_node2"><a xlink:href="classwcmf_1_1lib_1_1model_1_1output_1_1_dot_output_strategy.html" target="_top" xlink:title="DotOutputStrategy outputs an object&#39;s content in a dot file.">
<polygon fill="white" stroke="black" points="0,-215.5 0,-316.5 139,-316.5 139,-215.5 0,-215.5"/>
<text text-anchor="middle" x="69.5" y="-304.5" font-family="Helvetica,sans-Serif" font-size="10.00">DotOutputStrategy</text>
<polyline fill="none" stroke="black" points="0,-297.5 139,-297.5 "/>
<text text-anchor="start" x="8" y="-285.5" font-family="Helvetica,sans-Serif" font-size="10.00">+ DEFAULT_NODE_STYLE</text>
<text text-anchor="start" x="8" y="-274.5" font-family="Helvetica,sans-Serif" font-size="10.00">+ DEFAULT_EDGE_STYLE</text>
<polyline fill="none" stroke="black" points="0,-267.5 139,-267.5 "/>
<text text-anchor="start" x="8" y="-255.5" font-family="Helvetica,sans-Serif" font-size="10.00">+ __construct()</text>
<text text-anchor="start" x="8" y="-244.5" font-family="Helvetica,sans-Serif" font-size="10.00">+ writeHeader()</text>
<text text-anchor="start" x="8" y="-233.5" font-family="Helvetica,sans-Serif" font-size="10.00">+ writeFooter()</text>
<text text-anchor="start" x="8" y="-222.5" font-family="Helvetica,sans-Serif" font-size="10.00">+ writeObject()</text>
</a>
</g>
</g>
<!-- Node1&#45;&gt;Node2 -->
<g id="edge1" class="edge">
<title>Node1&#45;&gt;Node2</title>
<path fill="none" stroke="midnightblue" d="M242.25,-472.36C211.58,-460.13 174.8,-441.61 148.5,-416 120.08,-388.32 99.61,-348.2 86.64,-316.56"/>
<polygon fill="none" stroke="midnightblue" points="241.38,-475.78 251.97,-476.11 243.9,-469.25 241.38,-475.78"/>
</g>
<!-- Node3 -->
<g id="node3" class="node">
<title>Node3</title>
<g id="a_node3"><a xlink:href="classwcmf_1_1lib_1_1model_1_1output_1_1_image_output_strategy.html" target="_top" xlink:title="ImageOutputStrategy outputs a tree of objects into an image file.">
<polygon fill="white" stroke="black" points="157.5,-116.5 157.5,-415.5 291.5,-415.5 291.5,-116.5 157.5,-116.5"/>
<text text-anchor="middle" x="224.5" y="-403.5" font-family="Helvetica,sans-Serif" font-size="10.00">ImageOutputStrategy</text>
<polyline fill="none" stroke="black" points="157.5,-396.5 291.5,-396.5 "/>
<text text-anchor="start" x="165.5" y="-384.5" font-family="Helvetica,sans-Serif" font-size="10.00">+ LINETYPE_DIRECT</text>
<text text-anchor="start" x="165.5" y="-373.5" font-family="Helvetica,sans-Serif" font-size="10.00">+ LINETYPE_ROUTED</text>
<text text-anchor="start" x="165.5" y="-362.5" font-family="Helvetica,sans-Serif" font-size="10.00"># $format</text>
<text text-anchor="start" x="165.5" y="-351.5" font-family="Helvetica,sans-Serif" font-size="10.00"># $file</text>
<text text-anchor="start" x="165.5" y="-340.5" font-family="Helvetica,sans-Serif" font-size="10.00"># $map</text>
<text text-anchor="start" x="165.5" y="-329.5" font-family="Helvetica,sans-Serif" font-size="10.00"># $img</text>
<text text-anchor="start" x="165.5" y="-318.5" font-family="Helvetica,sans-Serif" font-size="10.00"># $width</text>
<text text-anchor="start" x="165.5" y="-307.5" font-family="Helvetica,sans-Serif" font-size="10.00"># $height</text>
<text text-anchor="start" x="165.5" y="-296.5" font-family="Helvetica,sans-Serif" font-size="10.00"># $scale</text>
<text text-anchor="start" x="165.5" y="-285.5" font-family="Helvetica,sans-Serif" font-size="10.00"># $border</text>
<text text-anchor="start" x="165.5" y="-274.5" font-family="Helvetica,sans-Serif" font-size="10.00"># $bgColor</text>
<text text-anchor="start" x="165.5" y="-263.5" font-family="Helvetica,sans-Serif" font-size="10.00"># $txtColor</text>
<text text-anchor="start" x="165.5" y="-252.5" font-family="Helvetica,sans-Serif" font-size="10.00"># $lineColor</text>
<text text-anchor="start" x="165.5" y="-241.5" font-family="Helvetica,sans-Serif" font-size="10.00"># $lineType</text>
<text text-anchor="start" x="165.5" y="-230.5" font-family="Helvetica,sans-Serif" font-size="10.00"># $labelDim</text>
<text text-anchor="start" x="165.5" y="-219.5" font-family="Helvetica,sans-Serif" font-size="10.00"># $textPos</text>
<text text-anchor="start" x="165.5" y="-208.5" font-family="Helvetica,sans-Serif" font-size="10.00"># $usemap</text>
<polyline fill="none" stroke="black" points="157.5,-201.5 291.5,-201.5 "/>
<text text-anchor="start" x="165.5" y="-189.5" font-family="Helvetica,sans-Serif" font-size="10.00">+ __construct()</text>
<text text-anchor="start" x="165.5" y="-178.5" font-family="Helvetica,sans-Serif" font-size="10.00">+ writeHeader()</text>
<text text-anchor="start" x="165.5" y="-167.5" font-family="Helvetica,sans-Serif" font-size="10.00">+ writeFooter()</text>
<text text-anchor="start" x="165.5" y="-156.5" font-family="Helvetica,sans-Serif" font-size="10.00">+ writeObject()</text>
<text text-anchor="start" x="165.5" y="-145.5" font-family="Helvetica,sans-Serif" font-size="10.00"># drawConnectionLine()</text>
<text text-anchor="start" x="165.5" y="-134.5" font-family="Helvetica,sans-Serif" font-size="10.00"># drawDirectLine()</text>
<text text-anchor="start" x="165.5" y="-123.5" font-family="Helvetica,sans-Serif" font-size="10.00"># drawRoutedLine()</text>
</a>
</g>
</g>
<!-- Node1&#45;&gt;Node3 -->
<g id="edge2" class="edge">
<title>Node1&#45;&gt;Node3</title>
<path fill="none" stroke="midnightblue" d="M283.41,-442.94C280.58,-434.49 277.51,-425.32 274.3,-415.75"/>
<polygon fill="none" stroke="midnightblue" points="280.11,-444.12 286.61,-452.49 286.75,-441.9 280.11,-444.12"/>
</g>
<!-- Node5 -->
<g id="node5" class="node">
<title>Node5</title>
<g id="a_node5"><a xlink:href="classwcmf_1_1lib_1_1persistence_1_1output_1_1impl_1_1_auditing_output_strategy.html" target="_top" xlink:title="AuditingOutputStrategy outputs object changes to the logger category AuditingOutputStrategy,...">
<polygon fill="white" stroke="black" points="310,-221 310,-311 441,-311 441,-221 310,-221"/>
<text text-anchor="middle" x="375.5" y="-299" font-family="Helvetica,sans-Serif" font-size="10.00">AuditingOutputStrategy</text>
<polyline fill="none" stroke="black" points="310,-292 441,-292 "/>
<text text-anchor="middle" x="375.5" y="-280" font-family="Helvetica,sans-Serif" font-size="10.00"> </text>
<polyline fill="none" stroke="black" points="310,-273 441,-273 "/>
<text text-anchor="start" x="318" y="-261" font-family="Helvetica,sans-Serif" font-size="10.00">+ __construct()</text>
<text text-anchor="start" x="318" y="-250" font-family="Helvetica,sans-Serif" font-size="10.00">+ writeHeader()</text>
<text text-anchor="start" x="318" y="-239" font-family="Helvetica,sans-Serif" font-size="10.00">+ writeFooter()</text>
<text text-anchor="start" x="318" y="-228" font-family="Helvetica,sans-Serif" font-size="10.00">+ writeObject()</text>
</a>
</g>
</g>
<!-- Node1&#45;&gt;Node5 -->
<g id="edge4" class="edge">
<title>Node1&#45;&gt;Node5</title>
<path fill="none" stroke="midnightblue" d="M315.82,-442.91C329.08,-403.82 347.63,-349.13 360.52,-311.14"/>
<polygon fill="none" stroke="midnightblue" points="312.46,-441.9 312.56,-452.49 319.09,-444.15 312.46,-441.9"/>
</g>
<!-- Node6 -->
<g id="node6" class="node">
<title>Node6</title>
<g id="a_node6"><a xlink:href="classwcmf_1_1lib_1_1persistence_1_1output_1_1impl_1_1_default_output_strategy.html" target="_top" xlink:title="DefaultOutputStrategy outputs an object&#39;s content to the Log category DefaultOutputStrategy.">
<polygon fill="white" stroke="black" points="459,-221 459,-311 586,-311 586,-221 459,-221"/>
<text text-anchor="middle" x="522.5" y="-299" font-family="Helvetica,sans-Serif" font-size="10.00">DefaultOutputStrategy</text>
<polyline fill="none" stroke="black" points="459,-292 586,-292 "/>
<text text-anchor="middle" x="522.5" y="-280" font-family="Helvetica,sans-Serif" font-size="10.00"> </text>
<polyline fill="none" stroke="black" points="459,-273 586,-273 "/>
<text text-anchor="start" x="467" y="-261" font-family="Helvetica,sans-Serif" font-size="10.00">+ __construct()</text>
<text text-anchor="start" x="467" y="-250" font-family="Helvetica,sans-Serif" font-size="10.00">+ writeHeader()</text>
<text text-anchor="start" x="467" y="-239" font-family="Helvetica,sans-Serif" font-size="10.00">+ writeFooter()</text>
<text text-anchor="start" x="467" y="-228" font-family="Helvetica,sans-Serif" font-size="10.00">+ writeObject()</text>
</a>
</g>
</g>
<!-- Node1&#45;&gt;Node6 -->
<g id="edge5" class="edge">
<title>Node1&#45;&gt;Node6</title>
<path fill="none" stroke="midnightblue" d="M356.39,-473.03C387.33,-460.92 424.48,-442.31 450.5,-416 479.49,-386.69 498.61,-343.42 509.8,-311.05"/>
<polygon fill="none" stroke="midnightblue" points="355.13,-469.76 347.01,-476.58 357.6,-476.31 355.13,-469.76"/>
</g>
<!-- Node4 -->
<g id="node4" class="node">
<title>Node4</title>
<g id="a_node4"><a xlink:href="classwcmf_1_1lib_1_1model_1_1output_1_1_element_image_output_strategy.html" target="_top" xlink:title="ElementImageOutputStrategy outputs a tree of objects into an image file.">
<polygon fill="white" stroke="black" points="143.5,-0.5 143.5,-79.5 305.5,-79.5 305.5,-0.5 143.5,-0.5"/>
<text text-anchor="middle" x="224.5" y="-67.5" font-family="Helvetica,sans-Serif" font-size="10.00">ElementImageOutputStrategy</text>
<polyline fill="none" stroke="black" points="143.5,-60.5 305.5,-60.5 "/>
<text text-anchor="middle" x="224.5" y="-48.5" font-family="Helvetica,sans-Serif" font-size="10.00"> </text>
<polyline fill="none" stroke="black" points="143.5,-41.5 305.5,-41.5 "/>
<text text-anchor="start" x="151.5" y="-29.5" font-family="Helvetica,sans-Serif" font-size="10.00">+ __construct()</text>
<text text-anchor="start" x="151.5" y="-18.5" font-family="Helvetica,sans-Serif" font-size="10.00">+ writeHeader()</text>
<text text-anchor="start" x="151.5" y="-7.5" font-family="Helvetica,sans-Serif" font-size="10.00">+ writeObject()</text>
</a>
</g>
</g>
<!-- Node3&#45;&gt;Node4 -->
<g id="edge3" class="edge">
<title>Node3&#45;&gt;Node4</title>
<path fill="none" stroke="midnightblue" d="M224.5,-106.13C224.5,-96.63 224.5,-87.69 224.5,-79.64"/>
<polygon fill="none" stroke="midnightblue" points="221,-106.21 224.5,-116.21 228,-106.21 221,-106.21"/>
</g>
</g>
</svg>
