<?xml version="1.0" encoding="UTF-8" standalone="no"?>
<!DOCTYPE svg PUBLIC "-//W3C//DTD SVG 1.1//EN"
 "http://www.w3.org/Graphics/SVG/1.1/DTD/svg11.dtd">
<!-- Generated by graphviz version 2.43.0 (0)
 -->
<!-- Title: IndexedSearch Pages: 1 -->
<svg width="181pt" height="441pt"
 viewBox="0.00 0.00 181.00 441.00" xmlns="http://www.w3.org/2000/svg" xmlns:xlink="http://www.w3.org/1999/xlink">
<g id="graph0" class="graph" transform="scale(1 1) rotate(0) translate(4 437)">
<title>IndexedSearch</title>
<polygon fill="white" stroke="transparent" points="-4,4 -4,-437 177,-437 177,4 -4,4"/>
<!-- Node1 -->
<g id="node1" class="node">
<title>Node1</title>
<g id="a_node1"><a xlink:title="IndexedSearch implementations are used to search entity objects in a search index.">
<polygon fill="#bfbfbf" stroke="black" points="27.5,-215.5 27.5,-316.5 145.5,-316.5 145.5,-215.5 27.5,-215.5"/>
<text text-anchor="middle" x="86.5" y="-304.5" font-family="Helvetica,sans-Serif" font-size="10.00">IndexedSearch</text>
<polyline fill="none" stroke="black" points="27.5,-297.5 145.5,-297.5 "/>
<text text-anchor="middle" x="86.5" y="-285.5" font-family="Helvetica,sans-Serif" font-size="10.00"> </text>
<polyline fill="none" stroke="black" points="27.5,-278.5 145.5,-278.5 "/>
<text text-anchor="start" x="35.5" y="-266.5" font-family="Helvetica,sans-Serif" font-size="10.00">+ resetIndex()</text>
<text text-anchor="start" x="35.5" y="-255.5" font-family="Helvetica,sans-Serif" font-size="10.00">+ addToIndex()</text>
<text text-anchor="start" x="35.5" y="-244.5" font-family="Helvetica,sans-Serif" font-size="10.00">+ deleteFromIndex()</text>
<text text-anchor="start" x="35.5" y="-233.5" font-family="Helvetica,sans-Serif" font-size="10.00">+ commitIndex()</text>
<text text-anchor="start" x="35.5" y="-222.5" font-family="Helvetica,sans-Serif" font-size="10.00">+ optimizeIndex()</text>
</a>
</g>
</g>
<!-- Node3 -->
<g id="node3" class="node">
<title>Node3</title>
<g id="a_node3"><a xlink:href="classwcmf_1_1lib_1_1search_1_1impl_1_1_lucene_search.html" target="_top" xlink:title="LuceneSearch provides access to the search based on ZendSearch/Lucene.">
<polygon fill="white" stroke="black" points="0,-0.5 0,-178.5 173,-178.5 173,-0.5 0,-0.5"/>
<text text-anchor="middle" x="86.5" y="-166.5" font-family="Helvetica,sans-Serif" font-size="10.00">LuceneSearch</text>
<polyline fill="none" stroke="black" points="0,-159.5 173,-159.5 "/>
<text text-anchor="middle" x="86.5" y="-147.5" font-family="Helvetica,sans-Serif" font-size="10.00"> </text>
<polyline fill="none" stroke="black" points="0,-140.5 173,-140.5 "/>
<text text-anchor="start" x="8" y="-128.5" font-family="Helvetica,sans-Serif" font-size="10.00">+ __construct()</text>
<text text-anchor="start" x="8" y="-117.5" font-family="Helvetica,sans-Serif" font-size="10.00">+ __destruct()</text>
<text text-anchor="start" x="8" y="-106.5" font-family="Helvetica,sans-Serif" font-size="10.00">+ setIndexStrategy()</text>
<text text-anchor="start" x="8" y="-95.5" font-family="Helvetica,sans-Serif" font-size="10.00">+ setIndexPath()</text>
<text text-anchor="start" x="8" y="-84.5" font-family="Helvetica,sans-Serif" font-size="10.00">+ getIndexPath()</text>
<text text-anchor="start" x="8" y="-73.5" font-family="Helvetica,sans-Serif" font-size="10.00">+ setLiveUpdate()</text>
<text text-anchor="start" x="8" y="-62.5" font-family="Helvetica,sans-Serif" font-size="10.00">+ getLiveUpdate()</text>
<text text-anchor="start" x="8" y="-51.5" font-family="Helvetica,sans-Serif" font-size="10.00">+ setDefaultLanguageFallback()</text>
<text text-anchor="start" x="8" y="-40.5" font-family="Helvetica,sans-Serif" font-size="10.00">+ check()</text>
<text text-anchor="start" x="8" y="-29.5" font-family="Helvetica,sans-Serif" font-size="10.00">+ find()</text>
<text text-anchor="start" x="8" y="-18.5" font-family="Helvetica,sans-Serif" font-size="10.00">and 7 more...</text>
<text text-anchor="start" x="8" y="-7.5" font-family="Helvetica,sans-Serif" font-size="10.00"># getStopWords()</text>
</a>
</g>
</g>
<!-- Node1&#45;&gt;Node3 -->
<g id="edge2" class="edge">
<title>Node1&#45;&gt;Node3</title>
<path fill="none" stroke="midnightblue" d="M86.5,-205.26C86.5,-196.71 86.5,-187.77 86.5,-178.81"/>
<polygon fill="none" stroke="midnightblue" points="83,-205.46 86.5,-215.46 90,-205.46 83,-205.46"/>
</g>
<!-- Node2 -->
<g id="node2" class="node">
<title>Node2</title>
<g id="a_node2"><a xlink:href="interfacewcmf_1_1lib_1_1search_1_1_search.html" target="_top" xlink:title="Search implementations are used to search entity objects.">
<polygon fill="white" stroke="black" points="37.5,-353.5 37.5,-432.5 135.5,-432.5 135.5,-353.5 37.5,-353.5"/>
<text text-anchor="middle" x="86.5" y="-420.5" font-family="Helvetica,sans-Serif" font-size="10.00">Search</text>
<polyline fill="none" stroke="black" points="37.5,-413.5 135.5,-413.5 "/>
<text text-anchor="middle" x="86.5" y="-401.5" font-family="Helvetica,sans-Serif" font-size="10.00"> </text>
<polyline fill="none" stroke="black" points="37.5,-394.5 135.5,-394.5 "/>
<text text-anchor="start" x="45.5" y="-382.5" font-family="Helvetica,sans-Serif" font-size="10.00">+ check()</text>
<text text-anchor="start" x="45.5" y="-371.5" font-family="Helvetica,sans-Serif" font-size="10.00">+ find()</text>
<text text-anchor="start" x="45.5" y="-360.5" font-family="Helvetica,sans-Serif" font-size="10.00">+ isSearchable()</text>
</a>
</g>
</g>
<!-- Node2&#45;&gt;Node1 -->
<g id="edge1" class="edge">
<title>Node2&#45;&gt;Node1</title>
<path fill="none" stroke="midnightblue" d="M86.5,-343.41C86.5,-334.64 86.5,-325.49 86.5,-316.69"/>
<polygon fill="none" stroke="midnightblue" points="83,-343.48 86.5,-353.48 90,-343.48 83,-343.48"/>
</g>
</g>
</svg>
