<?xml version="1.0" encoding="UTF-8" standalone="no"?>
<!DOCTYPE svg PUBLIC "-//W3C//DTD SVG 1.1//EN"
 "http://www.w3.org/Graphics/SVG/1.1/DTD/svg11.dtd">
<!-- Generated by graphviz version 2.38.0 (20140413.2041)
 -->
<!-- Title: AuditingOutputStrategy Pages: 1 -->
<svg width="126pt" height="215pt"
 viewBox="0.00 0.00 126.00 215.00" xmlns="http://www.w3.org/2000/svg" xmlns:xlink="http://www.w3.org/1999/xlink">
<g id="graph0" class="graph" transform="scale(1 1) rotate(0) translate(4 211)">
<title>AuditingOutputStrategy</title>
<polygon fill="white" stroke="none" points="-4,4 -4,-211 122,-211 122,4 -4,4"/>
<!-- Node1 -->
<g id="node1" class="node"><title>Node1</title>
<polygon fill="#bfbfbf" stroke="black" points="0,-0.5 0,-90.5 118,-90.5 118,-0.5 0,-0.5"/>
<text text-anchor="middle" x="59" y="-78.5" font-family="Helvetica,sans-Serif" font-size="10.00">AuditingOutputStrategy</text>
<polyline fill="none" stroke="black" points="0,-71.5 118,-71.5 "/>
<text text-anchor="middle" x="59" y="-59.5" font-family="Helvetica,sans-Serif" font-size="10.00"> </text>
<polyline fill="none" stroke="black" points="0,-52.5 118,-52.5 "/>
<text text-anchor="start" x="8" y="-40.5" font-family="Helvetica,sans-Serif" font-size="10.00">+ __construct()</text>
<text text-anchor="start" x="8" y="-29.5" font-family="Helvetica,sans-Serif" font-size="10.00">+ writeHeader()</text>
<text text-anchor="start" x="8" y="-18.5" font-family="Helvetica,sans-Serif" font-size="10.00">+ writeFooter()</text>
<text text-anchor="start" x="8" y="-7.5" font-family="Helvetica,sans-Serif" font-size="10.00">+ writeObject()</text>
</g>
<!-- Node2 -->
<g id="node2" class="node"><title>Node2</title>
<g id="a_node2"><a xlink:href="interfacewcmf_1_1lib_1_1persistence_1_1output_1_1_output_strategy.html" target="_top" xlink:title="OutputStrategy defines the interface for classes that write an object&#39;s content to a destination (cal...">
<polygon fill="white" stroke="black" points="17.5,-127.5 17.5,-206.5 100.5,-206.5 100.5,-127.5 17.5,-127.5"/>
<text text-anchor="middle" x="59" y="-194.5" font-family="Helvetica,sans-Serif" font-size="10.00">OutputStrategy</text>
<polyline fill="none" stroke="black" points="17.5,-187.5 100.5,-187.5 "/>
<text text-anchor="middle" x="59" y="-175.5" font-family="Helvetica,sans-Serif" font-size="10.00"> </text>
<polyline fill="none" stroke="black" points="17.5,-168.5 100.5,-168.5 "/>
<text text-anchor="start" x="25.5" y="-156.5" font-family="Helvetica,sans-Serif" font-size="10.00">+ writeHeader()</text>
<text text-anchor="start" x="25.5" y="-145.5" font-family="Helvetica,sans-Serif" font-size="10.00">+ writeFooter()</text>
<text text-anchor="start" x="25.5" y="-134.5" font-family="Helvetica,sans-Serif" font-size="10.00">+ writeObject()</text>
</a>
</g>
</g>
<!-- Node2&#45;&gt;Node1 -->
<g id="edge1" class="edge"><title>Node2&#45;&gt;Node1</title>
<path fill="none" stroke="midnightblue" d="M59,-117.187C59,-108.491 59,-99.4758 59,-90.9111"/>
<polygon fill="none" stroke="midnightblue" points="55.5001,-117.202 59,-127.202 62.5001,-117.202 55.5001,-117.202"/>
</g>
</g>
</svg>
