<?xml version="1.0" encoding="UTF-8" standalone="no"?>
<!DOCTYPE svg PUBLIC "-//W3C//DTD SVG 1.1//EN"
 "http://www.w3.org/Graphics/SVG/1.1/DTD/svg11.dtd">
<!-- Generated by graphviz version 2.38.0 (20140413.2041)
 -->
<!-- Title: Analyzer Pages: 1 -->
<svg width="155pt" height="182pt"
 viewBox="0.00 0.00 155.00 182.00" xmlns="http://www.w3.org/2000/svg" xmlns:xlink="http://www.w3.org/1999/xlink">
<g id="graph0" class="graph" transform="scale(1 1) rotate(0) translate(4 178)">
<title>Analyzer</title>
<polygon fill="white" stroke="none" points="-4,4 -4,-178 151,-178 151,4 -4,4"/>
<!-- Node1 -->
<g id="node1" class="node"><title>Node1</title>
<polygon fill="#bfbfbf" stroke="black" points="40.5,-0.5 40.5,-57.5 106.5,-57.5 106.5,-0.5 40.5,-0.5"/>
<text text-anchor="middle" x="73.5" y="-45.5" font-family="Helvetica,sans-Serif" font-size="10.00">Analyzer</text>
<polyline fill="none" stroke="black" points="40.5,-38.5 106.5,-38.5 "/>
<text text-anchor="middle" x="73.5" y="-26.5" font-family="Helvetica,sans-Serif" font-size="10.00"> </text>
<polyline fill="none" stroke="black" points="40.5,-19.5 106.5,-19.5 "/>
<text text-anchor="start" x="48.5" y="-7.5" font-family="Helvetica,sans-Serif" font-size="10.00">+ setInput()</text>
</g>
<!-- Node2 -->
<g id="node2" class="node"><title>Node2</title>
<polygon fill="white" stroke="#bfbfbf" points="0,-94.5 0,-173.5 147,-173.5 147,-94.5 0,-94.5"/>
<text text-anchor="start" x="8" y="-161.5" font-family="Helvetica,sans-Serif" font-size="10.00">Zend_Search_Lucene</text>
<text text-anchor="start" x="8" y="-150.5" font-family="Helvetica,sans-Serif" font-size="10.00">_Analysis_Analyzer_Common</text>
<text text-anchor="middle" x="73.5" y="-139.5" font-family="Helvetica,sans-Serif" font-size="10.00">_Utf8Num_CaseInsensitive</text>
<polyline fill="none" stroke="#bfbfbf" points="0,-132.5 147,-132.5 "/>
<text text-anchor="middle" x="73.5" y="-120.5" font-family="Helvetica,sans-Serif" font-size="10.00"> </text>
<polyline fill="none" stroke="#bfbfbf" points="0,-113.5 147,-113.5 "/>
<text text-anchor="middle" x="73.5" y="-101.5" font-family="Helvetica,sans-Serif" font-size="10.00"> </text>
</g>
<!-- Node2&#45;&gt;Node1 -->
<g id="edge1" class="edge"><title>Node2&#45;&gt;Node1</title>
<path fill="none" stroke="midnightblue" d="M73.5,-84.1628C73.5,-75.0404 73.5,-65.8063 73.5,-57.6095"/>
<polygon fill="none" stroke="midnightblue" points="70.0001,-84.3535 73.5,-94.3536 77.0001,-84.3536 70.0001,-84.3535"/>
</g>
</g>
</svg>
