<?xml version="1.0" encoding="UTF-8" standalone="no"?>
<!DOCTYPE svg PUBLIC "-//W3C//DTD SVG 1.1//EN"
 "http://www.w3.org/Graphics/SVG/1.1/DTD/svg11.dtd">
<!-- Generated by graphviz version 2.38.0 (20140413.2041)
 -->
<!-- Title: SoapClient Pages: 1 -->
<svg width="137pt" height="99pt"
 viewBox="0.00 0.00 137.00 99.00" xmlns="http://www.w3.org/2000/svg" xmlns:xlink="http://www.w3.org/1999/xlink">
<g id="graph0" class="graph" transform="scale(1 1) rotate(0) translate(4 95)">
<title>SoapClient</title>
<polygon fill="white" stroke="none" points="-4,4 -4,-95 133,-95 133,4 -4,4"/>
<!-- Node1 -->
<g id="node1" class="node"><title>Node1</title>
<polygon fill="#bfbfbf" stroke="black" points="0,-0.5 0,-90.5 93,-90.5 93,-0.5 0,-0.5"/>
<text text-anchor="middle" x="46.5" y="-78.5" font-family="Helvetica,sans-Serif" font-size="10.00">SoapClient</text>
<polyline fill="none" stroke="black" points="0,-71.5 93,-71.5 "/>
<text text-anchor="start" x="8" y="-59.5" font-family="Helvetica,sans-Serif" font-size="10.00">+ OASIS</text>
<polyline fill="none" stroke="black" points="0,-52.5 93,-52.5 "/>
<text text-anchor="start" x="8" y="-40.5" font-family="Helvetica,sans-Serif" font-size="10.00">+ __construct()</text>
<text text-anchor="start" x="8" y="-29.5" font-family="Helvetica,sans-Serif" font-size="10.00">+ call()</text>
<text text-anchor="start" x="8" y="-18.5" font-family="Helvetica,sans-Serif" font-size="10.00">+ __doRequest()</text>
<text text-anchor="start" x="8" y="-7.5" font-family="Helvetica,sans-Serif" font-size="10.00">+ getDebugInfos()</text>
</g>
<!-- Node1&#45;&gt;Node1 -->
<g id="edge1" class="edge"><title>Node1&#45;&gt;Node1</title>
<path fill="none" stroke="midnightblue" d="M103.347,-52.0134C108.066,-50.61 111,-48.4388 111,-45.5 111,-40.7979 103.488,-38.0611 93.1737,-37.2896"/>
<polygon fill="none" stroke="midnightblue" points="102.461,-48.6126 93.1737,-53.7104 103.613,-55.5172 102.461,-48.6126"/>
</g>
<!-- Node1&#45;&gt;Node1 -->
<g id="edge2" class="edge"><title>Node1&#45;&gt;Node1</title>
<path fill="none" stroke="midnightblue" d="M103.242,-62.1967C117.931,-61.1593 129,-55.5937 129,-45.5 129,-33.1953 112.551,-27.6198 93.1464,-28.7733"/>
<polygon fill="none" stroke="midnightblue" points="103.136,-58.6969 93.1464,-62.2267 103.157,-65.6969 103.136,-58.6969"/>
</g>
</g>
</svg>
