<?xml version="1.0" encoding="UTF-8" standalone="no"?>
<!DOCTYPE svg PUBLIC "-//W3C//DTD SVG 1.1//EN"
 "http://www.w3.org/Graphics/SVG/1.1/DTD/svg11.dtd">
<!-- Generated by graphviz version 2.38.0 (20140413.2041)
 -->
<!-- Title: DefaultFormatter Pages: 1 -->
<svg width="151pt" height="237pt"
 viewBox="0.00 0.00 151.00 237.00" xmlns="http://www.w3.org/2000/svg" xmlns:xlink="http://www.w3.org/1999/xlink">
<g id="graph0" class="graph" transform="scale(1 1) rotate(0) translate(4 233)">
<title>DefaultFormatter</title>
<polygon fill="white" stroke="none" points="-4,4 -4,-233 147,-233 147,4 -4,4"/>
<!-- Node1 -->
<g id="node1" class="node"><title>Node1</title>
<polygon fill="#bfbfbf" stroke="black" points="0,-0.5 0,-112.5 143,-112.5 143,-0.5 0,-0.5"/>
<text text-anchor="middle" x="71.5" y="-100.5" font-family="Helvetica,sans-Serif" font-size="10.00">DefaultFormatter</text>
<polyline fill="none" stroke="black" points="0,-93.5 143,-93.5 "/>
<text text-anchor="middle" x="71.5" y="-81.5" font-family="Helvetica,sans-Serif" font-size="10.00"> </text>
<polyline fill="none" stroke="black" points="0,-74.5 143,-74.5 "/>
<text text-anchor="start" x="8" y="-62.5" font-family="Helvetica,sans-Serif" font-size="10.00">+ __construct()</text>
<text text-anchor="start" x="8" y="-51.5" font-family="Helvetica,sans-Serif" font-size="10.00">+ getFormatFromMimeType()</text>
<text text-anchor="start" x="8" y="-40.5" font-family="Helvetica,sans-Serif" font-size="10.00">+ deserialize()</text>
<text text-anchor="start" x="8" y="-29.5" font-family="Helvetica,sans-Serif" font-size="10.00">+ serialize()</text>
<text text-anchor="start" x="8" y="-18.5" font-family="Helvetica,sans-Serif" font-size="10.00"># sendHeader()</text>
<text text-anchor="start" x="8" y="-7.5" font-family="Helvetica,sans-Serif" font-size="10.00"># getFormat()</text>
</g>
<!-- Node2 -->
<g id="node2" class="node"><title>Node2</title>
<g id="a_node2"><a xlink:href="interfacewcmf_1_1lib_1_1presentation_1_1format_1_1_formatter.html" target="_top" xlink:title="Formatter is the single entry point for request/response formatting. ">
<polygon fill="white" stroke="black" points="0,-149.5 0,-228.5 143,-228.5 143,-149.5 0,-149.5"/>
<text text-anchor="middle" x="71.5" y="-216.5" font-family="Helvetica,sans-Serif" font-size="10.00">Formatter</text>
<polyline fill="none" stroke="black" points="0,-209.5 143,-209.5 "/>
<text text-anchor="middle" x="71.5" y="-197.5" font-family="Helvetica,sans-Serif" font-size="10.00"> </text>
<polyline fill="none" stroke="black" points="0,-190.5 143,-190.5 "/>
<text text-anchor="start" x="8" y="-178.5" font-family="Helvetica,sans-Serif" font-size="10.00">+ getFormatFromMimeType()</text>
<text text-anchor="start" x="8" y="-167.5" font-family="Helvetica,sans-Serif" font-size="10.00">+ deserialize()</text>
<text text-anchor="start" x="8" y="-156.5" font-family="Helvetica,sans-Serif" font-size="10.00">+ serialize()</text>
</a>
</g>
</g>
<!-- Node2&#45;&gt;Node1 -->
<g id="edge1" class="edge"><title>Node2&#45;&gt;Node1</title>
<path fill="none" stroke="midnightblue" d="M71.5,-139.012C71.5,-130.464 71.5,-121.518 71.5,-112.814"/>
<polygon fill="none" stroke="midnightblue" points="68.0001,-139.199 71.5,-149.199 75.0001,-139.199 68.0001,-139.199"/>
</g>
</g>
</svg>
