<?xml version="1.0" encoding="UTF-8" standalone="no"?>
<!DOCTYPE svg PUBLIC "-//W3C//DTD SVG 1.1//EN"
 "http://www.w3.org/Graphics/SVG/1.1/DTD/svg11.dtd">
<!-- Generated by graphviz version 2.38.0 (20140413.2041)
 -->
<!-- Title: AuthorizationException Pages: 1 -->
<svg width="125pt" height="160pt"
 viewBox="0.00 0.00 125.00 160.00" xmlns="http://www.w3.org/2000/svg" xmlns:xlink="http://www.w3.org/1999/xlink">
<g id="graph0" class="graph" transform="scale(1 1) rotate(0) translate(4 156)">
<title>AuthorizationException</title>
<polygon fill="white" stroke="none" points="-4,4 -4,-156 121,-156 121,4 -4,4"/>
<!-- Node1 -->
<g id="node1" class="node"><title>Node1</title>
<polygon fill="#bfbfbf" stroke="black" points="0,-0.5 0,-57.5 117,-57.5 117,-0.5 0,-0.5"/>
<text text-anchor="middle" x="58.5" y="-45.5" font-family="Helvetica,sans-Serif" font-size="10.00">AuthorizationException</text>
<polyline fill="none" stroke="black" points="0,-38.5 117,-38.5 "/>
<text text-anchor="middle" x="58.5" y="-26.5" font-family="Helvetica,sans-Serif" font-size="10.00"> </text>
<polyline fill="none" stroke="black" points="0,-19.5 117,-19.5 "/>
<text text-anchor="middle" x="58.5" y="-7.5" font-family="Helvetica,sans-Serif" font-size="10.00"> </text>
</g>
<!-- Node2 -->
<g id="node2" class="node"><title>Node2</title>
<polygon fill="white" stroke="#bfbfbf" points="28.5,-94.5 28.5,-151.5 88.5,-151.5 88.5,-94.5 28.5,-94.5"/>
<text text-anchor="middle" x="58.5" y="-139.5" font-family="Helvetica,sans-Serif" font-size="10.00">Exception</text>
<polyline fill="none" stroke="#bfbfbf" points="28.5,-132.5 88.5,-132.5 "/>
<text text-anchor="middle" x="58.5" y="-120.5" font-family="Helvetica,sans-Serif" font-size="10.00"> </text>
<polyline fill="none" stroke="#bfbfbf" points="28.5,-113.5 88.5,-113.5 "/>
<text text-anchor="middle" x="58.5" y="-101.5" font-family="Helvetica,sans-Serif" font-size="10.00"> </text>
</g>
<!-- Node2&#45;&gt;Node1 -->
<g id="edge1" class="edge"><title>Node2&#45;&gt;Node1</title>
<path fill="none" stroke="midnightblue" d="M58.5,-84.2092C58.5,-75.2929 58.5,-65.9513 58.5,-57.5836"/>
<polygon fill="none" stroke="midnightblue" points="55.0001,-84.3969 58.5,-94.397 62.0001,-84.397 55.0001,-84.3969"/>
</g>
</g>
</svg>
