<?xml version="1.0" encoding="UTF-8" standalone="no"?>
<!DOCTYPE svg PUBLIC "-//W3C//DTD SVG 1.1//EN"
 "http://www.w3.org/Graphics/SVG/1.1/DTD/svg11.dtd">
<!-- Generated by graphviz version 2.38.0 (20140413.2041)
 -->
<!-- Title: SmartyView Pages: 1 -->
<svg width="116pt" height="391pt"
 viewBox="0.00 0.00 116.00 391.00" xmlns="http://www.w3.org/2000/svg" xmlns:xlink="http://www.w3.org/1999/xlink">
<g id="graph0" class="graph" transform="scale(1 1) rotate(0) translate(4 387)">
<title>SmartyView</title>
<polygon fill="white" stroke="none" points="-4,4 -4,-387 112,-387 112,4 -4,4"/>
<!-- Node1 -->
<g id="node1" class="node"><title>Node1</title>
<polygon fill="#bfbfbf" stroke="black" points="0,-0.5 0,-211.5 108,-211.5 108,-0.5 0,-0.5"/>
<text text-anchor="middle" x="54" y="-199.5" font-family="Helvetica,sans-Serif" font-size="10.00">SmartyView</text>
<polyline fill="none" stroke="black" points="0,-192.5 108,-192.5 "/>
<text text-anchor="start" x="8" y="-180.5" font-family="Helvetica,sans-Serif" font-size="10.00"># $_view</text>
<polyline fill="none" stroke="black" points="0,-173.5 108,-173.5 "/>
<text text-anchor="start" x="8" y="-161.5" font-family="Helvetica,sans-Serif" font-size="10.00">+ __construct()</text>
<text text-anchor="start" x="8" y="-150.5" font-family="Helvetica,sans-Serif" font-size="10.00">+ setCompileCheck()</text>
<text text-anchor="start" x="8" y="-139.5" font-family="Helvetica,sans-Serif" font-size="10.00">+ setCaching()</text>
<text text-anchor="start" x="8" y="-128.5" font-family="Helvetica,sans-Serif" font-size="10.00">+ setCacheLifetime()</text>
<text text-anchor="start" x="8" y="-117.5" font-family="Helvetica,sans-Serif" font-size="10.00">+ setCacheDir()</text>
<text text-anchor="start" x="8" y="-106.5" font-family="Helvetica,sans-Serif" font-size="10.00">+ setPluginsDir()</text>
<text text-anchor="start" x="8" y="-95.5" font-family="Helvetica,sans-Serif" font-size="10.00">+ setOutputFilter()</text>
<text text-anchor="start" x="8" y="-84.5" font-family="Helvetica,sans-Serif" font-size="10.00">+ setValue()</text>
<text text-anchor="start" x="8" y="-73.5" font-family="Helvetica,sans-Serif" font-size="10.00">+ getValue()</text>
<text text-anchor="start" x="8" y="-62.5" font-family="Helvetica,sans-Serif" font-size="10.00">+ getValues()</text>
<text text-anchor="start" x="8" y="-51.5" font-family="Helvetica,sans-Serif" font-size="10.00">+ clearAllValues()</text>
<text text-anchor="start" x="8" y="-40.5" font-family="Helvetica,sans-Serif" font-size="10.00">+ render()</text>
<text text-anchor="start" x="8" y="-29.5" font-family="Helvetica,sans-Serif" font-size="10.00">+ clearCache()</text>
<text text-anchor="start" x="8" y="-18.5" font-family="Helvetica,sans-Serif" font-size="10.00">+ isCached()</text>
<text text-anchor="start" x="8" y="-7.5" font-family="Helvetica,sans-Serif" font-size="10.00">+ getTemplate()</text>
</g>
<!-- Node2 -->
<g id="node2" class="node"><title>Node2</title>
<g id="a_node2"><a xlink:href="interfacewcmf_1_1lib_1_1presentation_1_1view_1_1_view.html" target="_top" xlink:title="View defines the interface for all view implementations. ">
<polygon fill="white" stroke="black" points="7,-248.5 7,-382.5 101,-382.5 101,-248.5 7,-248.5"/>
<text text-anchor="middle" x="54" y="-370.5" font-family="Helvetica,sans-Serif" font-size="10.00">View</text>
<polyline fill="none" stroke="black" points="7,-363.5 101,-363.5 "/>
<text text-anchor="middle" x="54" y="-351.5" font-family="Helvetica,sans-Serif" font-size="10.00"> </text>
<polyline fill="none" stroke="black" points="7,-344.5 101,-344.5 "/>
<text text-anchor="start" x="15" y="-332.5" font-family="Helvetica,sans-Serif" font-size="10.00">+ setValue()</text>
<text text-anchor="start" x="15" y="-321.5" font-family="Helvetica,sans-Serif" font-size="10.00">+ getValue()</text>
<text text-anchor="start" x="15" y="-310.5" font-family="Helvetica,sans-Serif" font-size="10.00">+ getValues()</text>
<text text-anchor="start" x="15" y="-299.5" font-family="Helvetica,sans-Serif" font-size="10.00">+ clearAllValues()</text>
<text text-anchor="start" x="15" y="-288.5" font-family="Helvetica,sans-Serif" font-size="10.00">+ render()</text>
<text text-anchor="start" x="15" y="-277.5" font-family="Helvetica,sans-Serif" font-size="10.00">+ clearCache()</text>
<text text-anchor="start" x="15" y="-266.5" font-family="Helvetica,sans-Serif" font-size="10.00">+ isCached()</text>
<text text-anchor="start" x="15" y="-255.5" font-family="Helvetica,sans-Serif" font-size="10.00">+ getTemplate()</text>
</a>
</g>
</g>
<!-- Node2&#45;&gt;Node1 -->
<g id="edge1" class="edge"><title>Node2&#45;&gt;Node1</title>
<path fill="none" stroke="midnightblue" d="M54,-238.208C54,-229.51 54,-220.535 54,-211.551"/>
<polygon fill="none" stroke="midnightblue" points="50.5001,-238.275 54,-248.275 57.5001,-238.275 50.5001,-238.275"/>
</g>
</g>
</svg>
