<?xml version="1.0" encoding="UTF-8" standalone="no"?>
<!DOCTYPE svg PUBLIC "-//W3C//DTD SVG 1.1//EN"
 "http://www.w3.org/Graphics/SVG/1.1/DTD/svg11.dtd">
<!-- Generated by graphviz version 2.38.0 (20140413.2041)
 -->
<!-- Title: FixedListStrategy Pages: 1 -->
<svg width="101pt" height="182pt"
 viewBox="0.00 0.00 101.00 182.00" xmlns="http://www.w3.org/2000/svg" xmlns:xlink="http://www.w3.org/1999/xlink">
<g id="graph0" class="graph" transform="scale(1 1) rotate(0) translate(4 178)">
<title>FixedListStrategy</title>
<polygon fill="white" stroke="none" points="-4,4 -4,-178 97,-178 97,4 -4,4"/>
<!-- Node1 -->
<g id="node1" class="node"><title>Node1</title>
<polygon fill="#bfbfbf" stroke="black" points="0,-0.5 0,-68.5 93,-68.5 93,-0.5 0,-0.5"/>
<text text-anchor="middle" x="46.5" y="-56.5" font-family="Helvetica,sans-Serif" font-size="10.00">FixedListStrategy</text>
<polyline fill="none" stroke="black" points="0,-49.5 93,-49.5 "/>
<text text-anchor="middle" x="46.5" y="-37.5" font-family="Helvetica,sans-Serif" font-size="10.00"> </text>
<polyline fill="none" stroke="black" points="0,-30.5 93,-30.5 "/>
<text text-anchor="start" x="8" y="-18.5" font-family="Helvetica,sans-Serif" font-size="10.00">+ getList()</text>
<text text-anchor="start" x="8" y="-7.5" font-family="Helvetica,sans-Serif" font-size="10.00">+ isStatic()</text>
</g>
<!-- Node2 -->
<g id="node2" class="node"><title>Node2</title>
<g id="a_node2"><a xlink:href="interfacewcmf_1_1lib_1_1presentation_1_1control_1_1lists_1_1_list_strategy.html" target="_top" xlink:title="ListStrategy defines the interface for classes that retrieve value lists. ">
<polygon fill="white" stroke="black" points="12,-105.5 12,-173.5 81,-173.5 81,-105.5 12,-105.5"/>
<text text-anchor="middle" x="46.5" y="-161.5" font-family="Helvetica,sans-Serif" font-size="10.00">ListStrategy</text>
<polyline fill="none" stroke="black" points="12,-154.5 81,-154.5 "/>
<text text-anchor="middle" x="46.5" y="-142.5" font-family="Helvetica,sans-Serif" font-size="10.00"> </text>
<polyline fill="none" stroke="black" points="12,-135.5 81,-135.5 "/>
<text text-anchor="start" x="20" y="-123.5" font-family="Helvetica,sans-Serif" font-size="10.00">+ getList()</text>
<text text-anchor="start" x="20" y="-112.5" font-family="Helvetica,sans-Serif" font-size="10.00">+ isStatic()</text>
</a>
</g>
</g>
<!-- Node2&#45;&gt;Node1 -->
<g id="edge1" class="edge"><title>Node2&#45;&gt;Node1</title>
<path fill="none" stroke="midnightblue" d="M46.5,-95.1362C46.5,-86.256 46.5,-77.0447 46.5,-68.5947"/>
<polygon fill="none" stroke="midnightblue" points="43.0001,-95.3432 46.5,-105.343 50.0001,-95.3432 43.0001,-95.3432"/>
</g>
</g>
</svg>
