<?xml version="1.0" encoding="UTF-8" standalone="no"?>
<!DOCTYPE svg PUBLIC "-//W3C//DTD SVG 1.1//EN"
 "http://www.w3.org/Graphics/SVG/1.1/DTD/svg11.dtd">
<!-- Generated by graphviz version 2.38.0 (20140413.2041)
 -->
<!-- Title: Filter Pages: 1 -->
<svg width="81pt" height="160pt"
 viewBox="0.00 0.00 81.00 160.00" xmlns="http://www.w3.org/2000/svg" xmlns:xlink="http://www.w3.org/1999/xlink">
<g id="graph0" class="graph" transform="scale(1 1) rotate(0) translate(4 156)">
<title>Filter</title>
<polygon fill="white" stroke="none" points="-4,4 -4,-156 77,-156 77,4 -4,4"/>
<!-- Node1 -->
<g id="node1" class="node"><title>Node1</title>
<polygon fill="#bfbfbf" stroke="black" points="4.5,-0.5 4.5,-57.5 68.5,-57.5 68.5,-0.5 4.5,-0.5"/>
<text text-anchor="middle" x="36.5" y="-45.5" font-family="Helvetica,sans-Serif" font-size="10.00">Filter</text>
<polyline fill="none" stroke="black" points="4.5,-38.5 68.5,-38.5 "/>
<text text-anchor="middle" x="36.5" y="-26.5" font-family="Helvetica,sans-Serif" font-size="10.00"> </text>
<polyline fill="none" stroke="black" points="4.5,-19.5 68.5,-19.5 "/>
<text text-anchor="start" x="12.5" y="-7.5" font-family="Helvetica,sans-Serif" font-size="10.00">+ validate()</text>
</g>
<!-- Node2 -->
<g id="node2" class="node"><title>Node2</title>
<g id="a_node2"><a xlink:href="interfacewcmf_1_1lib_1_1persistence_1_1validator_1_1_validate_type.html" target="_top" xlink:title="ValidateType defines the interface for all validator classes. ">
<polygon fill="white" stroke="black" points="0,-94.5 0,-151.5 73,-151.5 73,-94.5 0,-94.5"/>
<text text-anchor="middle" x="36.5" y="-139.5" font-family="Helvetica,sans-Serif" font-size="10.00">ValidateType</text>
<polyline fill="none" stroke="black" points="0,-132.5 73,-132.5 "/>
<text text-anchor="middle" x="36.5" y="-120.5" font-family="Helvetica,sans-Serif" font-size="10.00"> </text>
<polyline fill="none" stroke="black" points="0,-113.5 73,-113.5 "/>
<text text-anchor="start" x="8" y="-101.5" font-family="Helvetica,sans-Serif" font-size="10.00">+ validate()</text>
</a>
</g>
</g>
<!-- Node2&#45;&gt;Node1 -->
<g id="edge1" class="edge"><title>Node2&#45;&gt;Node1</title>
<path fill="none" stroke="midnightblue" d="M36.5,-84.2092C36.5,-75.2929 36.5,-65.9513 36.5,-57.5836"/>
<polygon fill="none" stroke="midnightblue" points="33.0001,-84.3969 36.5,-94.397 40.0001,-84.397 33.0001,-84.3969"/>
</g>
</g>
</svg>
