<?xml version="1.0" encoding="UTF-8" standalone="no"?>
<!DOCTYPE svg PUBLIC "-//W3C//DTD SVG 1.1//EN"
 "http://www.w3.org/Graphics/SVG/1.1/DTD/svg11.dtd">
<!-- Generated by graphviz version 2.38.0 (20140413.2041)
 -->
<!-- Title: IOException Pages: 1 -->
<svg width="78pt" height="160pt"
 viewBox="0.00 0.00 78.00 160.00" xmlns="http://www.w3.org/2000/svg" xmlns:xlink="http://www.w3.org/1999/xlink">
<g id="graph0" class="graph" transform="scale(1 1) rotate(0) translate(4 156)">
<title>IOException</title>
<polygon fill="white" stroke="none" points="-4,4 -4,-156 74,-156 74,4 -4,4"/>
<!-- Node1 -->
<g id="node1" class="node"><title>Node1</title>
<polygon fill="#bfbfbf" stroke="black" points="0,-0.5 0,-57.5 70,-57.5 70,-0.5 0,-0.5"/>
<text text-anchor="middle" x="35" y="-45.5" font-family="Helvetica,sans-Serif" font-size="10.00">IOException</text>
<polyline fill="none" stroke="black" points="0,-38.5 70,-38.5 "/>
<text text-anchor="middle" x="35" y="-26.5" font-family="Helvetica,sans-Serif" font-size="10.00"> </text>
<polyline fill="none" stroke="black" points="0,-19.5 70,-19.5 "/>
<text text-anchor="middle" x="35" y="-7.5" font-family="Helvetica,sans-Serif" font-size="10.00"> </text>
</g>
<!-- Node2 -->
<g id="node2" class="node"><title>Node2</title>
<polygon fill="white" stroke="#bfbfbf" points="5,-94.5 5,-151.5 65,-151.5 65,-94.5 5,-94.5"/>
<text text-anchor="middle" x="35" y="-139.5" font-family="Helvetica,sans-Serif" font-size="10.00">Exception</text>
<polyline fill="none" stroke="#bfbfbf" points="5,-132.5 65,-132.5 "/>
<text text-anchor="middle" x="35" y="-120.5" font-family="Helvetica,sans-Serif" font-size="10.00"> </text>
<polyline fill="none" stroke="#bfbfbf" points="5,-113.5 65,-113.5 "/>
<text text-anchor="middle" x="35" y="-101.5" font-family="Helvetica,sans-Serif" font-size="10.00"> </text>
</g>
<!-- Node2&#45;&gt;Node1 -->
<g id="edge1" class="edge"><title>Node2&#45;&gt;Node1</title>
<path fill="none" stroke="midnightblue" d="M35,-84.2092C35,-75.2929 35,-65.9513 35,-57.5836"/>
<polygon fill="none" stroke="midnightblue" points="31.5001,-84.3969 35,-94.397 38.5001,-84.397 31.5001,-84.3969"/>
</g>
</g>
</svg>
