<?xml version="1.0" encoding="UTF-8" standalone="no"?>
<!DOCTYPE svg PUBLIC "-//W3C//DTD SVG 1.1//EN"
 "http://www.w3.org/Graphics/SVG/1.1/DTD/svg11.dtd">
<!-- Generated by graphviz version 2.38.0 (20140413.2041)
 -->
<!-- Title: ObjectQuery Pages: 1 -->
<svg width="196pt" height="551pt"
 viewBox="0.00 0.00 196.00 551.00" xmlns="http://www.w3.org/2000/svg" xmlns:xlink="http://www.w3.org/1999/xlink">
<g id="graph0" class="graph" transform="scale(1 1) rotate(0) translate(4 547)">
<title>ObjectQuery</title>
<polygon fill="white" stroke="none" points="-4,4 -4,-547 192,-547 192,4 -4,4"/>
<!-- Node1 -->
<g id="node1" class="node"><title>Node1</title>
<polygon fill="#bfbfbf" stroke="black" points="0,-116.5 0,-360.5 188,-360.5 188,-116.5 0,-116.5"/>
<text text-anchor="middle" x="94" y="-348.5" font-family="Helvetica,sans-Serif" font-size="10.00">ObjectQuery</text>
<polyline fill="none" stroke="black" points="0,-341.5 188,-341.5 "/>
<text text-anchor="start" x="8" y="-329.5" font-family="Helvetica,sans-Serif" font-size="10.00">+ PROPERTY_COMBINE_OPERATOR</text>
<text text-anchor="start" x="8" y="-318.5" font-family="Helvetica,sans-Serif" font-size="10.00">+ PROPERTY_TABLE_NAME</text>
<text text-anchor="start" x="8" y="-307.5" font-family="Helvetica,sans-Serif" font-size="10.00">+ PROPERTY_INITIAL_OID</text>
<polyline fill="none" stroke="black" points="0,-300.5 188,-300.5 "/>
<text text-anchor="start" x="8" y="-288.5" font-family="Helvetica,sans-Serif" font-size="10.00">+ __construct()</text>
<text text-anchor="start" x="8" y="-277.5" font-family="Helvetica,sans-Serif" font-size="10.00">+ __destruct()</text>
<text text-anchor="start" x="8" y="-266.5" font-family="Helvetica,sans-Serif" font-size="10.00">+ getId()</text>
<text text-anchor="start" x="8" y="-255.5" font-family="Helvetica,sans-Serif" font-size="10.00">+ getObjectTemplate()</text>
<text text-anchor="start" x="8" y="-244.5" font-family="Helvetica,sans-Serif" font-size="10.00">+ registerObjectTemplate()</text>
<text text-anchor="start" x="8" y="-233.5" font-family="Helvetica,sans-Serif" font-size="10.00">+ makeGroup()</text>
<text text-anchor="start" x="8" y="-222.5" font-family="Helvetica,sans-Serif" font-size="10.00">+ getQueryCondition()</text>
<text text-anchor="start" x="8" y="-211.5" font-family="Helvetica,sans-Serif" font-size="10.00">+ valueChanged()</text>
<text text-anchor="start" x="8" y="-200.5" font-family="Helvetica,sans-Serif" font-size="10.00"># getQueryType()</text>
<text text-anchor="start" x="8" y="-189.5" font-family="Helvetica,sans-Serif" font-size="10.00"># buildQuery()</text>
<text text-anchor="start" x="8" y="-178.5" font-family="Helvetica,sans-Serif" font-size="10.00"># processObjectTemplate()</text>
<text text-anchor="start" x="8" y="-167.5" font-family="Helvetica,sans-Serif" font-size="10.00"># processOrderBy()</text>
<text text-anchor="start" x="8" y="-156.5" font-family="Helvetica,sans-Serif" font-size="10.00"># getBind()</text>
<text text-anchor="start" x="8" y="-145.5" font-family="Helvetica,sans-Serif" font-size="10.00"># getBindPosition()</text>
<text text-anchor="start" x="8" y="-134.5" font-family="Helvetica,sans-Serif" font-size="10.00"># resetInternals()</text>
<text text-anchor="start" x="8" y="-123.5" font-family="Helvetica,sans-Serif" font-size="10.00"># processTableName()</text>
</g>
<!-- Node3 -->
<g id="node3" class="node"><title>Node3</title>
<g id="a_node3"><a xlink:href="classwcmf_1_1lib_1_1model_1_1_string_query.html" target="_top" xlink:title="StringQuery executes queries from a string representation. ">
<polygon fill="white" stroke="black" points="38.5,-0.5 38.5,-79.5 149.5,-79.5 149.5,-0.5 38.5,-0.5"/>
<text text-anchor="middle" x="94" y="-67.5" font-family="Helvetica,sans-Serif" font-size="10.00">StringQuery</text>
<polyline fill="none" stroke="black" points="38.5,-60.5 149.5,-60.5 "/>
<text text-anchor="middle" x="94" y="-48.5" font-family="Helvetica,sans-Serif" font-size="10.00"> </text>
<polyline fill="none" stroke="black" points="38.5,-41.5 149.5,-41.5 "/>
<text text-anchor="start" x="46.5" y="-29.5" font-family="Helvetica,sans-Serif" font-size="10.00">+ setConditionString()</text>
<text text-anchor="start" x="46.5" y="-18.5" font-family="Helvetica,sans-Serif" font-size="10.00"># buildQuery()</text>
<text text-anchor="start" x="46.5" y="-7.5" font-family="Helvetica,sans-Serif" font-size="10.00"># mapToDatabase()</text>
</a>
</g>
</g>
<!-- Node1&#45;&gt;Node3 -->
<g id="edge2" class="edge"><title>Node1&#45;&gt;Node3</title>
<path fill="none" stroke="midnightblue" d="M94,-106.402C94,-96.9406 94,-87.9388 94,-79.8074"/>
<polygon fill="none" stroke="midnightblue" points="90.5001,-106.41 94,-116.41 97.5001,-106.41 90.5001,-106.41"/>
</g>
<!-- Node2 -->
<g id="node2" class="node"><title>Node2</title>
<g id="a_node2"><a xlink:href="classwcmf_1_1lib_1_1model_1_1_abstract_query.html" target="_top" xlink:title="AbstractQuery is the base class for all query classes. ">
<polygon fill="white" stroke="black" points="36,-397.5 36,-542.5 152,-542.5 152,-397.5 36,-397.5"/>
<text text-anchor="middle" x="94" y="-530.5" font-family="Helvetica,sans-Serif" font-size="10.00">AbstractQuery</text>
<polyline fill="none" stroke="black" points="36,-523.5 152,-523.5 "/>
<text text-anchor="middle" x="94" y="-511.5" font-family="Helvetica,sans-Serif" font-size="10.00"> </text>
<polyline fill="none" stroke="black" points="36,-504.5 152,-504.5 "/>
<text text-anchor="start" x="44" y="-492.5" font-family="Helvetica,sans-Serif" font-size="10.00">+ execute()</text>
<text text-anchor="start" x="44" y="-481.5" font-family="Helvetica,sans-Serif" font-size="10.00">+ getQueryString()</text>
<text text-anchor="start" x="44" y="-470.5" font-family="Helvetica,sans-Serif" font-size="10.00">+ getLastQueryString()</text>
<text text-anchor="start" x="44" y="-459.5" font-family="Helvetica,sans-Serif" font-size="10.00"># getQueryType()</text>
<text text-anchor="start" x="44" y="-448.5" font-family="Helvetica,sans-Serif" font-size="10.00"># buildQuery()</text>
<text text-anchor="start" x="44" y="-437.5" font-family="Helvetica,sans-Serif" font-size="10.00"># executeInternal()</text>
<text text-anchor="start" x="44" y="-426.5" font-family="Helvetica,sans-Serif" font-size="10.00"># getConnection()</text>
<text text-anchor="start" x="44" y="-415.5" font-family="Helvetica,sans-Serif" font-size="10.00"># getMapper()</text>
<text text-anchor="start" x="44" y="-404.5" font-family="Helvetica,sans-Serif" font-size="10.00"># checkMapper()</text>
</a>
</g>
</g>
<!-- Node2&#45;&gt;Node1 -->
<g id="edge1" class="edge"><title>Node2&#45;&gt;Node1</title>
<path fill="none" stroke="midnightblue" d="M94,-387.3C94,-378.638 94,-369.701 94,-360.711"/>
<polygon fill="none" stroke="midnightblue" points="90.5001,-387.329 94,-397.329 97.5001,-387.329 90.5001,-387.329"/>
</g>
</g>
</svg>
