<?xml version="1.0" encoding="UTF-8" standalone="no"?>
<!DOCTYPE svg PUBLIC "-//W3C//DTD SVG 1.1//EN"
 "http://www.w3.org/Graphics/SVG/1.1/DTD/svg11.dtd">
<!-- Generated by graphviz version 2.38.0 (20140413.2041)
 -->
<!-- Title: PersistenceException Pages: 1 -->
<svg width="120pt" height="160pt"
 viewBox="0.00 0.00 120.00 160.00" xmlns="http://www.w3.org/2000/svg" xmlns:xlink="http://www.w3.org/1999/xlink">
<g id="graph0" class="graph" transform="scale(1 1) rotate(0) translate(4 156)">
<title>PersistenceException</title>
<polygon fill="white" stroke="none" points="-4,4 -4,-156 116,-156 116,4 -4,4"/>
<!-- Node1 -->
<g id="node1" class="node"><title>Node1</title>
<polygon fill="#bfbfbf" stroke="black" points="0,-0.5 0,-57.5 112,-57.5 112,-0.5 0,-0.5"/>
<text text-anchor="middle" x="56" y="-45.5" font-family="Helvetica,sans-Serif" font-size="10.00">PersistenceException</text>
<polyline fill="none" stroke="black" points="0,-38.5 112,-38.5 "/>
<text text-anchor="middle" x="56" y="-26.5" font-family="Helvetica,sans-Serif" font-size="10.00"> </text>
<polyline fill="none" stroke="black" points="0,-19.5 112,-19.5 "/>
<text text-anchor="middle" x="56" y="-7.5" font-family="Helvetica,sans-Serif" font-size="10.00"> </text>
</g>
<!-- Node2 -->
<g id="node2" class="node"><title>Node2</title>
<polygon fill="white" stroke="#bfbfbf" points="26,-94.5 26,-151.5 86,-151.5 86,-94.5 26,-94.5"/>
<text text-anchor="middle" x="56" y="-139.5" font-family="Helvetica,sans-Serif" font-size="10.00">Exception</text>
<polyline fill="none" stroke="#bfbfbf" points="26,-132.5 86,-132.5 "/>
<text text-anchor="middle" x="56" y="-120.5" font-family="Helvetica,sans-Serif" font-size="10.00"> </text>
<polyline fill="none" stroke="#bfbfbf" points="26,-113.5 86,-113.5 "/>
<text text-anchor="middle" x="56" y="-101.5" font-family="Helvetica,sans-Serif" font-size="10.00"> </text>
</g>
<!-- Node2&#45;&gt;Node1 -->
<g id="edge1" class="edge"><title>Node2&#45;&gt;Node1</title>
<path fill="none" stroke="midnightblue" d="M56,-84.2092C56,-75.2929 56,-65.9513 56,-57.5836"/>
<polygon fill="none" stroke="midnightblue" points="52.5001,-84.3969 56,-94.397 59.5001,-84.397 52.5001,-84.3969"/>
</g>
</g>
</svg>
