<?xml version="1.0" encoding="UTF-8" standalone="no"?>
<!DOCTYPE svg PUBLIC "-//W3C//DTD SVG 1.1//EN"
 "http://www.w3.org/Graphics/SVG/1.1/DTD/svg11.dtd">
<!-- Generated by graphviz version 2.38.0 (20140413.2041)
 -->
<!-- Title: Node Pages: 1 -->
<svg width="332pt" height="986pt"
 viewBox="0.00 0.00 332.00 986.00" xmlns="http://www.w3.org/2000/svg" xmlns:xlink="http://www.w3.org/1999/xlink">
<g id="graph0" class="graph" transform="scale(1 1) rotate(0) translate(4 982)">
<title>Node</title>
<polygon fill="white" stroke="none" points="-4,4 -4,-982 328,-982 328,4 -4,4"/>
<!-- Node1 -->
<g id="node1" class="node"><title>Node1</title>
<polygon fill="#bfbfbf" stroke="black" points="35.5,-259.5 35.5,-503.5 214.5,-503.5 214.5,-259.5 35.5,-259.5"/>
<text text-anchor="middle" x="125" y="-491.5" font-family="Helvetica,sans-Serif" font-size="10.00">Node</text>
<polyline fill="none" stroke="black" points="35.5,-484.5 214.5,-484.5 "/>
<text text-anchor="start" x="43.5" y="-472.5" font-family="Helvetica,sans-Serif" font-size="10.00">+ RELATION_STATE_UNINITIALIZED</text>
<text text-anchor="start" x="43.5" y="-461.5" font-family="Helvetica,sans-Serif" font-size="10.00">+ RELATION_STATE_INITIALIZING</text>
<text text-anchor="start" x="43.5" y="-450.5" font-family="Helvetica,sans-Serif" font-size="10.00">+ RELATION_STATE_INITIALIZED</text>
<text text-anchor="start" x="43.5" y="-439.5" font-family="Helvetica,sans-Serif" font-size="10.00">+ RELATION_STATE_LOADED</text>
<polyline fill="none" stroke="black" points="35.5,-432.5 214.5,-432.5 "/>
<text text-anchor="start" x="43.5" y="-420.5" font-family="Helvetica,sans-Serif" font-size="10.00">+ __construct()</text>
<text text-anchor="start" x="43.5" y="-409.5" font-family="Helvetica,sans-Serif" font-size="10.00">+ getValueNames()</text>
<text text-anchor="start" x="43.5" y="-398.5" font-family="Helvetica,sans-Serif" font-size="10.00">+ getValue()</text>
<text text-anchor="start" x="43.5" y="-387.5" font-family="Helvetica,sans-Serif" font-size="10.00">+ setValue()</text>
<text text-anchor="start" x="43.5" y="-376.5" font-family="Helvetica,sans-Serif" font-size="10.00">+ getIndispensableObjects()</text>
<text text-anchor="start" x="43.5" y="-365.5" font-family="Helvetica,sans-Serif" font-size="10.00">+ mergeValues()</text>
<text text-anchor="start" x="43.5" y="-354.5" font-family="Helvetica,sans-Serif" font-size="10.00">+ getNumChildren()</text>
<text text-anchor="start" x="43.5" y="-343.5" font-family="Helvetica,sans-Serif" font-size="10.00">+ addNode()</text>
<text text-anchor="start" x="43.5" y="-332.5" font-family="Helvetica,sans-Serif" font-size="10.00">+ getAddedNodes()</text>
<text text-anchor="start" x="43.5" y="-321.5" font-family="Helvetica,sans-Serif" font-size="10.00">+ deleteNode()</text>
<text text-anchor="start" x="43.5" y="-310.5" font-family="Helvetica,sans-Serif" font-size="10.00">and 22 more...</text>
<text text-anchor="start" x="43.5" y="-299.5" font-family="Helvetica,sans-Serif" font-size="10.00">+ filter()</text>
<text text-anchor="start" x="43.5" y="-288.5" font-family="Helvetica,sans-Serif" font-size="10.00"># loadRelations()</text>
<text text-anchor="start" x="43.5" y="-277.5" font-family="Helvetica,sans-Serif" font-size="10.00"># getRelations()</text>
<text text-anchor="start" x="43.5" y="-266.5" font-family="Helvetica,sans-Serif" font-size="10.00"># mergeObjectLists()</text>
</g>
<!-- Node5 -->
<g id="node5" class="node"><title>Node5</title>
<g id="a_node5"><a xlink:href="classwcmf_1_1lib_1_1model_1_1_null_node.html" target="_top" xlink:title="NullNode is an implementation of the NullObject pattern, It inherits all functionality from Node (act...">
<polygon fill="white" stroke="black" points="0,-83 0,-140 62,-140 62,-83 0,-83"/>
<text text-anchor="middle" x="31" y="-128" font-family="Helvetica,sans-Serif" font-size="10.00">NullNode</text>
<polyline fill="none" stroke="black" points="0,-121 62,-121 "/>
<text text-anchor="middle" x="31" y="-109" font-family="Helvetica,sans-Serif" font-size="10.00"> </text>
<polyline fill="none" stroke="black" points="0,-102 62,-102 "/>
<text text-anchor="start" x="8" y="-90" font-family="Helvetica,sans-Serif" font-size="10.00">+ getOID()</text>
</a>
</g>
</g>
<!-- Node1&#45;&gt;Node5 -->
<g id="edge4" class="edge"><title>Node1&#45;&gt;Node5</title>
<path fill="none" stroke="midnightblue" d="M79.1544,-249.791C64.654,-208.45 50.0069,-166.69 40.7386,-140.265"/>
<polygon fill="none" stroke="midnightblue" points="75.9251,-251.159 82.5377,-259.437 82.5305,-248.842 75.9251,-251.159"/>
</g>
<!-- Node6 -->
<g id="node6" class="node"><title>Node6</title>
<g id="a_node6"><a xlink:href="classwcmf_1_1lib_1_1security_1_1principal_1_1impl_1_1_abstract_role.html" target="_top" xlink:title="Default implementation of a role. ">
<polygon fill="white" stroke="black" points="80.5,-72 80.5,-151 169.5,-151 169.5,-72 80.5,-72"/>
<text text-anchor="middle" x="125" y="-139" font-family="Helvetica,sans-Serif" font-size="10.00">AbstractRole</text>
<polyline fill="none" stroke="black" points="80.5,-132 169.5,-132 "/>
<text text-anchor="middle" x="125" y="-120" font-family="Helvetica,sans-Serif" font-size="10.00"> </text>
<polyline fill="none" stroke="black" points="80.5,-113 169.5,-113 "/>
<text text-anchor="start" x="88.5" y="-101" font-family="Helvetica,sans-Serif" font-size="10.00">+ setName()</text>
<text text-anchor="start" x="88.5" y="-90" font-family="Helvetica,sans-Serif" font-size="10.00">+ getName()</text>
<text text-anchor="start" x="88.5" y="-79" font-family="Helvetica,sans-Serif" font-size="10.00">+ validateValue()</text>
</a>
</g>
</g>
<!-- Node1&#45;&gt;Node6 -->
<g id="edge5" class="edge"><title>Node1&#45;&gt;Node6</title>
<path fill="none" stroke="midnightblue" d="M125,-249.328C125,-213.43 125,-177.261 125,-151.133"/>
<polygon fill="none" stroke="midnightblue" points="121.5,-249.437 125,-259.437 128.5,-249.437 121.5,-249.437"/>
</g>
<!-- Node7 -->
<g id="node7" class="node"><title>Node7</title>
<g id="a_node7"><a xlink:href="classwcmf_1_1lib_1_1security_1_1principal_1_1impl_1_1_abstract_user.html" target="_top" xlink:title="Default implementation of a user that is persistent. ">
<polygon fill="white" stroke="black" points="188,-0.5 188,-222.5 324,-222.5 324,-0.5 188,-0.5"/>
<text text-anchor="middle" x="256" y="-210.5" font-family="Helvetica,sans-Serif" font-size="10.00">AbstractUser</text>
<polyline fill="none" stroke="black" points="188,-203.5 324,-203.5 "/>
<text text-anchor="middle" x="256" y="-191.5" font-family="Helvetica,sans-Serif" font-size="10.00"> </text>
<polyline fill="none" stroke="black" points="188,-184.5 324,-184.5 "/>
<text text-anchor="start" x="196" y="-172.5" font-family="Helvetica,sans-Serif" font-size="10.00">+ setLogin()</text>
<text text-anchor="start" x="196" y="-161.5" font-family="Helvetica,sans-Serif" font-size="10.00">+ getLogin()</text>
<text text-anchor="start" x="196" y="-150.5" font-family="Helvetica,sans-Serif" font-size="10.00">+ setPassword()</text>
<text text-anchor="start" x="196" y="-139.5" font-family="Helvetica,sans-Serif" font-size="10.00">+ getPassword()</text>
<text text-anchor="start" x="196" y="-128.5" font-family="Helvetica,sans-Serif" font-size="10.00">+ verifyPassword()</text>
<text text-anchor="start" x="196" y="-117.5" font-family="Helvetica,sans-Serif" font-size="10.00">+ setConfig()</text>
<text text-anchor="start" x="196" y="-106.5" font-family="Helvetica,sans-Serif" font-size="10.00">+ getConfig()</text>
<text text-anchor="start" x="196" y="-95.5" font-family="Helvetica,sans-Serif" font-size="10.00">+ hasRole()</text>
<text text-anchor="start" x="196" y="-84.5" font-family="Helvetica,sans-Serif" font-size="10.00">+ getRoles()</text>
<text text-anchor="start" x="196" y="-73.5" font-family="Helvetica,sans-Serif" font-size="10.00">+ beforeInsert()</text>
<text text-anchor="start" x="196" y="-62.5" font-family="Helvetica,sans-Serif" font-size="10.00">+ beforeUpdate()</text>
<text text-anchor="start" x="196" y="-51.5" font-family="Helvetica,sans-Serif" font-size="10.00">+ setValue()</text>
<text text-anchor="start" x="196" y="-40.5" font-family="Helvetica,sans-Serif" font-size="10.00">+ validateValue()</text>
<text text-anchor="start" x="196" y="-29.5" font-family="Helvetica,sans-Serif" font-size="10.00"># ensureHashedPassword()</text>
<text text-anchor="start" x="196" y="-18.5" font-family="Helvetica,sans-Serif" font-size="10.00"># setRoleConfig()</text>
<text text-anchor="start" x="196" y="-7.5" font-family="Helvetica,sans-Serif" font-size="10.00"># getRoleConfigs()</text>
</a>
</g>
</g>
<!-- Node1&#45;&gt;Node7 -->
<g id="edge6" class="edge"><title>Node1&#45;&gt;Node7</title>
<path fill="none" stroke="midnightblue" d="M188.661,-250.261C193.154,-241.071 197.657,-231.857 202.088,-222.793"/>
<polygon fill="none" stroke="midnightblue" points="185.423,-248.916 184.176,-259.437 191.712,-251.99 185.423,-248.916"/>
</g>
<!-- Node2 -->
<g id="node2" class="node"><title>Node2</title>
<g id="a_node2"><a xlink:href="classwcmf_1_1lib_1_1persistence_1_1impl_1_1_default_persistent_object.html" target="_top" xlink:title="DefaultPersistentObject is the base class of all persistent objects. ">
<polygon fill="white" stroke="black" points="36.5,-540.5 36.5,-740.5 213.5,-740.5 213.5,-540.5 36.5,-540.5"/>
<text text-anchor="middle" x="125" y="-728.5" font-family="Helvetica,sans-Serif" font-size="10.00">DefaultPersistentObject</text>
<polyline fill="none" stroke="black" points="36.5,-721.5 213.5,-721.5 "/>
<text text-anchor="middle" x="125" y="-709.5" font-family="Helvetica,sans-Serif" font-size="10.00"> </text>
<polyline fill="none" stroke="black" points="36.5,-702.5 213.5,-702.5 "/>
<text text-anchor="start" x="44.5" y="-690.5" font-family="Helvetica,sans-Serif" font-size="10.00">+ __construct()</text>
<text text-anchor="start" x="44.5" y="-679.5" font-family="Helvetica,sans-Serif" font-size="10.00">+ initialize()</text>
<text text-anchor="start" x="44.5" y="-668.5" font-family="Helvetica,sans-Serif" font-size="10.00">+ getType()</text>
<text text-anchor="start" x="44.5" y="-657.5" font-family="Helvetica,sans-Serif" font-size="10.00">+ getMapper()</text>
<text text-anchor="start" x="44.5" y="-646.5" font-family="Helvetica,sans-Serif" font-size="10.00">+ getOID()</text>
<text text-anchor="start" x="44.5" y="-635.5" font-family="Helvetica,sans-Serif" font-size="10.00">+ setOID()</text>
<text text-anchor="start" x="44.5" y="-624.5" font-family="Helvetica,sans-Serif" font-size="10.00">+ getState()</text>
<text text-anchor="start" x="44.5" y="-613.5" font-family="Helvetica,sans-Serif" font-size="10.00">+ setState()</text>
<text text-anchor="start" x="44.5" y="-602.5" font-family="Helvetica,sans-Serif" font-size="10.00">+ delete()</text>
<text text-anchor="start" x="44.5" y="-591.5" font-family="Helvetica,sans-Serif" font-size="10.00">+ __clone()</text>
<text text-anchor="start" x="44.5" y="-580.5" font-family="Helvetica,sans-Serif" font-size="10.00">and 32 more...</text>
<text text-anchor="start" x="44.5" y="-569.5" font-family="Helvetica,sans-Serif" font-size="10.00"># setOIDInternal()</text>
<text text-anchor="start" x="44.5" y="-558.5" font-family="Helvetica,sans-Serif" font-size="10.00"># setValueInternal()</text>
<text text-anchor="start" x="44.5" y="-547.5" font-family="Helvetica,sans-Serif" font-size="10.00"># validateValueAgainstValidateType()</text>
</a>
</g>
</g>
<!-- Node2&#45;&gt;Node1 -->
<g id="edge1" class="edge"><title>Node2&#45;&gt;Node1</title>
<path fill="none" stroke="midnightblue" d="M125,-530.053C125,-521.408 125,-512.646 125,-503.927"/>
<polygon fill="none" stroke="midnightblue" points="121.5,-530.137 125,-540.137 128.5,-530.137 121.5,-530.137"/>
</g>
<!-- Node3 -->
<g id="node3" class="node"><title>Node3</title>
<g id="a_node3"><a xlink:href="interfacewcmf_1_1lib_1_1persistence_1_1_persistent_object.html" target="_top" xlink:title="PersistentObject defines the interface of all persistent objects. ">
<polygon fill="white" stroke="black" points="20,-777.5 20,-977.5 126,-977.5 126,-777.5 20,-777.5"/>
<text text-anchor="middle" x="73" y="-965.5" font-family="Helvetica,sans-Serif" font-size="10.00">PersistentObject</text>
<polyline fill="none" stroke="black" points="20,-958.5 126,-958.5 "/>
<text text-anchor="start" x="28" y="-946.5" font-family="Helvetica,sans-Serif" font-size="10.00">+ STATE_CLEAN</text>
<text text-anchor="start" x="28" y="-935.5" font-family="Helvetica,sans-Serif" font-size="10.00">+ STATE_DIRTY</text>
<text text-anchor="start" x="28" y="-924.5" font-family="Helvetica,sans-Serif" font-size="10.00">+ STATE_NEW</text>
<text text-anchor="start" x="28" y="-913.5" font-family="Helvetica,sans-Serif" font-size="10.00">+ STATE_DELETED</text>
<polyline fill="none" stroke="black" points="20,-906.5 126,-906.5 "/>
<text text-anchor="start" x="28" y="-894.5" font-family="Helvetica,sans-Serif" font-size="10.00">+ initialize()</text>
<text text-anchor="start" x="28" y="-883.5" font-family="Helvetica,sans-Serif" font-size="10.00">+ getType()</text>
<text text-anchor="start" x="28" y="-872.5" font-family="Helvetica,sans-Serif" font-size="10.00">+ getMapper()</text>
<text text-anchor="start" x="28" y="-861.5" font-family="Helvetica,sans-Serif" font-size="10.00">+ getOID()</text>
<text text-anchor="start" x="28" y="-850.5" font-family="Helvetica,sans-Serif" font-size="10.00">+ setOID()</text>
<text text-anchor="start" x="28" y="-839.5" font-family="Helvetica,sans-Serif" font-size="10.00">+ getState()</text>
<text text-anchor="start" x="28" y="-828.5" font-family="Helvetica,sans-Serif" font-size="10.00">+ setState()</text>
<text text-anchor="start" x="28" y="-817.5" font-family="Helvetica,sans-Serif" font-size="10.00">+ delete()</text>
<text text-anchor="start" x="28" y="-806.5" font-family="Helvetica,sans-Serif" font-size="10.00">+ __clone()</text>
<text text-anchor="start" x="28" y="-795.5" font-family="Helvetica,sans-Serif" font-size="10.00">+ copyValues()</text>
<text text-anchor="start" x="28" y="-784.5" font-family="Helvetica,sans-Serif" font-size="10.00">and 28 more...</text>
</a>
</g>
</g>
<!-- Node3&#45;&gt;Node2 -->
<g id="edge2" class="edge"><title>Node3&#45;&gt;Node2</title>
<path fill="none" stroke="midnightblue" d="M97.1707,-767.267C99.1207,-758.454 101.085,-749.579 103.018,-740.842"/>
<polygon fill="none" stroke="midnightblue" points="93.7206,-766.659 94.9773,-777.179 100.555,-768.172 93.7206,-766.659"/>
</g>
<!-- Node4 -->
<g id="node4" class="node"><title>Node4</title>
<polygon fill="white" stroke="#bfbfbf" points="144.5,-849 144.5,-906 211.5,-906 211.5,-849 144.5,-849"/>
<text text-anchor="middle" x="178" y="-894" font-family="Helvetica,sans-Serif" font-size="10.00">Serializable</text>
<polyline fill="none" stroke="#bfbfbf" points="144.5,-887 211.5,-887 "/>
<text text-anchor="middle" x="178" y="-875" font-family="Helvetica,sans-Serif" font-size="10.00"> </text>
<polyline fill="none" stroke="#bfbfbf" points="144.5,-868 211.5,-868 "/>
<text text-anchor="middle" x="178" y="-856" font-family="Helvetica,sans-Serif" font-size="10.00"> </text>
</g>
<!-- Node4&#45;&gt;Node2 -->
<g id="edge3" class="edge"><title>Node4&#45;&gt;Node2</title>
<path fill="none" stroke="midnightblue" d="M169.456,-838.617C163.468,-812.066 155.171,-775.275 147.364,-740.661"/>
<polygon fill="none" stroke="midnightblue" points="166.098,-839.635 171.712,-848.62 172.926,-838.095 166.098,-839.635"/>
</g>
</g>
</svg>
