<?xml version="1.0" encoding="UTF-8" standalone="no"?>
<!DOCTYPE svg PUBLIC "-//W3C//DTD SVG 1.1//EN"
 "http://www.w3.org/Graphics/SVG/1.1/DTD/svg11.dtd">
<!-- Generated by graphviz version 2.38.0 (20140413.2041)
 -->
<!-- Title: Event Pages: 1 -->
<svg width="664pt" height="259pt"
 viewBox="0.00 0.00 664.00 259.00" xmlns="http://www.w3.org/2000/svg" xmlns:xlink="http://www.w3.org/1999/xlink">
<g id="graph0" class="graph" transform="scale(1 1) rotate(0) translate(4 255)">
<title>Event</title>
<polygon fill="white" stroke="none" points="-4,4 -4,-255 660,-255 660,4 -4,4"/>
<!-- Node1 -->
<g id="node1" class="node"><title>Node1</title>
<polygon fill="#bfbfbf" stroke="black" points="236,-182.5 236,-250.5 338,-250.5 338,-182.5 236,-182.5"/>
<text text-anchor="middle" x="287" y="-238.5" font-family="Helvetica,sans-Serif" font-size="10.00">Event</text>
<polyline fill="none" stroke="black" points="236,-231.5 338,-231.5 "/>
<text text-anchor="middle" x="287" y="-219.5" font-family="Helvetica,sans-Serif" font-size="10.00"> </text>
<polyline fill="none" stroke="black" points="236,-212.5 338,-212.5 "/>
<text text-anchor="start" x="244" y="-200.5" font-family="Helvetica,sans-Serif" font-size="10.00">+ stopPropagation()</text>
<text text-anchor="start" x="244" y="-189.5" font-family="Helvetica,sans-Serif" font-size="10.00">+ isStopped()</text>
</g>
<!-- Node2 -->
<g id="node2" class="node"><title>Node2</title>
<g id="a_node2"><a xlink:href="classwcmf_1_1lib_1_1persistence_1_1_persistence_event.html" target="_top" xlink:title="PersistentEvent signals create/update/delete operations on a persistent entity. ">
<polygon fill="white" stroke="black" points="0,-33.5 0,-112.5 92,-112.5 92,-33.5 0,-33.5"/>
<text text-anchor="middle" x="46" y="-100.5" font-family="Helvetica,sans-Serif" font-size="10.00">PersistenceEvent</text>
<polyline fill="none" stroke="black" points="0,-93.5 92,-93.5 "/>
<text text-anchor="start" x="8" y="-81.5" font-family="Helvetica,sans-Serif" font-size="10.00">+ NAME</text>
<polyline fill="none" stroke="black" points="0,-74.5 92,-74.5 "/>
<text text-anchor="start" x="8" y="-62.5" font-family="Helvetica,sans-Serif" font-size="10.00">+ __construct()</text>
<text text-anchor="start" x="8" y="-51.5" font-family="Helvetica,sans-Serif" font-size="10.00">+ getObject()</text>
<text text-anchor="start" x="8" y="-40.5" font-family="Helvetica,sans-Serif" font-size="10.00">+ getAction()</text>
</a>
</g>
</g>
<!-- Node1&#45;&gt;Node2 -->
<g id="edge1" class="edge"><title>Node1&#45;&gt;Node2</title>
<path fill="none" stroke="midnightblue" d="M225.836,-201.943C187.345,-191.272 138.112,-173.518 101,-146 88.8701,-137.006 78.1033,-124.632 69.383,-112.679"/>
<polygon fill="none" stroke="midnightblue" points="225.316,-205.427 235.881,-204.636 227.128,-198.666 225.316,-205.427"/>
</g>
<!-- Node3 -->
<g id="node3" class="node"><title>Node3</title>
<g id="a_node3"><a xlink:href="classwcmf_1_1lib_1_1persistence_1_1_property_change_event.html" target="_top" xlink:title="PropertyChangeEvent signals a change of a property of a PersistentObject instance. ">
<polygon fill="white" stroke="black" points="110,-22.5 110,-123.5 220,-123.5 220,-22.5 110,-22.5"/>
<text text-anchor="middle" x="165" y="-111.5" font-family="Helvetica,sans-Serif" font-size="10.00">PropertyChangeEvent</text>
<polyline fill="none" stroke="black" points="110,-104.5 220,-104.5 "/>
<text text-anchor="start" x="118" y="-92.5" font-family="Helvetica,sans-Serif" font-size="10.00">+ NAME</text>
<polyline fill="none" stroke="black" points="110,-85.5 220,-85.5 "/>
<text text-anchor="start" x="118" y="-73.5" font-family="Helvetica,sans-Serif" font-size="10.00">+ __construct()</text>
<text text-anchor="start" x="118" y="-62.5" font-family="Helvetica,sans-Serif" font-size="10.00">+ getObject()</text>
<text text-anchor="start" x="118" y="-51.5" font-family="Helvetica,sans-Serif" font-size="10.00">+ getPropertyName()</text>
<text text-anchor="start" x="118" y="-40.5" font-family="Helvetica,sans-Serif" font-size="10.00">+ getOldValue()</text>
<text text-anchor="start" x="118" y="-29.5" font-family="Helvetica,sans-Serif" font-size="10.00">+ getNewValue()</text>
</a>
</g>
</g>
<!-- Node1&#45;&gt;Node3 -->
<g id="edge2" class="edge"><title>Node1&#45;&gt;Node3</title>
<path fill="none" stroke="midnightblue" d="M251.833,-174.713C238.08,-158.761 222.178,-140.317 207.77,-123.606"/>
<polygon fill="none" stroke="midnightblue" points="249.216,-177.036 258.396,-182.325 254.517,-172.465 249.216,-177.036"/>
</g>
<!-- Node4 -->
<g id="node4" class="node"><title>Node4</title>
<g id="a_node4"><a xlink:href="classwcmf_1_1lib_1_1persistence_1_1_state_change_event.html" target="_top" xlink:title="StateChangeEvent signals a change of the state of a PersistentObject instance. ">
<polygon fill="white" stroke="black" points="238.5,-28 238.5,-118 335.5,-118 335.5,-28 238.5,-28"/>
<text text-anchor="middle" x="287" y="-106" font-family="Helvetica,sans-Serif" font-size="10.00">StateChangeEvent</text>
<polyline fill="none" stroke="black" points="238.5,-99 335.5,-99 "/>
<text text-anchor="start" x="246.5" y="-87" font-family="Helvetica,sans-Serif" font-size="10.00">+ NAME</text>
<polyline fill="none" stroke="black" points="238.5,-80 335.5,-80 "/>
<text text-anchor="start" x="246.5" y="-68" font-family="Helvetica,sans-Serif" font-size="10.00">+ __construct()</text>
<text text-anchor="start" x="246.5" y="-57" font-family="Helvetica,sans-Serif" font-size="10.00">+ getObject()</text>
<text text-anchor="start" x="246.5" y="-46" font-family="Helvetica,sans-Serif" font-size="10.00">+ getOldValue()</text>
<text text-anchor="start" x="246.5" y="-35" font-family="Helvetica,sans-Serif" font-size="10.00">+ getNewValue()</text>
</a>
</g>
</g>
<!-- Node1&#45;&gt;Node4 -->
<g id="edge3" class="edge"><title>Node1&#45;&gt;Node4</title>
<path fill="none" stroke="midnightblue" d="M287,-172.056C287,-154.972 287,-135.38 287,-118.221"/>
<polygon fill="none" stroke="midnightblue" points="283.5,-172.325 287,-182.325 290.5,-172.325 283.5,-172.325"/>
</g>
<!-- Node5 -->
<g id="node5" class="node"><title>Node5</title>
<g id="a_node5"><a xlink:href="classwcmf_1_1lib_1_1persistence_1_1_value_change_event.html" target="_top" xlink:title="ValueChangeEvent signals a change of a value of a PersistentObject instance. ">
<polygon fill="white" stroke="black" points="354,-22.5 354,-123.5 452,-123.5 452,-22.5 354,-22.5"/>
<text text-anchor="middle" x="403" y="-111.5" font-family="Helvetica,sans-Serif" font-size="10.00">ValueChangeEvent</text>
<polyline fill="none" stroke="black" points="354,-104.5 452,-104.5 "/>
<text text-anchor="start" x="362" y="-92.5" font-family="Helvetica,sans-Serif" font-size="10.00">+ NAME</text>
<polyline fill="none" stroke="black" points="354,-85.5 452,-85.5 "/>
<text text-anchor="start" x="362" y="-73.5" font-family="Helvetica,sans-Serif" font-size="10.00">+ __construct()</text>
<text text-anchor="start" x="362" y="-62.5" font-family="Helvetica,sans-Serif" font-size="10.00">+ getObject()</text>
<text text-anchor="start" x="362" y="-51.5" font-family="Helvetica,sans-Serif" font-size="10.00">+ getValueName()</text>
<text text-anchor="start" x="362" y="-40.5" font-family="Helvetica,sans-Serif" font-size="10.00">+ getOldValue()</text>
<text text-anchor="start" x="362" y="-29.5" font-family="Helvetica,sans-Serif" font-size="10.00">+ getNewValue()</text>
</a>
</g>
</g>
<!-- Node1&#45;&gt;Node5 -->
<g id="edge4" class="edge"><title>Node1&#45;&gt;Node5</title>
<path fill="none" stroke="midnightblue" d="M321.295,-174.645C329.117,-165.26 337.371,-155.304 345,-146 350.903,-138.801 357.108,-131.168 363.176,-123.668"/>
<polygon fill="none" stroke="midnightblue" points="318.571,-172.447 314.849,-182.367 323.944,-176.933 318.571,-172.447"/>
</g>
<!-- Node6 -->
<g id="node6" class="node"><title>Node6</title>
<g id="a_node6"><a xlink:href="classwcmf_1_1lib_1_1presentation_1_1_application_event.html" target="_top" xlink:title="ApplicationEvent instances are fired at different stages of the program flow. ">
<polygon fill="white" stroke="black" points="470,-0.5 470,-145.5 656,-145.5 656,-0.5 470,-0.5"/>
<text text-anchor="middle" x="563" y="-133.5" font-family="Helvetica,sans-Serif" font-size="10.00">ApplicationEvent</text>
<polyline fill="none" stroke="black" points="470,-126.5 656,-126.5 "/>
<text text-anchor="start" x="478" y="-114.5" font-family="Helvetica,sans-Serif" font-size="10.00">+ NAME</text>
<text text-anchor="start" x="478" y="-103.5" font-family="Helvetica,sans-Serif" font-size="10.00">+ BEFORE_ROUTE_ACTION</text>
<text text-anchor="start" x="478" y="-92.5" font-family="Helvetica,sans-Serif" font-size="10.00">+ BEFORE_INITIALIZE_CONTROLLER</text>
<text text-anchor="start" x="478" y="-81.5" font-family="Helvetica,sans-Serif" font-size="10.00">+ BEFORE_EXECUTE_CONTROLLER</text>
<text text-anchor="start" x="478" y="-70.5" font-family="Helvetica,sans-Serif" font-size="10.00">+ AFTER_EXECUTE_CONTROLLER</text>
<polyline fill="none" stroke="black" points="470,-63.5 656,-63.5 "/>
<text text-anchor="start" x="478" y="-51.5" font-family="Helvetica,sans-Serif" font-size="10.00">+ __construct()</text>
<text text-anchor="start" x="478" y="-40.5" font-family="Helvetica,sans-Serif" font-size="10.00">+ getStage()</text>
<text text-anchor="start" x="478" y="-29.5" font-family="Helvetica,sans-Serif" font-size="10.00">+ getRequest()</text>
<text text-anchor="start" x="478" y="-18.5" font-family="Helvetica,sans-Serif" font-size="10.00">+ getResponse()</text>
<text text-anchor="start" x="478" y="-7.5" font-family="Helvetica,sans-Serif" font-size="10.00">+ getController()</text>
</a>
</g>
</g>
<!-- Node1&#45;&gt;Node6 -->
<g id="edge5" class="edge"><title>Node1&#45;&gt;Node6</title>
<path fill="none" stroke="midnightblue" d="M348.126,-195.08C382.226,-182.711 424.963,-165.563 461,-146 463.953,-144.397 466.922,-142.724 469.894,-140.996"/>
<polygon fill="none" stroke="midnightblue" points="346.53,-191.934 338.295,-198.6 348.89,-198.524 346.53,-191.934"/>
</g>
</g>
</svg>
