<?xml version="1.0" encoding="UTF-8" standalone="no"?>
<!DOCTYPE svg PUBLIC "-//W3C//DTD SVG 1.1//EN"
 "http://www.w3.org/Graphics/SVG/1.1/DTD/svg11.dtd">
<!-- Generated by graphviz version 2.38.0 (20140413.2041)
 -->
<!-- Title: ConfigActionKeyProvider Pages: 1 -->
<svg width="131pt" height="215pt"
 viewBox="0.00 0.00 131.00 215.00" xmlns="http://www.w3.org/2000/svg" xmlns:xlink="http://www.w3.org/1999/xlink">
<g id="graph0" class="graph" transform="scale(1 1) rotate(0) translate(4 211)">
<title>ConfigActionKeyProvider</title>
<polygon fill="white" stroke="none" points="-4,4 -4,-211 127,-211 127,4 -4,4"/>
<!-- Node1 -->
<g id="node1" class="node"><title>Node1</title>
<polygon fill="#bfbfbf" stroke="black" points="0,-0.5 0,-90.5 123,-90.5 123,-0.5 0,-0.5"/>
<text text-anchor="middle" x="61.5" y="-78.5" font-family="Helvetica,sans-Serif" font-size="10.00">ConfigActionKeyProvider</text>
<polyline fill="none" stroke="black" points="0,-71.5 123,-71.5 "/>
<text text-anchor="middle" x="61.5" y="-59.5" font-family="Helvetica,sans-Serif" font-size="10.00"> </text>
<polyline fill="none" stroke="black" points="0,-52.5 123,-52.5 "/>
<text text-anchor="start" x="8" y="-40.5" font-family="Helvetica,sans-Serif" font-size="10.00">+ __construct()</text>
<text text-anchor="start" x="8" y="-29.5" font-family="Helvetica,sans-Serif" font-size="10.00">+ containsKey()</text>
<text text-anchor="start" x="8" y="-18.5" font-family="Helvetica,sans-Serif" font-size="10.00">+ getKeyValue()</text>
<text text-anchor="start" x="8" y="-7.5" font-family="Helvetica,sans-Serif" font-size="10.00">+ getId()</text>
</g>
<!-- Node2 -->
<g id="node2" class="node"><title>Node2</title>
<g id="a_node2"><a xlink:href="interfacewcmf_1_1lib_1_1config_1_1_action_key_provider.html" target="_top" xlink:title="Implementations of ActionKeyProvider search for action keys. ">
<polygon fill="white" stroke="black" points="13.5,-127.5 13.5,-206.5 109.5,-206.5 109.5,-127.5 13.5,-127.5"/>
<text text-anchor="middle" x="61.5" y="-194.5" font-family="Helvetica,sans-Serif" font-size="10.00">ActionKeyProvider</text>
<polyline fill="none" stroke="black" points="13.5,-187.5 109.5,-187.5 "/>
<text text-anchor="middle" x="61.5" y="-175.5" font-family="Helvetica,sans-Serif" font-size="10.00"> </text>
<polyline fill="none" stroke="black" points="13.5,-168.5 109.5,-168.5 "/>
<text text-anchor="start" x="21.5" y="-156.5" font-family="Helvetica,sans-Serif" font-size="10.00">+ containsKey()</text>
<text text-anchor="start" x="21.5" y="-145.5" font-family="Helvetica,sans-Serif" font-size="10.00">+ getKeyValue()</text>
<text text-anchor="start" x="21.5" y="-134.5" font-family="Helvetica,sans-Serif" font-size="10.00">+ getId()</text>
</a>
</g>
</g>
<!-- Node2&#45;&gt;Node1 -->
<g id="edge1" class="edge"><title>Node2&#45;&gt;Node1</title>
<path fill="none" stroke="midnightblue" d="M61.5,-117.187C61.5,-108.491 61.5,-99.4758 61.5,-90.9111"/>
<polygon fill="none" stroke="midnightblue" points="58.0001,-117.202 61.5,-127.202 65.0001,-117.202 58.0001,-117.202"/>
</g>
</g>
</svg>
