<?xml version="1.0" encoding="UTF-8" standalone="no"?>
<!DOCTYPE svg PUBLIC "-//W3C//DTD SVG 1.1//EN"
 "http://www.w3.org/Graphics/SVG/1.1/DTD/svg11.dtd">
<!-- Generated by graphviz version 2.38.0 (20140413.2041)
 -->
<!-- Title: FileMessage Pages: 1 -->
<svg width="91pt" height="193pt"
 viewBox="0.00 0.00 91.00 193.00" xmlns="http://www.w3.org/2000/svg" xmlns:xlink="http://www.w3.org/1999/xlink">
<g id="graph0" class="graph" transform="scale(1 1) rotate(0) translate(4 189)">
<title>FileMessage</title>
<polygon fill="white" stroke="none" points="-4,4 -4,-189 87,-189 87,4 -4,4"/>
<!-- Node1 -->
<g id="node1" class="node"><title>Node1</title>
<polygon fill="#bfbfbf" stroke="black" points="0,-0.5 0,-79.5 83,-79.5 83,-0.5 0,-0.5"/>
<text text-anchor="middle" x="41.5" y="-67.5" font-family="Helvetica,sans-Serif" font-size="10.00">FileMessage</text>
<polyline fill="none" stroke="black" points="0,-60.5 83,-60.5 "/>
<text text-anchor="middle" x="41.5" y="-48.5" font-family="Helvetica,sans-Serif" font-size="10.00"> </text>
<polyline fill="none" stroke="black" points="0,-41.5 83,-41.5 "/>
<text text-anchor="start" x="8" y="-29.5" font-family="Helvetica,sans-Serif" font-size="10.00">+ __construct()</text>
<text text-anchor="start" x="8" y="-18.5" font-family="Helvetica,sans-Serif" font-size="10.00">+ getText()</text>
<text text-anchor="start" x="8" y="-7.5" font-family="Helvetica,sans-Serif" font-size="10.00">+ getAll()</text>
</g>
<!-- Node2 -->
<g id="node2" class="node"><title>Node2</title>
<g id="a_node2"><a xlink:href="interfacewcmf_1_1lib_1_1i18n_1_1_message.html" target="_top" xlink:title="Message is used to get localized messages to be used in the user interface. ">
<polygon fill="white" stroke="black" points="9.5,-116.5 9.5,-184.5 73.5,-184.5 73.5,-116.5 9.5,-116.5"/>
<text text-anchor="middle" x="41.5" y="-172.5" font-family="Helvetica,sans-Serif" font-size="10.00">Message</text>
<polyline fill="none" stroke="black" points="9.5,-165.5 73.5,-165.5 "/>
<text text-anchor="middle" x="41.5" y="-153.5" font-family="Helvetica,sans-Serif" font-size="10.00"> </text>
<polyline fill="none" stroke="black" points="9.5,-146.5 73.5,-146.5 "/>
<text text-anchor="start" x="17.5" y="-134.5" font-family="Helvetica,sans-Serif" font-size="10.00">+ getText()</text>
<text text-anchor="start" x="17.5" y="-123.5" font-family="Helvetica,sans-Serif" font-size="10.00">+ getAll()</text>
</a>
</g>
</g>
<!-- Node2&#45;&gt;Node1 -->
<g id="edge1" class="edge"><title>Node2&#45;&gt;Node1</title>
<path fill="none" stroke="midnightblue" d="M41.5,-106.274C41.5,-97.4764 41.5,-88.2753 41.5,-79.6493"/>
<polygon fill="none" stroke="midnightblue" points="38.0001,-106.357 41.5,-116.357 45.0001,-106.357 38.0001,-106.357"/>
</g>
</g>
</svg>
