<?xml version="1.0" encoding="UTF-8" standalone="no"?>
<!DOCTYPE svg PUBLIC "-//W3C//DTD SVG 1.1//EN"
 "http://www.w3.org/Graphics/SVG/1.1/DTD/svg11.dtd">
<!-- Generated by graphviz version 2.38.0 (20140413.2041)
 -->
<!-- Title: AbstractNodeSerializer Pages: 1 -->
<svg width="372pt" height="320pt"
 viewBox="0.00 0.00 372.00 320.00" xmlns="http://www.w3.org/2000/svg" xmlns:xlink="http://www.w3.org/1999/xlink">
<g id="graph0" class="graph" transform="scale(1 1) rotate(0) translate(4 316)">
<title>AbstractNodeSerializer</title>
<polygon fill="white" stroke="none" points="-4,4 -4,-316 368,-316 368,4 -4,4"/>
<!-- Node1 -->
<g id="node1" class="node"><title>Node1</title>
<polygon fill="#bfbfbf" stroke="black" points="132,-127.5 132,-195.5 248,-195.5 248,-127.5 132,-127.5"/>
<text text-anchor="middle" x="190" y="-183.5" font-family="Helvetica,sans-Serif" font-size="10.00">AbstractNodeSerializer</text>
<polyline fill="none" stroke="black" points="132,-176.5 248,-176.5 "/>
<text text-anchor="middle" x="190" y="-164.5" font-family="Helvetica,sans-Serif" font-size="10.00"> </text>
<polyline fill="none" stroke="black" points="132,-157.5 248,-157.5 "/>
<text text-anchor="start" x="140" y="-145.5" font-family="Helvetica,sans-Serif" font-size="10.00"># deserializeValue()</text>
<text text-anchor="start" x="140" y="-134.5" font-family="Helvetica,sans-Serif" font-size="10.00"># isMultiValued()</text>
</g>
<!-- Node3 -->
<g id="node3" class="node"><title>Node3</title>
<g id="a_node3"><a xlink:href="classwcmf_1_1lib_1_1model_1_1impl_1_1_dionysos_node_serializer.html" target="_top" xlink:title="DionysosNodeSerializer is used to serialize Nodes into the Dionysos format and vice versa...">
<polygon fill="white" stroke="black" points="0,-0.5 0,-90.5 120,-90.5 120,-0.5 0,-0.5"/>
<text text-anchor="middle" x="60" y="-78.5" font-family="Helvetica,sans-Serif" font-size="10.00">DionysosNodeSerializer</text>
<polyline fill="none" stroke="black" points="0,-71.5 120,-71.5 "/>
<text text-anchor="middle" x="60" y="-59.5" font-family="Helvetica,sans-Serif" font-size="10.00"> </text>
<polyline fill="none" stroke="black" points="0,-52.5 120,-52.5 "/>
<text text-anchor="start" x="8" y="-40.5" font-family="Helvetica,sans-Serif" font-size="10.00">+ __construct()</text>
<text text-anchor="start" x="8" y="-29.5" font-family="Helvetica,sans-Serif" font-size="10.00">+ isSerializedNode()</text>
<text text-anchor="start" x="8" y="-18.5" font-family="Helvetica,sans-Serif" font-size="10.00">+ deserializeNode()</text>
<text text-anchor="start" x="8" y="-7.5" font-family="Helvetica,sans-Serif" font-size="10.00">+ serializeNode()</text>
</a>
</g>
</g>
<!-- Node1&#45;&gt;Node3 -->
<g id="edge2" class="edge"><title>Node1&#45;&gt;Node3</title>
<path fill="none" stroke="midnightblue" d="M144.226,-120.36C133.26,-110.744 121.492,-100.424 110.333,-90.6378"/>
<polygon fill="none" stroke="midnightblue" points="142.223,-123.258 152.049,-127.22 146.838,-117.995 142.223,-123.258"/>
</g>
<!-- Node4 -->
<g id="node4" class="node"><title>Node4</title>
<g id="a_node4"><a xlink:href="classwcmf_1_1lib_1_1model_1_1impl_1_1_dojo_node_serializer.html" target="_top" xlink:title="DojoNodeSerializer is used to serialize Nodes into the Dojo rest format and vice versa. ">
<polygon fill="white" stroke="black" points="138,-0.5 138,-90.5 242,-90.5 242,-0.5 138,-0.5"/>
<text text-anchor="middle" x="190" y="-78.5" font-family="Helvetica,sans-Serif" font-size="10.00">DojoNodeSerializer</text>
<polyline fill="none" stroke="black" points="138,-71.5 242,-71.5 "/>
<text text-anchor="middle" x="190" y="-59.5" font-family="Helvetica,sans-Serif" font-size="10.00"> </text>
<polyline fill="none" stroke="black" points="138,-52.5 242,-52.5 "/>
<text text-anchor="start" x="146" y="-40.5" font-family="Helvetica,sans-Serif" font-size="10.00">+ __construct()</text>
<text text-anchor="start" x="146" y="-29.5" font-family="Helvetica,sans-Serif" font-size="10.00">+ isSerializedNode()</text>
<text text-anchor="start" x="146" y="-18.5" font-family="Helvetica,sans-Serif" font-size="10.00">+ deserializeNode()</text>
<text text-anchor="start" x="146" y="-7.5" font-family="Helvetica,sans-Serif" font-size="10.00">+ serializeNode()</text>
</a>
</g>
</g>
<!-- Node1&#45;&gt;Node4 -->
<g id="edge3" class="edge"><title>Node1&#45;&gt;Node4</title>
<path fill="none" stroke="midnightblue" d="M190,-116.972C190,-108.346 190,-99.2838 190,-90.6378"/>
<polygon fill="none" stroke="midnightblue" points="186.5,-117.22 190,-127.22 193.5,-117.22 186.5,-117.22"/>
</g>
<!-- Node5 -->
<g id="node5" class="node"><title>Node5</title>
<g id="a_node5"><a xlink:href="classwcmf_1_1lib_1_1model_1_1impl_1_1_soap_node_serializer.html" target="_top" xlink:title="SoapNodeSerializer is used to serialize Nodes into the soap format and vice versa. ">
<polygon fill="white" stroke="black" points="260,-0.5 260,-90.5 364,-90.5 364,-0.5 260,-0.5"/>
<text text-anchor="middle" x="312" y="-78.5" font-family="Helvetica,sans-Serif" font-size="10.00">SoapNodeSerializer</text>
<polyline fill="none" stroke="black" points="260,-71.5 364,-71.5 "/>
<text text-anchor="middle" x="312" y="-59.5" font-family="Helvetica,sans-Serif" font-size="10.00"> </text>
<polyline fill="none" stroke="black" points="260,-52.5 364,-52.5 "/>
<text text-anchor="start" x="268" y="-40.5" font-family="Helvetica,sans-Serif" font-size="10.00">+ __construct()</text>
<text text-anchor="start" x="268" y="-29.5" font-family="Helvetica,sans-Serif" font-size="10.00">+ isSerializedNode()</text>
<text text-anchor="start" x="268" y="-18.5" font-family="Helvetica,sans-Serif" font-size="10.00">+ deserializeNode()</text>
<text text-anchor="start" x="268" y="-7.5" font-family="Helvetica,sans-Serif" font-size="10.00">+ serializeNode()</text>
</a>
</g>
</g>
<!-- Node1&#45;&gt;Node5 -->
<g id="edge4" class="edge"><title>Node1&#45;&gt;Node5</title>
<path fill="none" stroke="midnightblue" d="M232.957,-120.36C243.248,-110.744 254.292,-100.424 264.765,-90.6378"/>
<polygon fill="none" stroke="midnightblue" points="230.532,-117.835 225.615,-127.22 235.312,-122.95 230.532,-117.835"/>
</g>
<!-- Node2 -->
<g id="node2" class="node"><title>Node2</title>
<g id="a_node2"><a xlink:href="interfacewcmf_1_1lib_1_1model_1_1_node_serializer.html" target="_top" xlink:title="NodeSerializer implementations are used to serialize Nodes into an array representation or deserializ...">
<polygon fill="white" stroke="black" points="138,-232.5 138,-311.5 242,-311.5 242,-232.5 138,-232.5"/>
<text text-anchor="middle" x="190" y="-299.5" font-family="Helvetica,sans-Serif" font-size="10.00">NodeSerializer</text>
<polyline fill="none" stroke="black" points="138,-292.5 242,-292.5 "/>
<text text-anchor="middle" x="190" y="-280.5" font-family="Helvetica,sans-Serif" font-size="10.00"> </text>
<polyline fill="none" stroke="black" points="138,-273.5 242,-273.5 "/>
<text text-anchor="start" x="146" y="-261.5" font-family="Helvetica,sans-Serif" font-size="10.00">+ isSerializedNode()</text>
<text text-anchor="start" x="146" y="-250.5" font-family="Helvetica,sans-Serif" font-size="10.00">+ deserializeNode()</text>
<text text-anchor="start" x="146" y="-239.5" font-family="Helvetica,sans-Serif" font-size="10.00">+ serializeNode()</text>
</a>
</g>
</g>
<!-- Node2&#45;&gt;Node1 -->
<g id="edge1" class="edge"><title>Node2&#45;&gt;Node1</title>
<path fill="none" stroke="midnightblue" d="M190,-222.349C190,-213.282 190,-204.005 190,-195.544"/>
<polygon fill="none" stroke="midnightblue" points="186.5,-222.441 190,-232.441 193.5,-222.441 186.5,-222.441"/>
</g>
</g>
</svg>
