<?xml version="1.0" encoding="UTF-8" standalone="no"?>
<!DOCTYPE svg PUBLIC "-//W3C//DTD SVG 1.1//EN"
 "http://www.w3.org/Graphics/SVG/1.1/DTD/svg11.dtd">
<!-- Generated by graphviz version 2.38.0 (20140413.2041)
 -->
<!-- Title: ApplicationException Pages: 1 -->
<svg width="116pt" height="193pt"
 viewBox="0.00 0.00 116.00 193.00" xmlns="http://www.w3.org/2000/svg" xmlns:xlink="http://www.w3.org/1999/xlink">
<g id="graph0" class="graph" transform="scale(1 1) rotate(0) translate(4 189)">
<title>ApplicationException</title>
<polygon fill="white" stroke="none" points="-4,4 -4,-189 112,-189 112,4 -4,4"/>
<!-- Node1 -->
<g id="node1" class="node"><title>Node1</title>
<polygon fill="#bfbfbf" stroke="black" points="0,-0.5 0,-90.5 108,-90.5 108,-0.5 0,-0.5"/>
<text text-anchor="middle" x="54" y="-78.5" font-family="Helvetica,sans-Serif" font-size="10.00">ApplicationException</text>
<polyline fill="none" stroke="black" points="0,-71.5 108,-71.5 "/>
<text text-anchor="middle" x="54" y="-59.5" font-family="Helvetica,sans-Serif" font-size="10.00"> </text>
<polyline fill="none" stroke="black" points="0,-52.5 108,-52.5 "/>
<text text-anchor="start" x="8" y="-40.5" font-family="Helvetica,sans-Serif" font-size="10.00">+ __construct()</text>
<text text-anchor="start" x="8" y="-29.5" font-family="Helvetica,sans-Serif" font-size="10.00">+ getRequest()</text>
<text text-anchor="start" x="8" y="-18.5" font-family="Helvetica,sans-Serif" font-size="10.00">+ getResponse()</text>
<text text-anchor="start" x="8" y="-7.5" font-family="Helvetica,sans-Serif" font-size="10.00">+ getError()</text>
</g>
<!-- Node2 -->
<g id="node2" class="node"><title>Node2</title>
<polygon fill="white" stroke="#bfbfbf" points="24,-127.5 24,-184.5 84,-184.5 84,-127.5 24,-127.5"/>
<text text-anchor="middle" x="54" y="-172.5" font-family="Helvetica,sans-Serif" font-size="10.00">Exception</text>
<polyline fill="none" stroke="#bfbfbf" points="24,-165.5 84,-165.5 "/>
<text text-anchor="middle" x="54" y="-153.5" font-family="Helvetica,sans-Serif" font-size="10.00"> </text>
<polyline fill="none" stroke="#bfbfbf" points="24,-146.5 84,-146.5 "/>
<text text-anchor="middle" x="54" y="-134.5" font-family="Helvetica,sans-Serif" font-size="10.00"> </text>
</g>
<!-- Node2&#45;&gt;Node1 -->
<g id="edge1" class="edge"><title>Node2&#45;&gt;Node1</title>
<path fill="none" stroke="midnightblue" d="M54,-117.214C54,-108.609 54,-99.3943 54,-90.5541"/>
<polygon fill="none" stroke="midnightblue" points="50.5001,-117.34 54,-127.34 57.5001,-117.34 50.5001,-117.34"/>
</g>
</g>
</svg>
