<?xml version="1.0" encoding="UTF-8" standalone="no"?>
<!DOCTYPE svg PUBLIC "-//W3C//DTD SVG 1.1//EN"
 "http://www.w3.org/Graphics/SVG/1.1/DTD/svg11.dtd">
<!-- Generated by graphviz version 2.38.0 (20140413.2041)
 -->
<!-- Title: DefaultRequest Pages: 1 -->
<svg width="280pt" height="540pt"
 viewBox="0.00 0.00 279.50 540.00" xmlns="http://www.w3.org/2000/svg" xmlns:xlink="http://www.w3.org/1999/xlink">
<g id="graph0" class="graph" transform="scale(1 1) rotate(0) translate(4 536)">
<title>DefaultRequest</title>
<polygon fill="white" stroke="none" points="-4,4 -4,-536 275.5,-536 275.5,4 -4,4"/>
<!-- Node1 -->
<g id="node1" class="node"><title>Node1</title>
<polygon fill="#bfbfbf" stroke="black" points="79.5,-0.5 79.5,-112.5 198.5,-112.5 198.5,-0.5 79.5,-0.5"/>
<text text-anchor="middle" x="139" y="-100.5" font-family="Helvetica,sans-Serif" font-size="10.00">DefaultRequest</text>
<polyline fill="none" stroke="black" points="79.5,-93.5 198.5,-93.5 "/>
<text text-anchor="middle" x="139" y="-81.5" font-family="Helvetica,sans-Serif" font-size="10.00"> </text>
<polyline fill="none" stroke="black" points="79.5,-74.5 198.5,-74.5 "/>
<text text-anchor="start" x="87.5" y="-62.5" font-family="Helvetica,sans-Serif" font-size="10.00">+ __construct()</text>
<text text-anchor="start" x="87.5" y="-51.5" font-family="Helvetica,sans-Serif" font-size="10.00">+ initialize()</text>
<text text-anchor="start" x="87.5" y="-40.5" font-family="Helvetica,sans-Serif" font-size="10.00">+ getMethod()</text>
<text text-anchor="start" x="87.5" y="-29.5" font-family="Helvetica,sans-Serif" font-size="10.00">+ setResponseFormat()</text>
<text text-anchor="start" x="87.5" y="-18.5" font-family="Helvetica,sans-Serif" font-size="10.00">+ getResponseFormat()</text>
<text text-anchor="start" x="87.5" y="-7.5" font-family="Helvetica,sans-Serif" font-size="10.00">+ __toString()</text>
</g>
<!-- Node2 -->
<g id="node2" class="node"><title>Node2</title>
<g id="a_node2"><a xlink:href="classwcmf_1_1lib_1_1presentation_1_1impl_1_1_abstract_controller_message.html" target="_top" xlink:title="AbstractControllerMessage is the base class for request/response implementations. ...">
<polygon fill="white" stroke="black" points="0,-149.5 0,-327.5 134,-327.5 134,-149.5 0,-149.5"/>
<text text-anchor="middle" x="67" y="-315.5" font-family="Helvetica,sans-Serif" font-size="10.00">AbstractControllerMessage</text>
<polyline fill="none" stroke="black" points="0,-308.5 134,-308.5 "/>
<text text-anchor="middle" x="67" y="-296.5" font-family="Helvetica,sans-Serif" font-size="10.00"> </text>
<polyline fill="none" stroke="black" points="0,-289.5 134,-289.5 "/>
<text text-anchor="start" x="8" y="-277.5" font-family="Helvetica,sans-Serif" font-size="10.00">+ __construct()</text>
<text text-anchor="start" x="8" y="-266.5" font-family="Helvetica,sans-Serif" font-size="10.00">+ setSender()</text>
<text text-anchor="start" x="8" y="-255.5" font-family="Helvetica,sans-Serif" font-size="10.00">+ getSender()</text>
<text text-anchor="start" x="8" y="-244.5" font-family="Helvetica,sans-Serif" font-size="10.00">+ setContext()</text>
<text text-anchor="start" x="8" y="-233.5" font-family="Helvetica,sans-Serif" font-size="10.00">+ getContext()</text>
<text text-anchor="start" x="8" y="-222.5" font-family="Helvetica,sans-Serif" font-size="10.00">+ setAction()</text>
<text text-anchor="start" x="8" y="-211.5" font-family="Helvetica,sans-Serif" font-size="10.00">+ getAction()</text>
<text text-anchor="start" x="8" y="-200.5" font-family="Helvetica,sans-Serif" font-size="10.00">+ setFormat()</text>
<text text-anchor="start" x="8" y="-189.5" font-family="Helvetica,sans-Serif" font-size="10.00">+ getFormat()</text>
<text text-anchor="start" x="8" y="-178.5" font-family="Helvetica,sans-Serif" font-size="10.00">+ setHeader()</text>
<text text-anchor="start" x="8" y="-167.5" font-family="Helvetica,sans-Serif" font-size="10.00">and 22 more...</text>
<text text-anchor="start" x="8" y="-156.5" font-family="Helvetica,sans-Serif" font-size="10.00"># getFormatter()</text>
</a>
</g>
</g>
<!-- Node2&#45;&gt;Node1 -->
<g id="edge1" class="edge"><title>Node2&#45;&gt;Node1</title>
<path fill="none" stroke="midnightblue" d="M106,-139.999C109.731,-130.673 113.418,-121.455 116.9,-112.75"/>
<polygon fill="none" stroke="midnightblue" points="102.726,-138.761 102.262,-149.346 109.225,-141.361 102.726,-138.761"/>
</g>
<!-- Node3 -->
<g id="node3" class="node"><title>Node3</title>
<g id="a_node3"><a xlink:href="interfacewcmf_1_1lib_1_1presentation_1_1_controller_message.html" target="_top" xlink:title="Messages are sent between Controllers and are used to transfer data between them. ...">
<polygon fill="white" stroke="black" points="90,-364.5 90,-531.5 188,-531.5 188,-364.5 90,-364.5"/>
<text text-anchor="middle" x="139" y="-519.5" font-family="Helvetica,sans-Serif" font-size="10.00">ControllerMessage</text>
<polyline fill="none" stroke="black" points="90,-512.5 188,-512.5 "/>
<text text-anchor="middle" x="139" y="-500.5" font-family="Helvetica,sans-Serif" font-size="10.00"> </text>
<polyline fill="none" stroke="black" points="90,-493.5 188,-493.5 "/>
<text text-anchor="start" x="98" y="-481.5" font-family="Helvetica,sans-Serif" font-size="10.00">+ setSender()</text>
<text text-anchor="start" x="98" y="-470.5" font-family="Helvetica,sans-Serif" font-size="10.00">+ getSender()</text>
<text text-anchor="start" x="98" y="-459.5" font-family="Helvetica,sans-Serif" font-size="10.00">+ setContext()</text>
<text text-anchor="start" x="98" y="-448.5" font-family="Helvetica,sans-Serif" font-size="10.00">+ getContext()</text>
<text text-anchor="start" x="98" y="-437.5" font-family="Helvetica,sans-Serif" font-size="10.00">+ setAction()</text>
<text text-anchor="start" x="98" y="-426.5" font-family="Helvetica,sans-Serif" font-size="10.00">+ getAction()</text>
<text text-anchor="start" x="98" y="-415.5" font-family="Helvetica,sans-Serif" font-size="10.00">+ setFormat()</text>
<text text-anchor="start" x="98" y="-404.5" font-family="Helvetica,sans-Serif" font-size="10.00">+ getFormat()</text>
<text text-anchor="start" x="98" y="-393.5" font-family="Helvetica,sans-Serif" font-size="10.00">+ setHeader()</text>
<text text-anchor="start" x="98" y="-382.5" font-family="Helvetica,sans-Serif" font-size="10.00">+ setHeaders()</text>
<text text-anchor="start" x="98" y="-371.5" font-family="Helvetica,sans-Serif" font-size="10.00">and 20 more...</text>
</a>
</g>
</g>
<!-- Node3&#45;&gt;Node2 -->
<g id="edge2" class="edge"><title>Node3&#45;&gt;Node2</title>
<path fill="none" stroke="midnightblue" d="M106.968,-354.686C103.845,-345.685 100.681,-336.568 97.5732,-327.61"/>
<polygon fill="none" stroke="midnightblue" points="103.752,-356.094 110.337,-364.394 110.365,-353.799 103.752,-356.094"/>
</g>
<!-- Node4 -->
<g id="node4" class="node"><title>Node4</title>
<g id="a_node4"><a xlink:href="interfacewcmf_1_1lib_1_1presentation_1_1_request.html" target="_top" xlink:title="Request holds the request values that are used as input to Controller instances. ">
<polygon fill="white" stroke="black" points="152.5,-193.5 152.5,-283.5 271.5,-283.5 271.5,-193.5 152.5,-193.5"/>
<text text-anchor="middle" x="212" y="-271.5" font-family="Helvetica,sans-Serif" font-size="10.00">Request</text>
<polyline fill="none" stroke="black" points="152.5,-264.5 271.5,-264.5 "/>
<text text-anchor="middle" x="212" y="-252.5" font-family="Helvetica,sans-Serif" font-size="10.00"> </text>
<polyline fill="none" stroke="black" points="152.5,-245.5 271.5,-245.5 "/>
<text text-anchor="start" x="160.5" y="-233.5" font-family="Helvetica,sans-Serif" font-size="10.00">+ initialize()</text>
<text text-anchor="start" x="160.5" y="-222.5" font-family="Helvetica,sans-Serif" font-size="10.00">+ getMethod()</text>
<text text-anchor="start" x="160.5" y="-211.5" font-family="Helvetica,sans-Serif" font-size="10.00">+ setResponseFormat()</text>
<text text-anchor="start" x="160.5" y="-200.5" font-family="Helvetica,sans-Serif" font-size="10.00">+ getResponseFormat()</text>
</a>
</g>
</g>
<!-- Node3&#45;&gt;Node4 -->
<g id="edge4" class="edge"><title>Node3&#45;&gt;Node4</title>
<path fill="none" stroke="midnightblue" d="M171.382,-354.955C180.099,-330.178 189.133,-304.499 196.461,-283.668"/>
<polygon fill="none" stroke="midnightblue" points="168.078,-353.799 168.061,-364.394 174.682,-356.123 168.078,-353.799"/>
</g>
<!-- Node4&#45;&gt;Node1 -->
<g id="edge3" class="edge"><title>Node4&#45;&gt;Node1</title>
<path fill="none" stroke="midnightblue" d="M190.33,-184.067C181.202,-161.56 170.584,-135.377 161.381,-112.685"/>
<polygon fill="none" stroke="midnightblue" points="187.14,-185.516 194.142,-193.467 193.627,-182.885 187.14,-185.516"/>
</g>
</g>
</svg>
