<?xml version="1.0" encoding="UTF-8" standalone="no"?>
<!DOCTYPE svg PUBLIC "-//W3C//DTD SVG 1.1//EN"
 "http://www.w3.org/Graphics/SVG/1.1/DTD/svg11.dtd">
<!-- Generated by graphviz version 2.38.0 (20140413.2041)
 -->
<!-- Title: NullNode Pages: 1 -->
<svg width="203pt" height="821pt"
 viewBox="0.00 0.00 202.50 821.00" xmlns="http://www.w3.org/2000/svg" xmlns:xlink="http://www.w3.org/1999/xlink">
<g id="graph0" class="graph" transform="scale(1 1) rotate(0) translate(4 817)">
<title>NullNode</title>
<polygon fill="white" stroke="none" points="-4,4 -4,-817 198.5,-817 198.5,4 -4,4"/>
<!-- Node1 -->
<g id="node1" class="node"><title>Node1</title>
<polygon fill="#bfbfbf" stroke="black" points="74,-0.5 74,-57.5 136,-57.5 136,-0.5 74,-0.5"/>
<text text-anchor="middle" x="105" y="-45.5" font-family="Helvetica,sans-Serif" font-size="10.00">NullNode</text>
<polyline fill="none" stroke="black" points="74,-38.5 136,-38.5 "/>
<text text-anchor="middle" x="105" y="-26.5" font-family="Helvetica,sans-Serif" font-size="10.00"> </text>
<polyline fill="none" stroke="black" points="74,-19.5 136,-19.5 "/>
<text text-anchor="start" x="82" y="-7.5" font-family="Helvetica,sans-Serif" font-size="10.00">+ getOID()</text>
</g>
<!-- Node2 -->
<g id="node2" class="node"><title>Node2</title>
<g id="a_node2"><a xlink:href="classwcmf_1_1lib_1_1model_1_1_node.html" target="_top" xlink:title="Node adds the concept of relations to PersistentObject. ">
<polygon fill="white" stroke="black" points="15.5,-94.5 15.5,-338.5 194.5,-338.5 194.5,-94.5 15.5,-94.5"/>
<text text-anchor="middle" x="105" y="-326.5" font-family="Helvetica,sans-Serif" font-size="10.00">Node</text>
<polyline fill="none" stroke="black" points="15.5,-319.5 194.5,-319.5 "/>
<text text-anchor="start" x="23.5" y="-307.5" font-family="Helvetica,sans-Serif" font-size="10.00">+ RELATION_STATE_UNINITIALIZED</text>
<text text-anchor="start" x="23.5" y="-296.5" font-family="Helvetica,sans-Serif" font-size="10.00">+ RELATION_STATE_INITIALIZING</text>
<text text-anchor="start" x="23.5" y="-285.5" font-family="Helvetica,sans-Serif" font-size="10.00">+ RELATION_STATE_INITIALIZED</text>
<text text-anchor="start" x="23.5" y="-274.5" font-family="Helvetica,sans-Serif" font-size="10.00">+ RELATION_STATE_LOADED</text>
<polyline fill="none" stroke="black" points="15.5,-267.5 194.5,-267.5 "/>
<text text-anchor="start" x="23.5" y="-255.5" font-family="Helvetica,sans-Serif" font-size="10.00">+ __construct()</text>
<text text-anchor="start" x="23.5" y="-244.5" font-family="Helvetica,sans-Serif" font-size="10.00">+ getValueNames()</text>
<text text-anchor="start" x="23.5" y="-233.5" font-family="Helvetica,sans-Serif" font-size="10.00">+ getValue()</text>
<text text-anchor="start" x="23.5" y="-222.5" font-family="Helvetica,sans-Serif" font-size="10.00">+ setValue()</text>
<text text-anchor="start" x="23.5" y="-211.5" font-family="Helvetica,sans-Serif" font-size="10.00">+ getIndispensableObjects()</text>
<text text-anchor="start" x="23.5" y="-200.5" font-family="Helvetica,sans-Serif" font-size="10.00">+ mergeValues()</text>
<text text-anchor="start" x="23.5" y="-189.5" font-family="Helvetica,sans-Serif" font-size="10.00">+ getNumChildren()</text>
<text text-anchor="start" x="23.5" y="-178.5" font-family="Helvetica,sans-Serif" font-size="10.00">+ addNode()</text>
<text text-anchor="start" x="23.5" y="-167.5" font-family="Helvetica,sans-Serif" font-size="10.00">+ getAddedNodes()</text>
<text text-anchor="start" x="23.5" y="-156.5" font-family="Helvetica,sans-Serif" font-size="10.00">+ deleteNode()</text>
<text text-anchor="start" x="23.5" y="-145.5" font-family="Helvetica,sans-Serif" font-size="10.00">and 22 more...</text>
<text text-anchor="start" x="23.5" y="-134.5" font-family="Helvetica,sans-Serif" font-size="10.00">+ filter()</text>
<text text-anchor="start" x="23.5" y="-123.5" font-family="Helvetica,sans-Serif" font-size="10.00"># loadRelations()</text>
<text text-anchor="start" x="23.5" y="-112.5" font-family="Helvetica,sans-Serif" font-size="10.00"># getRelations()</text>
<text text-anchor="start" x="23.5" y="-101.5" font-family="Helvetica,sans-Serif" font-size="10.00"># mergeObjectLists()</text>
</a>
</g>
</g>
<!-- Node2&#45;&gt;Node1 -->
<g id="edge1" class="edge"><title>Node2&#45;&gt;Node1</title>
<path fill="none" stroke="midnightblue" d="M105,-84.3398C105,-74.5323 105,-65.4208 105,-57.5694"/>
<polygon fill="none" stroke="midnightblue" points="101.5,-84.3583 105,-94.3583 108.5,-84.3583 101.5,-84.3583"/>
</g>
<!-- Node3 -->
<g id="node3" class="node"><title>Node3</title>
<g id="a_node3"><a xlink:href="classwcmf_1_1lib_1_1persistence_1_1impl_1_1_default_persistent_object.html" target="_top" xlink:title="DefaultPersistentObject is the base class of all persistent objects. ">
<polygon fill="white" stroke="black" points="16.5,-375.5 16.5,-575.5 193.5,-575.5 193.5,-375.5 16.5,-375.5"/>
<text text-anchor="middle" x="105" y="-563.5" font-family="Helvetica,sans-Serif" font-size="10.00">DefaultPersistentObject</text>
<polyline fill="none" stroke="black" points="16.5,-556.5 193.5,-556.5 "/>
<text text-anchor="middle" x="105" y="-544.5" font-family="Helvetica,sans-Serif" font-size="10.00"> </text>
<polyline fill="none" stroke="black" points="16.5,-537.5 193.5,-537.5 "/>
<text text-anchor="start" x="24.5" y="-525.5" font-family="Helvetica,sans-Serif" font-size="10.00">+ __construct()</text>
<text text-anchor="start" x="24.5" y="-514.5" font-family="Helvetica,sans-Serif" font-size="10.00">+ initialize()</text>
<text text-anchor="start" x="24.5" y="-503.5" font-family="Helvetica,sans-Serif" font-size="10.00">+ getType()</text>
<text text-anchor="start" x="24.5" y="-492.5" font-family="Helvetica,sans-Serif" font-size="10.00">+ getMapper()</text>
<text text-anchor="start" x="24.5" y="-481.5" font-family="Helvetica,sans-Serif" font-size="10.00">+ getOID()</text>
<text text-anchor="start" x="24.5" y="-470.5" font-family="Helvetica,sans-Serif" font-size="10.00">+ setOID()</text>
<text text-anchor="start" x="24.5" y="-459.5" font-family="Helvetica,sans-Serif" font-size="10.00">+ getState()</text>
<text text-anchor="start" x="24.5" y="-448.5" font-family="Helvetica,sans-Serif" font-size="10.00">+ setState()</text>
<text text-anchor="start" x="24.5" y="-437.5" font-family="Helvetica,sans-Serif" font-size="10.00">+ delete()</text>
<text text-anchor="start" x="24.5" y="-426.5" font-family="Helvetica,sans-Serif" font-size="10.00">+ __clone()</text>
<text text-anchor="start" x="24.5" y="-415.5" font-family="Helvetica,sans-Serif" font-size="10.00">and 32 more...</text>
<text text-anchor="start" x="24.5" y="-404.5" font-family="Helvetica,sans-Serif" font-size="10.00"># setOIDInternal()</text>
<text text-anchor="start" x="24.5" y="-393.5" font-family="Helvetica,sans-Serif" font-size="10.00"># setValueInternal()</text>
<text text-anchor="start" x="24.5" y="-382.5" font-family="Helvetica,sans-Serif" font-size="10.00"># validateValueAgainstValidateType()</text>
</a>
</g>
</g>
<!-- Node3&#45;&gt;Node2 -->
<g id="edge2" class="edge"><title>Node3&#45;&gt;Node2</title>
<path fill="none" stroke="midnightblue" d="M105,-365.053C105,-356.408 105,-347.646 105,-338.927"/>
<polygon fill="none" stroke="midnightblue" points="101.5,-365.137 105,-375.137 108.5,-365.137 101.5,-365.137"/>
</g>
<!-- Node4 -->
<g id="node4" class="node"><title>Node4</title>
<g id="a_node4"><a xlink:href="interfacewcmf_1_1lib_1_1persistence_1_1_persistent_object.html" target="_top" xlink:title="PersistentObject defines the interface of all persistent objects. ">
<polygon fill="white" stroke="black" points="0,-612.5 0,-812.5 106,-812.5 106,-612.5 0,-612.5"/>
<text text-anchor="middle" x="53" y="-800.5" font-family="Helvetica,sans-Serif" font-size="10.00">PersistentObject</text>
<polyline fill="none" stroke="black" points="0,-793.5 106,-793.5 "/>
<text text-anchor="start" x="8" y="-781.5" font-family="Helvetica,sans-Serif" font-size="10.00">+ STATE_CLEAN</text>
<text text-anchor="start" x="8" y="-770.5" font-family="Helvetica,sans-Serif" font-size="10.00">+ STATE_DIRTY</text>
<text text-anchor="start" x="8" y="-759.5" font-family="Helvetica,sans-Serif" font-size="10.00">+ STATE_NEW</text>
<text text-anchor="start" x="8" y="-748.5" font-family="Helvetica,sans-Serif" font-size="10.00">+ STATE_DELETED</text>
<polyline fill="none" stroke="black" points="0,-741.5 106,-741.5 "/>
<text text-anchor="start" x="8" y="-729.5" font-family="Helvetica,sans-Serif" font-size="10.00">+ initialize()</text>
<text text-anchor="start" x="8" y="-718.5" font-family="Helvetica,sans-Serif" font-size="10.00">+ getType()</text>
<text text-anchor="start" x="8" y="-707.5" font-family="Helvetica,sans-Serif" font-size="10.00">+ getMapper()</text>
<text text-anchor="start" x="8" y="-696.5" font-family="Helvetica,sans-Serif" font-size="10.00">+ getOID()</text>
<text text-anchor="start" x="8" y="-685.5" font-family="Helvetica,sans-Serif" font-size="10.00">+ setOID()</text>
<text text-anchor="start" x="8" y="-674.5" font-family="Helvetica,sans-Serif" font-size="10.00">+ getState()</text>
<text text-anchor="start" x="8" y="-663.5" font-family="Helvetica,sans-Serif" font-size="10.00">+ setState()</text>
<text text-anchor="start" x="8" y="-652.5" font-family="Helvetica,sans-Serif" font-size="10.00">+ delete()</text>
<text text-anchor="start" x="8" y="-641.5" font-family="Helvetica,sans-Serif" font-size="10.00">+ __clone()</text>
<text text-anchor="start" x="8" y="-630.5" font-family="Helvetica,sans-Serif" font-size="10.00">+ copyValues()</text>
<text text-anchor="start" x="8" y="-619.5" font-family="Helvetica,sans-Serif" font-size="10.00">and 28 more...</text>
</a>
</g>
</g>
<!-- Node4&#45;&gt;Node3 -->
<g id="edge3" class="edge"><title>Node4&#45;&gt;Node3</title>
<path fill="none" stroke="midnightblue" d="M77.1707,-602.267C79.1207,-593.454 81.0846,-584.579 83.018,-575.842"/>
<polygon fill="none" stroke="midnightblue" points="73.7206,-601.659 74.9773,-612.179 80.5552,-603.172 73.7206,-601.659"/>
</g>
<!-- Node5 -->
<g id="node5" class="node"><title>Node5</title>
<polygon fill="white" stroke="#bfbfbf" points="124.5,-684 124.5,-741 191.5,-741 191.5,-684 124.5,-684"/>
<text text-anchor="middle" x="158" y="-729" font-family="Helvetica,sans-Serif" font-size="10.00">Serializable</text>
<polyline fill="none" stroke="#bfbfbf" points="124.5,-722 191.5,-722 "/>
<text text-anchor="middle" x="158" y="-710" font-family="Helvetica,sans-Serif" font-size="10.00"> </text>
<polyline fill="none" stroke="#bfbfbf" points="124.5,-703 191.5,-703 "/>
<text text-anchor="middle" x="158" y="-691" font-family="Helvetica,sans-Serif" font-size="10.00"> </text>
</g>
<!-- Node5&#45;&gt;Node3 -->
<g id="edge4" class="edge"><title>Node5&#45;&gt;Node3</title>
<path fill="none" stroke="midnightblue" d="M149.456,-673.617C143.468,-647.066 135.171,-610.275 127.364,-575.661"/>
<polygon fill="none" stroke="midnightblue" points="146.098,-674.635 151.712,-683.62 152.926,-673.095 146.098,-674.635"/>
</g>
</g>
</svg>
