<?xml version="1.0" encoding="UTF-8" standalone="no"?>
<!DOCTYPE svg PUBLIC "-//W3C//DTD SVG 1.1//EN"
 "http://www.w3.org/Graphics/SVG/1.1/DTD/svg11.dtd">
<!-- Generated by graphviz version 2.38.0 (20140413.2041)
 -->
<!-- Title: StateChangeEvent Pages: 1 -->
<svg width="110pt" height="204pt"
 viewBox="0.00 0.00 110.00 204.00" xmlns="http://www.w3.org/2000/svg" xmlns:xlink="http://www.w3.org/1999/xlink">
<g id="graph0" class="graph" transform="scale(1 1) rotate(0) translate(4 200)">
<title>StateChangeEvent</title>
<polygon fill="white" stroke="none" points="-4,4 -4,-200 106,-200 106,4 -4,4"/>
<!-- Node1 -->
<g id="node1" class="node"><title>Node1</title>
<polygon fill="#bfbfbf" stroke="black" points="2.5,-0.5 2.5,-90.5 99.5,-90.5 99.5,-0.5 2.5,-0.5"/>
<text text-anchor="middle" x="51" y="-78.5" font-family="Helvetica,sans-Serif" font-size="10.00">StateChangeEvent</text>
<polyline fill="none" stroke="black" points="2.5,-71.5 99.5,-71.5 "/>
<text text-anchor="start" x="10.5" y="-59.5" font-family="Helvetica,sans-Serif" font-size="10.00">+ NAME</text>
<polyline fill="none" stroke="black" points="2.5,-52.5 99.5,-52.5 "/>
<text text-anchor="start" x="10.5" y="-40.5" font-family="Helvetica,sans-Serif" font-size="10.00">+ __construct()</text>
<text text-anchor="start" x="10.5" y="-29.5" font-family="Helvetica,sans-Serif" font-size="10.00">+ getObject()</text>
<text text-anchor="start" x="10.5" y="-18.5" font-family="Helvetica,sans-Serif" font-size="10.00">+ getOldValue()</text>
<text text-anchor="start" x="10.5" y="-7.5" font-family="Helvetica,sans-Serif" font-size="10.00">+ getNewValue()</text>
</g>
<!-- Node2 -->
<g id="node2" class="node"><title>Node2</title>
<g id="a_node2"><a xlink:href="classwcmf_1_1lib_1_1core_1_1_event.html" target="_top" xlink:title="Event is the base class for all events. ">
<polygon fill="white" stroke="black" points="0,-127.5 0,-195.5 102,-195.5 102,-127.5 0,-127.5"/>
<text text-anchor="middle" x="51" y="-183.5" font-family="Helvetica,sans-Serif" font-size="10.00">Event</text>
<polyline fill="none" stroke="black" points="0,-176.5 102,-176.5 "/>
<text text-anchor="middle" x="51" y="-164.5" font-family="Helvetica,sans-Serif" font-size="10.00"> </text>
<polyline fill="none" stroke="black" points="0,-157.5 102,-157.5 "/>
<text text-anchor="start" x="8" y="-145.5" font-family="Helvetica,sans-Serif" font-size="10.00">+ stopPropagation()</text>
<text text-anchor="start" x="8" y="-134.5" font-family="Helvetica,sans-Serif" font-size="10.00">+ isStopped()</text>
</a>
</g>
</g>
<!-- Node2&#45;&gt;Node1 -->
<g id="edge1" class="edge"><title>Node2&#45;&gt;Node1</title>
<path fill="none" stroke="midnightblue" d="M51,-116.972C51,-108.346 51,-99.2838 51,-90.6378"/>
<polygon fill="none" stroke="midnightblue" points="47.5001,-117.22 51,-127.22 54.5001,-117.22 47.5001,-117.22"/>
</g>
</g>
</svg>
