<?xml version="1.0" encoding="UTF-8" standalone="no"?>
<!DOCTYPE svg PUBLIC "-//W3C//DTD SVG 1.1//EN"
 "http://www.w3.org/Graphics/SVG/1.1/DTD/svg11.dtd">
<!-- Generated by graphviz version 2.38.0 (20140413.2041)
 -->
<!-- Title: IllegalArgumentException Pages: 1 -->
<svg width="135pt" height="160pt"
 viewBox="0.00 0.00 135.00 160.00" xmlns="http://www.w3.org/2000/svg" xmlns:xlink="http://www.w3.org/1999/xlink">
<g id="graph0" class="graph" transform="scale(1 1) rotate(0) translate(4 156)">
<title>IllegalArgumentException</title>
<polygon fill="white" stroke="none" points="-4,4 -4,-156 131,-156 131,4 -4,4"/>
<!-- Node1 -->
<g id="node1" class="node"><title>Node1</title>
<polygon fill="#bfbfbf" stroke="black" points="0,-0.5 0,-57.5 127,-57.5 127,-0.5 0,-0.5"/>
<text text-anchor="middle" x="63.5" y="-45.5" font-family="Helvetica,sans-Serif" font-size="10.00">IllegalArgumentException</text>
<polyline fill="none" stroke="black" points="0,-38.5 127,-38.5 "/>
<text text-anchor="middle" x="63.5" y="-26.5" font-family="Helvetica,sans-Serif" font-size="10.00"> </text>
<polyline fill="none" stroke="black" points="0,-19.5 127,-19.5 "/>
<text text-anchor="middle" x="63.5" y="-7.5" font-family="Helvetica,sans-Serif" font-size="10.00"> </text>
</g>
<!-- Node2 -->
<g id="node2" class="node"><title>Node2</title>
<polygon fill="white" stroke="#bfbfbf" points="33.5,-94.5 33.5,-151.5 93.5,-151.5 93.5,-94.5 33.5,-94.5"/>
<text text-anchor="middle" x="63.5" y="-139.5" font-family="Helvetica,sans-Serif" font-size="10.00">Exception</text>
<polyline fill="none" stroke="#bfbfbf" points="33.5,-132.5 93.5,-132.5 "/>
<text text-anchor="middle" x="63.5" y="-120.5" font-family="Helvetica,sans-Serif" font-size="10.00"> </text>
<polyline fill="none" stroke="#bfbfbf" points="33.5,-113.5 93.5,-113.5 "/>
<text text-anchor="middle" x="63.5" y="-101.5" font-family="Helvetica,sans-Serif" font-size="10.00"> </text>
</g>
<!-- Node2&#45;&gt;Node1 -->
<g id="edge1" class="edge"><title>Node2&#45;&gt;Node1</title>
<path fill="none" stroke="midnightblue" d="M63.5,-84.2092C63.5,-75.2929 63.5,-65.9513 63.5,-57.5836"/>
<polygon fill="none" stroke="midnightblue" points="60.0001,-84.3969 63.5,-94.397 67.0001,-84.397 60.0001,-84.3969"/>
</g>
</g>
</svg>
