<?xml version="1.0" encoding="UTF-8" standalone="no"?>
<!DOCTYPE svg PUBLIC "-//W3C//DTD SVG 1.1//EN"
 "http://www.w3.org/Graphics/SVG/1.1/DTD/svg11.dtd">
<!-- Generated by graphviz version 2.38.0 (20140413.2041)
 -->
<!-- Title: Controller Pages: 1 -->
<svg width="2616pt" height="716pt"
 viewBox="0.00 0.00 2615.50 716.00" xmlns="http://www.w3.org/2000/svg" xmlns:xlink="http://www.w3.org/1999/xlink">
<g id="graph0" class="graph" transform="scale(1 1) rotate(0) translate(4 712)">
<title>Controller</title>
<polygon fill="white" stroke="none" points="-4,4 -4,-712 2611.5,-712 2611.5,4 -4,4"/>
<!-- Node1 -->
<g id="node1" class="node"><title>Node1</title>
<polygon fill="#bfbfbf" stroke="black" points="1196.5,-463.5 1196.5,-707.5 1340.5,-707.5 1340.5,-463.5 1196.5,-463.5"/>
<text text-anchor="middle" x="1268.5" y="-695.5" font-family="Helvetica,sans-Serif" font-size="10.00">Controller</text>
<polyline fill="none" stroke="black" points="1196.5,-688.5 1340.5,-688.5 "/>
<text text-anchor="middle" x="1268.5" y="-676.5" font-family="Helvetica,sans-Serif" font-size="10.00"> </text>
<polyline fill="none" stroke="black" points="1196.5,-669.5 1340.5,-669.5 "/>
<text text-anchor="start" x="1204.5" y="-657.5" font-family="Helvetica,sans-Serif" font-size="10.00">+ __construct()</text>
<text text-anchor="start" x="1204.5" y="-646.5" font-family="Helvetica,sans-Serif" font-size="10.00">+ initialize()</text>
<text text-anchor="start" x="1204.5" y="-635.5" font-family="Helvetica,sans-Serif" font-size="10.00">+ execute()</text>
<text text-anchor="start" x="1204.5" y="-624.5" font-family="Helvetica,sans-Serif" font-size="10.00">+ getRequest()</text>
<text text-anchor="start" x="1204.5" y="-613.5" font-family="Helvetica,sans-Serif" font-size="10.00">+ getResponse()</text>
<text text-anchor="start" x="1204.5" y="-602.5" font-family="Helvetica,sans-Serif" font-size="10.00"># validate()</text>
<text text-anchor="start" x="1204.5" y="-591.5" font-family="Helvetica,sans-Serif" font-size="10.00"># executeSubAction()</text>
<text text-anchor="start" x="1204.5" y="-580.5" font-family="Helvetica,sans-Serif" font-size="10.00"># getLogger()</text>
<text text-anchor="start" x="1204.5" y="-569.5" font-family="Helvetica,sans-Serif" font-size="10.00"># getSession()</text>
<text text-anchor="start" x="1204.5" y="-558.5" font-family="Helvetica,sans-Serif" font-size="10.00"># getPersistenceFacade()</text>
<text text-anchor="start" x="1204.5" y="-547.5" font-family="Helvetica,sans-Serif" font-size="10.00"># getPermissionManager()</text>
<text text-anchor="start" x="1204.5" y="-536.5" font-family="Helvetica,sans-Serif" font-size="10.00"># getActionMapper()</text>
<text text-anchor="start" x="1204.5" y="-525.5" font-family="Helvetica,sans-Serif" font-size="10.00"># getLocalization()</text>
<text text-anchor="start" x="1204.5" y="-514.5" font-family="Helvetica,sans-Serif" font-size="10.00"># getMessage()</text>
<text text-anchor="start" x="1204.5" y="-503.5" font-family="Helvetica,sans-Serif" font-size="10.00"># getConfiguration()</text>
<text text-anchor="start" x="1204.5" y="-492.5" font-family="Helvetica,sans-Serif" font-size="10.00"># assignResponseDefaults()</text>
<text text-anchor="start" x="1204.5" y="-481.5" font-family="Helvetica,sans-Serif" font-size="10.00"># isLocalizedRequest()</text>
<text text-anchor="start" x="1204.5" y="-470.5" font-family="Helvetica,sans-Serif" font-size="10.00"># checkLanguageParameter()</text>
</g>
<!-- Node2 -->
<g id="node2" class="node"><title>Node2</title>
<g id="a_node2"><a xlink:href="classwcmf_1_1application_1_1controller_1_1_associate_controller.html" target="_top" xlink:title="AssociateController is used to (dis&#45;)associates Node instances, e.g. ">
<polygon fill="white" stroke="black" points="50,-298 50,-366 151,-366 151,-298 50,-298"/>
<text text-anchor="middle" x="100.5" y="-354" font-family="Helvetica,sans-Serif" font-size="10.00">AssociateController</text>
<polyline fill="none" stroke="black" points="50,-347 151,-347 "/>
<text text-anchor="middle" x="100.5" y="-335" font-family="Helvetica,sans-Serif" font-size="10.00"> </text>
<polyline fill="none" stroke="black" points="50,-328 151,-328 "/>
<text text-anchor="start" x="58" y="-316" font-family="Helvetica,sans-Serif" font-size="10.00"># validate()</text>
<text text-anchor="start" x="58" y="-305" font-family="Helvetica,sans-Serif" font-size="10.00"># doExecute()</text>
</a>
</g>
</g>
<!-- Node1&#45;&gt;Node2 -->
<g id="edge1" class="edge"><title>Node1&#45;&gt;Node2</title>
<path fill="none" stroke="midnightblue" d="M1186.24,-581.667C959.257,-572.489 329.693,-537.457 159.5,-427 137.519,-412.734 122.242,-387.097 112.749,-366.196"/>
<polygon fill="none" stroke="midnightblue" points="1186.29,-585.171 1196.42,-582.072 1186.56,-578.177 1186.29,-585.171"/>
</g>
<!-- Node3 -->
<g id="node3" class="node"><title>Node3</title>
<g id="a_node3"><a xlink:href="classwcmf_1_1application_1_1controller_1_1_batch_controller.html" target="_top" xlink:title="BatchController is used to process complex, longer running actions, that need to be divided into seve...">
<polygon fill="white" stroke="black" points="169,-237.5 169,-426.5 348,-426.5 348,-237.5 169,-237.5"/>
<text text-anchor="middle" x="258.5" y="-414.5" font-family="Helvetica,sans-Serif" font-size="10.00">BatchController</text>
<polyline fill="none" stroke="black" points="169,-407.5 348,-407.5 "/>
<text text-anchor="start" x="177" y="-395.5" font-family="Helvetica,sans-Serif" font-size="10.00">+ ONE_CALL_SESSION_VARNAME</text>
<text text-anchor="start" x="177" y="-384.5" font-family="Helvetica,sans-Serif" font-size="10.00">+ STEP_SESSION_VARNAME</text>
<text text-anchor="start" x="177" y="-373.5" font-family="Helvetica,sans-Serif" font-size="10.00">+ NUM_STEPS_VARNAME</text>
<text text-anchor="start" x="177" y="-362.5" font-family="Helvetica,sans-Serif" font-size="10.00">+ DOWNLOAD_STEP</text>
<text text-anchor="start" x="177" y="-351.5" font-family="Helvetica,sans-Serif" font-size="10.00">+ WORK_PACKAGES_VARNAME</text>
<polyline fill="none" stroke="black" points="169,-344.5 348,-344.5 "/>
<text text-anchor="start" x="177" y="-332.5" font-family="Helvetica,sans-Serif" font-size="10.00">+ initialize()</text>
<text text-anchor="start" x="177" y="-321.5" font-family="Helvetica,sans-Serif" font-size="10.00"># doExecute()</text>
<text text-anchor="start" x="177" y="-310.5" font-family="Helvetica,sans-Serif" font-size="10.00"># getStepNumber()</text>
<text text-anchor="start" x="177" y="-299.5" font-family="Helvetica,sans-Serif" font-size="10.00"># addWorkPackage()</text>
<text text-anchor="start" x="177" y="-288.5" font-family="Helvetica,sans-Serif" font-size="10.00"># processPart()</text>
<text text-anchor="start" x="177" y="-277.5" font-family="Helvetica,sans-Serif" font-size="10.00"># getNumberOfSteps()</text>
<text text-anchor="start" x="177" y="-266.5" font-family="Helvetica,sans-Serif" font-size="10.00"># getDisplayText()</text>
<text text-anchor="start" x="177" y="-255.5" font-family="Helvetica,sans-Serif" font-size="10.00"># getDownloadFile()</text>
<text text-anchor="start" x="177" y="-244.5" font-family="Helvetica,sans-Serif" font-size="10.00"># getWorkPackage()</text>
</a>
</g>
</g>
<!-- Node1&#45;&gt;Node3 -->
<g id="edge2" class="edge"><title>Node1&#45;&gt;Node3</title>
<path fill="none" stroke="midnightblue" d="M1186.11,-576.497C990.205,-556.481 502.061,-500.536 356.5,-427 353.659,-425.565 350.846,-424.02 348.064,-422.38"/>
<polygon fill="none" stroke="midnightblue" points="1186.04,-580.008 1196.34,-577.537 1186.75,-573.043 1186.04,-580.008"/>
</g>
<!-- Node8 -->
<g id="node8" class="node"><title>Node8</title>
<g id="a_node8"><a xlink:href="classwcmf_1_1application_1_1controller_1_1_concurrency_controller.html" target="_top" xlink:title="ConcurrencyController is used to lock/unlock objects. ">
<polygon fill="white" stroke="black" points="366,-292.5 366,-371.5 479,-371.5 479,-292.5 366,-292.5"/>
<text text-anchor="middle" x="422.5" y="-359.5" font-family="Helvetica,sans-Serif" font-size="10.00">ConcurrencyController</text>
<polyline fill="none" stroke="black" points="366,-352.5 479,-352.5 "/>
<text text-anchor="middle" x="422.5" y="-340.5" font-family="Helvetica,sans-Serif" font-size="10.00"> </text>
<polyline fill="none" stroke="black" points="366,-333.5 479,-333.5 "/>
<text text-anchor="start" x="374" y="-321.5" font-family="Helvetica,sans-Serif" font-size="10.00">+ __construct()</text>
<text text-anchor="start" x="374" y="-310.5" font-family="Helvetica,sans-Serif" font-size="10.00"># validate()</text>
<text text-anchor="start" x="374" y="-299.5" font-family="Helvetica,sans-Serif" font-size="10.00"># doExecute()</text>
</a>
</g>
</g>
<!-- Node1&#45;&gt;Node8 -->
<g id="edge7" class="edge"><title>Node1&#45;&gt;Node8</title>
<path fill="none" stroke="midnightblue" d="M1186.2,-575.667C1010.11,-555.538 603.424,-502.121 488.5,-427 467.97,-413.58 451.932,-391.356 440.809,-371.886"/>
<polygon fill="none" stroke="midnightblue" points="1185.87,-579.151 1196.2,-576.802 1186.65,-572.196 1185.87,-579.151"/>
</g>
<!-- Node9 -->
<g id="node9" class="node"><title>Node9</title>
<g id="a_node9"><a xlink:href="classwcmf_1_1application_1_1controller_1_1_delete_controller.html" target="_top" xlink:title="DeleteController is used to delete Node instances. ">
<polygon fill="white" stroke="black" points="497.5,-287 497.5,-377 587.5,-377 587.5,-287 497.5,-287"/>
<text text-anchor="middle" x="542.5" y="-365" font-family="Helvetica,sans-Serif" font-size="10.00">DeleteController</text>
<polyline fill="none" stroke="black" points="497.5,-358 587.5,-358 "/>
<text text-anchor="middle" x="542.5" y="-346" font-family="Helvetica,sans-Serif" font-size="10.00"> </text>
<polyline fill="none" stroke="black" points="497.5,-339 587.5,-339 "/>
<text text-anchor="start" x="505.5" y="-327" font-family="Helvetica,sans-Serif" font-size="10.00"># validate()</text>
<text text-anchor="start" x="505.5" y="-316" font-family="Helvetica,sans-Serif" font-size="10.00"># doExecute()</text>
<text text-anchor="start" x="505.5" y="-305" font-family="Helvetica,sans-Serif" font-size="10.00"># confirmDelete()</text>
<text text-anchor="start" x="505.5" y="-294" font-family="Helvetica,sans-Serif" font-size="10.00"># afterDelete()</text>
</a>
</g>
</g>
<!-- Node1&#45;&gt;Node9 -->
<g id="edge8" class="edge"><title>Node1&#45;&gt;Node9</title>
<path fill="none" stroke="midnightblue" d="M1186.33,-573.553C1028.4,-551.195 689.858,-496.479 596.5,-427 579.741,-414.528 567.363,-395.199 558.718,-377.304"/>
<polygon fill="none" stroke="midnightblue" points="1186.07,-577.051 1196.46,-574.978 1187.05,-570.12 1186.07,-577.051"/>
</g>
<!-- Node10 -->
<g id="node10" class="node"><title>Node10</title>
<g id="a_node10"><a xlink:href="classwcmf_1_1application_1_1controller_1_1_display_controller.html" target="_top" xlink:title="DisplayController is used to read a Node instance. ">
<polygon fill="white" stroke="black" points="605.5,-298 605.5,-366 695.5,-366 695.5,-298 605.5,-298"/>
<text text-anchor="middle" x="650.5" y="-354" font-family="Helvetica,sans-Serif" font-size="10.00">DisplayController</text>
<polyline fill="none" stroke="black" points="605.5,-347 695.5,-347 "/>
<text text-anchor="middle" x="650.5" y="-335" font-family="Helvetica,sans-Serif" font-size="10.00"> </text>
<polyline fill="none" stroke="black" points="605.5,-328 695.5,-328 "/>
<text text-anchor="start" x="613.5" y="-316" font-family="Helvetica,sans-Serif" font-size="10.00"># validate()</text>
<text text-anchor="start" x="613.5" y="-305" font-family="Helvetica,sans-Serif" font-size="10.00"># doExecute()</text>
</a>
</g>
</g>
<!-- Node1&#45;&gt;Node10 -->
<g id="edge9" class="edge"><title>Node1&#45;&gt;Node10</title>
<path fill="none" stroke="midnightblue" d="M1186.14,-580.721C1067.93,-571.381 848.582,-539.017 704.5,-427 684.59,-411.521 670.728,-386.492 662.037,-366.151"/>
<polygon fill="none" stroke="midnightblue" points="1185.98,-584.218 1196.21,-581.48 1186.5,-577.238 1185.98,-584.218"/>
</g>
<!-- Node11 -->
<g id="node11" class="node"><title>Node11</title>
<g id="a_node11"><a xlink:href="classwcmf_1_1application_1_1controller_1_1_failure_controller.html" target="_top" xlink:title="FailureController is used to signal a failure to the user. ">
<polygon fill="white" stroke="black" points="714,-303.5 714,-360.5 801,-360.5 801,-303.5 714,-303.5"/>
<text text-anchor="middle" x="757.5" y="-348.5" font-family="Helvetica,sans-Serif" font-size="10.00">FailureController</text>
<polyline fill="none" stroke="black" points="714,-341.5 801,-341.5 "/>
<text text-anchor="middle" x="757.5" y="-329.5" font-family="Helvetica,sans-Serif" font-size="10.00"> </text>
<polyline fill="none" stroke="black" points="714,-322.5 801,-322.5 "/>
<text text-anchor="start" x="722" y="-310.5" font-family="Helvetica,sans-Serif" font-size="10.00"># doExecute()</text>
</a>
</g>
</g>
<!-- Node1&#45;&gt;Node11 -->
<g id="edge10" class="edge"><title>Node1&#45;&gt;Node11</title>
<path fill="none" stroke="midnightblue" d="M1186.47,-574.266C1087.52,-558.202 920.765,-518.807 810.5,-427 789.624,-409.618 775.393,-381.77 766.977,-360.888"/>
<polygon fill="none" stroke="midnightblue" points="1186,-577.735 1196.42,-575.84 1187.09,-570.82 1186,-577.735"/>
</g>
<!-- Node12 -->
<g id="node12" class="node"><title>Node12</title>
<g id="a_node12"><a xlink:href="classwcmf_1_1application_1_1controller_1_1_list_controller.html" target="_top" xlink:title="ListController is used to load Node lists. ">
<polygon fill="white" stroke="black" points="819.5,-287 819.5,-377 905.5,-377 905.5,-287 819.5,-287"/>
<text text-anchor="middle" x="862.5" y="-365" font-family="Helvetica,sans-Serif" font-size="10.00">ListController</text>
<polyline fill="none" stroke="black" points="819.5,-358 905.5,-358 "/>
<text text-anchor="middle" x="862.5" y="-346" font-family="Helvetica,sans-Serif" font-size="10.00"> </text>
<polyline fill="none" stroke="black" points="819.5,-339 905.5,-339 "/>
<text text-anchor="start" x="827.5" y="-327" font-family="Helvetica,sans-Serif" font-size="10.00"># validate()</text>
<text text-anchor="start" x="827.5" y="-316" font-family="Helvetica,sans-Serif" font-size="10.00"># doExecute()</text>
<text text-anchor="start" x="827.5" y="-305" font-family="Helvetica,sans-Serif" font-size="10.00"># getObjects()</text>
<text text-anchor="start" x="827.5" y="-294" font-family="Helvetica,sans-Serif" font-size="10.00"># modifyModel()</text>
</a>
</g>
</g>
<!-- Node1&#45;&gt;Node12 -->
<g id="edge11" class="edge"><title>Node1&#45;&gt;Node12</title>
<path fill="none" stroke="midnightblue" d="M1186.66,-564.4C1108.96,-541.852 992.715,-498.714 914.5,-427 899.654,-413.388 888.079,-394.531 879.658,-377.277"/>
<polygon fill="none" stroke="midnightblue" points="1185.84,-567.805 1196.41,-567.181 1187.76,-561.073 1185.84,-567.805"/>
</g>
<!-- Node14 -->
<g id="node14" class="node"><title>Node14</title>
<g id="a_node14"><a xlink:href="classwcmf_1_1application_1_1controller_1_1_logging_controller.html" target="_top" xlink:title="LoggingController is used to log a message in the backend log. ">
<polygon fill="white" stroke="black" points="923.5,-303.5 923.5,-360.5 1015.5,-360.5 1015.5,-303.5 923.5,-303.5"/>
<text text-anchor="middle" x="969.5" y="-348.5" font-family="Helvetica,sans-Serif" font-size="10.00">LoggingController</text>
<polyline fill="none" stroke="black" points="923.5,-341.5 1015.5,-341.5 "/>
<text text-anchor="middle" x="969.5" y="-329.5" font-family="Helvetica,sans-Serif" font-size="10.00"> </text>
<polyline fill="none" stroke="black" points="923.5,-322.5 1015.5,-322.5 "/>
<text text-anchor="start" x="931.5" y="-310.5" font-family="Helvetica,sans-Serif" font-size="10.00"># doExecute()</text>
</a>
</g>
</g>
<!-- Node1&#45;&gt;Node14 -->
<g id="edge13" class="edge"><title>Node1&#45;&gt;Node14</title>
<path fill="none" stroke="midnightblue" d="M1187.32,-544.319C1136.57,-516.379 1072.21,-475.512 1025.5,-427 1006.79,-407.569 991.607,-380.773 981.794,-360.76"/>
<polygon fill="none" stroke="midnightblue" points="1185.86,-547.505 1196.31,-549.211 1189.2,-541.356 1185.86,-547.505"/>
</g>
<!-- Node15 -->
<g id="node15" class="node"><title>Node15</title>
<g id="a_node15"><a xlink:href="classwcmf_1_1application_1_1controller_1_1_login_controller.html" target="_top" xlink:title="LoginController handles the login process. ">
<polygon fill="white" stroke="black" points="1034,-287 1034,-377 1117,-377 1117,-287 1034,-287"/>
<text text-anchor="middle" x="1075.5" y="-365" font-family="Helvetica,sans-Serif" font-size="10.00">LoginController</text>
<polyline fill="none" stroke="black" points="1034,-358 1117,-358 "/>
<text text-anchor="middle" x="1075.5" y="-346" font-family="Helvetica,sans-Serif" font-size="10.00"> </text>
<polyline fill="none" stroke="black" points="1034,-339 1117,-339 "/>
<text text-anchor="start" x="1042" y="-327" font-family="Helvetica,sans-Serif" font-size="10.00">+ __construct()</text>
<text text-anchor="start" x="1042" y="-316" font-family="Helvetica,sans-Serif" font-size="10.00">+ initialize()</text>
<text text-anchor="start" x="1042" y="-305" font-family="Helvetica,sans-Serif" font-size="10.00"># validate()</text>
<text text-anchor="start" x="1042" y="-294" font-family="Helvetica,sans-Serif" font-size="10.00"># doExecute()</text>
</a>
</g>
</g>
<!-- Node1&#45;&gt;Node15 -->
<g id="edge14" class="edge"><title>Node1&#45;&gt;Node15</title>
<path fill="none" stroke="midnightblue" d="M1189.45,-504.199C1167.82,-480.319 1145.2,-453.448 1126.5,-427 1115.57,-411.536 1105.25,-393.473 1096.79,-377.335"/>
<polygon fill="none" stroke="midnightblue" points="1187.1,-506.821 1196.43,-511.843 1192.27,-502.099 1187.1,-506.821"/>
</g>
<!-- Node16 -->
<g id="node16" class="node"><title>Node16</title>
<g id="a_node16"><a xlink:href="classwcmf_1_1application_1_1controller_1_1_media_controller.html" target="_top" xlink:title="MediaController integrates elFinder (https://github.com/Studio&#45;42/elFinder) into wCMF. ">
<polygon fill="white" stroke="black" points="1135.5,-292.5 1135.5,-371.5 1255.5,-371.5 1255.5,-292.5 1135.5,-292.5"/>
<text text-anchor="middle" x="1195.5" y="-359.5" font-family="Helvetica,sans-Serif" font-size="10.00">MediaController</text>
<polyline fill="none" stroke="black" points="1135.5,-352.5 1255.5,-352.5 "/>
<text text-anchor="middle" x="1195.5" y="-340.5" font-family="Helvetica,sans-Serif" font-size="10.00"> </text>
<polyline fill="none" stroke="black" points="1135.5,-333.5 1255.5,-333.5 "/>
<text text-anchor="start" x="1143.5" y="-321.5" font-family="Helvetica,sans-Serif" font-size="10.00"># doExecute()</text>
<text text-anchor="start" x="1143.5" y="-310.5" font-family="Helvetica,sans-Serif" font-size="10.00"># onFileMoved()</text>
<text text-anchor="start" x="1143.5" y="-299.5" font-family="Helvetica,sans-Serif" font-size="10.00"># getResourceBaseDir()</text>
</a>
</g>
</g>
<!-- Node1&#45;&gt;Node16 -->
<g id="edge15" class="edge"><title>Node1&#45;&gt;Node16</title>
<path fill="none" stroke="midnightblue" d="M1230.46,-453.452C1221.78,-423.536 1213.21,-394.02 1206.73,-371.694"/>
<polygon fill="none" stroke="midnightblue" points="1227.13,-454.542 1233.28,-463.17 1233.86,-452.591 1227.13,-454.542"/>
</g>
<!-- Node17 -->
<g id="node17" class="node"><title>Node17</title>
<g id="a_node17"><a xlink:href="classwcmf_1_1application_1_1controller_1_1_message_controller.html" target="_top" xlink:title="MessageController is used to get all messages translated to the given language. ">
<polygon fill="white" stroke="black" points="1273.5,-292.5 1273.5,-371.5 1411.5,-371.5 1411.5,-292.5 1273.5,-292.5"/>
<text text-anchor="middle" x="1342.5" y="-359.5" font-family="Helvetica,sans-Serif" font-size="10.00">MessageController</text>
<polyline fill="none" stroke="black" points="1273.5,-352.5 1411.5,-352.5 "/>
<text text-anchor="middle" x="1342.5" y="-340.5" font-family="Helvetica,sans-Serif" font-size="10.00"> </text>
<polyline fill="none" stroke="black" points="1273.5,-333.5 1411.5,-333.5 "/>
<text text-anchor="start" x="1281.5" y="-321.5" font-family="Helvetica,sans-Serif" font-size="10.00"># validate()</text>
<text text-anchor="start" x="1281.5" y="-310.5" font-family="Helvetica,sans-Serif" font-size="10.00"># doExecute()</text>
<text text-anchor="start" x="1281.5" y="-299.5" font-family="Helvetica,sans-Serif" font-size="10.00"># assignResponseDefaults()</text>
</a>
</g>
</g>
<!-- Node1&#45;&gt;Node17 -->
<g id="edge16" class="edge"><title>Node1&#45;&gt;Node17</title>
<path fill="none" stroke="midnightblue" d="M1307.06,-453.452C1315.86,-423.536 1324.55,-394.02 1331.11,-371.694"/>
<polygon fill="none" stroke="midnightblue" points="1303.66,-452.589 1304.2,-463.17 1310.38,-454.565 1303.66,-452.589"/>
</g>
<!-- Node18 -->
<g id="node18" class="node"><title>Node18</title>
<g id="a_node18"><a xlink:href="classwcmf_1_1application_1_1controller_1_1_multiple_action_controller.html" target="_top" xlink:title="MultipleActionController executes multiple actions by passing them do the appropriate controllers and...">
<polygon fill="white" stroke="black" points="1430,-298 1430,-366 1549,-366 1549,-298 1430,-298"/>
<text text-anchor="middle" x="1489.5" y="-354" font-family="Helvetica,sans-Serif" font-size="10.00">MultipleActionController</text>
<polyline fill="none" stroke="black" points="1430,-347 1549,-347 "/>
<text text-anchor="middle" x="1489.5" y="-335" font-family="Helvetica,sans-Serif" font-size="10.00"> </text>
<polyline fill="none" stroke="black" points="1430,-328 1549,-328 "/>
<text text-anchor="start" x="1438" y="-316" font-family="Helvetica,sans-Serif" font-size="10.00"># validate()</text>
<text text-anchor="start" x="1438" y="-305" font-family="Helvetica,sans-Serif" font-size="10.00"># doExecute()</text>
</a>
</g>
</g>
<!-- Node1&#45;&gt;Node18 -->
<g id="edge17" class="edge"><title>Node1&#45;&gt;Node18</title>
<path fill="none" stroke="midnightblue" d="M1347.68,-506.62C1371.78,-481.82 1397.87,-453.841 1420.5,-427 1436.94,-407.498 1453.91,-384.422 1466.91,-366.014"/>
<polygon fill="none" stroke="midnightblue" points="1345.08,-504.267 1340.6,-513.867 1350.09,-509.157 1345.08,-504.267"/>
</g>
<!-- Node19 -->
<g id="node19" class="node"><title>Node19</title>
<g id="a_node19"><a xlink:href="classwcmf_1_1application_1_1controller_1_1_permission_controller.html" target="_top" xlink:title="PermissionController checks permissions for a set of operations for the current user. ">
<polygon fill="white" stroke="black" points="1567,-292.5 1567,-371.5 1674,-371.5 1674,-292.5 1567,-292.5"/>
<text text-anchor="middle" x="1620.5" y="-359.5" font-family="Helvetica,sans-Serif" font-size="10.00">PermissionController</text>
<polyline fill="none" stroke="black" points="1567,-352.5 1674,-352.5 "/>
<text text-anchor="middle" x="1620.5" y="-340.5" font-family="Helvetica,sans-Serif" font-size="10.00"> </text>
<polyline fill="none" stroke="black" points="1567,-333.5 1674,-333.5 "/>
<text text-anchor="start" x="1575" y="-321.5" font-family="Helvetica,sans-Serif" font-size="10.00">+ __construct()</text>
<text text-anchor="start" x="1575" y="-310.5" font-family="Helvetica,sans-Serif" font-size="10.00"># validate()</text>
<text text-anchor="start" x="1575" y="-299.5" font-family="Helvetica,sans-Serif" font-size="10.00"># doExecute()</text>
</a>
</g>
</g>
<!-- Node1&#45;&gt;Node19 -->
<g id="edge18" class="edge"><title>Node1&#45;&gt;Node19</title>
<path fill="none" stroke="midnightblue" d="M1349.89,-553.192C1412.05,-526.418 1497.18,-483.291 1558.5,-427 1575.49,-411.401 1589.99,-390.21 1600.69,-371.898"/>
<polygon fill="none" stroke="midnightblue" points="1348.34,-550.05 1340.51,-557.186 1351.08,-556.491 1348.34,-550.05"/>
</g>
<!-- Node20 -->
<g id="node20" class="node"><title>Node20</title>
<g id="a_node20"><a xlink:href="classwcmf_1_1application_1_1controller_1_1_r_e_s_t_controller.html" target="_top" xlink:title="RESTController handles REST requests. ">
<polygon fill="white" stroke="black" points="1692,-248.5 1692,-415.5 1841,-415.5 1841,-248.5 1692,-248.5"/>
<text text-anchor="middle" x="1766.5" y="-403.5" font-family="Helvetica,sans-Serif" font-size="10.00">RESTController</text>
<polyline fill="none" stroke="black" points="1692,-396.5 1841,-396.5 "/>
<text text-anchor="middle" x="1766.5" y="-384.5" font-family="Helvetica,sans-Serif" font-size="10.00"> </text>
<polyline fill="none" stroke="black" points="1692,-377.5 1841,-377.5 "/>
<text text-anchor="start" x="1700" y="-365.5" font-family="Helvetica,sans-Serif" font-size="10.00">+ initialize()</text>
<text text-anchor="start" x="1700" y="-354.5" font-family="Helvetica,sans-Serif" font-size="10.00"># validate()</text>
<text text-anchor="start" x="1700" y="-343.5" font-family="Helvetica,sans-Serif" font-size="10.00"># doExecute()</text>
<text text-anchor="start" x="1700" y="-332.5" font-family="Helvetica,sans-Serif" font-size="10.00"># handleGet()</text>
<text text-anchor="start" x="1700" y="-321.5" font-family="Helvetica,sans-Serif" font-size="10.00"># assignResponseDefaults()</text>
<text text-anchor="start" x="1700" y="-310.5" font-family="Helvetica,sans-Serif" font-size="10.00"># handlePost()</text>
<text text-anchor="start" x="1700" y="-299.5" font-family="Helvetica,sans-Serif" font-size="10.00"># handlePut()</text>
<text text-anchor="start" x="1700" y="-288.5" font-family="Helvetica,sans-Serif" font-size="10.00"># handleDelete()</text>
<text text-anchor="start" x="1700" y="-277.5" font-family="Helvetica,sans-Serif" font-size="10.00"># setLocationHeaderFromOid()</text>
<text text-anchor="start" x="1700" y="-266.5" font-family="Helvetica,sans-Serif" font-size="10.00"># getFirstRequestOid()</text>
<text text-anchor="start" x="1700" y="-255.5" font-family="Helvetica,sans-Serif" font-size="10.00"># getRelatedType()</text>
</a>
</g>
</g>
<!-- Node1&#45;&gt;Node20 -->
<g id="edge19" class="edge"><title>Node1&#45;&gt;Node20</title>
<path fill="none" stroke="midnightblue" d="M1350.61,-565.923C1438.59,-543.274 1579.6,-498.862 1683.5,-427 1688.51,-423.532 1693.42,-419.699 1698.19,-415.621"/>
<polygon fill="none" stroke="midnightblue" points="1349.5,-562.591 1340.67,-568.445 1351.23,-569.376 1349.5,-562.591"/>
</g>
<!-- Node21 -->
<g id="node21" class="node"><title>Node21</title>
<g id="a_node21"><a xlink:href="classwcmf_1_1application_1_1controller_1_1_save_controller.html" target="_top" xlink:title="SaveController is a controller that saves Node data. ">
<polygon fill="white" stroke="black" points="1859.5,-237.5 1859.5,-426.5 1973.5,-426.5 1973.5,-237.5 1859.5,-237.5"/>
<text text-anchor="middle" x="1916.5" y="-414.5" font-family="Helvetica,sans-Serif" font-size="10.00">SaveController</text>
<polyline fill="none" stroke="black" points="1859.5,-407.5 1973.5,-407.5 "/>
<text text-anchor="middle" x="1916.5" y="-395.5" font-family="Helvetica,sans-Serif" font-size="10.00"> </text>
<polyline fill="none" stroke="black" points="1859.5,-388.5 1973.5,-388.5 "/>
<text text-anchor="start" x="1867.5" y="-376.5" font-family="Helvetica,sans-Serif" font-size="10.00"># getFileUtil()</text>
<text text-anchor="start" x="1867.5" y="-365.5" font-family="Helvetica,sans-Serif" font-size="10.00"># validate()</text>
<text text-anchor="start" x="1867.5" y="-354.5" font-family="Helvetica,sans-Serif" font-size="10.00"># doExecute()</text>
<text text-anchor="start" x="1867.5" y="-343.5" font-family="Helvetica,sans-Serif" font-size="10.00"># saveUploadFile()</text>
<text text-anchor="start" x="1867.5" y="-332.5" font-family="Helvetica,sans-Serif" font-size="10.00"># isFileUpload()</text>
<text text-anchor="start" x="1867.5" y="-321.5" font-family="Helvetica,sans-Serif" font-size="10.00"># checkFile()</text>
<text text-anchor="start" x="1867.5" y="-310.5" font-family="Helvetica,sans-Serif" font-size="10.00"># getUploadFilename()</text>
<text text-anchor="start" x="1867.5" y="-299.5" font-family="Helvetica,sans-Serif" font-size="10.00"># shouldOverride()</text>
<text text-anchor="start" x="1867.5" y="-288.5" font-family="Helvetica,sans-Serif" font-size="10.00"># getUploadDir()</text>
<text text-anchor="start" x="1867.5" y="-277.5" font-family="Helvetica,sans-Serif" font-size="10.00"># confirmSaveValue()</text>
<text text-anchor="start" x="1867.5" y="-266.5" font-family="Helvetica,sans-Serif" font-size="10.00"># confirmSave()</text>
<text text-anchor="start" x="1867.5" y="-255.5" font-family="Helvetica,sans-Serif" font-size="10.00"># beforeSave()</text>
<text text-anchor="start" x="1867.5" y="-244.5" font-family="Helvetica,sans-Serif" font-size="10.00"># afterSave()</text>
</a>
</g>
</g>
<!-- Node1&#45;&gt;Node21 -->
<g id="edge20" class="edge"><title>Node1&#45;&gt;Node21</title>
<path fill="none" stroke="midnightblue" d="M1351.13,-579.698C1471.16,-569.09 1696.22,-535.167 1850.5,-427 1853.44,-424.94 1856.29,-422.704 1859.05,-420.328"/>
<polygon fill="none" stroke="midnightblue" points="1350.57,-576.233 1340.91,-580.567 1351.17,-583.207 1350.57,-576.233"/>
</g>
<!-- Node22 -->
<g id="node22" class="node"><title>Node22</title>
<g id="a_node22"><a xlink:href="classwcmf_1_1application_1_1controller_1_1_s_o_a_p_controller.html" target="_top" xlink:title="SOAPController handles SOAP requests. ">
<polygon fill="white" stroke="black" points="1991.5,-298 1991.5,-366 2077.5,-366 2077.5,-298 1991.5,-298"/>
<text text-anchor="middle" x="2034.5" y="-354" font-family="Helvetica,sans-Serif" font-size="10.00">SOAPController</text>
<polyline fill="none" stroke="black" points="1991.5,-347 2077.5,-347 "/>
<text text-anchor="middle" x="2034.5" y="-335" font-family="Helvetica,sans-Serif" font-size="10.00"> </text>
<polyline fill="none" stroke="black" points="1991.5,-328 2077.5,-328 "/>
<text text-anchor="start" x="1999.5" y="-316" font-family="Helvetica,sans-Serif" font-size="10.00">+ search()</text>
<text text-anchor="start" x="1999.5" y="-305" font-family="Helvetica,sans-Serif" font-size="10.00"># doExecute()</text>
</a>
</g>
</g>
<!-- Node1&#45;&gt;Node22 -->
<g id="edge21" class="edge"><title>Node1&#45;&gt;Node22</title>
<path fill="none" stroke="midnightblue" d="M1350.68,-574.948C1516.25,-554.352 1882.68,-501.522 1982.5,-427 2002.68,-411.938 2016.03,-386.621 2024.15,-366.053"/>
<polygon fill="none" stroke="midnightblue" points="1350.04,-571.5 1340.55,-576.2 1350.9,-578.447 1350.04,-571.5"/>
</g>
<!-- Node23 -->
<g id="node23" class="node"><title>Node23</title>
<g id="a_node23"><a xlink:href="classwcmf_1_1application_1_1controller_1_1_sort_controller.html" target="_top" xlink:title="SortController is used to change the order of nodes. ">
<polygon fill="white" stroke="black" points="2095.5,-259.5 2095.5,-404.5 2247.5,-404.5 2247.5,-259.5 2095.5,-259.5"/>
<text text-anchor="middle" x="2171.5" y="-392.5" font-family="Helvetica,sans-Serif" font-size="10.00">SortController</text>
<polyline fill="none" stroke="black" points="2095.5,-385.5 2247.5,-385.5 "/>
<text text-anchor="start" x="2103.5" y="-373.5" font-family="Helvetica,sans-Serif" font-size="10.00">+ ORDER_BOTTOM</text>
<text text-anchor="start" x="2103.5" y="-362.5" font-family="Helvetica,sans-Serif" font-size="10.00">+ UNBOUND</text>
<polyline fill="none" stroke="black" points="2095.5,-355.5 2247.5,-355.5 "/>
<text text-anchor="start" x="2103.5" y="-343.5" font-family="Helvetica,sans-Serif" font-size="10.00"># validate()</text>
<text text-anchor="start" x="2103.5" y="-332.5" font-family="Helvetica,sans-Serif" font-size="10.00"># doExecute()</text>
<text text-anchor="start" x="2103.5" y="-321.5" font-family="Helvetica,sans-Serif" font-size="10.00"># doMoveBefore()</text>
<text text-anchor="start" x="2103.5" y="-310.5" font-family="Helvetica,sans-Serif" font-size="10.00"># doInsertBefore()</text>
<text text-anchor="start" x="2103.5" y="-299.5" font-family="Helvetica,sans-Serif" font-size="10.00"># loadObjectsInSortkeyRange()</text>
<text text-anchor="start" x="2103.5" y="-288.5" font-family="Helvetica,sans-Serif" font-size="10.00"># checkObjects()</text>
<text text-anchor="start" x="2103.5" y="-277.5" font-family="Helvetica,sans-Serif" font-size="10.00"># isOrderBotton()</text>
<text text-anchor="start" x="2103.5" y="-266.5" font-family="Helvetica,sans-Serif" font-size="10.00"># getSortkeyValue()</text>
</a>
</g>
</g>
<!-- Node1&#45;&gt;Node23 -->
<g id="edge22" class="edge"><title>Node1&#45;&gt;Node23</title>
<path fill="none" stroke="midnightblue" d="M1350.8,-575.366C1532.23,-554.163 1960.51,-497.959 2086.5,-427 2097.04,-421.062 2106.98,-413.336 2116.08,-404.865"/>
<polygon fill="none" stroke="midnightblue" points="1350.3,-571.899 1340.77,-576.531 1351.11,-578.853 1350.3,-571.899"/>
</g>
<!-- Node24 -->
<g id="node24" class="node"><title>Node24</title>
<g id="a_node24"><a xlink:href="classwcmf_1_1application_1_1controller_1_1_tree_controller.html" target="_top" xlink:title="TreeController is used to visualize nodes in a tree view. ">
<polygon fill="white" stroke="black" points="2265.5,-265 2265.5,-399 2367.5,-399 2367.5,-265 2265.5,-265"/>
<text text-anchor="middle" x="2316.5" y="-387" font-family="Helvetica,sans-Serif" font-size="10.00">TreeController</text>
<polyline fill="none" stroke="black" points="2265.5,-380 2367.5,-380 "/>
<text text-anchor="middle" x="2316.5" y="-368" font-family="Helvetica,sans-Serif" font-size="10.00"> </text>
<polyline fill="none" stroke="black" points="2265.5,-361 2367.5,-361 "/>
<text text-anchor="start" x="2273.5" y="-349" font-family="Helvetica,sans-Serif" font-size="10.00"># doExecute()</text>
<text text-anchor="start" x="2273.5" y="-338" font-family="Helvetica,sans-Serif" font-size="10.00"># getChildren()</text>
<text text-anchor="start" x="2273.5" y="-327" font-family="Helvetica,sans-Serif" font-size="10.00"># getRootOIDs()</text>
<text text-anchor="start" x="2273.5" y="-316" font-family="Helvetica,sans-Serif" font-size="10.00"># getViewNode()</text>
<text text-anchor="start" x="2273.5" y="-305" font-family="Helvetica,sans-Serif" font-size="10.00"># isVisible()</text>
<text text-anchor="start" x="2273.5" y="-294" font-family="Helvetica,sans-Serif" font-size="10.00"># getDisplayText()</text>
<text text-anchor="start" x="2273.5" y="-283" font-family="Helvetica,sans-Serif" font-size="10.00"># getRootTypes()</text>
<text text-anchor="start" x="2273.5" y="-272" font-family="Helvetica,sans-Serif" font-size="10.00"># isRootTypeNode()</text>
</a>
</g>
</g>
<!-- Node1&#45;&gt;Node24 -->
<g id="edge23" class="edge"><title>Node1&#45;&gt;Node24</title>
<path fill="none" stroke="midnightblue" d="M1350.84,-579.981C1560.26,-567.155 2107.16,-524.927 2256.5,-427 2267.35,-419.887 2276.63,-410.059 2284.42,-399.423"/>
<polygon fill="none" stroke="midnightblue" points="1350.6,-576.489 1340.83,-580.587 1351.02,-583.476 1350.6,-576.489"/>
</g>
<!-- Node25 -->
<g id="node25" class="node"><title>Node25</title>
<g id="a_node25"><a xlink:href="classwcmf_1_1application_1_1controller_1_1_user_controller.html" target="_top" xlink:title="UserController is used to change the current user&#39;s password. ">
<polygon fill="white" stroke="black" points="2385.5,-298 2385.5,-366 2491.5,-366 2491.5,-298 2385.5,-298"/>
<text text-anchor="middle" x="2438.5" y="-354" font-family="Helvetica,sans-Serif" font-size="10.00">UserController</text>
<polyline fill="none" stroke="black" points="2385.5,-347 2491.5,-347 "/>
<text text-anchor="middle" x="2438.5" y="-335" font-family="Helvetica,sans-Serif" font-size="10.00"> </text>
<polyline fill="none" stroke="black" points="2385.5,-328 2491.5,-328 "/>
<text text-anchor="start" x="2393.5" y="-316" font-family="Helvetica,sans-Serif" font-size="10.00">+ changePassword()</text>
<text text-anchor="start" x="2393.5" y="-305" font-family="Helvetica,sans-Serif" font-size="10.00"># doExecute()</text>
</a>
</g>
</g>
<!-- Node1&#45;&gt;Node25 -->
<g id="edge24" class="edge"><title>Node1&#45;&gt;Node25</title>
<path fill="none" stroke="midnightblue" d="M1350.96,-581.443C1577.75,-571.701 2205.33,-535.381 2376.5,-427 2398.96,-412.777 2415.06,-387.136 2425.21,-366.224"/>
<polygon fill="none" stroke="midnightblue" points="1350.63,-577.954 1340.79,-581.873 1350.93,-584.947 1350.63,-577.954"/>
</g>
<!-- Node26 -->
<g id="node26" class="node"><title>Node26</title>
<g id="a_node26"><a xlink:href="classwcmf_1_1application_1_1controller_1_1_value_list_controller.html" target="_top" xlink:title="ValueListController is used to resolve lists for input_type definitions. ">
<polygon fill="white" stroke="black" points="2509.5,-298 2509.5,-366 2607.5,-366 2607.5,-298 2509.5,-298"/>
<text text-anchor="middle" x="2558.5" y="-354" font-family="Helvetica,sans-Serif" font-size="10.00">ValueListController</text>
<polyline fill="none" stroke="black" points="2509.5,-347 2607.5,-347 "/>
<text text-anchor="middle" x="2558.5" y="-335" font-family="Helvetica,sans-Serif" font-size="10.00"> </text>
<polyline fill="none" stroke="black" points="2509.5,-328 2607.5,-328 "/>
<text text-anchor="start" x="2517.5" y="-316" font-family="Helvetica,sans-Serif" font-size="10.00"># validate()</text>
<text text-anchor="start" x="2517.5" y="-305" font-family="Helvetica,sans-Serif" font-size="10.00"># doExecute()</text>
</a>
</g>
</g>
<!-- Node1&#45;&gt;Node26 -->
<g id="edge25" class="edge"><title>Node1&#45;&gt;Node26</title>
<path fill="none" stroke="midnightblue" d="M1350.84,-583.053C1594.87,-577.381 2309.09,-550.375 2500.5,-427 2522.42,-412.871 2537.42,-387.225 2546.66,-366.286"/>
<polygon fill="none" stroke="midnightblue" points="1350.54,-579.559 1340.62,-583.285 1350.7,-586.558 1350.54,-579.559"/>
</g>
<!-- Node4 -->
<g id="node4" class="node"><title>Node4</title>
<g id="a_node4"><a xlink:href="classwcmf_1_1application_1_1controller_1_1_batch_display_controller.html" target="_top" xlink:title="BatchDisplayController is used to load a tree of Node instances recursivly and return them in lists o...">
<polygon fill="white" stroke="black" points="0,-22.5 0,-178.5 123,-178.5 123,-22.5 0,-22.5"/>
<text text-anchor="middle" x="61.5" y="-166.5" font-family="Helvetica,sans-Serif" font-size="10.00">BatchDisplayController</text>
<polyline fill="none" stroke="black" points="0,-159.5 123,-159.5 "/>
<text text-anchor="middle" x="61.5" y="-147.5" font-family="Helvetica,sans-Serif" font-size="10.00"> </text>
<polyline fill="none" stroke="black" points="0,-140.5 123,-140.5 "/>
<text text-anchor="start" x="8" y="-128.5" font-family="Helvetica,sans-Serif" font-size="10.00">+ initialize()</text>
<text text-anchor="start" x="8" y="-117.5" font-family="Helvetica,sans-Serif" font-size="10.00"># validate()</text>
<text text-anchor="start" x="8" y="-106.5" font-family="Helvetica,sans-Serif" font-size="10.00"># getWorkPackage()</text>
<text text-anchor="start" x="8" y="-95.5" font-family="Helvetica,sans-Serif" font-size="10.00"># startProcess()</text>
<text text-anchor="start" x="8" y="-84.5" font-family="Helvetica,sans-Serif" font-size="10.00"># loadNodes()</text>
<text text-anchor="start" x="8" y="-73.5" font-family="Helvetica,sans-Serif" font-size="10.00"># endProcess()</text>
<text text-anchor="start" x="8" y="-62.5" font-family="Helvetica,sans-Serif" font-size="10.00"># loadNode()</text>
<text text-anchor="start" x="8" y="-51.5" font-family="Helvetica,sans-Serif" font-size="10.00"># register()</text>
<text text-anchor="start" x="8" y="-40.5" font-family="Helvetica,sans-Serif" font-size="10.00"># isRegistered()</text>
<text text-anchor="start" x="8" y="-29.5" font-family="Helvetica,sans-Serif" font-size="10.00"># addNodeToResponse()</text>
</a>
</g>
</g>
<!-- Node3&#45;&gt;Node4 -->
<g id="edge3" class="edge"><title>Node3&#45;&gt;Node4</title>
<path fill="none" stroke="midnightblue" d="M161.867,-234.438C151.714,-223.373 141.737,-212.084 132.5,-201 126.59,-193.909 120.639,-186.354 114.83,-178.699"/>
<polygon fill="none" stroke="midnightblue" points="159.556,-237.094 168.917,-242.056 164.694,-232.339 159.556,-237.094"/>
</g>
<!-- Node5 -->
<g id="node5" class="node"><title>Node5</title>
<g id="a_node5"><a xlink:href="classwcmf_1_1application_1_1controller_1_1_copy_controller.html" target="_top" xlink:title="CopyController is used to copy or move Node instances. ">
<polygon fill="white" stroke="black" points="141.5,-6 141.5,-195 247.5,-195 247.5,-6 141.5,-6"/>
<text text-anchor="middle" x="194.5" y="-183" font-family="Helvetica,sans-Serif" font-size="10.00">CopyController</text>
<polyline fill="none" stroke="black" points="141.5,-176 247.5,-176 "/>
<text text-anchor="middle" x="194.5" y="-164" font-family="Helvetica,sans-Serif" font-size="10.00"> </text>
<polyline fill="none" stroke="black" points="141.5,-157 247.5,-157 "/>
<text text-anchor="start" x="149.5" y="-145" font-family="Helvetica,sans-Serif" font-size="10.00">+ initialize()</text>
<text text-anchor="start" x="149.5" y="-134" font-family="Helvetica,sans-Serif" font-size="10.00"># validate()</text>
<text text-anchor="start" x="149.5" y="-123" font-family="Helvetica,sans-Serif" font-size="10.00"># getWorkPackage()</text>
<text text-anchor="start" x="149.5" y="-112" font-family="Helvetica,sans-Serif" font-size="10.00"># startProcess()</text>
<text text-anchor="start" x="149.5" y="-101" font-family="Helvetica,sans-Serif" font-size="10.00"># copyNodes()</text>
<text text-anchor="start" x="149.5" y="-90" font-family="Helvetica,sans-Serif" font-size="10.00"># endProcess()</text>
<text text-anchor="start" x="149.5" y="-79" font-family="Helvetica,sans-Serif" font-size="10.00"># copyNode()</text>
<text text-anchor="start" x="149.5" y="-68" font-family="Helvetica,sans-Serif" font-size="10.00"># getTargetNode()</text>
<text text-anchor="start" x="149.5" y="-57" font-family="Helvetica,sans-Serif" font-size="10.00"># registerCopy()</text>
<text text-anchor="start" x="149.5" y="-46" font-family="Helvetica,sans-Serif" font-size="10.00"># updateCopyOIDs()</text>
<text text-anchor="start" x="149.5" y="-35" font-family="Helvetica,sans-Serif" font-size="10.00"># getCopyOID()</text>
<text text-anchor="start" x="149.5" y="-24" font-family="Helvetica,sans-Serif" font-size="10.00"># getCopy()</text>
<text text-anchor="start" x="149.5" y="-13" font-family="Helvetica,sans-Serif" font-size="10.00"># modify()</text>
</a>
</g>
</g>
<!-- Node3&#45;&gt;Node5 -->
<g id="edge4" class="edge"><title>Node3&#45;&gt;Node5</title>
<path fill="none" stroke="midnightblue" d="M229.638,-227.503C226.641,-216.757 223.608,-205.879 220.644,-195.25"/>
<polygon fill="none" stroke="midnightblue" points="226.319,-228.63 232.376,-237.323 233.062,-226.75 226.319,-228.63"/>
</g>
<!-- Node6 -->
<g id="node6" class="node"><title>Node6</title>
<g id="a_node6"><a xlink:href="classwcmf_1_1application_1_1controller_1_1_search_index_controller.html" target="_top" xlink:title="SearchIndexController creates a Lucene index from the complete datastore. ">
<polygon fill="white" stroke="black" points="265.5,-50 265.5,-151 377.5,-151 377.5,-50 265.5,-50"/>
<text text-anchor="middle" x="321.5" y="-139" font-family="Helvetica,sans-Serif" font-size="10.00">SearchIndexController</text>
<polyline fill="none" stroke="black" points="265.5,-132 377.5,-132 "/>
<text text-anchor="middle" x="321.5" y="-120" font-family="Helvetica,sans-Serif" font-size="10.00"> </text>
<polyline fill="none" stroke="black" points="265.5,-113 377.5,-113 "/>
<text text-anchor="start" x="273.5" y="-101" font-family="Helvetica,sans-Serif" font-size="10.00">+ __construct()</text>
<text text-anchor="start" x="273.5" y="-90" font-family="Helvetica,sans-Serif" font-size="10.00"># getWorkPackage()</text>
<text text-anchor="start" x="273.5" y="-79" font-family="Helvetica,sans-Serif" font-size="10.00"># collect()</text>
<text text-anchor="start" x="273.5" y="-68" font-family="Helvetica,sans-Serif" font-size="10.00"># index()</text>
<text text-anchor="start" x="273.5" y="-57" font-family="Helvetica,sans-Serif" font-size="10.00"># optimize()</text>
</a>
</g>
</g>
<!-- Node3&#45;&gt;Node6 -->
<g id="edge5" class="edge"><title>Node3&#45;&gt;Node6</title>
<path fill="none" stroke="midnightblue" d="M286.888,-227.585C294.179,-201.025 301.695,-173.647 307.852,-151.217"/>
<polygon fill="none" stroke="midnightblue" points="283.487,-226.753 284.215,-237.323 290.238,-228.606 283.487,-226.753"/>
</g>
<!-- Node7 -->
<g id="node7" class="node"><title>Node7</title>
<g id="a_node7"><a xlink:href="classwcmf_1_1application_1_1controller_1_1_x_m_l_export_controller.html" target="_top" xlink:title="XMLExportController exports the content tree into an XML file. ">
<polygon fill="white" stroke="black" points="395.5,-0.5 395.5,-200.5 565.5,-200.5 565.5,-0.5 395.5,-0.5"/>
<text text-anchor="middle" x="480.5" y="-188.5" font-family="Helvetica,sans-Serif" font-size="10.00">XMLExportController</text>
<polyline fill="none" stroke="black" points="395.5,-181.5 565.5,-181.5 "/>
<text text-anchor="start" x="403.5" y="-169.5" font-family="Helvetica,sans-Serif" font-size="10.00">+ CACHE_SECTION</text>
<text text-anchor="start" x="403.5" y="-158.5" font-family="Helvetica,sans-Serif" font-size="10.00">+ CACHE_KEY_ROOT_OIDS</text>
<text text-anchor="start" x="403.5" y="-147.5" font-family="Helvetica,sans-Serif" font-size="10.00">+ CACHE_KEY_EXPORTED_OIDS</text>
<polyline fill="none" stroke="black" points="395.5,-140.5 565.5,-140.5 "/>
<text text-anchor="start" x="403.5" y="-128.5" font-family="Helvetica,sans-Serif" font-size="10.00">+ __construct()</text>
<text text-anchor="start" x="403.5" y="-117.5" font-family="Helvetica,sans-Serif" font-size="10.00">+ initialize()</text>
<text text-anchor="start" x="403.5" y="-106.5" font-family="Helvetica,sans-Serif" font-size="10.00"># getFileUtil()</text>
<text text-anchor="start" x="403.5" y="-95.5" font-family="Helvetica,sans-Serif" font-size="10.00"># getWorkPackage()</text>
<text text-anchor="start" x="403.5" y="-84.5" font-family="Helvetica,sans-Serif" font-size="10.00"># getDownloadFile()</text>
<text text-anchor="start" x="403.5" y="-73.5" font-family="Helvetica,sans-Serif" font-size="10.00"># initExport()</text>
<text text-anchor="start" x="403.5" y="-62.5" font-family="Helvetica,sans-Serif" font-size="10.00"># exportNodes()</text>
<text text-anchor="start" x="403.5" y="-51.5" font-family="Helvetica,sans-Serif" font-size="10.00"># finishExport()</text>
<text text-anchor="start" x="403.5" y="-40.5" font-family="Helvetica,sans-Serif" font-size="10.00"># endTags()</text>
<text text-anchor="start" x="403.5" y="-29.5" font-family="Helvetica,sans-Serif" font-size="10.00"># writeNode()</text>
<text text-anchor="start" x="403.5" y="-18.5" font-family="Helvetica,sans-Serif" font-size="10.00"># getNumUnvisitedChildren()</text>
<text text-anchor="start" x="403.5" y="-7.5" font-family="Helvetica,sans-Serif" font-size="10.00"># formatValue()</text>
</a>
</g>
</g>
<!-- Node3&#45;&gt;Node7 -->
<g id="edge6" class="edge"><title>Node3&#45;&gt;Node7</title>
<path fill="none" stroke="midnightblue" d="M355.514,-232.9C366.004,-222.165 376.496,-211.373 386.5,-201 389.387,-198.007 392.319,-194.958 395.275,-191.874"/>
<polygon fill="none" stroke="midnightblue" points="352.75,-230.721 348.259,-240.317 357.753,-235.616 352.75,-230.721"/>
</g>
<!-- Node13 -->
<g id="node13" class="node"><title>Node13</title>
<g id="a_node13"><a xlink:href="classwcmf_1_1application_1_1controller_1_1_search_controller.html" target="_top" xlink:title="SearchController executes a search and returns matching objects in a paged list. ">
<polygon fill="white" stroke="black" points="818,-61 818,-140 907,-140 907,-61 818,-61"/>
<text text-anchor="middle" x="862.5" y="-128" font-family="Helvetica,sans-Serif" font-size="10.00">SearchController</text>
<polyline fill="none" stroke="black" points="818,-121 907,-121 "/>
<text text-anchor="middle" x="862.5" y="-109" font-family="Helvetica,sans-Serif" font-size="10.00"> </text>
<polyline fill="none" stroke="black" points="818,-102 907,-102 "/>
<text text-anchor="start" x="826" y="-90" font-family="Helvetica,sans-Serif" font-size="10.00">+ __construct()</text>
<text text-anchor="start" x="826" y="-79" font-family="Helvetica,sans-Serif" font-size="10.00"># getObjects()</text>
<text text-anchor="start" x="826" y="-68" font-family="Helvetica,sans-Serif" font-size="10.00"># modifyModel()</text>
</a>
</g>
</g>
<!-- Node12&#45;&gt;Node13 -->
<g id="edge12" class="edge"><title>Node12&#45;&gt;Node13</title>
<path fill="none" stroke="midnightblue" d="M862.5,-276.7C862.5,-234.748 862.5,-177.709 862.5,-140.269"/>
<polygon fill="none" stroke="midnightblue" points="859,-276.75 862.5,-286.75 866,-276.75 859,-276.75"/>
</g>
</g>
</svg>
