<?xml version="1.0" encoding="UTF-8" standalone="no"?>
<!DOCTYPE svg PUBLIC "-//W3C//DTD SVG 1.1//EN"
 "http://www.w3.org/Graphics/SVG/1.1/DTD/svg11.dtd">
<!-- Generated by graphviz version 2.38.0 (20140413.2041)
 -->
<!-- Title: PersistenceActionKeyProvider Pages: 1 -->
<svg width="156pt" height="281pt"
 viewBox="0.00 0.00 156.00 281.00" xmlns="http://www.w3.org/2000/svg" xmlns:xlink="http://www.w3.org/1999/xlink">
<g id="graph0" class="graph" transform="scale(1 1) rotate(0) translate(4 277)">
<title>PersistenceActionKeyProvider</title>
<polygon fill="white" stroke="none" points="-4,4 -4,-277 152,-277 152,4 -4,4"/>
<!-- Node1 -->
<g id="node1" class="node"><title>Node1</title>
<polygon fill="#bfbfbf" stroke="black" points="0,-0.5 0,-156.5 148,-156.5 148,-0.5 0,-0.5"/>
<text text-anchor="middle" x="74" y="-144.5" font-family="Helvetica,sans-Serif" font-size="10.00">PersistenceActionKeyProvider</text>
<polyline fill="none" stroke="black" points="0,-137.5 148,-137.5 "/>
<text text-anchor="middle" x="74" y="-125.5" font-family="Helvetica,sans-Serif" font-size="10.00"> </text>
<polyline fill="none" stroke="black" points="0,-118.5 148,-118.5 "/>
<text text-anchor="start" x="8" y="-106.5" font-family="Helvetica,sans-Serif" font-size="10.00">+ __construct()</text>
<text text-anchor="start" x="8" y="-95.5" font-family="Helvetica,sans-Serif" font-size="10.00">+ __destruct()</text>
<text text-anchor="start" x="8" y="-84.5" font-family="Helvetica,sans-Serif" font-size="10.00">+ setEntityType()</text>
<text text-anchor="start" x="8" y="-73.5" font-family="Helvetica,sans-Serif" font-size="10.00">+ setValueMap()</text>
<text text-anchor="start" x="8" y="-62.5" font-family="Helvetica,sans-Serif" font-size="10.00">+ containsKey()</text>
<text text-anchor="start" x="8" y="-51.5" font-family="Helvetica,sans-Serif" font-size="10.00">+ getKeyValue()</text>
<text text-anchor="start" x="8" y="-40.5" font-family="Helvetica,sans-Serif" font-size="10.00">+ getId()</text>
<text text-anchor="start" x="8" y="-29.5" font-family="Helvetica,sans-Serif" font-size="10.00">+ keyChanged()</text>
<text text-anchor="start" x="8" y="-18.5" font-family="Helvetica,sans-Serif" font-size="10.00"># getAllKeyValues()</text>
<text text-anchor="start" x="8" y="-7.5" font-family="Helvetica,sans-Serif" font-size="10.00"># getSingleKeyValue()</text>
</g>
<!-- Node2 -->
<g id="node2" class="node"><title>Node2</title>
<g id="a_node2"><a xlink:href="interfacewcmf_1_1lib_1_1config_1_1_action_key_provider.html" target="_top" xlink:title="Implementations of ActionKeyProvider search for action keys. ">
<polygon fill="white" stroke="black" points="26,-193.5 26,-272.5 122,-272.5 122,-193.5 26,-193.5"/>
<text text-anchor="middle" x="74" y="-260.5" font-family="Helvetica,sans-Serif" font-size="10.00">ActionKeyProvider</text>
<polyline fill="none" stroke="black" points="26,-253.5 122,-253.5 "/>
<text text-anchor="middle" x="74" y="-241.5" font-family="Helvetica,sans-Serif" font-size="10.00"> </text>
<polyline fill="none" stroke="black" points="26,-234.5 122,-234.5 "/>
<text text-anchor="start" x="34" y="-222.5" font-family="Helvetica,sans-Serif" font-size="10.00">+ containsKey()</text>
<text text-anchor="start" x="34" y="-211.5" font-family="Helvetica,sans-Serif" font-size="10.00">+ getKeyValue()</text>
<text text-anchor="start" x="34" y="-200.5" font-family="Helvetica,sans-Serif" font-size="10.00">+ getId()</text>
</a>
</g>
</g>
<!-- Node2&#45;&gt;Node1 -->
<g id="edge1" class="edge"><title>Node2&#45;&gt;Node1</title>
<path fill="none" stroke="midnightblue" d="M74,-183.08C74,-174.607 74,-165.615 74,-156.608"/>
<polygon fill="none" stroke="midnightblue" points="70.5001,-183.123 74,-193.123 77.5001,-183.123 70.5001,-183.123"/>
</g>
</g>
</svg>
