<?xml version="1.0" encoding="UTF-8" standalone="no"?>
<!DOCTYPE svg PUBLIC "-//W3C//DTD SVG 1.1//EN"
 "http://www.w3.org/Graphics/SVG/1.1/DTD/svg11.dtd">
<!-- Generated by graphviz version 2.38.0 (20140413.2041)
 -->
<!-- Title: ConfigListStrategy Pages: 1 -->
<svg width="104pt" height="182pt"
 viewBox="0.00 0.00 104.00 182.00" xmlns="http://www.w3.org/2000/svg" xmlns:xlink="http://www.w3.org/1999/xlink">
<g id="graph0" class="graph" transform="scale(1 1) rotate(0) translate(4 178)">
<title>ConfigListStrategy</title>
<polygon fill="white" stroke="none" points="-4,4 -4,-178 100,-178 100,4 -4,4"/>
<!-- Node1 -->
<g id="node1" class="node"><title>Node1</title>
<polygon fill="#bfbfbf" stroke="black" points="0,-0.5 0,-68.5 96,-68.5 96,-0.5 0,-0.5"/>
<text text-anchor="middle" x="48" y="-56.5" font-family="Helvetica,sans-Serif" font-size="10.00">ConfigListStrategy</text>
<polyline fill="none" stroke="black" points="0,-49.5 96,-49.5 "/>
<text text-anchor="middle" x="48" y="-37.5" font-family="Helvetica,sans-Serif" font-size="10.00"> </text>
<polyline fill="none" stroke="black" points="0,-30.5 96,-30.5 "/>
<text text-anchor="start" x="8" y="-18.5" font-family="Helvetica,sans-Serif" font-size="10.00">+ getList()</text>
<text text-anchor="start" x="8" y="-7.5" font-family="Helvetica,sans-Serif" font-size="10.00">+ isStatic()</text>
</g>
<!-- Node2 -->
<g id="node2" class="node"><title>Node2</title>
<g id="a_node2"><a xlink:href="interfacewcmf_1_1lib_1_1presentation_1_1control_1_1lists_1_1_list_strategy.html" target="_top" xlink:title="ListStrategy defines the interface for classes that retrieve value lists. ">
<polygon fill="white" stroke="black" points="13.5,-105.5 13.5,-173.5 82.5,-173.5 82.5,-105.5 13.5,-105.5"/>
<text text-anchor="middle" x="48" y="-161.5" font-family="Helvetica,sans-Serif" font-size="10.00">ListStrategy</text>
<polyline fill="none" stroke="black" points="13.5,-154.5 82.5,-154.5 "/>
<text text-anchor="middle" x="48" y="-142.5" font-family="Helvetica,sans-Serif" font-size="10.00"> </text>
<polyline fill="none" stroke="black" points="13.5,-135.5 82.5,-135.5 "/>
<text text-anchor="start" x="21.5" y="-123.5" font-family="Helvetica,sans-Serif" font-size="10.00">+ getList()</text>
<text text-anchor="start" x="21.5" y="-112.5" font-family="Helvetica,sans-Serif" font-size="10.00">+ isStatic()</text>
</a>
</g>
</g>
<!-- Node2&#45;&gt;Node1 -->
<g id="edge1" class="edge"><title>Node2&#45;&gt;Node1</title>
<path fill="none" stroke="midnightblue" d="M48,-95.1362C48,-86.256 48,-77.0447 48,-68.5947"/>
<polygon fill="none" stroke="midnightblue" points="44.5001,-95.3432 48,-105.343 51.5001,-95.3432 44.5001,-95.3432"/>
</g>
</g>
</svg>
