<?xml version="1.0" encoding="UTF-8" standalone="no"?>
<!DOCTYPE svg PUBLIC "-//W3C//DTD SVG 1.1//EN"
 "http://www.w3.org/Graphics/SVG/1.1/DTD/svg11.dtd">
<!-- Generated by graphviz version 2.38.0 (20140413.2041)
 -->
<!-- Title: RPCClient Pages: 1 -->
<svg width="159pt" height="226pt"
 viewBox="0.00 0.00 159.00 226.00" xmlns="http://www.w3.org/2000/svg" xmlns:xlink="http://www.w3.org/1999/xlink">
<g id="graph0" class="graph" transform="scale(1 1) rotate(0) translate(4 222)">
<title>RPCClient</title>
<polygon fill="white" stroke="none" points="-4,4 -4,-222 155,-222 155,4 -4,4"/>
<!-- Node1 -->
<g id="node1" class="node"><title>Node1</title>
<polygon fill="#bfbfbf" stroke="black" points="0,-0.5 0,-123.5 151,-123.5 151,-0.5 0,-0.5"/>
<text text-anchor="middle" x="75.5" y="-111.5" font-family="Helvetica,sans-Serif" font-size="10.00">RPCClient</text>
<polyline fill="none" stroke="black" points="0,-104.5 151,-104.5 "/>
<text text-anchor="start" x="8" y="-92.5" font-family="Helvetica,sans-Serif" font-size="10.00">+ SIDS_SESSION_VARNAME</text>
<polyline fill="none" stroke="black" points="0,-85.5 151,-85.5 "/>
<text text-anchor="start" x="8" y="-73.5" font-family="Helvetica,sans-Serif" font-size="10.00">+ __construct()</text>
<text text-anchor="start" x="8" y="-62.5" font-family="Helvetica,sans-Serif" font-size="10.00">+ call()</text>
<text text-anchor="start" x="8" y="-51.5" font-family="Helvetica,sans-Serif" font-size="10.00"># doRemoteCall()</text>
<text text-anchor="start" x="8" y="-40.5" font-family="Helvetica,sans-Serif" font-size="10.00"># doLogin()</text>
<text text-anchor="start" x="8" y="-29.5" font-family="Helvetica,sans-Serif" font-size="10.00"># setSessionId()</text>
<text text-anchor="start" x="8" y="-18.5" font-family="Helvetica,sans-Serif" font-size="10.00"># getSessionId()</text>
<text text-anchor="start" x="8" y="-7.5" font-family="Helvetica,sans-Serif" font-size="10.00"># handleError()</text>
</g>
<!-- Node2 -->
<g id="node2" class="node"><title>Node2</title>
<g id="a_node2"><a xlink:href="interfacewcmf_1_1lib_1_1service_1_1_remoting_client.html" target="_top" xlink:title="RemotingClient defines the interface for clients to be used with RemotingServer. ">
<polygon fill="white" stroke="black" points="34,-160.5 34,-217.5 117,-217.5 117,-160.5 34,-160.5"/>
<text text-anchor="middle" x="75.5" y="-205.5" font-family="Helvetica,sans-Serif" font-size="10.00">RemotingClient</text>
<polyline fill="none" stroke="black" points="34,-198.5 117,-198.5 "/>
<text text-anchor="middle" x="75.5" y="-186.5" font-family="Helvetica,sans-Serif" font-size="10.00"> </text>
<polyline fill="none" stroke="black" points="34,-179.5 117,-179.5 "/>
<text text-anchor="start" x="42" y="-167.5" font-family="Helvetica,sans-Serif" font-size="10.00">+ call()</text>
</a>
</g>
</g>
<!-- Node2&#45;&gt;Node1 -->
<g id="edge1" class="edge"><title>Node2&#45;&gt;Node1</title>
<path fill="none" stroke="midnightblue" d="M75.5,-150.099C75.5,-141.739 75.5,-132.68 75.5,-123.672"/>
<polygon fill="none" stroke="midnightblue" points="72.0001,-150.258 75.5,-160.258 79.0001,-150.258 72.0001,-150.258"/>
</g>
</g>
</svg>
