<?xml version="1.0" encoding="UTF-8" standalone="no"?>
<!DOCTYPE svg PUBLIC "-//W3C//DTD SVG 1.1//EN"
 "http://www.w3.org/Graphics/SVG/1.1/DTD/svg11.dtd">
<!-- Generated by graphviz version 2.38.0 (20140413.2041)
 -->
<!-- Title: PropertyChangeEvent Pages: 1 -->
<svg width="118pt" height="215pt"
 viewBox="0.00 0.00 118.00 215.00" xmlns="http://www.w3.org/2000/svg" xmlns:xlink="http://www.w3.org/1999/xlink">
<g id="graph0" class="graph" transform="scale(1 1) rotate(0) translate(4 211)">
<title>PropertyChangeEvent</title>
<polygon fill="white" stroke="none" points="-4,4 -4,-211 114,-211 114,4 -4,4"/>
<!-- Node1 -->
<g id="node1" class="node"><title>Node1</title>
<polygon fill="#bfbfbf" stroke="black" points="0,-0.5 0,-101.5 110,-101.5 110,-0.5 0,-0.5"/>
<text text-anchor="middle" x="55" y="-89.5" font-family="Helvetica,sans-Serif" font-size="10.00">PropertyChangeEvent</text>
<polyline fill="none" stroke="black" points="0,-82.5 110,-82.5 "/>
<text text-anchor="start" x="8" y="-70.5" font-family="Helvetica,sans-Serif" font-size="10.00">+ NAME</text>
<polyline fill="none" stroke="black" points="0,-63.5 110,-63.5 "/>
<text text-anchor="start" x="8" y="-51.5" font-family="Helvetica,sans-Serif" font-size="10.00">+ __construct()</text>
<text text-anchor="start" x="8" y="-40.5" font-family="Helvetica,sans-Serif" font-size="10.00">+ getObject()</text>
<text text-anchor="start" x="8" y="-29.5" font-family="Helvetica,sans-Serif" font-size="10.00">+ getPropertyName()</text>
<text text-anchor="start" x="8" y="-18.5" font-family="Helvetica,sans-Serif" font-size="10.00">+ getOldValue()</text>
<text text-anchor="start" x="8" y="-7.5" font-family="Helvetica,sans-Serif" font-size="10.00">+ getNewValue()</text>
</g>
<!-- Node2 -->
<g id="node2" class="node"><title>Node2</title>
<g id="a_node2"><a xlink:href="classwcmf_1_1lib_1_1core_1_1_event.html" target="_top" xlink:title="Event is the base class for all events. ">
<polygon fill="white" stroke="black" points="4,-138.5 4,-206.5 106,-206.5 106,-138.5 4,-138.5"/>
<text text-anchor="middle" x="55" y="-194.5" font-family="Helvetica,sans-Serif" font-size="10.00">Event</text>
<polyline fill="none" stroke="black" points="4,-187.5 106,-187.5 "/>
<text text-anchor="middle" x="55" y="-175.5" font-family="Helvetica,sans-Serif" font-size="10.00"> </text>
<polyline fill="none" stroke="black" points="4,-168.5 106,-168.5 "/>
<text text-anchor="start" x="12" y="-156.5" font-family="Helvetica,sans-Serif" font-size="10.00">+ stopPropagation()</text>
<text text-anchor="start" x="12" y="-145.5" font-family="Helvetica,sans-Serif" font-size="10.00">+ isStopped()</text>
</a>
</g>
</g>
<!-- Node2&#45;&gt;Node1 -->
<g id="edge1" class="edge"><title>Node2&#45;&gt;Node1</title>
<path fill="none" stroke="midnightblue" d="M55,-128.045C55,-119.469 55,-110.408 55,-101.646"/>
<polygon fill="none" stroke="midnightblue" points="51.5001,-128.213 55,-138.213 58.5001,-128.213 51.5001,-128.213"/>
</g>
</g>
</svg>
