<?xml version="1.0" encoding="UTF-8" standalone="no"?>
<!DOCTYPE svg PUBLIC "-//W3C//DTD SVG 1.1//EN"
 "http://www.w3.org/Graphics/SVG/1.1/DTD/svg11.dtd">
<!-- Generated by graphviz version 2.38.0 (20140413.2041)
 -->
<!-- Title: SoapServer Pages: 1 -->
<svg width="102pt" height="193pt"
 viewBox="0.00 0.00 102.00 193.00" xmlns="http://www.w3.org/2000/svg" xmlns:xlink="http://www.w3.org/1999/xlink">
<g id="graph0" class="graph" transform="scale(1 1) rotate(0) translate(4 189)">
<title>SoapServer</title>
<polygon fill="white" stroke="none" points="-4,4 -4,-189 98,-189 98,4 -4,4"/>
<!-- Node1 -->
<g id="node1" class="node"><title>Node1</title>
<polygon fill="#bfbfbf" stroke="black" points="0,-0.5 0,-90.5 94,-90.5 94,-0.5 0,-0.5"/>
<text text-anchor="middle" x="47" y="-78.5" font-family="Helvetica,sans-Serif" font-size="10.00">SoapServer</text>
<polyline fill="none" stroke="black" points="0,-71.5 94,-71.5 "/>
<text text-anchor="start" x="8" y="-59.5" font-family="Helvetica,sans-Serif" font-size="10.00">+ TNS</text>
<polyline fill="none" stroke="black" points="0,-52.5 94,-52.5 "/>
<text text-anchor="start" x="8" y="-40.5" font-family="Helvetica,sans-Serif" font-size="10.00">+ __construct()</text>
<text text-anchor="start" x="8" y="-29.5" font-family="Helvetica,sans-Serif" font-size="10.00">+ service()</text>
<text text-anchor="start" x="8" y="-18.5" font-family="Helvetica,sans-Serif" font-size="10.00">+ getDummyOid()</text>
<text text-anchor="start" x="8" y="-7.5" font-family="Helvetica,sans-Serif" font-size="10.00">+ doCall()</text>
</g>
<!-- Node2 -->
<g id="node2" class="node"><title>Node2</title>
<polygon fill="white" stroke="#bfbfbf" points="7.5,-127.5 7.5,-184.5 86.5,-184.5 86.5,-127.5 7.5,-127.5"/>
<text text-anchor="middle" x="47" y="-172.5" font-family="Helvetica,sans-Serif" font-size="10.00">nusoap_server</text>
<polyline fill="none" stroke="#bfbfbf" points="7.5,-165.5 86.5,-165.5 "/>
<text text-anchor="middle" x="47" y="-153.5" font-family="Helvetica,sans-Serif" font-size="10.00"> </text>
<polyline fill="none" stroke="#bfbfbf" points="7.5,-146.5 86.5,-146.5 "/>
<text text-anchor="middle" x="47" y="-134.5" font-family="Helvetica,sans-Serif" font-size="10.00"> </text>
</g>
<!-- Node2&#45;&gt;Node1 -->
<g id="edge1" class="edge"><title>Node2&#45;&gt;Node1</title>
<path fill="none" stroke="midnightblue" d="M47,-117.214C47,-108.609 47,-99.3943 47,-90.5541"/>
<polygon fill="none" stroke="midnightblue" points="43.5001,-117.34 47,-127.34 50.5001,-117.34 43.5001,-117.34"/>
</g>
</g>
</svg>
