<?xml version="1.0" encoding="UTF-8" standalone="no"?>
<!DOCTYPE svg PUBLIC "-//W3C//DTD SVG 1.1//EN"
 "http://www.w3.org/Graphics/SVG/1.1/DTD/svg11.dtd">
<!-- Generated by graphviz version 2.38.0 (20140413.2041)
 -->
<!-- Title: application Pages: 1 -->
<svg width="266pt" height="111pt"
 viewBox="0.00 0.00 266.00 111.00" xmlns="http://www.w3.org/2000/svg" xmlns:xlink="http://www.w3.org/1999/xlink">
<g id="graph0" class="graph" transform="scale(1 1) rotate(0) translate(4 107)">
<title>application</title>
<polygon fill="white" stroke="none" points="-4,4 -4,-107 262,-107 262,4 -4,4"/>
<g id="clust1" class="cluster"><title>clusterdir_8d315ded3d8809bdca406340d4217ac5</title>
<g id="a_clust1"><a xlink:href="dir_8d315ded3d8809bdca406340d4217ac5.html" target="_top" xlink:title="wcmf">
<polygon fill="#ddddee" stroke="black" points="8,-8 8,-95 250,-95 250,-8 8,-8"/>
<text text-anchor="middle" x="129" y="-83" font-family="Helvetica,sans-Serif" font-size="10.00">wcmf</text>
</a>
</g>
</g>
<g id="clust2" class="cluster"><title>clusterdir_92ecf41c7c746b69a18e17c24e2a7177</title>
<g id="a_clust2"><a xlink:href="dir_92ecf41c7c746b69a18e17c24e2a7177.html" target="_top">
<polygon fill="#eeeeff" stroke="black" points="16,-16 16,-68 242,-68 242,-16 16,-16"/>
</a>
</g>
</g>
<!-- dir_92ecf41c7c746b69a18e17c24e2a7177 -->
<g id="node1" class="node"><title>dir_92ecf41c7c746b69a18e17c24e2a7177</title>
<text text-anchor="middle" x="202" y="-39.5" font-family="Helvetica,sans-Serif" font-size="10.00">application</text>
</g>
<!-- dir_be4702f5867fb6cb6c12c079a53e2a9d -->
<g id="node2" class="node"><title>dir_be4702f5867fb6cb6c12c079a53e2a9d</title>
<g id="a_node2"><a xlink:href="dir_be4702f5867fb6cb6c12c079a53e2a9d.html" target="_top" xlink:title="controller">
<polygon fill="white" stroke="black" points="152,-60 96,-60 96,-24 152,-24 152,-60"/>
<text text-anchor="middle" x="124" y="-39.5" font-family="Helvetica,sans-Serif" font-size="10.00">controller</text>
</a>
</g>
</g>
<!-- dir_b26d45f4ed02f441d6197443c0cce6ca -->
<g id="node3" class="node"><title>dir_b26d45f4ed02f441d6197443c0cce6ca</title>
<g id="a_node3"><a xlink:href="dir_b26d45f4ed02f441d6197443c0cce6ca.html" target="_top" xlink:title="views">
<polygon fill="white" stroke="red" points="78,-60 24,-60 24,-24 78,-24 78,-60"/>
<text text-anchor="middle" x="51" y="-39.5" font-family="Helvetica,sans-Serif" font-size="10.00">views</text>
</a>
</g>
</g>
</g>
</svg>
