<?xml version="1.0" encoding="UTF-8" standalone="no"?>
<!DOCTYPE svg PUBLIC "-//W3C//DTD SVG 1.1//EN"
 "http://www.w3.org/Graphics/SVG/1.1/DTD/svg11.dtd">
<!-- Generated by graphviz version 2.38.0 (20140413.2041)
 -->
<!-- Title: src/wcmf Pages: 1 -->
<svg width="336pt" height="111pt"
 viewBox="0.00 0.00 336.00 111.00" xmlns="http://www.w3.org/2000/svg" xmlns:xlink="http://www.w3.org/1999/xlink">
<g id="graph0" class="graph" transform="scale(1 1) rotate(0) translate(4 107)">
<title>src/wcmf</title>
<polygon fill="white" stroke="none" points="-4,4 -4,-107 332,-107 332,4 -4,4"/>
<g id="clust1" class="cluster"><title>clusterdir_887d14fad5e0ff768536a703b20a65b6</title>
<g id="a_clust1"><a xlink:href="dir_887d14fad5e0ff768536a703b20a65b6.html" target="_top" xlink:title="src">
<polygon fill="#ddddee" stroke="black" points="8,-8 8,-95 320,-95 320,-8 8,-8"/>
<text text-anchor="middle" x="164" y="-83" font-family="Helvetica,sans-Serif" font-size="10.00">src</text>
</a>
</g>
</g>
<g id="clust2" class="cluster"><title>clusterdir_8d315ded3d8809bdca406340d4217ac5</title>
<g id="a_clust2"><a xlink:href="dir_8d315ded3d8809bdca406340d4217ac5.html" target="_top">
<polygon fill="#eeeeff" stroke="black" points="16,-16 16,-68 312,-68 312,-16 16,-16"/>
</a>
</g>
</g>
<!-- dir_8d315ded3d8809bdca406340d4217ac5 -->
<g id="node1" class="node"><title>dir_8d315ded3d8809bdca406340d4217ac5</title>
<text text-anchor="middle" x="277" y="-39.5" font-family="Helvetica,sans-Serif" font-size="10.00">wcmf</text>
</g>
<!-- dir_92ecf41c7c746b69a18e17c24e2a7177 -->
<g id="node2" class="node"><title>dir_92ecf41c7c746b69a18e17c24e2a7177</title>
<g id="a_node2"><a xlink:href="dir_92ecf41c7c746b69a18e17c24e2a7177.html" target="_top" xlink:title="application">
<polygon fill="white" stroke="red" points="231.5,-60 168.5,-60 168.5,-24 231.5,-24 231.5,-60"/>
<text text-anchor="middle" x="200" y="-39.5" font-family="Helvetica,sans-Serif" font-size="10.00">application</text>
</a>
</g>
</g>
<!-- dir_adbc723cc94464b010849d4ce776bdfe -->
<g id="node3" class="node"><title>dir_adbc723cc94464b010849d4ce776bdfe</title>
<g id="a_node3"><a xlink:href="dir_adbc723cc94464b010849d4ce776bdfe.html" target="_top" xlink:title="lib">
<polygon fill="white" stroke="red" points="150,-60 96,-60 96,-24 150,-24 150,-60"/>
<text text-anchor="middle" x="123" y="-39.5" font-family="Helvetica,sans-Serif" font-size="10.00">lib</text>
</a>
</g>
</g>
<!-- dir_0387fbd79ffba380e182992c029b2993 -->
<g id="node4" class="node"><title>dir_0387fbd79ffba380e182992c029b2993</title>
<g id="a_node4"><a xlink:href="dir_0387fbd79ffba380e182992c029b2993.html" target="_top" xlink:title="test">
<polygon fill="white" stroke="red" points="78,-60 24,-60 24,-24 78,-24 78,-60"/>
<text text-anchor="middle" x="51" y="-39.5" font-family="Helvetica,sans-Serif" font-size="10.00">test</text>
</a>
</g>
</g>
</g>
</svg>
