<?xml version="1.0" encoding="UTF-8" standalone="no"?>
<!DOCTYPE svg PUBLIC "-//W3C//DTD SVG 1.1//EN"
 "http://www.w3.org/Graphics/SVG/1.1/DTD/svg11.dtd">
<!-- Generated by graphviz version 2.38.0 (20140413.2041)
 -->
<!-- Title: lib Pages: 1 -->
<svg width="1004pt" height="111pt"
 viewBox="0.00 0.00 1004.00 111.00" xmlns="http://www.w3.org/2000/svg" xmlns:xlink="http://www.w3.org/1999/xlink">
<g id="graph0" class="graph" transform="scale(1 1) rotate(0) translate(4 107)">
<title>lib</title>
<polygon fill="white" stroke="none" points="-4,4 -4,-107 1000,-107 1000,4 -4,4"/>
<g id="clust1" class="cluster"><title>clusterdir_8d315ded3d8809bdca406340d4217ac5</title>
<g id="a_clust1"><a xlink:href="dir_8d315ded3d8809bdca406340d4217ac5.html" target="_top" xlink:title="wcmf">
<polygon fill="#ddddee" stroke="black" points="8,-8 8,-95 988,-95 988,-8 8,-8"/>
<text text-anchor="middle" x="498" y="-83" font-family="Helvetica,sans-Serif" font-size="10.00">wcmf</text>
</a>
</g>
</g>
<g id="clust2" class="cluster"><title>clusterdir_adbc723cc94464b010849d4ce776bdfe</title>
<g id="a_clust2"><a xlink:href="dir_adbc723cc94464b010849d4ce776bdfe.html" target="_top">
<polygon fill="#eeeeff" stroke="black" points="16,-16 16,-68 980,-68 980,-16 16,-16"/>
</a>
</g>
</g>
<!-- dir_adbc723cc94464b010849d4ce776bdfe -->
<g id="node1" class="node"><title>dir_adbc723cc94464b010849d4ce776bdfe</title>
<text text-anchor="middle" x="945" y="-39.5" font-family="Helvetica,sans-Serif" font-size="10.00">lib</text>
</g>
<!-- dir_e65b9ab666b7a2126540a07b45c414f5 -->
<g id="node2" class="node"><title>dir_e65b9ab666b7a2126540a07b45c414f5</title>
<g id="a_node2"><a xlink:href="dir_e65b9ab666b7a2126540a07b45c414f5.html" target="_top" xlink:title="config">
<polygon fill="white" stroke="red" points="900,-60 846,-60 846,-24 900,-24 900,-60"/>
<text text-anchor="middle" x="873" y="-39.5" font-family="Helvetica,sans-Serif" font-size="10.00">config</text>
</a>
</g>
</g>
<!-- dir_c0db750643743a0da4825c964e6aa9b8 -->
<g id="node3" class="node"><title>dir_c0db750643743a0da4825c964e6aa9b8</title>
<g id="a_node3"><a xlink:href="dir_c0db750643743a0da4825c964e6aa9b8.html" target="_top" xlink:title="core">
<polygon fill="white" stroke="red" points="828,-60 774,-60 774,-24 828,-24 828,-60"/>
<text text-anchor="middle" x="801" y="-39.5" font-family="Helvetica,sans-Serif" font-size="10.00">core</text>
</a>
</g>
</g>
<!-- dir_81f68ecf293980a7c2bb312e264f10e2 -->
<g id="node4" class="node"><title>dir_81f68ecf293980a7c2bb312e264f10e2</title>
<g id="a_node4"><a xlink:href="dir_81f68ecf293980a7c2bb312e264f10e2.html" target="_top" xlink:title="i18n">
<polygon fill="white" stroke="red" points="756,-60 702,-60 702,-24 756,-24 756,-60"/>
<text text-anchor="middle" x="729" y="-39.5" font-family="Helvetica,sans-Serif" font-size="10.00">i18n</text>
</a>
</g>
</g>
<!-- dir_b298a8a391321ad84c013e07e70899d5 -->
<g id="node5" class="node"><title>dir_b298a8a391321ad84c013e07e70899d5</title>
<g id="a_node5"><a xlink:href="dir_b298a8a391321ad84c013e07e70899d5.html" target="_top" xlink:title="io">
<polygon fill="white" stroke="red" points="684,-60 630,-60 630,-24 684,-24 684,-60"/>
<text text-anchor="middle" x="657" y="-39.5" font-family="Helvetica,sans-Serif" font-size="10.00">io</text>
</a>
</g>
</g>
<!-- dir_566e3fac835f6c771650e39d60f44b6f -->
<g id="node6" class="node"><title>dir_566e3fac835f6c771650e39d60f44b6f</title>
<g id="a_node6"><a xlink:href="dir_566e3fac835f6c771650e39d60f44b6f.html" target="_top" xlink:title="model">
<polygon fill="white" stroke="red" points="612,-60 558,-60 558,-24 612,-24 612,-60"/>
<text text-anchor="middle" x="585" y="-39.5" font-family="Helvetica,sans-Serif" font-size="10.00">model</text>
</a>
</g>
</g>
<!-- dir_521190b0fd607ac399423405c742d8c8 -->
<g id="node7" class="node"><title>dir_521190b0fd607ac399423405c742d8c8</title>
<g id="a_node7"><a xlink:href="dir_521190b0fd607ac399423405c742d8c8.html" target="_top" xlink:title="pdf">
<polygon fill="white" stroke="black" points="540,-60 486,-60 486,-24 540,-24 540,-60"/>
<text text-anchor="middle" x="513" y="-39.5" font-family="Helvetica,sans-Serif" font-size="10.00">pdf</text>
</a>
</g>
</g>
<!-- dir_b898f28a4f0daa19846b3fa3194bc50a -->
<g id="node8" class="node"><title>dir_b898f28a4f0daa19846b3fa3194bc50a</title>
<g id="a_node8"><a xlink:href="dir_b898f28a4f0daa19846b3fa3194bc50a.html" target="_top" xlink:title="persistence">
<polygon fill="white" stroke="red" points="467.5,-60 400.5,-60 400.5,-24 467.5,-24 467.5,-60"/>
<text text-anchor="middle" x="434" y="-39.5" font-family="Helvetica,sans-Serif" font-size="10.00">persistence</text>
</a>
</g>
</g>
<!-- dir_bc2bb76518887562a4a7b60b266d98ee -->
<g id="node9" class="node"><title>dir_bc2bb76518887562a4a7b60b266d98ee</title>
<g id="a_node9"><a xlink:href="dir_bc2bb76518887562a4a7b60b266d98ee.html" target="_top" xlink:title="presentation">
<polygon fill="white" stroke="red" points="382,-60 312,-60 312,-24 382,-24 382,-60"/>
<text text-anchor="middle" x="347" y="-39.5" font-family="Helvetica,sans-Serif" font-size="10.00">presentation</text>
</a>
</g>
</g>
<!-- dir_04c56c79b47b20085847301eb216c080 -->
<g id="node10" class="node"><title>dir_04c56c79b47b20085847301eb216c080</title>
<g id="a_node10"><a xlink:href="dir_04c56c79b47b20085847301eb216c080.html" target="_top" xlink:title="search">
<polygon fill="white" stroke="red" points="294,-60 240,-60 240,-24 294,-24 294,-60"/>
<text text-anchor="middle" x="267" y="-39.5" font-family="Helvetica,sans-Serif" font-size="10.00">search</text>
</a>
</g>
</g>
<!-- dir_811c0487b4efa7ac2869540a5398eb76 -->
<g id="node11" class="node"><title>dir_811c0487b4efa7ac2869540a5398eb76</title>
<g id="a_node11"><a xlink:href="dir_811c0487b4efa7ac2869540a5398eb76.html" target="_top" xlink:title="security">
<polygon fill="white" stroke="red" points="222,-60 168,-60 168,-24 222,-24 222,-60"/>
<text text-anchor="middle" x="195" y="-39.5" font-family="Helvetica,sans-Serif" font-size="10.00">security</text>
</a>
</g>
</g>
<!-- dir_ae742347c3976046c7f26ad9e53b99c3 -->
<g id="node12" class="node"><title>dir_ae742347c3976046c7f26ad9e53b99c3</title>
<g id="a_node12"><a xlink:href="dir_ae742347c3976046c7f26ad9e53b99c3.html" target="_top" xlink:title="service">
<polygon fill="white" stroke="red" points="150,-60 96,-60 96,-24 150,-24 150,-60"/>
<text text-anchor="middle" x="123" y="-39.5" font-family="Helvetica,sans-Serif" font-size="10.00">service</text>
</a>
</g>
</g>
<!-- dir_afa6934f40b643d4d8a6fe529d772222 -->
<g id="node13" class="node"><title>dir_afa6934f40b643d4d8a6fe529d772222</title>
<g id="a_node13"><a xlink:href="dir_afa6934f40b643d4d8a6fe529d772222.html" target="_top" xlink:title="util">
<polygon fill="white" stroke="black" points="78,-60 24,-60 24,-24 78,-24 78,-60"/>
<text text-anchor="middle" x="51" y="-39.5" font-family="Helvetica,sans-Serif" font-size="10.00">util</text>
</a>
</g>
</g>
</g>
</svg>
