<?xml version="1.0" encoding="UTF-8" standalone="no"?>
<!DOCTYPE svg PUBLIC "-//W3C//DTD SVG 1.1//EN"
 "http://www.w3.org/Graphics/SVG/1.1/DTD/svg11.dtd">
<!-- Generated by graphviz version 2.38.0 (20140413.2041)
 -->
<!-- Title: ControllerMessage Pages: 1 -->
<svg width="382pt" height="584pt"
 viewBox="0.00 0.00 381.50 584.00" xmlns="http://www.w3.org/2000/svg" xmlns:xlink="http://www.w3.org/1999/xlink">
<g id="graph0" class="graph" transform="scale(1 1) rotate(0) translate(4 580)">
<title>ControllerMessage</title>
<polygon fill="white" stroke="none" points="-4,4 -4,-580 377.5,-580 377.5,4 -4,4"/>
<!-- Node1 -->
<g id="node1" class="node"><title>Node1</title>
<polygon fill="#bfbfbf" stroke="black" points="155.5,-408.5 155.5,-575.5 253.5,-575.5 253.5,-408.5 155.5,-408.5"/>
<text text-anchor="middle" x="204.5" y="-563.5" font-family="Helvetica,sans-Serif" font-size="10.00">ControllerMessage</text>
<polyline fill="none" stroke="black" points="155.5,-556.5 253.5,-556.5 "/>
<text text-anchor="middle" x="204.5" y="-544.5" font-family="Helvetica,sans-Serif" font-size="10.00"> </text>
<polyline fill="none" stroke="black" points="155.5,-537.5 253.5,-537.5 "/>
<text text-anchor="start" x="163.5" y="-525.5" font-family="Helvetica,sans-Serif" font-size="10.00">+ setSender()</text>
<text text-anchor="start" x="163.5" y="-514.5" font-family="Helvetica,sans-Serif" font-size="10.00">+ getSender()</text>
<text text-anchor="start" x="163.5" y="-503.5" font-family="Helvetica,sans-Serif" font-size="10.00">+ setContext()</text>
<text text-anchor="start" x="163.5" y="-492.5" font-family="Helvetica,sans-Serif" font-size="10.00">+ getContext()</text>
<text text-anchor="start" x="163.5" y="-481.5" font-family="Helvetica,sans-Serif" font-size="10.00">+ setAction()</text>
<text text-anchor="start" x="163.5" y="-470.5" font-family="Helvetica,sans-Serif" font-size="10.00">+ getAction()</text>
<text text-anchor="start" x="163.5" y="-459.5" font-family="Helvetica,sans-Serif" font-size="10.00">+ setFormat()</text>
<text text-anchor="start" x="163.5" y="-448.5" font-family="Helvetica,sans-Serif" font-size="10.00">+ getFormat()</text>
<text text-anchor="start" x="163.5" y="-437.5" font-family="Helvetica,sans-Serif" font-size="10.00">+ setHeader()</text>
<text text-anchor="start" x="163.5" y="-426.5" font-family="Helvetica,sans-Serif" font-size="10.00">+ setHeaders()</text>
<text text-anchor="start" x="163.5" y="-415.5" font-family="Helvetica,sans-Serif" font-size="10.00">and 20 more...</text>
</g>
<!-- Node2 -->
<g id="node2" class="node"><title>Node2</title>
<g id="a_node2"><a xlink:href="classwcmf_1_1lib_1_1presentation_1_1impl_1_1_abstract_controller_message.html" target="_top" xlink:title="AbstractControllerMessage is the base class for request/response implementations. ...">
<polygon fill="white" stroke="black" points="137.5,-188 137.5,-366 271.5,-366 271.5,-188 137.5,-188"/>
<text text-anchor="middle" x="204.5" y="-354" font-family="Helvetica,sans-Serif" font-size="10.00">AbstractControllerMessage</text>
<polyline fill="none" stroke="black" points="137.5,-347 271.5,-347 "/>
<text text-anchor="middle" x="204.5" y="-335" font-family="Helvetica,sans-Serif" font-size="10.00"> </text>
<polyline fill="none" stroke="black" points="137.5,-328 271.5,-328 "/>
<text text-anchor="start" x="145.5" y="-316" font-family="Helvetica,sans-Serif" font-size="10.00">+ __construct()</text>
<text text-anchor="start" x="145.5" y="-305" font-family="Helvetica,sans-Serif" font-size="10.00">+ setSender()</text>
<text text-anchor="start" x="145.5" y="-294" font-family="Helvetica,sans-Serif" font-size="10.00">+ getSender()</text>
<text text-anchor="start" x="145.5" y="-283" font-family="Helvetica,sans-Serif" font-size="10.00">+ setContext()</text>
<text text-anchor="start" x="145.5" y="-272" font-family="Helvetica,sans-Serif" font-size="10.00">+ getContext()</text>
<text text-anchor="start" x="145.5" y="-261" font-family="Helvetica,sans-Serif" font-size="10.00">+ setAction()</text>
<text text-anchor="start" x="145.5" y="-250" font-family="Helvetica,sans-Serif" font-size="10.00">+ getAction()</text>
<text text-anchor="start" x="145.5" y="-239" font-family="Helvetica,sans-Serif" font-size="10.00">+ setFormat()</text>
<text text-anchor="start" x="145.5" y="-228" font-family="Helvetica,sans-Serif" font-size="10.00">+ getFormat()</text>
<text text-anchor="start" x="145.5" y="-217" font-family="Helvetica,sans-Serif" font-size="10.00">+ setHeader()</text>
<text text-anchor="start" x="145.5" y="-206" font-family="Helvetica,sans-Serif" font-size="10.00">and 22 more...</text>
<text text-anchor="start" x="145.5" y="-195" font-family="Helvetica,sans-Serif" font-size="10.00"># getFormatter()</text>
</a>
</g>
</g>
<!-- Node1&#45;&gt;Node2 -->
<g id="edge1" class="edge"><title>Node1&#45;&gt;Node2</title>
<path fill="none" stroke="midnightblue" d="M204.5,-398.233C204.5,-387.614 204.5,-376.809 204.5,-366.251"/>
<polygon fill="none" stroke="midnightblue" points="201,-398.344 204.5,-408.344 208,-398.344 201,-398.344"/>
</g>
<!-- Node5 -->
<g id="node5" class="node"><title>Node5</title>
<g id="a_node5"><a xlink:href="interfacewcmf_1_1lib_1_1presentation_1_1_request.html" target="_top" xlink:title="Request holds the request values that are used as input to Controller instances. ">
<polygon fill="white" stroke="black" points="0,-232 0,-322 119,-322 119,-232 0,-232"/>
<text text-anchor="middle" x="59.5" y="-310" font-family="Helvetica,sans-Serif" font-size="10.00">Request</text>
<polyline fill="none" stroke="black" points="0,-303 119,-303 "/>
<text text-anchor="middle" x="59.5" y="-291" font-family="Helvetica,sans-Serif" font-size="10.00"> </text>
<polyline fill="none" stroke="black" points="0,-284 119,-284 "/>
<text text-anchor="start" x="8" y="-272" font-family="Helvetica,sans-Serif" font-size="10.00">+ initialize()</text>
<text text-anchor="start" x="8" y="-261" font-family="Helvetica,sans-Serif" font-size="10.00">+ getMethod()</text>
<text text-anchor="start" x="8" y="-250" font-family="Helvetica,sans-Serif" font-size="10.00">+ setResponseFormat()</text>
<text text-anchor="start" x="8" y="-239" font-family="Helvetica,sans-Serif" font-size="10.00">+ getResponseFormat()</text>
</a>
</g>
</g>
<!-- Node1&#45;&gt;Node5 -->
<g id="edge4" class="edge"><title>Node1&#45;&gt;Node5</title>
<path fill="none" stroke="midnightblue" d="M149.711,-410.516C129.297,-380.529 106.888,-347.611 89.5111,-322.085"/>
<polygon fill="none" stroke="midnightblue" points="146.889,-412.591 155.41,-418.888 152.675,-408.652 146.889,-412.591"/>
</g>
<!-- Node6 -->
<g id="node6" class="node"><title>Node6</title>
<g id="a_node6"><a xlink:href="interfacewcmf_1_1lib_1_1presentation_1_1_response.html" target="_top" xlink:title="Response holds the response values that are used as output from Controller instances. ">
<polygon fill="white" stroke="black" points="289.5,-182.5 289.5,-371.5 373.5,-371.5 373.5,-182.5 289.5,-182.5"/>
<text text-anchor="middle" x="331.5" y="-359.5" font-family="Helvetica,sans-Serif" font-size="10.00">Response</text>
<polyline fill="none" stroke="black" points="289.5,-352.5 373.5,-352.5 "/>
<text text-anchor="start" x="297.5" y="-340.5" font-family="Helvetica,sans-Serif" font-size="10.00">+ STATUS_200</text>
<text text-anchor="start" x="297.5" y="-329.5" font-family="Helvetica,sans-Serif" font-size="10.00">+ STATUS_201</text>
<text text-anchor="start" x="297.5" y="-318.5" font-family="Helvetica,sans-Serif" font-size="10.00">+ STATUS_202</text>
<text text-anchor="start" x="297.5" y="-307.5" font-family="Helvetica,sans-Serif" font-size="10.00">+ STATUS_204</text>
<text text-anchor="start" x="297.5" y="-296.5" font-family="Helvetica,sans-Serif" font-size="10.00">+ STATUS_400</text>
<text text-anchor="start" x="297.5" y="-285.5" font-family="Helvetica,sans-Serif" font-size="10.00">+ STATUS_404</text>
<polyline fill="none" stroke="black" points="289.5,-278.5 373.5,-278.5 "/>
<text text-anchor="start" x="297.5" y="-266.5" font-family="Helvetica,sans-Serif" font-size="10.00">+ setCacheId()</text>
<text text-anchor="start" x="297.5" y="-255.5" font-family="Helvetica,sans-Serif" font-size="10.00">+ getCacheId()</text>
<text text-anchor="start" x="297.5" y="-244.5" font-family="Helvetica,sans-Serif" font-size="10.00">+ setStatus()</text>
<text text-anchor="start" x="297.5" y="-233.5" font-family="Helvetica,sans-Serif" font-size="10.00">+ getStatus()</text>
<text text-anchor="start" x="297.5" y="-222.5" font-family="Helvetica,sans-Serif" font-size="10.00">+ setFile()</text>
<text text-anchor="start" x="297.5" y="-211.5" font-family="Helvetica,sans-Serif" font-size="10.00">+ getFile()</text>
<text text-anchor="start" x="297.5" y="-200.5" font-family="Helvetica,sans-Serif" font-size="10.00">+ setFinal()</text>
<text text-anchor="start" x="297.5" y="-189.5" font-family="Helvetica,sans-Serif" font-size="10.00">+ isFinal()</text>
</a>
</g>
</g>
<!-- Node1&#45;&gt;Node6 -->
<g id="edge6" class="edge"><title>Node1&#45;&gt;Node6</title>
<path fill="none" stroke="midnightblue" d="M258.933,-407.415C266.315,-395.607 273.687,-383.555 280.5,-372 283.47,-366.962 286.482,-361.741 289.48,-356.457"/>
<polygon fill="none" stroke="midnightblue" points="255.921,-405.631 253.564,-415.96 261.848,-409.355 255.921,-405.631"/>
</g>
<!-- Node3 -->
<g id="node3" class="node"><title>Node3</title>
<g id="a_node3"><a xlink:href="classwcmf_1_1lib_1_1presentation_1_1impl_1_1_default_request.html" target="_top" xlink:title="Default Request implementation. ">
<polygon fill="white" stroke="black" points="11,-17 11,-129 130,-129 130,-17 11,-17"/>
<text text-anchor="middle" x="70.5" y="-117" font-family="Helvetica,sans-Serif" font-size="10.00">DefaultRequest</text>
<polyline fill="none" stroke="black" points="11,-110 130,-110 "/>
<text text-anchor="middle" x="70.5" y="-98" font-family="Helvetica,sans-Serif" font-size="10.00"> </text>
<polyline fill="none" stroke="black" points="11,-91 130,-91 "/>
<text text-anchor="start" x="19" y="-79" font-family="Helvetica,sans-Serif" font-size="10.00">+ __construct()</text>
<text text-anchor="start" x="19" y="-68" font-family="Helvetica,sans-Serif" font-size="10.00">+ initialize()</text>
<text text-anchor="start" x="19" y="-57" font-family="Helvetica,sans-Serif" font-size="10.00">+ getMethod()</text>
<text text-anchor="start" x="19" y="-46" font-family="Helvetica,sans-Serif" font-size="10.00">+ setResponseFormat()</text>
<text text-anchor="start" x="19" y="-35" font-family="Helvetica,sans-Serif" font-size="10.00">+ getResponseFormat()</text>
<text text-anchor="start" x="19" y="-24" font-family="Helvetica,sans-Serif" font-size="10.00">+ __toString()</text>
</a>
</g>
</g>
<!-- Node2&#45;&gt;Node3 -->
<g id="edge2" class="edge"><title>Node2&#45;&gt;Node3</title>
<path fill="none" stroke="midnightblue" d="M140.5,-179.523C129.031,-162.234 117.445,-144.767 107.088,-129.156"/>
<polygon fill="none" stroke="midnightblue" points="137.671,-181.589 146.115,-187.987 143.504,-177.719 137.671,-181.589"/>
</g>
<!-- Node4 -->
<g id="node4" class="node"><title>Node4</title>
<g id="a_node4"><a xlink:href="classwcmf_1_1lib_1_1presentation_1_1impl_1_1_default_response.html" target="_top" xlink:title="Default Response implementation. ">
<polygon fill="white" stroke="black" points="222.5,-0.5 222.5,-145.5 312.5,-145.5 312.5,-0.5 222.5,-0.5"/>
<text text-anchor="middle" x="267.5" y="-133.5" font-family="Helvetica,sans-Serif" font-size="10.00">DefaultResponse</text>
<polyline fill="none" stroke="black" points="222.5,-126.5 312.5,-126.5 "/>
<text text-anchor="middle" x="267.5" y="-114.5" font-family="Helvetica,sans-Serif" font-size="10.00"> </text>
<polyline fill="none" stroke="black" points="222.5,-107.5 312.5,-107.5 "/>
<text text-anchor="start" x="230.5" y="-95.5" font-family="Helvetica,sans-Serif" font-size="10.00">+ __construct()</text>
<text text-anchor="start" x="230.5" y="-84.5" font-family="Helvetica,sans-Serif" font-size="10.00">+ setCacheId()</text>
<text text-anchor="start" x="230.5" y="-73.5" font-family="Helvetica,sans-Serif" font-size="10.00">+ getCacheId()</text>
<text text-anchor="start" x="230.5" y="-62.5" font-family="Helvetica,sans-Serif" font-size="10.00">+ setStatus()</text>
<text text-anchor="start" x="230.5" y="-51.5" font-family="Helvetica,sans-Serif" font-size="10.00">+ getStatus()</text>
<text text-anchor="start" x="230.5" y="-40.5" font-family="Helvetica,sans-Serif" font-size="10.00">+ setFile()</text>
<text text-anchor="start" x="230.5" y="-29.5" font-family="Helvetica,sans-Serif" font-size="10.00">+ getFile()</text>
<text text-anchor="start" x="230.5" y="-18.5" font-family="Helvetica,sans-Serif" font-size="10.00">+ setFinal()</text>
<text text-anchor="start" x="230.5" y="-7.5" font-family="Helvetica,sans-Serif" font-size="10.00">+ isFinal()</text>
</a>
</g>
</g>
<!-- Node2&#45;&gt;Node4 -->
<g id="edge3" class="edge"><title>Node2&#45;&gt;Node4</title>
<path fill="none" stroke="midnightblue" d="M234.959,-178.336C238.394,-167.324 241.845,-156.258 245.149,-145.664"/>
<polygon fill="none" stroke="midnightblue" points="231.586,-177.399 231.949,-187.987 238.268,-179.483 231.586,-177.399"/>
</g>
<!-- Node5&#45;&gt;Node3 -->
<g id="edge5" class="edge"><title>Node5&#45;&gt;Node3</title>
<path fill="none" stroke="midnightblue" d="M62.4718,-221.427C64.0318,-192.779 65.9388,-157.761 67.5026,-129.043"/>
<polygon fill="none" stroke="midnightblue" points="58.963,-221.495 61.914,-231.67 65.9527,-221.875 58.963,-221.495"/>
</g>
<!-- Node6&#45;&gt;Node4 -->
<g id="edge7" class="edge"><title>Node6&#45;&gt;Node4</title>
<path fill="none" stroke="midnightblue" d="M298.802,-172.796C295.883,-163.585 292.973,-154.398 290.167,-145.542"/>
<polygon fill="none" stroke="midnightblue" points="295.485,-173.916 301.842,-182.392 302.158,-171.801 295.485,-173.916"/>
</g>
</g>
</svg>
