<?xml version="1.0" encoding="UTF-8" standalone="no"?>
<!DOCTYPE svg PUBLIC "-//W3C//DTD SVG 1.1//EN"
 "http://www.w3.org/Graphics/SVG/1.1/DTD/svg11.dtd">
<!-- Generated by graphviz version 2.38.0 (20140413.2041)
 -->
<!-- Title: Cache Pages: 1 -->
<svg width="176pt" height="270pt"
 viewBox="0.00 0.00 175.50 270.00" xmlns="http://www.w3.org/2000/svg" xmlns:xlink="http://www.w3.org/1999/xlink">
<g id="graph0" class="graph" transform="scale(1 1) rotate(0) translate(4 266)">
<title>Cache</title>
<polygon fill="white" stroke="none" points="-4,4 -4,-266 171.5,-266 171.5,4 -4,4"/>
<!-- Node1 -->
<g id="node1" class="node"><title>Node1</title>
<polygon fill="#bfbfbf" stroke="black" points="56.5,-160.5 56.5,-261.5 120.5,-261.5 120.5,-160.5 56.5,-160.5"/>
<text text-anchor="middle" x="88.5" y="-249.5" font-family="Helvetica,sans-Serif" font-size="10.00">Cache</text>
<polyline fill="none" stroke="black" points="56.5,-242.5 120.5,-242.5 "/>
<text text-anchor="middle" x="88.5" y="-230.5" font-family="Helvetica,sans-Serif" font-size="10.00"> </text>
<polyline fill="none" stroke="black" points="56.5,-223.5 120.5,-223.5 "/>
<text text-anchor="start" x="64.5" y="-211.5" font-family="Helvetica,sans-Serif" font-size="10.00">+ exists()</text>
<text text-anchor="start" x="64.5" y="-200.5" font-family="Helvetica,sans-Serif" font-size="10.00">+ get()</text>
<text text-anchor="start" x="64.5" y="-189.5" font-family="Helvetica,sans-Serif" font-size="10.00">+ put()</text>
<text text-anchor="start" x="64.5" y="-178.5" font-family="Helvetica,sans-Serif" font-size="10.00">+ clear()</text>
<text text-anchor="start" x="64.5" y="-167.5" font-family="Helvetica,sans-Serif" font-size="10.00">+ clearAll()</text>
</g>
<!-- Node2 -->
<g id="node2" class="node"><title>Node2</title>
<g id="a_node2"><a xlink:href="classwcmf_1_1lib_1_1io_1_1impl_1_1_file_cache.html" target="_top" xlink:title="FileCache provides simple caching functionality. ">
<polygon fill="white" stroke="black" points="0,-0.5 0,-123.5 85,-123.5 85,-0.5 0,-0.5"/>
<text text-anchor="middle" x="42.5" y="-111.5" font-family="Helvetica,sans-Serif" font-size="10.00">FileCache</text>
<polyline fill="none" stroke="black" points="0,-104.5 85,-104.5 "/>
<text text-anchor="middle" x="42.5" y="-92.5" font-family="Helvetica,sans-Serif" font-size="10.00"> </text>
<polyline fill="none" stroke="black" points="0,-85.5 85,-85.5 "/>
<text text-anchor="start" x="8" y="-73.5" font-family="Helvetica,sans-Serif" font-size="10.00">+ __construct()</text>
<text text-anchor="start" x="8" y="-62.5" font-family="Helvetica,sans-Serif" font-size="10.00">+ setCacheDir()</text>
<text text-anchor="start" x="8" y="-51.5" font-family="Helvetica,sans-Serif" font-size="10.00">+ exists()</text>
<text text-anchor="start" x="8" y="-40.5" font-family="Helvetica,sans-Serif" font-size="10.00">+ get()</text>
<text text-anchor="start" x="8" y="-29.5" font-family="Helvetica,sans-Serif" font-size="10.00">+ put()</text>
<text text-anchor="start" x="8" y="-18.5" font-family="Helvetica,sans-Serif" font-size="10.00">+ clear()</text>
<text text-anchor="start" x="8" y="-7.5" font-family="Helvetica,sans-Serif" font-size="10.00">+ clearAll()</text>
</a>
</g>
</g>
<!-- Node1&#45;&gt;Node2 -->
<g id="edge1" class="edge"><title>Node1&#45;&gt;Node2</title>
<path fill="none" stroke="midnightblue" d="M69.8571,-150.424C67.098,-141.607 64.252,-132.512 61.4859,-123.672"/>
<polygon fill="none" stroke="midnightblue" points="66.5997,-151.734 72.9265,-160.233 73.2803,-149.644 66.5997,-151.734"/>
</g>
<!-- Node3 -->
<g id="node3" class="node"><title>Node3</title>
<g id="a_node3"><a xlink:href="classwcmf_1_1lib_1_1io_1_1impl_1_1_null_cache.html" target="_top" xlink:title="NullCache acts as no cache. ">
<polygon fill="white" stroke="black" points="103.5,-11.5 103.5,-112.5 167.5,-112.5 167.5,-11.5 103.5,-11.5"/>
<text text-anchor="middle" x="135.5" y="-100.5" font-family="Helvetica,sans-Serif" font-size="10.00">NullCache</text>
<polyline fill="none" stroke="black" points="103.5,-93.5 167.5,-93.5 "/>
<text text-anchor="middle" x="135.5" y="-81.5" font-family="Helvetica,sans-Serif" font-size="10.00"> </text>
<polyline fill="none" stroke="black" points="103.5,-74.5 167.5,-74.5 "/>
<text text-anchor="start" x="111.5" y="-62.5" font-family="Helvetica,sans-Serif" font-size="10.00">+ exists()</text>
<text text-anchor="start" x="111.5" y="-51.5" font-family="Helvetica,sans-Serif" font-size="10.00">+ get()</text>
<text text-anchor="start" x="111.5" y="-40.5" font-family="Helvetica,sans-Serif" font-size="10.00">+ put()</text>
<text text-anchor="start" x="111.5" y="-29.5" font-family="Helvetica,sans-Serif" font-size="10.00">+ clear()</text>
<text text-anchor="start" x="111.5" y="-18.5" font-family="Helvetica,sans-Serif" font-size="10.00">+ clearAll()</text>
</a>
</g>
</g>
<!-- Node1&#45;&gt;Node3 -->
<g id="edge2" class="edge"><title>Node1&#45;&gt;Node3</title>
<path fill="none" stroke="midnightblue" d="M107.569,-150.357C111.565,-137.859 115.739,-124.807 119.604,-112.716"/>
<polygon fill="none" stroke="midnightblue" points="104.124,-149.642 104.412,-160.233 110.791,-151.773 104.124,-149.642"/>
</g>
</g>
</svg>
