<?xml version="1.0" encoding="UTF-8" standalone="no"?>
<!DOCTYPE svg PUBLIC "-//W3C//DTD SVG 1.1//EN"
 "http://www.w3.org/Graphics/SVG/1.1/DTD/svg11.dtd">
<!-- Generated by graphviz version 2.38.0 (20140413.2041)
 -->
<!-- Title: ListStrategy Pages: 1 -->
<svg width="554pt" height="182pt"
 viewBox="0.00 0.00 554.00 182.00" xmlns="http://www.w3.org/2000/svg" xmlns:xlink="http://www.w3.org/1999/xlink">
<g id="graph0" class="graph" transform="scale(1 1) rotate(0) translate(4 178)">
<title>ListStrategy</title>
<polygon fill="white" stroke="none" points="-4,4 -4,-178 550,-178 550,4 -4,4"/>
<!-- Node1 -->
<g id="node1" class="node"><title>Node1</title>
<polygon fill="#bfbfbf" stroke="black" points="229.5,-105.5 229.5,-173.5 298.5,-173.5 298.5,-105.5 229.5,-105.5"/>
<text text-anchor="middle" x="264" y="-161.5" font-family="Helvetica,sans-Serif" font-size="10.00">ListStrategy</text>
<polyline fill="none" stroke="black" points="229.5,-154.5 298.5,-154.5 "/>
<text text-anchor="middle" x="264" y="-142.5" font-family="Helvetica,sans-Serif" font-size="10.00"> </text>
<polyline fill="none" stroke="black" points="229.5,-135.5 298.5,-135.5 "/>
<text text-anchor="start" x="237.5" y="-123.5" font-family="Helvetica,sans-Serif" font-size="10.00">+ getList()</text>
<text text-anchor="start" x="237.5" y="-112.5" font-family="Helvetica,sans-Serif" font-size="10.00">+ isStatic()</text>
</g>
<!-- Node2 -->
<g id="node2" class="node"><title>Node2</title>
<g id="a_node2"><a xlink:href="classwcmf_1_1lib_1_1presentation_1_1control_1_1lists_1_1impl_1_1_config_list_strategy.html" target="_top" xlink:title="ConfigListStrategy implements a list of key/value pairs that is retrieved from a configuration sectio...">
<polygon fill="white" stroke="black" points="0,-0.5 0,-68.5 96,-68.5 96,-0.5 0,-0.5"/>
<text text-anchor="middle" x="48" y="-56.5" font-family="Helvetica,sans-Serif" font-size="10.00">ConfigListStrategy</text>
<polyline fill="none" stroke="black" points="0,-49.5 96,-49.5 "/>
<text text-anchor="middle" x="48" y="-37.5" font-family="Helvetica,sans-Serif" font-size="10.00"> </text>
<polyline fill="none" stroke="black" points="0,-30.5 96,-30.5 "/>
<text text-anchor="start" x="8" y="-18.5" font-family="Helvetica,sans-Serif" font-size="10.00">+ getList()</text>
<text text-anchor="start" x="8" y="-7.5" font-family="Helvetica,sans-Serif" font-size="10.00">+ isStatic()</text>
</a>
</g>
</g>
<!-- Node1&#45;&gt;Node2 -->
<g id="edge1" class="edge"><title>Node1&#45;&gt;Node2</title>
<path fill="none" stroke="midnightblue" d="M219.734,-120.817C187.466,-107.527 142.939,-88.3537 105,-69 102.137,-67.5395 99.2185,-65.9978 96.2907,-64.41"/>
<polygon fill="none" stroke="midnightblue" points="218.753,-124.197 229.334,-124.746 221.405,-117.719 218.753,-124.197"/>
</g>
<!-- Node3 -->
<g id="node3" class="node"><title>Node3</title>
<g id="a_node3"><a xlink:href="classwcmf_1_1lib_1_1presentation_1_1control_1_1lists_1_1impl_1_1_file_list_strategy.html" target="_top" xlink:title="FileListStrategy implements a list of key value pairs that is retrieved from an configuration section...">
<polygon fill="white" stroke="black" points="114.5,-0.5 114.5,-68.5 199.5,-68.5 199.5,-0.5 114.5,-0.5"/>
<text text-anchor="middle" x="157" y="-56.5" font-family="Helvetica,sans-Serif" font-size="10.00">FileListStrategy</text>
<polyline fill="none" stroke="black" points="114.5,-49.5 199.5,-49.5 "/>
<text text-anchor="middle" x="157" y="-37.5" font-family="Helvetica,sans-Serif" font-size="10.00"> </text>
<polyline fill="none" stroke="black" points="114.5,-30.5 199.5,-30.5 "/>
<text text-anchor="start" x="122.5" y="-18.5" font-family="Helvetica,sans-Serif" font-size="10.00">+ getList()</text>
<text text-anchor="start" x="122.5" y="-7.5" font-family="Helvetica,sans-Serif" font-size="10.00">+ isStatic()</text>
</a>
</g>
</g>
<!-- Node1&#45;&gt;Node3 -->
<g id="edge2" class="edge"><title>Node1&#45;&gt;Node3</title>
<path fill="none" stroke="midnightblue" d="M222.244,-98.3054C212.027,-88.4696 201.208,-78.0551 191.38,-68.5947"/>
<polygon fill="none" stroke="midnightblue" points="219.924,-100.93 229.556,-105.343 224.778,-95.8865 219.924,-100.93"/>
</g>
<!-- Node4 -->
<g id="node4" class="node"><title>Node4</title>
<g id="a_node4"><a xlink:href="classwcmf_1_1lib_1_1presentation_1_1control_1_1lists_1_1impl_1_1_fixed_list_strategy.html" target="_top" xlink:title="FixedListStrategy implements a constant list of key/value pairs. ">
<polygon fill="white" stroke="black" points="217.5,-0.5 217.5,-68.5 310.5,-68.5 310.5,-0.5 217.5,-0.5"/>
<text text-anchor="middle" x="264" y="-56.5" font-family="Helvetica,sans-Serif" font-size="10.00">FixedListStrategy</text>
<polyline fill="none" stroke="black" points="217.5,-49.5 310.5,-49.5 "/>
<text text-anchor="middle" x="264" y="-37.5" font-family="Helvetica,sans-Serif" font-size="10.00"> </text>
<polyline fill="none" stroke="black" points="217.5,-30.5 310.5,-30.5 "/>
<text text-anchor="start" x="225.5" y="-18.5" font-family="Helvetica,sans-Serif" font-size="10.00">+ getList()</text>
<text text-anchor="start" x="225.5" y="-7.5" font-family="Helvetica,sans-Serif" font-size="10.00">+ isStatic()</text>
</a>
</g>
</g>
<!-- Node1&#45;&gt;Node4 -->
<g id="edge3" class="edge"><title>Node1&#45;&gt;Node4</title>
<path fill="none" stroke="midnightblue" d="M264,-95.1362C264,-86.256 264,-77.0447 264,-68.5947"/>
<polygon fill="none" stroke="midnightblue" points="260.5,-95.3432 264,-105.343 267.5,-95.3432 260.5,-95.3432"/>
</g>
<!-- Node5 -->
<g id="node5" class="node"><title>Node5</title>
<g id="a_node5"><a xlink:href="classwcmf_1_1lib_1_1presentation_1_1control_1_1lists_1_1impl_1_1_function_list_strategy.html" target="_top" xlink:title="FunctionListStrategy implements a list of key/value pairs that is retrieved by a global function...">
<polygon fill="white" stroke="black" points="328.5,-0.5 328.5,-68.5 435.5,-68.5 435.5,-0.5 328.5,-0.5"/>
<text text-anchor="middle" x="382" y="-56.5" font-family="Helvetica,sans-Serif" font-size="10.00">FunctionListStrategy</text>
<polyline fill="none" stroke="black" points="328.5,-49.5 435.5,-49.5 "/>
<text text-anchor="middle" x="382" y="-37.5" font-family="Helvetica,sans-Serif" font-size="10.00"> </text>
<polyline fill="none" stroke="black" points="328.5,-30.5 435.5,-30.5 "/>
<text text-anchor="start" x="336.5" y="-18.5" font-family="Helvetica,sans-Serif" font-size="10.00">+ getList()</text>
<text text-anchor="start" x="336.5" y="-7.5" font-family="Helvetica,sans-Serif" font-size="10.00">+ isStatic()</text>
</a>
</g>
</g>
<!-- Node1&#45;&gt;Node5 -->
<g id="edge4" class="edge"><title>Node1&#45;&gt;Node5</title>
<path fill="none" stroke="midnightblue" d="M306.308,-101.57C318.678,-90.7723 332.115,-79.0435 344.187,-68.506"/>
<polygon fill="none" stroke="midnightblue" points="303.998,-98.9409 298.766,-108.154 308.601,-104.214 303.998,-98.9409"/>
</g>
<!-- Node6 -->
<g id="node6" class="node"><title>Node6</title>
<g id="a_node6"><a xlink:href="classwcmf_1_1lib_1_1presentation_1_1control_1_1lists_1_1impl_1_1_node_list_strategy.html" target="_top" xlink:title="NodeListStrategy implements a list of entities that is retrieved from the store, where the keys are t...">
<polygon fill="white" stroke="black" points="454,-0.5 454,-68.5 546,-68.5 546,-0.5 454,-0.5"/>
<text text-anchor="middle" x="500" y="-56.5" font-family="Helvetica,sans-Serif" font-size="10.00">NodeListStrategy</text>
<polyline fill="none" stroke="black" points="454,-49.5 546,-49.5 "/>
<text text-anchor="middle" x="500" y="-37.5" font-family="Helvetica,sans-Serif" font-size="10.00"> </text>
<polyline fill="none" stroke="black" points="454,-30.5 546,-30.5 "/>
<text text-anchor="start" x="462" y="-18.5" font-family="Helvetica,sans-Serif" font-size="10.00">+ getList()</text>
<text text-anchor="start" x="462" y="-7.5" font-family="Helvetica,sans-Serif" font-size="10.00">+ isStatic()</text>
</a>
</g>
</g>
<!-- Node1&#45;&gt;Node6 -->
<g id="edge5" class="edge"><title>Node1&#45;&gt;Node6</title>
<path fill="none" stroke="midnightblue" d="M308.368,-123.982C345.603,-111.206 399.799,-91.2175 445,-69 447.91,-67.5697 450.866,-66.0336 453.821,-64.434"/>
<polygon fill="none" stroke="midnightblue" points="307.153,-120.698 298.811,-127.23 309.405,-127.326 307.153,-120.698"/>
</g>
</g>
</svg>
