<?xml version="1.0" encoding="UTF-8" standalone="no"?>
<!DOCTYPE svg PUBLIC "-//W3C//DTD SVG 1.1//EN"
 "http://www.w3.org/Graphics/SVG/1.1/DTD/svg11.dtd">
<!-- Generated by graphviz version 2.38.0 (20140413.2041)
 -->
<!-- Title: ConcurrencyManager Pages: 1 -->
<svg width="147pt" height="303pt"
 viewBox="0.00 0.00 147.00 303.00" xmlns="http://www.w3.org/2000/svg" xmlns:xlink="http://www.w3.org/1999/xlink">
<g id="graph0" class="graph" transform="scale(1 1) rotate(0) translate(4 299)">
<title>ConcurrencyManager</title>
<polygon fill="white" stroke="none" points="-4,4 -4,-299 143,-299 143,4 -4,4"/>
<!-- Node1 -->
<g id="node1" class="node"><title>Node1</title>
<polygon fill="#bfbfbf" stroke="black" points="15,-171.5 15,-294.5 124,-294.5 124,-171.5 15,-171.5"/>
<text text-anchor="middle" x="69.5" y="-282.5" font-family="Helvetica,sans-Serif" font-size="10.00">ConcurrencyManager</text>
<polyline fill="none" stroke="black" points="15,-275.5 124,-275.5 "/>
<text text-anchor="middle" x="69.5" y="-263.5" font-family="Helvetica,sans-Serif" font-size="10.00"> </text>
<polyline fill="none" stroke="black" points="15,-256.5 124,-256.5 "/>
<text text-anchor="start" x="23" y="-244.5" font-family="Helvetica,sans-Serif" font-size="10.00">+ aquireLock()</text>
<text text-anchor="start" x="23" y="-233.5" font-family="Helvetica,sans-Serif" font-size="10.00">+ releaseLock()</text>
<text text-anchor="start" x="23" y="-222.5" font-family="Helvetica,sans-Serif" font-size="10.00">+ releaseLocks()</text>
<text text-anchor="start" x="23" y="-211.5" font-family="Helvetica,sans-Serif" font-size="10.00">+ releaseAllLocks()</text>
<text text-anchor="start" x="23" y="-200.5" font-family="Helvetica,sans-Serif" font-size="10.00">+ getLock()</text>
<text text-anchor="start" x="23" y="-189.5" font-family="Helvetica,sans-Serif" font-size="10.00">+ checkPersist()</text>
<text text-anchor="start" x="23" y="-178.5" font-family="Helvetica,sans-Serif" font-size="10.00">+ updateLock()</text>
</g>
<!-- Node2 -->
<g id="node2" class="node"><title>Node2</title>
<g id="a_node2"><a xlink:href="classwcmf_1_1lib_1_1persistence_1_1concurrency_1_1impl_1_1_default_concurrency_manager.html" target="_top" xlink:title="Default ConcurrencyManager implementation. ">
<polygon fill="white" stroke="black" points="0,-0.5 0,-134.5 139,-134.5 139,-0.5 0,-0.5"/>
<text text-anchor="middle" x="69.5" y="-122.5" font-family="Helvetica,sans-Serif" font-size="10.00">DefaultConcurrencyManager</text>
<polyline fill="none" stroke="black" points="0,-115.5 139,-115.5 "/>
<text text-anchor="middle" x="69.5" y="-103.5" font-family="Helvetica,sans-Serif" font-size="10.00"> </text>
<polyline fill="none" stroke="black" points="0,-96.5 139,-96.5 "/>
<text text-anchor="start" x="8" y="-84.5" font-family="Helvetica,sans-Serif" font-size="10.00">+ __construct()</text>
<text text-anchor="start" x="8" y="-73.5" font-family="Helvetica,sans-Serif" font-size="10.00">+ aquireLock()</text>
<text text-anchor="start" x="8" y="-62.5" font-family="Helvetica,sans-Serif" font-size="10.00">+ releaseLock()</text>
<text text-anchor="start" x="8" y="-51.5" font-family="Helvetica,sans-Serif" font-size="10.00">+ releaseLocks()</text>
<text text-anchor="start" x="8" y="-40.5" font-family="Helvetica,sans-Serif" font-size="10.00">+ releaseAllLocks()</text>
<text text-anchor="start" x="8" y="-29.5" font-family="Helvetica,sans-Serif" font-size="10.00">+ getLock()</text>
<text text-anchor="start" x="8" y="-18.5" font-family="Helvetica,sans-Serif" font-size="10.00">+ checkPersist()</text>
<text text-anchor="start" x="8" y="-7.5" font-family="Helvetica,sans-Serif" font-size="10.00">+ updateLock()</text>
</a>
</g>
</g>
<!-- Node1&#45;&gt;Node2 -->
<g id="edge1" class="edge"><title>Node1&#45;&gt;Node2</title>
<path fill="none" stroke="midnightblue" d="M69.5,-160.958C69.5,-152.217 69.5,-143.309 69.5,-134.645"/>
<polygon fill="none" stroke="midnightblue" points="66.0001,-161.119 69.5,-171.119 73.0001,-161.119 66.0001,-161.119"/>
</g>
</g>
</svg>
