<?xml version="1.0" encoding="UTF-8" standalone="no"?>
<!DOCTYPE svg PUBLIC "-//W3C//DTD SVG 1.1//EN"
 "http://www.w3.org/Graphics/SVG/1.1/DTD/svg11.dtd">
<!-- Generated by graphviz version 2.38.0 (20140413.2041)
 -->
<!-- Title: View Pages: 1 -->
<svg width="228pt" height="391pt"
 viewBox="0.00 0.00 228.00 391.00" xmlns="http://www.w3.org/2000/svg" xmlns:xlink="http://www.w3.org/1999/xlink">
<g id="graph0" class="graph" transform="scale(1 1) rotate(0) translate(4 387)">
<title>View</title>
<polygon fill="white" stroke="none" points="-4,4 -4,-387 224,-387 224,4 -4,4"/>
<!-- Node1 -->
<g id="node1" class="node"><title>Node1</title>
<polygon fill="#bfbfbf" stroke="black" points="59,-248.5 59,-382.5 153,-382.5 153,-248.5 59,-248.5"/>
<text text-anchor="middle" x="106" y="-370.5" font-family="Helvetica,sans-Serif" font-size="10.00">View</text>
<polyline fill="none" stroke="black" points="59,-363.5 153,-363.5 "/>
<text text-anchor="middle" x="106" y="-351.5" font-family="Helvetica,sans-Serif" font-size="10.00"> </text>
<polyline fill="none" stroke="black" points="59,-344.5 153,-344.5 "/>
<text text-anchor="start" x="67" y="-332.5" font-family="Helvetica,sans-Serif" font-size="10.00">+ setValue()</text>
<text text-anchor="start" x="67" y="-321.5" font-family="Helvetica,sans-Serif" font-size="10.00">+ getValue()</text>
<text text-anchor="start" x="67" y="-310.5" font-family="Helvetica,sans-Serif" font-size="10.00">+ getValues()</text>
<text text-anchor="start" x="67" y="-299.5" font-family="Helvetica,sans-Serif" font-size="10.00">+ clearAllValues()</text>
<text text-anchor="start" x="67" y="-288.5" font-family="Helvetica,sans-Serif" font-size="10.00">+ render()</text>
<text text-anchor="start" x="67" y="-277.5" font-family="Helvetica,sans-Serif" font-size="10.00">+ clearCache()</text>
<text text-anchor="start" x="67" y="-266.5" font-family="Helvetica,sans-Serif" font-size="10.00">+ isCached()</text>
<text text-anchor="start" x="67" y="-255.5" font-family="Helvetica,sans-Serif" font-size="10.00">+ getTemplate()</text>
</g>
<!-- Node2 -->
<g id="node2" class="node"><title>Node2</title>
<g id="a_node2"><a xlink:href="classwcmf_1_1lib_1_1presentation_1_1view_1_1impl_1_1_null_view.html" target="_top" xlink:title="NullView is a stub class that implements all view methods. ">
<polygon fill="white" stroke="black" points="0,-39 0,-173 94,-173 94,-39 0,-39"/>
<text text-anchor="middle" x="47" y="-161" font-family="Helvetica,sans-Serif" font-size="10.00">NullView</text>
<polyline fill="none" stroke="black" points="0,-154 94,-154 "/>
<text text-anchor="middle" x="47" y="-142" font-family="Helvetica,sans-Serif" font-size="10.00"> </text>
<polyline fill="none" stroke="black" points="0,-135 94,-135 "/>
<text text-anchor="start" x="8" y="-123" font-family="Helvetica,sans-Serif" font-size="10.00">+ setValue()</text>
<text text-anchor="start" x="8" y="-112" font-family="Helvetica,sans-Serif" font-size="10.00">+ getValue()</text>
<text text-anchor="start" x="8" y="-101" font-family="Helvetica,sans-Serif" font-size="10.00">+ getValues()</text>
<text text-anchor="start" x="8" y="-90" font-family="Helvetica,sans-Serif" font-size="10.00">+ clearAllValues()</text>
<text text-anchor="start" x="8" y="-79" font-family="Helvetica,sans-Serif" font-size="10.00">+ render()</text>
<text text-anchor="start" x="8" y="-68" font-family="Helvetica,sans-Serif" font-size="10.00">+ clearCache()</text>
<text text-anchor="start" x="8" y="-57" font-family="Helvetica,sans-Serif" font-size="10.00">+ isCached()</text>
<text text-anchor="start" x="8" y="-46" font-family="Helvetica,sans-Serif" font-size="10.00">+ getTemplate()</text>
</a>
</g>
</g>
<!-- Node1&#45;&gt;Node2 -->
<g id="edge1" class="edge"><title>Node1&#45;&gt;Node2</title>
<path fill="none" stroke="midnightblue" d="M84.4132,-238.58C78.3304,-217.188 71.7629,-194.09 65.8537,-173.307"/>
<polygon fill="none" stroke="midnightblue" points="81.0682,-239.614 87.1698,-248.275 87.8013,-237.699 81.0682,-239.614"/>
</g>
<!-- Node3 -->
<g id="node3" class="node"><title>Node3</title>
<g id="a_node3"><a xlink:href="classwcmf_1_1lib_1_1presentation_1_1view_1_1impl_1_1_smarty_view.html" target="_top" xlink:title="View is used by Controller to handle the view presentation in MVC pattern. ">
<polygon fill="white" stroke="black" points="112,-0.5 112,-211.5 220,-211.5 220,-0.5 112,-0.5"/>
<text text-anchor="middle" x="166" y="-199.5" font-family="Helvetica,sans-Serif" font-size="10.00">SmartyView</text>
<polyline fill="none" stroke="black" points="112,-192.5 220,-192.5 "/>
<text text-anchor="start" x="120" y="-180.5" font-family="Helvetica,sans-Serif" font-size="10.00"># $_view</text>
<polyline fill="none" stroke="black" points="112,-173.5 220,-173.5 "/>
<text text-anchor="start" x="120" y="-161.5" font-family="Helvetica,sans-Serif" font-size="10.00">+ __construct()</text>
<text text-anchor="start" x="120" y="-150.5" font-family="Helvetica,sans-Serif" font-size="10.00">+ setCompileCheck()</text>
<text text-anchor="start" x="120" y="-139.5" font-family="Helvetica,sans-Serif" font-size="10.00">+ setCaching()</text>
<text text-anchor="start" x="120" y="-128.5" font-family="Helvetica,sans-Serif" font-size="10.00">+ setCacheLifetime()</text>
<text text-anchor="start" x="120" y="-117.5" font-family="Helvetica,sans-Serif" font-size="10.00">+ setCacheDir()</text>
<text text-anchor="start" x="120" y="-106.5" font-family="Helvetica,sans-Serif" font-size="10.00">+ setPluginsDir()</text>
<text text-anchor="start" x="120" y="-95.5" font-family="Helvetica,sans-Serif" font-size="10.00">+ setOutputFilter()</text>
<text text-anchor="start" x="120" y="-84.5" font-family="Helvetica,sans-Serif" font-size="10.00">+ setValue()</text>
<text text-anchor="start" x="120" y="-73.5" font-family="Helvetica,sans-Serif" font-size="10.00">+ getValue()</text>
<text text-anchor="start" x="120" y="-62.5" font-family="Helvetica,sans-Serif" font-size="10.00">+ getValues()</text>
<text text-anchor="start" x="120" y="-51.5" font-family="Helvetica,sans-Serif" font-size="10.00">+ clearAllValues()</text>
<text text-anchor="start" x="120" y="-40.5" font-family="Helvetica,sans-Serif" font-size="10.00">+ render()</text>
<text text-anchor="start" x="120" y="-29.5" font-family="Helvetica,sans-Serif" font-size="10.00">+ clearCache()</text>
<text text-anchor="start" x="120" y="-18.5" font-family="Helvetica,sans-Serif" font-size="10.00">+ isCached()</text>
<text text-anchor="start" x="120" y="-7.5" font-family="Helvetica,sans-Serif" font-size="10.00">+ getTemplate()</text>
</a>
</g>
</g>
<!-- Node1&#45;&gt;Node3 -->
<g id="edge2" class="edge"><title>Node1&#45;&gt;Node3</title>
<path fill="none" stroke="midnightblue" d="M127.978,-238.492C130.519,-229.705 133.142,-220.632 135.768,-211.551"/>
<polygon fill="none" stroke="midnightblue" points="124.565,-237.696 125.149,-248.275 131.289,-239.641 124.565,-237.696"/>
</g>
</g>
</svg>
