<?xml version="1.0" encoding="UTF-8" standalone="no"?>
<!DOCTYPE svg PUBLIC "-//W3C//DTD SVG 1.1//EN"
 "http://www.w3.org/Graphics/SVG/1.1/DTD/svg11.dtd">
<!-- Generated by graphviz version 2.38.0 (20140413.2041)
 -->
<!-- Title: PermissionManager Pages: 1 -->
<svg width="604pt" height="358pt"
 viewBox="0.00 0.00 603.50 358.00" xmlns="http://www.w3.org/2000/svg" xmlns:xlink="http://www.w3.org/1999/xlink">
<g id="graph0" class="graph" transform="scale(1 1) rotate(0) translate(4 354)">
<title>PermissionManager</title>
<polygon fill="white" stroke="none" points="-4,4 -4,-354 599.5,-354 599.5,4 -4,4"/>
<!-- Node1 -->
<g id="node1" class="node"><title>Node1</title>
<polygon fill="#bfbfbf" stroke="black" points="211,-182.5 211,-349.5 381,-349.5 381,-182.5 211,-182.5"/>
<text text-anchor="middle" x="296" y="-337.5" font-family="Helvetica,sans-Serif" font-size="10.00">PermissionManager</text>
<polyline fill="none" stroke="black" points="211,-330.5 381,-330.5 "/>
<text text-anchor="start" x="219" y="-318.5" font-family="Helvetica,sans-Serif" font-size="10.00">+ PERMISSION_MODIFIER</text>
<text text-anchor="start" x="219" y="-307.5" font-family="Helvetica,sans-Serif" font-size="10.00">_ALLOW</text>
<text text-anchor="start" x="219" y="-296.5" font-family="Helvetica,sans-Serif" font-size="10.00">+ PERMISSION_MODIFIER_DENY</text>
<polyline fill="none" stroke="black" points="211,-289.5 381,-289.5 "/>
<text text-anchor="start" x="219" y="-277.5" font-family="Helvetica,sans-Serif" font-size="10.00">+ authorize()</text>
<text text-anchor="start" x="219" y="-266.5" font-family="Helvetica,sans-Serif" font-size="10.00">+ addTempPermission()</text>
<text text-anchor="start" x="219" y="-255.5" font-family="Helvetica,sans-Serif" font-size="10.00">+ removeTempPermission()</text>
<text text-anchor="start" x="219" y="-244.5" font-family="Helvetica,sans-Serif" font-size="10.00">+ hasTempPermission()</text>
<text text-anchor="start" x="219" y="-233.5" font-family="Helvetica,sans-Serif" font-size="10.00">+ clearTempPermissions()</text>
<text text-anchor="start" x="219" y="-222.5" font-family="Helvetica,sans-Serif" font-size="10.00">+ getPermissions()</text>
<text text-anchor="start" x="219" y="-211.5" font-family="Helvetica,sans-Serif" font-size="10.00">+ setPermissions()</text>
<text text-anchor="start" x="219" y="-200.5" font-family="Helvetica,sans-Serif" font-size="10.00">+ createPermission()</text>
<text text-anchor="start" x="219" y="-189.5" font-family="Helvetica,sans-Serif" font-size="10.00">+ removePermission()</text>
</g>
<!-- Node2 -->
<g id="node2" class="node"><title>Node2</title>
<g id="a_node2"><a xlink:href="classwcmf_1_1lib_1_1security_1_1impl_1_1_chained_permission_manager.html" target="_top" xlink:title="ChainedPermissionManager retrieves authorization rules included managers. ">
<polygon fill="white" stroke="black" points="0,-22.5 0,-123.5 138,-123.5 138,-22.5 0,-22.5"/>
<text text-anchor="middle" x="69" y="-111.5" font-family="Helvetica,sans-Serif" font-size="10.00">ChainedPermissionManager</text>
<polyline fill="none" stroke="black" points="0,-104.5 138,-104.5 "/>
<text text-anchor="middle" x="69" y="-92.5" font-family="Helvetica,sans-Serif" font-size="10.00"> </text>
<polyline fill="none" stroke="black" points="0,-85.5 138,-85.5 "/>
<text text-anchor="start" x="8" y="-73.5" font-family="Helvetica,sans-Serif" font-size="10.00">+ setManagers()</text>
<text text-anchor="start" x="8" y="-62.5" font-family="Helvetica,sans-Serif" font-size="10.00">+ getPermissions()</text>
<text text-anchor="start" x="8" y="-51.5" font-family="Helvetica,sans-Serif" font-size="10.00">+ setPermissions()</text>
<text text-anchor="start" x="8" y="-40.5" font-family="Helvetica,sans-Serif" font-size="10.00">+ createPermission()</text>
<text text-anchor="start" x="8" y="-29.5" font-family="Helvetica,sans-Serif" font-size="10.00">+ removePermission()</text>
</a>
</g>
</g>
<!-- Node1&#45;&gt;Node2 -->
<g id="edge1" class="edge"><title>Node1&#45;&gt;Node2</title>
<path fill="none" stroke="midnightblue" d="M202.862,-192.298C184.163,-177.233 164.799,-161.289 147,-146 138.752,-138.915 130.163,-131.272 121.828,-123.703"/>
<polygon fill="none" stroke="midnightblue" points="200.839,-195.163 210.828,-198.696 205.223,-189.705 200.839,-195.163"/>
</g>
<!-- Node3 -->
<g id="node3" class="node"><title>Node3</title>
<g id="a_node3"><a xlink:href="classwcmf_1_1lib_1_1security_1_1impl_1_1_default_permission_manager.html" target="_top" xlink:title="DefaultPermissionManager retrieves authorization rules the storage. ">
<polygon fill="white" stroke="black" points="156.5,-0.5 156.5,-145.5 291.5,-145.5 291.5,-0.5 156.5,-0.5"/>
<text text-anchor="middle" x="224" y="-133.5" font-family="Helvetica,sans-Serif" font-size="10.00">DefaultPermissionManager</text>
<polyline fill="none" stroke="black" points="156.5,-126.5 291.5,-126.5 "/>
<text text-anchor="middle" x="224" y="-114.5" font-family="Helvetica,sans-Serif" font-size="10.00"> </text>
<polyline fill="none" stroke="black" points="156.5,-107.5 291.5,-107.5 "/>
<text text-anchor="start" x="164.5" y="-95.5" font-family="Helvetica,sans-Serif" font-size="10.00">+ __construct()</text>
<text text-anchor="start" x="164.5" y="-84.5" font-family="Helvetica,sans-Serif" font-size="10.00">+ setPermissionType()</text>
<text text-anchor="start" x="164.5" y="-73.5" font-family="Helvetica,sans-Serif" font-size="10.00">+ getPermissions()</text>
<text text-anchor="start" x="164.5" y="-62.5" font-family="Helvetica,sans-Serif" font-size="10.00">+ setPermissions()</text>
<text text-anchor="start" x="164.5" y="-51.5" font-family="Helvetica,sans-Serif" font-size="10.00">+ createPermission()</text>
<text text-anchor="start" x="164.5" y="-40.5" font-family="Helvetica,sans-Serif" font-size="10.00">+ removePermission()</text>
<text text-anchor="start" x="164.5" y="-29.5" font-family="Helvetica,sans-Serif" font-size="10.00"># modifyPermission()</text>
<text text-anchor="start" x="164.5" y="-18.5" font-family="Helvetica,sans-Serif" font-size="10.00"># getPermissionInstance()</text>
<text text-anchor="start" x="164.5" y="-7.5" font-family="Helvetica,sans-Serif" font-size="10.00"># createPermissionObject()</text>
</a>
</g>
</g>
<!-- Node1&#45;&gt;Node3 -->
<g id="edge2" class="edge"><title>Node1&#45;&gt;Node3</title>
<path fill="none" stroke="midnightblue" d="M261.266,-172.857C257.827,-163.735 254.372,-154.571 251.028,-145.7"/>
<polygon fill="none" stroke="midnightblue" points="258.036,-174.213 264.839,-182.335 264.586,-171.744 258.036,-174.213"/>
</g>
<!-- Node4 -->
<g id="node4" class="node"><title>Node4</title>
<g id="a_node4"><a xlink:href="classwcmf_1_1lib_1_1security_1_1impl_1_1_null_permission_manager.html" target="_top" xlink:title="NullPermissionManager acts like an absent PermissionManager. ">
<polygon fill="white" stroke="black" points="309.5,-28 309.5,-118 428.5,-118 428.5,-28 309.5,-28"/>
<text text-anchor="middle" x="369" y="-106" font-family="Helvetica,sans-Serif" font-size="10.00">NullPermissionManager</text>
<polyline fill="none" stroke="black" points="309.5,-99 428.5,-99 "/>
<text text-anchor="middle" x="369" y="-87" font-family="Helvetica,sans-Serif" font-size="10.00"> </text>
<polyline fill="none" stroke="black" points="309.5,-80 428.5,-80 "/>
<text text-anchor="start" x="317.5" y="-68" font-family="Helvetica,sans-Serif" font-size="10.00">+ getPermissions()</text>
<text text-anchor="start" x="317.5" y="-57" font-family="Helvetica,sans-Serif" font-size="10.00">+ setPermissions()</text>
<text text-anchor="start" x="317.5" y="-46" font-family="Helvetica,sans-Serif" font-size="10.00">+ createPermission()</text>
<text text-anchor="start" x="317.5" y="-35" font-family="Helvetica,sans-Serif" font-size="10.00">+ removePermission()</text>
</a>
</g>
</g>
<!-- Node1&#45;&gt;Node4 -->
<g id="edge3" class="edge"><title>Node1&#45;&gt;Node4</title>
<path fill="none" stroke="midnightblue" d="M331.17,-172.979C338.477,-153.861 345.855,-134.557 352.131,-118.137"/>
<polygon fill="none" stroke="midnightblue" points="327.895,-171.745 327.594,-182.335 334.434,-174.244 327.895,-171.745"/>
</g>
<!-- Node5 -->
<g id="node5" class="node"><title>Node5</title>
<g id="a_node5"><a xlink:href="classwcmf_1_1lib_1_1security_1_1impl_1_1_static_permission_manager.html" target="_top" xlink:title="StaticPermissionManager retrieves authorization rules from the application configuration. ">
<polygon fill="white" stroke="black" points="446.5,-11.5 446.5,-134.5 595.5,-134.5 595.5,-11.5 446.5,-11.5"/>
<text text-anchor="middle" x="521" y="-122.5" font-family="Helvetica,sans-Serif" font-size="10.00">StaticPermissionManager</text>
<polyline fill="none" stroke="black" points="446.5,-115.5 595.5,-115.5 "/>
<text text-anchor="start" x="454.5" y="-103.5" font-family="Helvetica,sans-Serif" font-size="10.00">+ AUTHORIZATION_SECTION</text>
<polyline fill="none" stroke="black" points="446.5,-96.5 595.5,-96.5 "/>
<text text-anchor="start" x="454.5" y="-84.5" font-family="Helvetica,sans-Serif" font-size="10.00">+ __construct()</text>
<text text-anchor="start" x="454.5" y="-73.5" font-family="Helvetica,sans-Serif" font-size="10.00">+ getPermissions()</text>
<text text-anchor="start" x="454.5" y="-62.5" font-family="Helvetica,sans-Serif" font-size="10.00">+ setPermissions()</text>
<text text-anchor="start" x="454.5" y="-51.5" font-family="Helvetica,sans-Serif" font-size="10.00">+ createPermission()</text>
<text text-anchor="start" x="454.5" y="-40.5" font-family="Helvetica,sans-Serif" font-size="10.00">+ removePermission()</text>
<text text-anchor="start" x="454.5" y="-29.5" font-family="Helvetica,sans-Serif" font-size="10.00"># modifyPermission()</text>
<text text-anchor="start" x="454.5" y="-18.5" font-family="Helvetica,sans-Serif" font-size="10.00"># getConfigurationInstance()</text>
</a>
</g>
</g>
<!-- Node1&#45;&gt;Node5 -->
<g id="edge4" class="edge"><title>Node1&#45;&gt;Node5</title>
<path fill="none" stroke="midnightblue" d="M389.034,-187.422C405.392,-173.672 422.225,-159.451 438,-146 442.355,-142.287 446.829,-138.455 451.334,-134.584"/>
<polygon fill="none" stroke="midnightblue" points="386.454,-185.018 381.048,-194.13 390.957,-190.378 386.454,-185.018"/>
</g>
</g>
</svg>
