<?xml version="1.0" encoding="UTF-8" standalone="no"?>
<!DOCTYPE svg PUBLIC "-//W3C//DTD SVG 1.1//EN"
 "http://www.w3.org/Graphics/SVG/1.1/DTD/svg11.dtd">
<!-- Generated by graphviz version 2.43.0 (0)
 -->
<!-- Title: UnknownFieldException Pages: 1 -->
<svg width="142pt" height="171pt"
 viewBox="0.00 0.00 142.00 171.00" xmlns="http://www.w3.org/2000/svg" xmlns:xlink="http://www.w3.org/1999/xlink">
<g id="graph0" class="graph" transform="scale(1 1) rotate(0) translate(4 167)">
<title>UnknownFieldException</title>
<polygon fill="white" stroke="transparent" points="-4,4 -4,-167 138,-167 138,4 -4,4"/>
<!-- Node1 -->
<g id="node1" class="node">
<title>Node1</title>
<g id="a_node1"><a xlink:title="UnknownFieldException signals an unknown field.">
<polygon fill="#bfbfbf" stroke="black" points="0,-0.5 0,-68.5 134,-68.5 134,-0.5 0,-0.5"/>
<text text-anchor="middle" x="67" y="-56.5" font-family="Helvetica,sans-Serif" font-size="10.00">UnknownFieldException</text>
<polyline fill="none" stroke="black" points="0,-49.5 134,-49.5 "/>
<text text-anchor="middle" x="67" y="-37.5" font-family="Helvetica,sans-Serif" font-size="10.00"> </text>
<polyline fill="none" stroke="black" points="0,-30.5 134,-30.5 "/>
<text text-anchor="start" x="8" y="-18.5" font-family="Helvetica,sans-Serif" font-size="10.00">+ __construct()</text>
<text text-anchor="start" x="8" y="-7.5" font-family="Helvetica,sans-Serif" font-size="10.00">+ getField()</text>
</a>
</g>
</g>
<!-- Node2 -->
<g id="node2" class="node">
<title>Node2</title>
<g id="a_node2"><a xlink:title=" ">
<polygon fill="white" stroke="#bfbfbf" points="34.5,-105.5 34.5,-162.5 99.5,-162.5 99.5,-105.5 34.5,-105.5"/>
<text text-anchor="middle" x="67" y="-150.5" font-family="Helvetica,sans-Serif" font-size="10.00">Exception</text>
<polyline fill="none" stroke="#bfbfbf" points="34.5,-143.5 99.5,-143.5 "/>
<text text-anchor="middle" x="67" y="-131.5" font-family="Helvetica,sans-Serif" font-size="10.00"> </text>
<polyline fill="none" stroke="#bfbfbf" points="34.5,-124.5 99.5,-124.5 "/>
<text text-anchor="middle" x="67" y="-112.5" font-family="Helvetica,sans-Serif" font-size="10.00"> </text>
</a>
</g>
</g>
<!-- Node2&#45;&gt;Node1 -->
<g id="edge1" class="edge">
<title>Node2&#45;&gt;Node1</title>
<path fill="none" stroke="midnightblue" d="M67,-95.06C67,-86.39 67,-77.24 67,-68.79"/>
<polygon fill="none" stroke="midnightblue" points="63.5,-95.32 67,-105.32 70.5,-95.32 63.5,-95.32"/>
</g>
</g>
</svg>
