<?xml version="1.0" encoding="UTF-8" standalone="no"?>
<!DOCTYPE svg PUBLIC "-//W3C//DTD SVG 1.1//EN"
 "http://www.w3.org/Graphics/SVG/1.1/DTD/svg11.dtd">
<!-- Generated by graphviz version 2.43.0 (0)
 -->
<!-- Title: ConfigListStrategy Pages: 1 -->
<svg width="114pt" height="182pt"
 viewBox="0.00 0.00 114.00 182.00" xmlns="http://www.w3.org/2000/svg" xmlns:xlink="http://www.w3.org/1999/xlink">
<g id="graph0" class="graph" transform="scale(1 1) rotate(0) translate(4 178)">
<title>ConfigListStrategy</title>
<polygon fill="white" stroke="transparent" points="-4,4 -4,-178 110,-178 110,4 -4,4"/>
<!-- Node1 -->
<g id="node1" class="node">
<title>Node1</title>
<g id="a_node1"><a xlink:title="ConfigListStrategy implements a list of key/value pairs that is retrieved from a configuration sectio...">
<polygon fill="#bfbfbf" stroke="black" points="0,-0.5 0,-68.5 106,-68.5 106,-0.5 0,-0.5"/>
<text text-anchor="middle" x="53" y="-56.5" font-family="Helvetica,sans-Serif" font-size="10.00">ConfigListStrategy</text>
<polyline fill="none" stroke="black" points="0,-49.5 106,-49.5 "/>
<text text-anchor="middle" x="53" y="-37.5" font-family="Helvetica,sans-Serif" font-size="10.00"> </text>
<polyline fill="none" stroke="black" points="0,-30.5 106,-30.5 "/>
<text text-anchor="start" x="8" y="-18.5" font-family="Helvetica,sans-Serif" font-size="10.00">+ getList()</text>
<text text-anchor="start" x="8" y="-7.5" font-family="Helvetica,sans-Serif" font-size="10.00">+ isStatic()</text>
</a>
</g>
</g>
<!-- Node2 -->
<g id="node2" class="node">
<title>Node2</title>
<g id="a_node2"><a xlink:href="interfacewcmf_1_1lib_1_1presentation_1_1control_1_1lists_1_1_list_strategy.html" target="_top" xlink:title="ListStrategy defines the interface for classes that retrieve value lists.">
<polygon fill="white" stroke="black" points="15.5,-105.5 15.5,-173.5 90.5,-173.5 90.5,-105.5 15.5,-105.5"/>
<text text-anchor="middle" x="53" y="-161.5" font-family="Helvetica,sans-Serif" font-size="10.00">ListStrategy</text>
<polyline fill="none" stroke="black" points="15.5,-154.5 90.5,-154.5 "/>
<text text-anchor="middle" x="53" y="-142.5" font-family="Helvetica,sans-Serif" font-size="10.00"> </text>
<polyline fill="none" stroke="black" points="15.5,-135.5 90.5,-135.5 "/>
<text text-anchor="start" x="23.5" y="-123.5" font-family="Helvetica,sans-Serif" font-size="10.00">+ getList()</text>
<text text-anchor="start" x="23.5" y="-112.5" font-family="Helvetica,sans-Serif" font-size="10.00">+ isStatic()</text>
</a>
</g>
</g>
<!-- Node2&#45;&gt;Node1 -->
<g id="edge1" class="edge">
<title>Node2&#45;&gt;Node1</title>
<path fill="none" stroke="midnightblue" d="M53,-95.14C53,-86.26 53,-77.04 53,-68.59"/>
<polygon fill="none" stroke="midnightblue" points="49.5,-95.34 53,-105.34 56.5,-95.34 49.5,-95.34"/>
</g>
</g>
</svg>
