<?xml version="1.0" encoding="UTF-8" standalone="no"?>
<!DOCTYPE svg PUBLIC "-//W3C//DTD SVG 1.1//EN"
 "http://www.w3.org/Graphics/SVG/1.1/DTD/svg11.dtd">
<!-- Generated by graphviz version 2.43.0 (0)
 -->
<!-- Title: SoapClient Pages: 1 -->
<svg width="151pt" height="99pt"
 viewBox="0.00 0.00 151.00 99.00" xmlns="http://www.w3.org/2000/svg" xmlns:xlink="http://www.w3.org/1999/xlink">
<g id="graph0" class="graph" transform="scale(1 1) rotate(0) translate(4 95)">
<title>SoapClient</title>
<polygon fill="white" stroke="transparent" points="-4,4 -4,-95 147,-95 147,4 -4,4"/>
<!-- Node1 -->
<g id="node1" class="node">
<title>Node1</title>
<g id="a_node1"><a xlink:title="SoapClient is used to communicate with wCMF soap services.">
<polygon fill="#bfbfbf" stroke="black" points="0,-0.5 0,-90.5 107,-90.5 107,-0.5 0,-0.5"/>
<text text-anchor="middle" x="53.5" y="-78.5" font-family="Helvetica,sans-Serif" font-size="10.00">SoapClient</text>
<polyline fill="none" stroke="black" points="0,-71.5 107,-71.5 "/>
<text text-anchor="start" x="8" y="-59.5" font-family="Helvetica,sans-Serif" font-size="10.00">+ OASIS</text>
<polyline fill="none" stroke="black" points="0,-52.5 107,-52.5 "/>
<text text-anchor="start" x="8" y="-40.5" font-family="Helvetica,sans-Serif" font-size="10.00">+ __construct()</text>
<text text-anchor="start" x="8" y="-29.5" font-family="Helvetica,sans-Serif" font-size="10.00">+ call()</text>
<text text-anchor="start" x="8" y="-18.5" font-family="Helvetica,sans-Serif" font-size="10.00">+ __doRequest()</text>
<text text-anchor="start" x="8" y="-7.5" font-family="Helvetica,sans-Serif" font-size="10.00">+ getDebugInfos()</text>
</a>
</g>
</g>
<!-- Node1&#45;&gt;Node1 -->
<g id="edge1" class="edge">
<title>Node1&#45;&gt;Node1</title>
<path fill="none" stroke="midnightblue" d="M117.02,-51.87C121.96,-50.47 125,-48.34 125,-45.5 125,-41.06 117.58,-38.37 107.13,-37.44"/>
<polygon fill="none" stroke="midnightblue" points="116.4,-48.43 107.13,-53.56 117.58,-55.33 116.4,-48.43"/>
</g>
<!-- Node1&#45;&gt;Node1 -->
<g id="edge2" class="edge">
<title>Node1&#45;&gt;Node1</title>
<path fill="none" stroke="midnightblue" d="M117.42,-62.01C132.16,-60.59 143,-55.09 143,-45.5 143,-33.81 126.9,-28.19 107.24,-28.65"/>
<polygon fill="none" stroke="midnightblue" points="117.11,-58.52 107.24,-62.35 117.35,-65.51 117.11,-58.52"/>
</g>
</g>
</svg>
