<?xml version="1.0" encoding="UTF-8" standalone="no"?>
<!DOCTYPE svg PUBLIC "-//W3C//DTD SVG 1.1//EN"
 "http://www.w3.org/Graphics/SVG/1.1/DTD/svg11.dtd">
<!-- Generated by graphviz version 2.43.0 (0)
 -->
<!-- Title: Visitor Pages: 1 -->
<svg width="294pt" height="248pt"
 viewBox="0.00 0.00 294.00 248.00" xmlns="http://www.w3.org/2000/svg" xmlns:xlink="http://www.w3.org/1999/xlink">
<g id="graph0" class="graph" transform="scale(1 1) rotate(0) translate(4 244)">
<title>Visitor</title>
<polygon fill="white" stroke="transparent" points="-4,4 -4,-244 290,-244 290,4 -4,4"/>
<!-- Node1 -->
<g id="node1" class="node">
<title>Node1</title>
<g id="a_node1"><a xlink:title="Visitor is used to extend an object&#39;s functionality by not extending its interface.">
<polygon fill="#bfbfbf" stroke="black" points="100.5,-138.5 100.5,-239.5 194.5,-239.5 194.5,-138.5 100.5,-138.5"/>
<text text-anchor="middle" x="147.5" y="-227.5" font-family="Helvetica,sans-Serif" font-size="10.00">Visitor</text>
<polyline fill="none" stroke="black" points="100.5,-220.5 194.5,-220.5 "/>
<text text-anchor="middle" x="147.5" y="-208.5" font-family="Helvetica,sans-Serif" font-size="10.00"> </text>
<polyline fill="none" stroke="black" points="100.5,-201.5 194.5,-201.5 "/>
<text text-anchor="start" x="108.5" y="-189.5" font-family="Helvetica,sans-Serif" font-size="10.00">+ startIterator()</text>
<text text-anchor="start" x="108.5" y="-178.5" font-family="Helvetica,sans-Serif" font-size="10.00">+ startArray()</text>
<text text-anchor="start" x="108.5" y="-167.5" font-family="Helvetica,sans-Serif" font-size="10.00">+ visit()</text>
<text text-anchor="start" x="108.5" y="-156.5" font-family="Helvetica,sans-Serif" font-size="10.00">+ doPreVisit()</text>
<text text-anchor="start" x="108.5" y="-145.5" font-family="Helvetica,sans-Serif" font-size="10.00">+ doPostVisit()</text>
</a>
</g>
</g>
<!-- Node2 -->
<g id="node2" class="node">
<title>Node2</title>
<g id="a_node2"><a xlink:href="classwcmf_1_1lib_1_1model_1_1visitor_1_1_layout_visitor.html" target="_top" xlink:title="LayoutVisitor is used to position a tree of objects on a plane (the objects must implement the getPar...">
<polygon fill="white" stroke="black" points="0,-0.5 0,-101.5 143,-101.5 143,-0.5 0,-0.5"/>
<text text-anchor="middle" x="71.5" y="-89.5" font-family="Helvetica,sans-Serif" font-size="10.00">LayoutVisitor</text>
<polyline fill="none" stroke="black" points="0,-82.5 143,-82.5 "/>
<text text-anchor="start" x="8" y="-70.5" font-family="Helvetica,sans-Serif" font-size="10.00">+ MAPTYPE_HORIZONTAL</text>
<text text-anchor="start" x="8" y="-59.5" font-family="Helvetica,sans-Serif" font-size="10.00">+ MAPTYPE_VERTICAL</text>
<polyline fill="none" stroke="black" points="0,-52.5 143,-52.5 "/>
<text text-anchor="start" x="8" y="-40.5" font-family="Helvetica,sans-Serif" font-size="10.00">+ __construct()</text>
<text text-anchor="start" x="8" y="-29.5" font-family="Helvetica,sans-Serif" font-size="10.00">+ visit()</text>
<text text-anchor="start" x="8" y="-18.5" font-family="Helvetica,sans-Serif" font-size="10.00">+ getMap()</text>
<text text-anchor="start" x="8" y="-7.5" font-family="Helvetica,sans-Serif" font-size="10.00">+ flip()</text>
</a>
</g>
</g>
<!-- Node1&#45;&gt;Node2 -->
<g id="edge1" class="edge">
<title>Node1&#45;&gt;Node2</title>
<path fill="none" stroke="midnightblue" d="M114.61,-129.14C109.53,-120.05 104.32,-110.73 99.36,-101.86"/>
<polygon fill="none" stroke="midnightblue" points="111.7,-131.11 119.63,-138.13 117.81,-127.69 111.7,-131.11"/>
</g>
<!-- Node3 -->
<g id="node3" class="node">
<title>Node3</title>
<g id="a_node3"><a xlink:href="classwcmf_1_1lib_1_1model_1_1visitor_1_1_output_visitor.html" target="_top" xlink:title="OutputVisitor is used to output an object&#39;s content to different destinations and formats.">
<polygon fill="white" stroke="black" points="161,-0.5 161,-101.5 286,-101.5 286,-0.5 161,-0.5"/>
<text text-anchor="middle" x="223.5" y="-89.5" font-family="Helvetica,sans-Serif" font-size="10.00">OutputVisitor</text>
<polyline fill="none" stroke="black" points="161,-82.5 286,-82.5 "/>
<text text-anchor="middle" x="223.5" y="-70.5" font-family="Helvetica,sans-Serif" font-size="10.00"> </text>
<polyline fill="none" stroke="black" points="161,-63.5 286,-63.5 "/>
<text text-anchor="start" x="169" y="-51.5" font-family="Helvetica,sans-Serif" font-size="10.00">+ __construct()</text>
<text text-anchor="start" x="169" y="-40.5" font-family="Helvetica,sans-Serif" font-size="10.00">+ setOutputStrategy()</text>
<text text-anchor="start" x="169" y="-29.5" font-family="Helvetica,sans-Serif" font-size="10.00">+ visit()</text>
<text text-anchor="start" x="169" y="-18.5" font-family="Helvetica,sans-Serif" font-size="10.00">+ doPreVisit()</text>
<text text-anchor="start" x="169" y="-7.5" font-family="Helvetica,sans-Serif" font-size="10.00">+ doPostVisit()</text>
</a>
</g>
</g>
<!-- Node1&#45;&gt;Node3 -->
<g id="edge2" class="edge">
<title>Node1&#45;&gt;Node3</title>
<path fill="none" stroke="midnightblue" d="M180.39,-129.14C185.47,-120.05 190.68,-110.73 195.64,-101.86"/>
<polygon fill="none" stroke="midnightblue" points="177.19,-127.69 175.37,-138.13 183.3,-131.11 177.19,-127.69"/>
</g>
</g>
</svg>
