<?xml version="1.0" encoding="UTF-8" standalone="no"?>
<!DOCTYPE svg PUBLIC "-//W3C//DTD SVG 1.1//EN"
 "http://www.w3.org/Graphics/SVG/1.1/DTD/svg11.dtd">
<!-- Generated by graphviz version 2.43.0 (0)
 -->
<!-- Title: AuthTokenSession Pages: 1 -->
<svg width="264pt" height="540pt"
 viewBox="0.00 0.00 264.00 540.00" xmlns="http://www.w3.org/2000/svg" xmlns:xlink="http://www.w3.org/1999/xlink">
<g id="graph0" class="graph" transform="scale(1 1) rotate(0) translate(4 536)">
<title>AuthTokenSession</title>
<polygon fill="white" stroke="transparent" points="-4,4 -4,-536 260,-536 260,4 -4,4"/>
<!-- Node1 -->
<g id="node1" class="node">
<title>Node1</title>
<g id="a_node1"><a xlink:title="AuthTokenSession is a DefaultSession, but additionally requires clients to send a token in the X&#45;Auth...">
<polygon fill="#bfbfbf" stroke="black" points="71,-0.5 71,-112.5 187,-112.5 187,-0.5 71,-0.5"/>
<text text-anchor="middle" x="129" y="-100.5" font-family="Helvetica,sans-Serif" font-size="10.00">AuthTokenSession</text>
<polyline fill="none" stroke="black" points="71,-93.5 187,-93.5 "/>
<text text-anchor="start" x="79" y="-81.5" font-family="Helvetica,sans-Serif" font-size="10.00">+ TOKEN_HEADER</text>
<polyline fill="none" stroke="black" points="71,-74.5 187,-74.5 "/>
<text text-anchor="start" x="79" y="-62.5" font-family="Helvetica,sans-Serif" font-size="10.00">+ __construct()</text>
<text text-anchor="start" x="79" y="-51.5" font-family="Helvetica,sans-Serif" font-size="10.00">+ getHeaderName()</text>
<text text-anchor="start" x="79" y="-40.5" font-family="Helvetica,sans-Serif" font-size="10.00">+ getCookieName()</text>
<text text-anchor="start" x="79" y="-29.5" font-family="Helvetica,sans-Serif" font-size="10.00">+ setAuthUser()</text>
<text text-anchor="start" x="79" y="-18.5" font-family="Helvetica,sans-Serif" font-size="10.00">+ getAuthUser()</text>
<text text-anchor="start" x="79" y="-7.5" font-family="Helvetica,sans-Serif" font-size="10.00"># isTokenValid()</text>
</a>
</g>
</g>
<!-- Node2 -->
<g id="node2" class="node">
<title>Node2</title>
<g id="a_node2"><a xlink:href="classwcmf_1_1lib_1_1core_1_1impl_1_1_default_session.html" target="_top" xlink:title="DefaultSession uses the default PHP session implementation:">
<polygon fill="white" stroke="black" points="0,-149.5 0,-338.5 122,-338.5 122,-149.5 0,-149.5"/>
<text text-anchor="middle" x="61" y="-326.5" font-family="Helvetica,sans-Serif" font-size="10.00">DefaultSession</text>
<polyline fill="none" stroke="black" points="0,-319.5 122,-319.5 "/>
<text text-anchor="start" x="8" y="-307.5" font-family="Helvetica,sans-Serif" font-size="10.00">+ AUTH_USER_NAME</text>
<polyline fill="none" stroke="black" points="0,-300.5 122,-300.5 "/>
<text text-anchor="start" x="8" y="-288.5" font-family="Helvetica,sans-Serif" font-size="10.00">+ __construct()</text>
<text text-anchor="start" x="8" y="-277.5" font-family="Helvetica,sans-Serif" font-size="10.00">+ __destruct()</text>
<text text-anchor="start" x="8" y="-266.5" font-family="Helvetica,sans-Serif" font-size="10.00">+ isStarted()</text>
<text text-anchor="start" x="8" y="-255.5" font-family="Helvetica,sans-Serif" font-size="10.00">+ getID()</text>
<text text-anchor="start" x="8" y="-244.5" font-family="Helvetica,sans-Serif" font-size="10.00">+ get()</text>
<text text-anchor="start" x="8" y="-233.5" font-family="Helvetica,sans-Serif" font-size="10.00">+ set()</text>
<text text-anchor="start" x="8" y="-222.5" font-family="Helvetica,sans-Serif" font-size="10.00">+ remove()</text>
<text text-anchor="start" x="8" y="-211.5" font-family="Helvetica,sans-Serif" font-size="10.00">+ exist()</text>
<text text-anchor="start" x="8" y="-200.5" font-family="Helvetica,sans-Serif" font-size="10.00">+ clear()</text>
<text text-anchor="start" x="8" y="-189.5" font-family="Helvetica,sans-Serif" font-size="10.00">+ destroy()</text>
<text text-anchor="start" x="8" y="-178.5" font-family="Helvetica,sans-Serif" font-size="10.00">+ setAuthUser()</text>
<text text-anchor="start" x="8" y="-167.5" font-family="Helvetica,sans-Serif" font-size="10.00">+ getAuthUser()</text>
<text text-anchor="start" x="8" y="-156.5" font-family="Helvetica,sans-Serif" font-size="10.00"># getCookiePrefix()</text>
</a>
</g>
</g>
<!-- Node2&#45;&gt;Node1 -->
<g id="edge1" class="edge">
<title>Node2&#45;&gt;Node1</title>
<path fill="none" stroke="midnightblue" d="M98.76,-140C102.2,-130.6 105.6,-121.33 108.8,-112.61"/>
<polygon fill="none" stroke="midnightblue" points="95.45,-138.84 95.3,-149.43 102.03,-141.25 95.45,-138.84"/>
</g>
<!-- Node3 -->
<g id="node3" class="node">
<title>Node3</title>
<g id="a_node3"><a xlink:href="interfacewcmf_1_1lib_1_1core_1_1_session.html" target="_top" xlink:title="Session is the interface for session implementations and defines access to session variables.">
<polygon fill="white" stroke="black" points="81,-375.5 81,-531.5 177,-531.5 177,-375.5 81,-375.5"/>
<text text-anchor="middle" x="129" y="-519.5" font-family="Helvetica,sans-Serif" font-size="10.00">Session</text>
<polyline fill="none" stroke="black" points="81,-512.5 177,-512.5 "/>
<text text-anchor="middle" x="129" y="-500.5" font-family="Helvetica,sans-Serif" font-size="10.00"> </text>
<polyline fill="none" stroke="black" points="81,-493.5 177,-493.5 "/>
<text text-anchor="start" x="89" y="-481.5" font-family="Helvetica,sans-Serif" font-size="10.00">+ isStarted()</text>
<text text-anchor="start" x="89" y="-470.5" font-family="Helvetica,sans-Serif" font-size="10.00">+ getID()</text>
<text text-anchor="start" x="89" y="-459.5" font-family="Helvetica,sans-Serif" font-size="10.00">+ get()</text>
<text text-anchor="start" x="89" y="-448.5" font-family="Helvetica,sans-Serif" font-size="10.00">+ set()</text>
<text text-anchor="start" x="89" y="-437.5" font-family="Helvetica,sans-Serif" font-size="10.00">+ remove()</text>
<text text-anchor="start" x="89" y="-426.5" font-family="Helvetica,sans-Serif" font-size="10.00">+ exist()</text>
<text text-anchor="start" x="89" y="-415.5" font-family="Helvetica,sans-Serif" font-size="10.00">+ clear()</text>
<text text-anchor="start" x="89" y="-404.5" font-family="Helvetica,sans-Serif" font-size="10.00">+ destroy()</text>
<text text-anchor="start" x="89" y="-393.5" font-family="Helvetica,sans-Serif" font-size="10.00">+ setAuthUser()</text>
<text text-anchor="start" x="89" y="-382.5" font-family="Helvetica,sans-Serif" font-size="10.00">+ getAuthUser()</text>
</a>
</g>
</g>
<!-- Node3&#45;&gt;Node2 -->
<g id="edge2" class="edge">
<title>Node3&#45;&gt;Node2</title>
<path fill="none" stroke="midnightblue" d="M100.55,-365.69C97.64,-356.81 94.68,-347.77 91.75,-338.82"/>
<polygon fill="none" stroke="midnightblue" points="97.24,-366.82 103.68,-375.23 103.89,-364.64 97.24,-366.82"/>
</g>
<!-- Node4 -->
<g id="node4" class="node">
<title>Node4</title>
<g id="a_node4"><a xlink:href="interfacewcmf_1_1lib_1_1core_1_1_token_based_session.html" target="_top" xlink:title="A session that requires clients to send a token for authentication.">
<polygon fill="white" stroke="black" points="140,-210 140,-278 256,-278 256,-210 140,-210"/>
<text text-anchor="middle" x="198" y="-266" font-family="Helvetica,sans-Serif" font-size="10.00">TokenBasedSession</text>
<polyline fill="none" stroke="black" points="140,-259 256,-259 "/>
<text text-anchor="middle" x="198" y="-247" font-family="Helvetica,sans-Serif" font-size="10.00"> </text>
<polyline fill="none" stroke="black" points="140,-240 256,-240 "/>
<text text-anchor="start" x="148" y="-228" font-family="Helvetica,sans-Serif" font-size="10.00">+ getHeaderName()</text>
<text text-anchor="start" x="148" y="-217" font-family="Helvetica,sans-Serif" font-size="10.00">+ getCookieName()</text>
</a>
</g>
</g>
<!-- Node3&#45;&gt;Node4 -->
<g id="edge4" class="edge">
<title>Node3&#45;&gt;Node4</title>
<path fill="none" stroke="midnightblue" d="M157.86,-365.71C168.15,-334.78 179.12,-301.77 186.99,-278.1"/>
<polygon fill="none" stroke="midnightblue" points="154.53,-364.64 154.69,-375.23 161.17,-366.85 154.53,-364.64"/>
</g>
<!-- Node4&#45;&gt;Node1 -->
<g id="edge3" class="edge">
<title>Node4&#45;&gt;Node1</title>
<path fill="none" stroke="midnightblue" d="M182.1,-200.24C172.4,-174.18 159.91,-140.6 149.48,-112.56"/>
<polygon fill="none" stroke="midnightblue" points="178.9,-201.68 185.66,-209.84 185.46,-199.24 178.9,-201.68"/>
</g>
</g>
</svg>
