<?xml version="1.0" encoding="UTF-8" standalone="no"?>
<!DOCTYPE svg PUBLIC "-//W3C//DTD SVG 1.1//EN"
 "http://www.w3.org/Graphics/SVG/1.1/DTD/svg11.dtd">
<!-- Generated by graphviz version 2.43.0 (0)
 -->
<!-- Title: ListController Pages: 1 -->
<svg width="226pt" height="485pt"
 viewBox="0.00 0.00 225.50 485.00" xmlns="http://www.w3.org/2000/svg" xmlns:xlink="http://www.w3.org/1999/xlink">
<g id="graph0" class="graph" transform="scale(1 1) rotate(0) translate(4 481)">
<title>ListController</title>
<polygon fill="white" stroke="transparent" points="-4,4 -4,-481 221.5,-481 221.5,4 -4,4"/>
<!-- Node1 -->
<g id="node1" class="node">
<title>Node1</title>
<g id="a_node1"><a xlink:title="ListController is used to load Node lists.">
<polygon fill="#bfbfbf" stroke="black" points="59.5,-127.5 59.5,-217.5 158.5,-217.5 158.5,-127.5 59.5,-127.5"/>
<text text-anchor="middle" x="109" y="-205.5" font-family="Helvetica,sans-Serif" font-size="10.00">ListController</text>
<polyline fill="none" stroke="black" points="59.5,-198.5 158.5,-198.5 "/>
<text text-anchor="middle" x="109" y="-186.5" font-family="Helvetica,sans-Serif" font-size="10.00"> </text>
<polyline fill="none" stroke="black" points="59.5,-179.5 158.5,-179.5 "/>
<text text-anchor="start" x="67.5" y="-167.5" font-family="Helvetica,sans-Serif" font-size="10.00"># validate()</text>
<text text-anchor="start" x="67.5" y="-156.5" font-family="Helvetica,sans-Serif" font-size="10.00"># doExecute()</text>
<text text-anchor="start" x="67.5" y="-145.5" font-family="Helvetica,sans-Serif" font-size="10.00"># getObjects()</text>
<text text-anchor="start" x="67.5" y="-134.5" font-family="Helvetica,sans-Serif" font-size="10.00"># modifyModel()</text>
</a>
</g>
</g>
<!-- Node3 -->
<g id="node3" class="node">
<title>Node3</title>
<g id="a_node3"><a xlink:href="classwcmf_1_1application_1_1controller_1_1_history_controller.html" target="_top" xlink:title="HistoryController returns a list of last changed entity instances.">
<polygon fill="white" stroke="black" points="0,-0.5 0,-90.5 100,-90.5 100,-0.5 0,-0.5"/>
<text text-anchor="middle" x="50" y="-78.5" font-family="Helvetica,sans-Serif" font-size="10.00">HistoryController</text>
<polyline fill="none" stroke="black" points="0,-71.5 100,-71.5 "/>
<text text-anchor="middle" x="50" y="-59.5" font-family="Helvetica,sans-Serif" font-size="10.00"> </text>
<polyline fill="none" stroke="black" points="0,-52.5 100,-52.5 "/>
<text text-anchor="start" x="8" y="-40.5" font-family="Helvetica,sans-Serif" font-size="10.00">+ initialize()</text>
<text text-anchor="start" x="8" y="-29.5" font-family="Helvetica,sans-Serif" font-size="10.00"># validate()</text>
<text text-anchor="start" x="8" y="-18.5" font-family="Helvetica,sans-Serif" font-size="10.00"># getObjects()</text>
<text text-anchor="start" x="8" y="-7.5" font-family="Helvetica,sans-Serif" font-size="10.00"># modifyModel()</text>
</a>
</g>
</g>
<!-- Node1&#45;&gt;Node3 -->
<g id="edge2" class="edge">
<title>Node1&#45;&gt;Node3</title>
<path fill="none" stroke="midnightblue" d="M83.9,-118.31C79.53,-109.07 75.04,-99.56 70.81,-90.59"/>
<polygon fill="none" stroke="midnightblue" points="80.77,-119.88 88.2,-127.43 87.1,-116.89 80.77,-119.88"/>
</g>
<!-- Node4 -->
<g id="node4" class="node">
<title>Node4</title>
<g id="a_node4"><a xlink:href="classwcmf_1_1application_1_1controller_1_1_search_controller.html" target="_top" xlink:title="SearchController executes a search and returns matching objects in a paged list.">
<polygon fill="white" stroke="black" points="118.5,-0.5 118.5,-90.5 217.5,-90.5 217.5,-0.5 118.5,-0.5"/>
<text text-anchor="middle" x="168" y="-78.5" font-family="Helvetica,sans-Serif" font-size="10.00">SearchController</text>
<polyline fill="none" stroke="black" points="118.5,-71.5 217.5,-71.5 "/>
<text text-anchor="middle" x="168" y="-59.5" font-family="Helvetica,sans-Serif" font-size="10.00"> </text>
<polyline fill="none" stroke="black" points="118.5,-52.5 217.5,-52.5 "/>
<text text-anchor="start" x="126.5" y="-40.5" font-family="Helvetica,sans-Serif" font-size="10.00">+ __construct()</text>
<text text-anchor="start" x="126.5" y="-29.5" font-family="Helvetica,sans-Serif" font-size="10.00"># validate()</text>
<text text-anchor="start" x="126.5" y="-18.5" font-family="Helvetica,sans-Serif" font-size="10.00"># getObjects()</text>
<text text-anchor="start" x="126.5" y="-7.5" font-family="Helvetica,sans-Serif" font-size="10.00"># modifyModel()</text>
</a>
</g>
</g>
<!-- Node1&#45;&gt;Node4 -->
<g id="edge3" class="edge">
<title>Node1&#45;&gt;Node4</title>
<path fill="none" stroke="midnightblue" d="M134.1,-118.31C138.47,-109.07 142.96,-99.56 147.19,-90.59"/>
<polygon fill="none" stroke="midnightblue" points="130.9,-116.89 129.8,-127.43 137.23,-119.88 130.9,-116.89"/>
</g>
<!-- Node2 -->
<g id="node2" class="node">
<title>Node2</title>
<g id="a_node2"><a xlink:href="classwcmf_1_1lib_1_1presentation_1_1_controller.html" target="_top" xlink:title="Controller is the base class of all controllers.">
<polygon fill="white" stroke="black" points="35,-254.5 35,-476.5 183,-476.5 183,-254.5 35,-254.5"/>
<text text-anchor="middle" x="109" y="-464.5" font-family="Helvetica,sans-Serif" font-size="10.00">Controller</text>
<polyline fill="none" stroke="black" points="35,-457.5 183,-457.5 "/>
<text text-anchor="start" x="43" y="-445.5" font-family="Helvetica,sans-Serif" font-size="10.00">+ CSRF_TOKEN_PARAM</text>
<polyline fill="none" stroke="black" points="35,-438.5 183,-438.5 "/>
<text text-anchor="start" x="43" y="-426.5" font-family="Helvetica,sans-Serif" font-size="10.00">+ __construct()</text>
<text text-anchor="start" x="43" y="-415.5" font-family="Helvetica,sans-Serif" font-size="10.00">+ initialize()</text>
<text text-anchor="start" x="43" y="-404.5" font-family="Helvetica,sans-Serif" font-size="10.00">+ execute()</text>
<text text-anchor="start" x="43" y="-393.5" font-family="Helvetica,sans-Serif" font-size="10.00">+ getRequest()</text>
<text text-anchor="start" x="43" y="-382.5" font-family="Helvetica,sans-Serif" font-size="10.00">+ getResponse()</text>
<text text-anchor="start" x="43" y="-371.5" font-family="Helvetica,sans-Serif" font-size="10.00"># validate()</text>
<text text-anchor="start" x="43" y="-360.5" font-family="Helvetica,sans-Serif" font-size="10.00"># doExecute()</text>
<text text-anchor="start" x="43" y="-349.5" font-family="Helvetica,sans-Serif" font-size="10.00"># executeSubAction()</text>
<text text-anchor="start" x="43" y="-338.5" font-family="Helvetica,sans-Serif" font-size="10.00"># redirect()</text>
<text text-anchor="start" x="43" y="-327.5" font-family="Helvetica,sans-Serif" font-size="10.00"># getLogger()</text>
<text text-anchor="start" x="43" y="-316.5" font-family="Helvetica,sans-Serif" font-size="10.00"># getSession()</text>
<text text-anchor="start" x="43" y="-305.5" font-family="Helvetica,sans-Serif" font-size="10.00"># getPersistenceFacade()</text>
<text text-anchor="start" x="43" y="-294.5" font-family="Helvetica,sans-Serif" font-size="10.00"># getPermissionManager()</text>
<text text-anchor="start" x="43" y="-283.5" font-family="Helvetica,sans-Serif" font-size="10.00"># getActionMapper()</text>
<text text-anchor="start" x="43" y="-272.5" font-family="Helvetica,sans-Serif" font-size="10.00"># getLocalization()</text>
<text text-anchor="start" x="43" y="-261.5" font-family="Helvetica,sans-Serif" font-size="10.00">and 11 more...</text>
</a>
</g>
</g>
<!-- Node2&#45;&gt;Node1 -->
<g id="edge1" class="edge">
<title>Node2&#45;&gt;Node1</title>
<path fill="none" stroke="midnightblue" d="M109,-244.04C109,-234.76 109,-225.81 109,-217.59"/>
<polygon fill="none" stroke="midnightblue" points="105.5,-244.22 109,-254.22 112.5,-244.22 105.5,-244.22"/>
</g>
</g>
</svg>
