<?xml version="1.0" encoding="UTF-8" standalone="no"?>
<!DOCTYPE svg PUBLIC "-//W3C//DTD SVG 1.1//EN"
 "http://www.w3.org/Graphics/SVG/1.1/DTD/svg11.dtd">
<!-- Generated by graphviz version 2.43.0 (0)
 -->
<!-- Title: ObjectId Pages: 1 -->
<svg width="194pt" height="314pt"
 viewBox="0.00 0.00 194.00 314.00" xmlns="http://www.w3.org/2000/svg" xmlns:xlink="http://www.w3.org/1999/xlink">
<g id="graph0" class="graph" transform="scale(1 1) rotate(0) translate(4 310)">
<title>ObjectId</title>
<polygon fill="white" stroke="transparent" points="-4,4 -4,-310 190,-310 190,4 -4,4"/>
<!-- Node1 -->
<g id="node1" class="node">
<title>Node1</title>
<g id="a_node1"><a xlink:title="ObjectId is the unique identifier of an object.">
<polygon fill="#bfbfbf" stroke="black" points="23,-0.5 23,-211.5 153,-211.5 153,-0.5 23,-0.5"/>
<text text-anchor="middle" x="88" y="-199.5" font-family="Helvetica,sans-Serif" font-size="10.00">ObjectId</text>
<polyline fill="none" stroke="black" points="23,-192.5 153,-192.5 "/>
<text text-anchor="start" x="31" y="-180.5" font-family="Helvetica,sans-Serif" font-size="10.00">+ DELIMITER</text>
<polyline fill="none" stroke="black" points="23,-173.5 153,-173.5 "/>
<text text-anchor="start" x="31" y="-161.5" font-family="Helvetica,sans-Serif" font-size="10.00">+ __construct()</text>
<text text-anchor="start" x="31" y="-150.5" font-family="Helvetica,sans-Serif" font-size="10.00">+ getPrefix()</text>
<text text-anchor="start" x="31" y="-139.5" font-family="Helvetica,sans-Serif" font-size="10.00">+ getType()</text>
<text text-anchor="start" x="31" y="-128.5" font-family="Helvetica,sans-Serif" font-size="10.00">+ getId()</text>
<text text-anchor="start" x="31" y="-117.5" font-family="Helvetica,sans-Serif" font-size="10.00">+ getFirstId()</text>
<text text-anchor="start" x="31" y="-106.5" font-family="Helvetica,sans-Serif" font-size="10.00">+ __toString()</text>
<text text-anchor="start" x="31" y="-95.5" font-family="Helvetica,sans-Serif" font-size="10.00">+ containsDummyIds()</text>
<text text-anchor="start" x="31" y="-84.5" font-family="Helvetica,sans-Serif" font-size="10.00">+ serialize()</text>
<text text-anchor="start" x="31" y="-73.5" font-family="Helvetica,sans-Serif" font-size="10.00">+ unserialize()</text>
<text text-anchor="start" x="31" y="-62.5" font-family="Helvetica,sans-Serif" font-size="10.00">+ jsonSerialize()</text>
<text text-anchor="start" x="31" y="-51.5" font-family="Helvetica,sans-Serif" font-size="10.00">+ NULL_OID()</text>
<text text-anchor="start" x="31" y="-40.5" font-family="Helvetica,sans-Serif" font-size="10.00">+ isValid()</text>
<text text-anchor="start" x="31" y="-29.5" font-family="Helvetica,sans-Serif" font-size="10.00">+ parse()</text>
<text text-anchor="start" x="31" y="-18.5" font-family="Helvetica,sans-Serif" font-size="10.00">+ getDummyId()</text>
<text text-anchor="start" x="31" y="-7.5" font-family="Helvetica,sans-Serif" font-size="10.00">+ isDummyId()</text>
</a>
</g>
</g>
<!-- Node2 -->
<g id="node2" class="node">
<title>Node2</title>
<g id="a_node2"><a xlink:title=" ">
<polygon fill="white" stroke="#bfbfbf" points="0,-248.5 0,-305.5 74,-305.5 74,-248.5 0,-248.5"/>
<text text-anchor="middle" x="37" y="-293.5" font-family="Helvetica,sans-Serif" font-size="10.00">Serializable</text>
<polyline fill="none" stroke="#bfbfbf" points="0,-286.5 74,-286.5 "/>
<text text-anchor="middle" x="37" y="-274.5" font-family="Helvetica,sans-Serif" font-size="10.00"> </text>
<polyline fill="none" stroke="#bfbfbf" points="0,-267.5 74,-267.5 "/>
<text text-anchor="middle" x="37" y="-255.5" font-family="Helvetica,sans-Serif" font-size="10.00"> </text>
</a>
</g>
</g>
<!-- Node2&#45;&gt;Node1 -->
<g id="edge1" class="edge">
<title>Node2&#45;&gt;Node1</title>
<path fill="none" stroke="midnightblue" d="M48.23,-238.78C50.75,-230.44 53.54,-221.2 56.44,-211.58"/>
<polygon fill="none" stroke="midnightblue" points="44.85,-237.89 45.31,-248.47 51.55,-239.91 44.85,-237.89"/>
</g>
<!-- Node3 -->
<g id="node3" class="node">
<title>Node3</title>
<g id="a_node3"><a xlink:title=" ">
<polygon fill="white" stroke="#bfbfbf" points="92,-248.5 92,-305.5 186,-305.5 186,-248.5 92,-248.5"/>
<text text-anchor="middle" x="139" y="-293.5" font-family="Helvetica,sans-Serif" font-size="10.00">JsonSerializable</text>
<polyline fill="none" stroke="#bfbfbf" points="92,-286.5 186,-286.5 "/>
<text text-anchor="middle" x="139" y="-274.5" font-family="Helvetica,sans-Serif" font-size="10.00"> </text>
<polyline fill="none" stroke="#bfbfbf" points="92,-267.5 186,-267.5 "/>
<text text-anchor="middle" x="139" y="-255.5" font-family="Helvetica,sans-Serif" font-size="10.00"> </text>
</a>
</g>
</g>
<!-- Node3&#45;&gt;Node1 -->
<g id="edge2" class="edge">
<title>Node3&#45;&gt;Node1</title>
<path fill="none" stroke="midnightblue" d="M127.77,-238.78C125.25,-230.44 122.46,-221.2 119.56,-211.58"/>
<polygon fill="none" stroke="midnightblue" points="124.45,-239.91 130.69,-248.47 131.15,-237.89 124.45,-239.91"/>
</g>
</g>
</svg>
