<?xml version="1.0" encoding="UTF-8" standalone="no"?>
<!DOCTYPE svg PUBLIC "-//W3C//DTD SVG 1.1//EN"
 "http://www.w3.org/Graphics/SVG/1.1/DTD/svg11.dtd">
<!-- Generated by graphviz version 2.43.0 (0)
 -->
<!-- Title: LockHandler Pages: 1 -->
<svg width="274pt" height="347pt"
 viewBox="0.00 0.00 273.50 347.00" xmlns="http://www.w3.org/2000/svg" xmlns:xlink="http://www.w3.org/1999/xlink">
<g id="graph0" class="graph" transform="scale(1 1) rotate(0) translate(4 343)">
<title>LockHandler</title>
<polygon fill="white" stroke="transparent" points="-4,4 -4,-343 269.5,-343 269.5,4 -4,4"/>
<!-- Node1 -->
<g id="node1" class="node">
<title>Node1</title>
<g id="a_node1"><a xlink:title="LockHandler defines the interface for LockHandler implementations.">
<polygon fill="#bfbfbf" stroke="black" points="82.5,-226.5 82.5,-338.5 194.5,-338.5 194.5,-226.5 82.5,-226.5"/>
<text text-anchor="middle" x="138.5" y="-326.5" font-family="Helvetica,sans-Serif" font-size="10.00">LockHandler</text>
<polyline fill="none" stroke="black" points="82.5,-319.5 194.5,-319.5 "/>
<text text-anchor="middle" x="138.5" y="-307.5" font-family="Helvetica,sans-Serif" font-size="10.00"> </text>
<polyline fill="none" stroke="black" points="82.5,-300.5 194.5,-300.5 "/>
<text text-anchor="start" x="90.5" y="-288.5" font-family="Helvetica,sans-Serif" font-size="10.00">+ aquireLock()</text>
<text text-anchor="start" x="90.5" y="-277.5" font-family="Helvetica,sans-Serif" font-size="10.00">+ releaseLock()</text>
<text text-anchor="start" x="90.5" y="-266.5" font-family="Helvetica,sans-Serif" font-size="10.00">+ releaseLocks()</text>
<text text-anchor="start" x="90.5" y="-255.5" font-family="Helvetica,sans-Serif" font-size="10.00">+ releaseAllLocks()</text>
<text text-anchor="start" x="90.5" y="-244.5" font-family="Helvetica,sans-Serif" font-size="10.00">+ getLock()</text>
<text text-anchor="start" x="90.5" y="-233.5" font-family="Helvetica,sans-Serif" font-size="10.00">+ updateLock()</text>
</a>
</g>
</g>
<!-- Node2 -->
<g id="node2" class="node">
<title>Node2</title>
<g id="a_node2"><a xlink:href="classwcmf_1_1lib_1_1persistence_1_1concurrency_1_1impl_1_1_default_lock_handler.html" target="_top" xlink:title="DefaultLockHandler implements the LockHandler interface for relational databases.">
<polygon fill="white" stroke="black" points="0,-0.5 0,-189.5 135,-189.5 135,-0.5 0,-0.5"/>
<text text-anchor="middle" x="67.5" y="-177.5" font-family="Helvetica,sans-Serif" font-size="10.00">DefaultLockHandler</text>
<polyline fill="none" stroke="black" points="0,-170.5 135,-170.5 "/>
<text text-anchor="start" x="8" y="-158.5" font-family="Helvetica,sans-Serif" font-size="10.00">+ SESSION_VARNAME</text>
<polyline fill="none" stroke="black" points="0,-151.5 135,-151.5 "/>
<text text-anchor="start" x="8" y="-139.5" font-family="Helvetica,sans-Serif" font-size="10.00">+ __construct()</text>
<text text-anchor="start" x="8" y="-128.5" font-family="Helvetica,sans-Serif" font-size="10.00">+ aquireLock()</text>
<text text-anchor="start" x="8" y="-117.5" font-family="Helvetica,sans-Serif" font-size="10.00">+ releaseLock()</text>
<text text-anchor="start" x="8" y="-106.5" font-family="Helvetica,sans-Serif" font-size="10.00">+ releaseLocks()</text>
<text text-anchor="start" x="8" y="-95.5" font-family="Helvetica,sans-Serif" font-size="10.00">+ releaseAllLocks()</text>
<text text-anchor="start" x="8" y="-84.5" font-family="Helvetica,sans-Serif" font-size="10.00">+ getLock()</text>
<text text-anchor="start" x="8" y="-73.5" font-family="Helvetica,sans-Serif" font-size="10.00">+ updateLock()</text>
<text text-anchor="start" x="8" y="-62.5" font-family="Helvetica,sans-Serif" font-size="10.00"># storeLock()</text>
<text text-anchor="start" x="8" y="-51.5" font-family="Helvetica,sans-Serif" font-size="10.00"># getAuthUser()</text>
<text text-anchor="start" x="8" y="-40.5" font-family="Helvetica,sans-Serif" font-size="10.00"># getSessionLocks()</text>
<text text-anchor="start" x="8" y="-29.5" font-family="Helvetica,sans-Serif" font-size="10.00"># addSessionLock()</text>
<text text-anchor="start" x="8" y="-18.5" font-family="Helvetica,sans-Serif" font-size="10.00"># removeSessionLock()</text>
<text text-anchor="start" x="8" y="-7.5" font-family="Helvetica,sans-Serif" font-size="10.00"># removeSessonLocks()</text>
</a>
</g>
</g>
<!-- Node1&#45;&gt;Node2 -->
<g id="edge1" class="edge">
<title>Node1&#45;&gt;Node2</title>
<path fill="none" stroke="midnightblue" d="M113.77,-216.89C110.37,-208.01 106.83,-198.76 103.29,-189.5"/>
<polygon fill="none" stroke="midnightblue" points="110.55,-218.26 117.39,-226.35 117.08,-215.76 110.55,-218.26"/>
</g>
<!-- Node3 -->
<g id="node3" class="node">
<title>Node3</title>
<g id="a_node3"><a xlink:href="classwcmf_1_1lib_1_1persistence_1_1concurrency_1_1impl_1_1_null_lock_handler.html" target="_top" xlink:title="NullLockHandler acts as if no LockHandler was installed.">
<polygon fill="white" stroke="black" points="153.5,-39 153.5,-151 265.5,-151 265.5,-39 153.5,-39"/>
<text text-anchor="middle" x="209.5" y="-139" font-family="Helvetica,sans-Serif" font-size="10.00">NullLockHandler</text>
<polyline fill="none" stroke="black" points="153.5,-132 265.5,-132 "/>
<text text-anchor="middle" x="209.5" y="-120" font-family="Helvetica,sans-Serif" font-size="10.00"> </text>
<polyline fill="none" stroke="black" points="153.5,-113 265.5,-113 "/>
<text text-anchor="start" x="161.5" y="-101" font-family="Helvetica,sans-Serif" font-size="10.00">+ aquireLock()</text>
<text text-anchor="start" x="161.5" y="-90" font-family="Helvetica,sans-Serif" font-size="10.00">+ releaseLock()</text>
<text text-anchor="start" x="161.5" y="-79" font-family="Helvetica,sans-Serif" font-size="10.00">+ releaseLocks()</text>
<text text-anchor="start" x="161.5" y="-68" font-family="Helvetica,sans-Serif" font-size="10.00">+ releaseAllLocks()</text>
<text text-anchor="start" x="161.5" y="-57" font-family="Helvetica,sans-Serif" font-size="10.00">+ getLock()</text>
<text text-anchor="start" x="161.5" y="-46" font-family="Helvetica,sans-Serif" font-size="10.00">+ updateLock()</text>
</a>
</g>
</g>
<!-- Node1&#45;&gt;Node3 -->
<g id="edge2" class="edge">
<title>Node1&#45;&gt;Node3</title>
<path fill="none" stroke="midnightblue" d="M163.19,-217C171.39,-195.57 180.44,-171.92 188.35,-151.26"/>
<polygon fill="none" stroke="midnightblue" points="159.92,-215.76 159.61,-226.35 166.45,-218.26 159.92,-215.76"/>
</g>
</g>
</svg>
