<?xml version="1.0" encoding="UTF-8" standalone="no"?>
<!DOCTYPE svg PUBLIC "-//W3C//DTD SVG 1.1//EN"
 "http://www.w3.org/Graphics/SVG/1.1/DTD/svg11.dtd">
<!-- Generated by graphviz version 2.43.0 (0)
 -->
<!-- Title: Format Pages: 1 -->
<svg width="821pt" height="689pt"
 viewBox="0.00 0.00 821.00 689.00" xmlns="http://www.w3.org/2000/svg" xmlns:xlink="http://www.w3.org/1999/xlink">
<g id="graph0" class="graph" transform="scale(1 1) rotate(0) translate(4 685)">
<title>Format</title>
<polygon fill="white" stroke="transparent" points="-4,4 -4,-685 817,-685 817,4 -4,4"/>
<!-- Node1 -->
<g id="node1" class="node">
<title>Node1</title>
<g id="a_node1"><a xlink:title="Format defines the interface for all format classes.">
<polygon fill="#bfbfbf" stroke="black" points="312,-568.5 312,-680.5 451,-680.5 451,-568.5 312,-568.5"/>
<text text-anchor="middle" x="381.5" y="-668.5" font-family="Helvetica,sans-Serif" font-size="10.00">Format</text>
<polyline fill="none" stroke="black" points="312,-661.5 451,-661.5 "/>
<text text-anchor="middle" x="381.5" y="-649.5" font-family="Helvetica,sans-Serif" font-size="10.00"> </text>
<polyline fill="none" stroke="black" points="312,-642.5 451,-642.5 "/>
<text text-anchor="start" x="320" y="-630.5" font-family="Helvetica,sans-Serif" font-size="10.00">+ getMimeType()</text>
<text text-anchor="start" x="320" y="-619.5" font-family="Helvetica,sans-Serif" font-size="10.00">+ deserialize()</text>
<text text-anchor="start" x="320" y="-608.5" font-family="Helvetica,sans-Serif" font-size="10.00">+ serialize()</text>
<text text-anchor="start" x="320" y="-597.5" font-family="Helvetica,sans-Serif" font-size="10.00">+ isCached()</text>
<text text-anchor="start" x="320" y="-586.5" font-family="Helvetica,sans-Serif" font-size="10.00">+ getCacheDate()</text>
<text text-anchor="start" x="320" y="-575.5" font-family="Helvetica,sans-Serif" font-size="10.00">+ getResponseHeaders()</text>
</a>
</g>
</g>
<!-- Node2 -->
<g id="node2" class="node">
<title>Node2</title>
<g id="a_node2"><a xlink:href="classwcmf_1_1lib_1_1presentation_1_1format_1_1impl_1_1_abstract_format.html" target="_top" xlink:title="AbstractFormat is used as base class for specialized formats.">
<polygon fill="white" stroke="black" points="312,-364.5 312,-531.5 451,-531.5 451,-364.5 312,-364.5"/>
<text text-anchor="middle" x="381.5" y="-519.5" font-family="Helvetica,sans-Serif" font-size="10.00">AbstractFormat</text>
<polyline fill="none" stroke="black" points="312,-512.5 451,-512.5 "/>
<text text-anchor="middle" x="381.5" y="-500.5" font-family="Helvetica,sans-Serif" font-size="10.00"> </text>
<polyline fill="none" stroke="black" points="312,-493.5 451,-493.5 "/>
<text text-anchor="start" x="320" y="-481.5" font-family="Helvetica,sans-Serif" font-size="10.00">+ deserialize()</text>
<text text-anchor="start" x="320" y="-470.5" font-family="Helvetica,sans-Serif" font-size="10.00">+ serialize()</text>
<text text-anchor="start" x="320" y="-459.5" font-family="Helvetica,sans-Serif" font-size="10.00">+ getResponseHeaders()</text>
<text text-anchor="start" x="320" y="-448.5" font-family="Helvetica,sans-Serif" font-size="10.00"># beforeDeserialize()</text>
<text text-anchor="start" x="320" y="-437.5" font-family="Helvetica,sans-Serif" font-size="10.00"># deserializeValues()</text>
<text text-anchor="start" x="320" y="-426.5" font-family="Helvetica,sans-Serif" font-size="10.00"># afterDeserialize()</text>
<text text-anchor="start" x="320" y="-415.5" font-family="Helvetica,sans-Serif" font-size="10.00"># beforeSerialize()</text>
<text text-anchor="start" x="320" y="-404.5" font-family="Helvetica,sans-Serif" font-size="10.00"># serializeValues()</text>
<text text-anchor="start" x="320" y="-393.5" font-family="Helvetica,sans-Serif" font-size="10.00"># afterSerialize()</text>
<text text-anchor="start" x="320" y="-382.5" font-family="Helvetica,sans-Serif" font-size="10.00"># getNode()</text>
<text text-anchor="start" x="320" y="-371.5" font-family="Helvetica,sans-Serif" font-size="10.00"># filterValue()</text>
</a>
</g>
</g>
<!-- Node1&#45;&gt;Node2 -->
<g id="edge1" class="edge">
<title>Node1&#45;&gt;Node2</title>
<path fill="none" stroke="midnightblue" d="M381.5,-558.24C381.5,-549.54 381.5,-540.53 381.5,-531.59"/>
<polygon fill="none" stroke="midnightblue" points="378,-558.29 381.5,-568.29 385,-558.29 378,-558.29"/>
</g>
<!-- Node3 -->
<g id="node3" class="node">
<title>Node3</title>
<g id="a_node3"><a xlink:href="classwcmf_1_1lib_1_1presentation_1_1format_1_1impl_1_1_download_format.html" target="_top" xlink:title="DownloadFormat is used for downloads.">
<polygon fill="white" stroke="black" points="0,-204.5 0,-316.5 139,-316.5 139,-204.5 0,-204.5"/>
<text text-anchor="middle" x="69.5" y="-304.5" font-family="Helvetica,sans-Serif" font-size="10.00">DownloadFormat</text>
<polyline fill="none" stroke="black" points="0,-297.5 139,-297.5 "/>
<text text-anchor="middle" x="69.5" y="-285.5" font-family="Helvetica,sans-Serif" font-size="10.00"> </text>
<polyline fill="none" stroke="black" points="0,-278.5 139,-278.5 "/>
<text text-anchor="start" x="8" y="-266.5" font-family="Helvetica,sans-Serif" font-size="10.00">+ getMimeType()</text>
<text text-anchor="start" x="8" y="-255.5" font-family="Helvetica,sans-Serif" font-size="10.00">+ isCached()</text>
<text text-anchor="start" x="8" y="-244.5" font-family="Helvetica,sans-Serif" font-size="10.00">+ getCacheDate()</text>
<text text-anchor="start" x="8" y="-233.5" font-family="Helvetica,sans-Serif" font-size="10.00">+ getResponseHeaders()</text>
<text text-anchor="start" x="8" y="-222.5" font-family="Helvetica,sans-Serif" font-size="10.00"># deserializeValues()</text>
<text text-anchor="start" x="8" y="-211.5" font-family="Helvetica,sans-Serif" font-size="10.00"># serializeValues()</text>
</a>
</g>
</g>
<!-- Node2&#45;&gt;Node3 -->
<g id="edge2" class="edge">
<title>Node2&#45;&gt;Node3</title>
<path fill="none" stroke="midnightblue" d="M302.64,-412.59C256.01,-390.87 196.64,-360.78 147.5,-328 142.17,-324.45 136.8,-320.58 131.5,-316.55"/>
<polygon fill="none" stroke="midnightblue" points="301.25,-415.8 311.79,-416.82 304.19,-409.45 301.25,-415.8"/>
</g>
<!-- Node4 -->
<g id="node4" class="node">
<title>Node4</title>
<g id="a_node4"><a xlink:href="classwcmf_1_1lib_1_1presentation_1_1format_1_1impl_1_1_generic_format.html" target="_top" xlink:title="GenericFormat is used to output arbitrary responses.">
<polygon fill="white" stroke="black" points="157,-193.5 157,-327.5 298,-327.5 298,-193.5 157,-193.5"/>
<text text-anchor="middle" x="227.5" y="-315.5" font-family="Helvetica,sans-Serif" font-size="10.00">GenericFormat</text>
<polyline fill="none" stroke="black" points="157,-308.5 298,-308.5 "/>
<text text-anchor="start" x="165" y="-296.5" font-family="Helvetica,sans-Serif" font-size="10.00">+ CACHE_SECTION</text>
<text text-anchor="start" x="165" y="-285.5" font-family="Helvetica,sans-Serif" font-size="10.00"># $cache</text>
<polyline fill="none" stroke="black" points="157,-278.5 298,-278.5 "/>
<text text-anchor="start" x="165" y="-266.5" font-family="Helvetica,sans-Serif" font-size="10.00">+ __construct()</text>
<text text-anchor="start" x="165" y="-255.5" font-family="Helvetica,sans-Serif" font-size="10.00">+ getMimeType()</text>
<text text-anchor="start" x="165" y="-244.5" font-family="Helvetica,sans-Serif" font-size="10.00"># getCache()</text>
<text text-anchor="start" x="165" y="-233.5" font-family="Helvetica,sans-Serif" font-size="10.00"># getBaseCacheSection()</text>
<text text-anchor="start" x="165" y="-222.5" font-family="Helvetica,sans-Serif" font-size="10.00"># deserializeValues()</text>
<text text-anchor="start" x="165" y="-211.5" font-family="Helvetica,sans-Serif" font-size="10.00"># serializeValues()</text>
<text text-anchor="start" x="165" y="-200.5" font-family="Helvetica,sans-Serif" font-size="10.00"># afterSerialize()</text>
</a>
</g>
</g>
<!-- Node2&#45;&gt;Node4 -->
<g id="edge3" class="edge">
<title>Node2&#45;&gt;Node4</title>
<path fill="none" stroke="midnightblue" d="M306.37,-356.5C298.29,-346.77 290.18,-337.01 282.41,-327.64"/>
<polygon fill="none" stroke="midnightblue" points="303.75,-358.83 312.83,-364.29 309.14,-354.36 303.75,-358.83"/>
</g>
<!-- Node5 -->
<g id="node5" class="node">
<title>Node5</title>
<g id="a_node5"><a xlink:href="classwcmf_1_1lib_1_1presentation_1_1format_1_1impl_1_1_hierarchical_format.html" target="_top" xlink:title="HierarchicalFormat is used as base class for formats that are able to represent hierarchical data lik...">
<polygon fill="white" stroke="black" points="316.5,-204.5 316.5,-316.5 446.5,-316.5 446.5,-204.5 316.5,-204.5"/>
<text text-anchor="middle" x="381.5" y="-304.5" font-family="Helvetica,sans-Serif" font-size="10.00">HierarchicalFormat</text>
<polyline fill="none" stroke="black" points="316.5,-297.5 446.5,-297.5 "/>
<text text-anchor="middle" x="381.5" y="-285.5" font-family="Helvetica,sans-Serif" font-size="10.00"> </text>
<polyline fill="none" stroke="black" points="316.5,-278.5 446.5,-278.5 "/>
<text text-anchor="start" x="324.5" y="-266.5" font-family="Helvetica,sans-Serif" font-size="10.00"># deserializeValues()</text>
<text text-anchor="start" x="324.5" y="-255.5" font-family="Helvetica,sans-Serif" font-size="10.00"># serializeValues()</text>
<text text-anchor="start" x="324.5" y="-244.5" font-family="Helvetica,sans-Serif" font-size="10.00"># isSerializedNode()</text>
<text text-anchor="start" x="324.5" y="-233.5" font-family="Helvetica,sans-Serif" font-size="10.00"># isDeserializedNode()</text>
<text text-anchor="start" x="324.5" y="-222.5" font-family="Helvetica,sans-Serif" font-size="10.00"># serializeNode()</text>
<text text-anchor="start" x="324.5" y="-211.5" font-family="Helvetica,sans-Serif" font-size="10.00"># deserializeNode()</text>
</a>
</g>
</g>
<!-- Node2&#45;&gt;Node5 -->
<g id="edge4" class="edge">
<title>Node2&#45;&gt;Node5</title>
<path fill="none" stroke="midnightblue" d="M381.5,-354.04C381.5,-341.24 381.5,-328.45 381.5,-316.64"/>
<polygon fill="none" stroke="midnightblue" points="378,-354.29 381.5,-364.29 385,-354.29 378,-354.29"/>
</g>
<!-- Node8 -->
<g id="node8" class="node">
<title>Node8</title>
<g id="a_node8"><a xlink:href="classwcmf_1_1lib_1_1presentation_1_1format_1_1impl_1_1_html_format.html" target="_top" xlink:title="HtmlFormat implements the HTML request/response format.">
<polygon fill="white" stroke="black" points="465,-199 465,-322 674,-322 674,-199 465,-199"/>
<text text-anchor="middle" x="569.5" y="-310" font-family="Helvetica,sans-Serif" font-size="10.00">HtmlFormat</text>
<polyline fill="none" stroke="black" points="465,-303 674,-303 "/>
<text text-anchor="middle" x="569.5" y="-291" font-family="Helvetica,sans-Serif" font-size="10.00"> </text>
<polyline fill="none" stroke="black" points="465,-284 674,-284 "/>
<text text-anchor="start" x="473" y="-272" font-family="Helvetica,sans-Serif" font-size="10.00">+ getMimeType()</text>
<text text-anchor="start" x="473" y="-261" font-family="Helvetica,sans-Serif" font-size="10.00">+ isCached()</text>
<text text-anchor="start" x="473" y="-250" font-family="Helvetica,sans-Serif" font-size="10.00">+ getCacheDate()</text>
<text text-anchor="start" x="473" y="-239" font-family="Helvetica,sans-Serif" font-size="10.00"># deserializeValues()</text>
<text text-anchor="start" x="473" y="-228" font-family="Helvetica,sans-Serif" font-size="10.00"># serializeValues()</text>
<text text-anchor="start" x="473" y="-217" font-family="Helvetica,sans-Serif" font-size="10.00"># getTemplateFile()</text>
<text text-anchor="start" x="473" y="-206" font-family="Helvetica,sans-Serif" font-size="10.00"># getValueDefFromInputControlName()</text>
</a>
</g>
</g>
<!-- Node2&#45;&gt;Node8 -->
<g id="edge7" class="edge">
<title>Node2&#45;&gt;Node8</title>
<path fill="none" stroke="midnightblue" d="M458.71,-370.81C475.11,-354.64 492.21,-337.77 507.93,-322.25"/>
<polygon fill="none" stroke="midnightblue" points="455.9,-368.68 451.24,-378.19 460.81,-373.66 455.9,-368.68"/>
</g>
<!-- Node9 -->
<g id="node9" class="node">
<title>Node9</title>
<g id="a_node9"><a xlink:href="classwcmf_1_1lib_1_1presentation_1_1format_1_1impl_1_1_null_format.html" target="_top" xlink:title="NullFormat transfers the original request and response objects without modifying or transforming them...">
<polygon fill="white" stroke="black" points="692,-210 692,-311 813,-311 813,-210 692,-210"/>
<text text-anchor="middle" x="752.5" y="-299" font-family="Helvetica,sans-Serif" font-size="10.00">NullFormat</text>
<polyline fill="none" stroke="black" points="692,-292 813,-292 "/>
<text text-anchor="middle" x="752.5" y="-280" font-family="Helvetica,sans-Serif" font-size="10.00"> </text>
<polyline fill="none" stroke="black" points="692,-273 813,-273 "/>
<text text-anchor="start" x="700" y="-261" font-family="Helvetica,sans-Serif" font-size="10.00">+ getMimeType()</text>
<text text-anchor="start" x="700" y="-250" font-family="Helvetica,sans-Serif" font-size="10.00">+ isCached()</text>
<text text-anchor="start" x="700" y="-239" font-family="Helvetica,sans-Serif" font-size="10.00">+ getCacheDate()</text>
<text text-anchor="start" x="700" y="-228" font-family="Helvetica,sans-Serif" font-size="10.00"># deserializeValues()</text>
<text text-anchor="start" x="700" y="-217" font-family="Helvetica,sans-Serif" font-size="10.00"># serializeValues()</text>
</a>
</g>
</g>
<!-- Node2&#45;&gt;Node9 -->
<g id="edge8" class="edge">
<title>Node2&#45;&gt;Node9</title>
<path fill="none" stroke="midnightblue" d="M461.06,-425.06C524.42,-405.43 613.75,-372.82 683.5,-328 691.06,-323.14 698.5,-317.38 705.53,-311.3"/>
<polygon fill="none" stroke="midnightblue" points="459.66,-421.83 451.12,-428.1 461.7,-428.52 459.66,-421.83"/>
</g>
<!-- Node6 -->
<g id="node6" class="node">
<title>Node6</title>
<g id="a_node6"><a xlink:href="classwcmf_1_1lib_1_1presentation_1_1format_1_1impl_1_1_json_format.html" target="_top" xlink:title="JsonFormat implements the JSON request/response format.">
<polygon fill="white" stroke="black" points="237,-0.5 237,-156.5 378,-156.5 378,-0.5 237,-0.5"/>
<text text-anchor="middle" x="307.5" y="-144.5" font-family="Helvetica,sans-Serif" font-size="10.00">JsonFormat</text>
<polyline fill="none" stroke="black" points="237,-137.5 378,-137.5 "/>
<text text-anchor="start" x="245" y="-125.5" font-family="Helvetica,sans-Serif" font-size="10.00">+ CACHE_SECTION</text>
<text text-anchor="start" x="245" y="-114.5" font-family="Helvetica,sans-Serif" font-size="10.00"># $cache</text>
<text text-anchor="start" x="245" y="-103.5" font-family="Helvetica,sans-Serif" font-size="10.00"># $serializer</text>
<polyline fill="none" stroke="black" points="237,-96.5 378,-96.5 "/>
<text text-anchor="start" x="245" y="-84.5" font-family="Helvetica,sans-Serif" font-size="10.00">+ __construct()</text>
<text text-anchor="start" x="245" y="-73.5" font-family="Helvetica,sans-Serif" font-size="10.00">+ getMimeType()</text>
<text text-anchor="start" x="245" y="-62.5" font-family="Helvetica,sans-Serif" font-size="10.00"># getCache()</text>
<text text-anchor="start" x="245" y="-51.5" font-family="Helvetica,sans-Serif" font-size="10.00"># getBaseCacheSection()</text>
<text text-anchor="start" x="245" y="-40.5" font-family="Helvetica,sans-Serif" font-size="10.00"># afterSerialize()</text>
<text text-anchor="start" x="245" y="-29.5" font-family="Helvetica,sans-Serif" font-size="10.00"># isSerializedNode()</text>
<text text-anchor="start" x="245" y="-18.5" font-family="Helvetica,sans-Serif" font-size="10.00"># serializeNode()</text>
<text text-anchor="start" x="245" y="-7.5" font-family="Helvetica,sans-Serif" font-size="10.00"># deserializeNode()</text>
</a>
</g>
</g>
<!-- Node5&#45;&gt;Node6 -->
<g id="edge5" class="edge">
<title>Node5&#45;&gt;Node6</title>
<path fill="none" stroke="midnightblue" d="M354.87,-194.73C349.79,-182.37 344.43,-169.33 339.21,-156.63"/>
<polygon fill="none" stroke="midnightblue" points="351.65,-196.11 358.69,-204.03 358.13,-193.45 351.65,-196.11"/>
</g>
<!-- Node7 -->
<g id="node7" class="node">
<title>Node7</title>
<g id="a_node7"><a xlink:href="classwcmf_1_1lib_1_1presentation_1_1format_1_1impl_1_1_soap_format.html" target="_top" xlink:title="SoapFormat implements the SOAP request/response format.">
<polygon fill="white" stroke="black" points="396,-11.5 396,-145.5 513,-145.5 513,-11.5 396,-11.5"/>
<text text-anchor="middle" x="454.5" y="-133.5" font-family="Helvetica,sans-Serif" font-size="10.00">SoapFormat</text>
<polyline fill="none" stroke="black" points="396,-126.5 513,-126.5 "/>
<text text-anchor="start" x="404" y="-114.5" font-family="Helvetica,sans-Serif" font-size="10.00"># $serializer</text>
<polyline fill="none" stroke="black" points="396,-107.5 513,-107.5 "/>
<text text-anchor="start" x="404" y="-95.5" font-family="Helvetica,sans-Serif" font-size="10.00">+ __construct()</text>
<text text-anchor="start" x="404" y="-84.5" font-family="Helvetica,sans-Serif" font-size="10.00">+ getMimeType()</text>
<text text-anchor="start" x="404" y="-73.5" font-family="Helvetica,sans-Serif" font-size="10.00">+ isCached()</text>
<text text-anchor="start" x="404" y="-62.5" font-family="Helvetica,sans-Serif" font-size="10.00">+ getCacheDate()</text>
<text text-anchor="start" x="404" y="-51.5" font-family="Helvetica,sans-Serif" font-size="10.00">+ setSerializer()</text>
<text text-anchor="start" x="404" y="-40.5" font-family="Helvetica,sans-Serif" font-size="10.00"># isSerializedNode()</text>
<text text-anchor="start" x="404" y="-29.5" font-family="Helvetica,sans-Serif" font-size="10.00"># serializeNode()</text>
<text text-anchor="start" x="404" y="-18.5" font-family="Helvetica,sans-Serif" font-size="10.00"># deserializeNode()</text>
</a>
</g>
</g>
<!-- Node5&#45;&gt;Node7 -->
<g id="edge6" class="edge">
<title>Node5&#45;&gt;Node7</title>
<path fill="none" stroke="midnightblue" d="M407.76,-194.76C414.25,-178.76 421.2,-161.6 427.72,-145.54"/>
<polygon fill="none" stroke="midnightblue" points="404.51,-193.44 404,-204.03 411,-196.07 404.51,-193.44"/>
</g>
</g>
</svg>
