<?xml version="1.0" encoding="UTF-8" standalone="no"?>
<!DOCTYPE svg PUBLIC "-//W3C//DTD SVG 1.1//EN"
 "http://www.w3.org/Graphics/SVG/1.1/DTD/svg11.dtd">
<!-- Generated by graphviz version 2.43.0 (0)
 -->
<!-- Title: IndexStrategy Pages: 1 -->
<svg width="135pt" height="204pt"
 viewBox="0.00 0.00 135.00 204.00" xmlns="http://www.w3.org/2000/svg" xmlns:xlink="http://www.w3.org/1999/xlink">
<g id="graph0" class="graph" transform="scale(1 1) rotate(0) translate(4 200)">
<title>IndexStrategy</title>
<polygon fill="white" stroke="transparent" points="-4,4 -4,-200 131,-200 131,4 -4,4"/>
<!-- Node1 -->
<g id="node1" class="node">
<title>Node1</title>
<g id="a_node1"><a xlink:title="IndexStrategy defines the interface for indexing implementations.">
<polygon fill="#bfbfbf" stroke="black" points="13,-127.5 13,-195.5 114,-195.5 114,-127.5 13,-127.5"/>
<text text-anchor="middle" x="63.5" y="-183.5" font-family="Helvetica,sans-Serif" font-size="10.00">IndexStrategy</text>
<polyline fill="none" stroke="black" points="13,-176.5 114,-176.5 "/>
<text text-anchor="middle" x="63.5" y="-164.5" font-family="Helvetica,sans-Serif" font-size="10.00"> </text>
<polyline fill="none" stroke="black" points="13,-157.5 114,-157.5 "/>
<text text-anchor="start" x="21" y="-145.5" font-family="Helvetica,sans-Serif" font-size="10.00">+ getDocument()</text>
<text text-anchor="start" x="21" y="-134.5" font-family="Helvetica,sans-Serif" font-size="10.00">+ encodeValue()</text>
</a>
</g>
</g>
<!-- Node2 -->
<g id="node2" class="node">
<title>Node2</title>
<g id="a_node2"><a xlink:href="classwcmf_1_1lib_1_1search_1_1impl_1_1_default_index_strategy.html" target="_top" xlink:title="DefaultIndexStrategy implements indexing of PersistentObject values and might be customized by overri...">
<polygon fill="white" stroke="black" points="0,-0.5 0,-90.5 127,-90.5 127,-0.5 0,-0.5"/>
<text text-anchor="middle" x="63.5" y="-78.5" font-family="Helvetica,sans-Serif" font-size="10.00">DefaultIndexStrategy</text>
<polyline fill="none" stroke="black" points="0,-71.5 127,-71.5 "/>
<text text-anchor="middle" x="63.5" y="-59.5" font-family="Helvetica,sans-Serif" font-size="10.00"> </text>
<polyline fill="none" stroke="black" points="0,-52.5 127,-52.5 "/>
<text text-anchor="start" x="8" y="-40.5" font-family="Helvetica,sans-Serif" font-size="10.00">+ getDocument()</text>
<text text-anchor="start" x="8" y="-29.5" font-family="Helvetica,sans-Serif" font-size="10.00">+ encodeValue()</text>
<text text-anchor="start" x="8" y="-18.5" font-family="Helvetica,sans-Serif" font-size="10.00"># isIncluded()</text>
<text text-anchor="start" x="8" y="-7.5" font-family="Helvetica,sans-Serif" font-size="10.00"># enhanceDocument()</text>
</a>
</g>
</g>
<!-- Node1&#45;&gt;Node2 -->
<g id="edge1" class="edge">
<title>Node1&#45;&gt;Node2</title>
<path fill="none" stroke="midnightblue" d="M63.5,-116.97C63.5,-108.35 63.5,-99.28 63.5,-90.64"/>
<polygon fill="none" stroke="midnightblue" points="60,-117.22 63.5,-127.22 67,-117.22 60,-117.22"/>
</g>
</g>
</svg>
