<?xml version="1.0" encoding="UTF-8" standalone="no"?>
<!DOCTYPE svg PUBLIC "-//W3C//DTD SVG 1.1//EN"
 "http://www.w3.org/Graphics/SVG/1.1/DTD/svg11.dtd">
<!-- Generated by graphviz version 2.43.0 (0)
 -->
<!-- Title: NodeSerializer Pages: 1 -->
<svg width="411pt" height="331pt"
 viewBox="0.00 0.00 411.00 331.00" xmlns="http://www.w3.org/2000/svg" xmlns:xlink="http://www.w3.org/1999/xlink">
<g id="graph0" class="graph" transform="scale(1 1) rotate(0) translate(4 327)">
<title>NodeSerializer</title>
<polygon fill="white" stroke="transparent" points="-4,4 -4,-327 407,-327 407,4 -4,4"/>
<!-- Node1 -->
<g id="node1" class="node">
<title>Node1</title>
<g id="a_node1"><a xlink:title="NodeSerializer implementations are used to serialize Nodes into an array representation or deserializ...">
<polygon fill="#bfbfbf" stroke="black" points="151,-243.5 151,-322.5 268,-322.5 268,-243.5 151,-243.5"/>
<text text-anchor="middle" x="209.5" y="-310.5" font-family="Helvetica,sans-Serif" font-size="10.00">NodeSerializer</text>
<polyline fill="none" stroke="black" points="151,-303.5 268,-303.5 "/>
<text text-anchor="middle" x="209.5" y="-291.5" font-family="Helvetica,sans-Serif" font-size="10.00"> </text>
<polyline fill="none" stroke="black" points="151,-284.5 268,-284.5 "/>
<text text-anchor="start" x="159" y="-272.5" font-family="Helvetica,sans-Serif" font-size="10.00">+ isSerializedNode()</text>
<text text-anchor="start" x="159" y="-261.5" font-family="Helvetica,sans-Serif" font-size="10.00">+ deserializeNode()</text>
<text text-anchor="start" x="159" y="-250.5" font-family="Helvetica,sans-Serif" font-size="10.00">+ serializeNode()</text>
</a>
</g>
</g>
<!-- Node2 -->
<g id="node2" class="node">
<title>Node2</title>
<g id="a_node2"><a xlink:href="classwcmf_1_1lib_1_1model_1_1impl_1_1_abstract_node_serializer.html" target="_top" xlink:title="NodeSerializerBase is a base class for NodeSerialize implementations.">
<polygon fill="white" stroke="black" points="145.5,-116.5 145.5,-206.5 273.5,-206.5 273.5,-116.5 145.5,-116.5"/>
<text text-anchor="middle" x="209.5" y="-194.5" font-family="Helvetica,sans-Serif" font-size="10.00">AbstractNodeSerializer</text>
<polyline fill="none" stroke="black" points="145.5,-187.5 273.5,-187.5 "/>
<text text-anchor="middle" x="209.5" y="-175.5" font-family="Helvetica,sans-Serif" font-size="10.00"> </text>
<polyline fill="none" stroke="black" points="145.5,-168.5 273.5,-168.5 "/>
<text text-anchor="start" x="153.5" y="-156.5" font-family="Helvetica,sans-Serif" font-size="10.00">+ __construct()</text>
<text text-anchor="start" x="153.5" y="-145.5" font-family="Helvetica,sans-Serif" font-size="10.00"># getNodeTemplate()</text>
<text text-anchor="start" x="153.5" y="-134.5" font-family="Helvetica,sans-Serif" font-size="10.00"># deserializeValue()</text>
<text text-anchor="start" x="153.5" y="-123.5" font-family="Helvetica,sans-Serif" font-size="10.00"># isMultiValued()</text>
</a>
</g>
</g>
<!-- Node1&#45;&gt;Node2 -->
<g id="edge1" class="edge">
<title>Node1&#45;&gt;Node2</title>
<path fill="none" stroke="midnightblue" d="M209.5,-233.19C209.5,-224.49 209.5,-215.48 209.5,-206.91"/>
<polygon fill="none" stroke="midnightblue" points="206,-233.2 209.5,-243.2 213,-233.2 206,-233.2"/>
</g>
<!-- Node3 -->
<g id="node3" class="node">
<title>Node3</title>
<g id="a_node3"><a xlink:href="classwcmf_1_1lib_1_1model_1_1impl_1_1_dionysos_node_serializer.html" target="_top" xlink:title="DionysosNodeSerializer is used to serialize Nodes into the Dionysos format and vice versa.">
<polygon fill="white" stroke="black" points="0,-0.5 0,-79.5 133,-79.5 133,-0.5 0,-0.5"/>
<text text-anchor="middle" x="66.5" y="-67.5" font-family="Helvetica,sans-Serif" font-size="10.00">DionysosNodeSerializer</text>
<polyline fill="none" stroke="black" points="0,-60.5 133,-60.5 "/>
<text text-anchor="start" x="8" y="-48.5" font-family="Helvetica,sans-Serif" font-size="10.00">+ NODE_KEYS</text>
<polyline fill="none" stroke="black" points="0,-41.5 133,-41.5 "/>
<text text-anchor="start" x="8" y="-29.5" font-family="Helvetica,sans-Serif" font-size="10.00">+ isSerializedNode()</text>
<text text-anchor="start" x="8" y="-18.5" font-family="Helvetica,sans-Serif" font-size="10.00">+ deserializeNode()</text>
<text text-anchor="start" x="8" y="-7.5" font-family="Helvetica,sans-Serif" font-size="10.00">+ serializeNode()</text>
</a>
</g>
</g>
<!-- Node2&#45;&gt;Node3 -->
<g id="edge2" class="edge">
<title>Node2&#45;&gt;Node3</title>
<path fill="none" stroke="midnightblue" d="M148.85,-109.82C136.85,-99.79 124.44,-89.42 113,-79.86"/>
<polygon fill="none" stroke="midnightblue" points="146.74,-112.62 156.66,-116.34 151.23,-107.24 146.74,-112.62"/>
</g>
<!-- Node4 -->
<g id="node4" class="node">
<title>Node4</title>
<g id="a_node4"><a xlink:href="classwcmf_1_1lib_1_1model_1_1impl_1_1_dojo_node_serializer.html" target="_top" xlink:title="DojoNodeSerializer is used to serialize Nodes into the Dojo rest format and vice versa.">
<polygon fill="white" stroke="black" points="151,-0.5 151,-79.5 268,-79.5 268,-0.5 151,-0.5"/>
<text text-anchor="middle" x="209.5" y="-67.5" font-family="Helvetica,sans-Serif" font-size="10.00">DojoNodeSerializer</text>
<polyline fill="none" stroke="black" points="151,-60.5 268,-60.5 "/>
<text text-anchor="middle" x="209.5" y="-48.5" font-family="Helvetica,sans-Serif" font-size="10.00"> </text>
<polyline fill="none" stroke="black" points="151,-41.5 268,-41.5 "/>
<text text-anchor="start" x="159" y="-29.5" font-family="Helvetica,sans-Serif" font-size="10.00">+ isSerializedNode()</text>
<text text-anchor="start" x="159" y="-18.5" font-family="Helvetica,sans-Serif" font-size="10.00">+ deserializeNode()</text>
<text text-anchor="start" x="159" y="-7.5" font-family="Helvetica,sans-Serif" font-size="10.00">+ serializeNode()</text>
</a>
</g>
</g>
<!-- Node2&#45;&gt;Node4 -->
<g id="edge3" class="edge">
<title>Node2&#45;&gt;Node4</title>
<path fill="none" stroke="midnightblue" d="M209.5,-106.08C209.5,-97.23 209.5,-88.23 209.5,-79.86"/>
<polygon fill="none" stroke="midnightblue" points="206,-106.34 209.5,-116.34 213,-106.34 206,-106.34"/>
</g>
<!-- Node5 -->
<g id="node5" class="node">
<title>Node5</title>
<g id="a_node5"><a xlink:href="classwcmf_1_1lib_1_1model_1_1impl_1_1_soap_node_serializer.html" target="_top" xlink:title="SoapNodeSerializer is used to serialize Nodes into the soap format and vice versa.">
<polygon fill="white" stroke="black" points="286,-0.5 286,-79.5 403,-79.5 403,-0.5 286,-0.5"/>
<text text-anchor="middle" x="344.5" y="-67.5" font-family="Helvetica,sans-Serif" font-size="10.00">SoapNodeSerializer</text>
<polyline fill="none" stroke="black" points="286,-60.5 403,-60.5 "/>
<text text-anchor="middle" x="344.5" y="-48.5" font-family="Helvetica,sans-Serif" font-size="10.00"> </text>
<polyline fill="none" stroke="black" points="286,-41.5 403,-41.5 "/>
<text text-anchor="start" x="294" y="-29.5" font-family="Helvetica,sans-Serif" font-size="10.00">+ isSerializedNode()</text>
<text text-anchor="start" x="294" y="-18.5" font-family="Helvetica,sans-Serif" font-size="10.00">+ deserializeNode()</text>
<text text-anchor="start" x="294" y="-7.5" font-family="Helvetica,sans-Serif" font-size="10.00">+ serializeNode()</text>
</a>
</g>
</g>
<!-- Node2&#45;&gt;Node5 -->
<g id="edge4" class="edge">
<title>Node2&#45;&gt;Node5</title>
<path fill="none" stroke="midnightblue" d="M267.08,-109.53C278.31,-99.59 289.91,-89.32 300.6,-79.86"/>
<polygon fill="none" stroke="midnightblue" points="264.55,-107.09 259.39,-116.34 269.19,-112.33 264.55,-107.09"/>
</g>
</g>
</svg>
