<?xml version="1.0" encoding="UTF-8" standalone="no"?>
<!DOCTYPE svg PUBLIC "-//W3C//DTD SVG 1.1//EN"
 "http://www.w3.org/Graphics/SVG/1.1/DTD/svg11.dtd">
<!-- Generated by graphviz version 2.38.0 (20140413.2041)
 -->
<!-- Title: ImageOutputStrategy Pages: 1 -->
<svg width="153pt" height="540pt"
 viewBox="0.00 0.00 153.00 540.00" xmlns="http://www.w3.org/2000/svg" xmlns:xlink="http://www.w3.org/1999/xlink">
<g id="graph0" class="graph" transform="scale(1 1) rotate(0) translate(4 536)">
<title>ImageOutputStrategy</title>
<polygon fill="white" stroke="none" points="-4,4 -4,-536 149,-536 149,4 -4,4"/>
<!-- Node1 -->
<g id="node1" class="node"><title>Node1</title>
<polygon fill="#bfbfbf" stroke="black" points="13.5,-116.5 13.5,-415.5 131.5,-415.5 131.5,-116.5 13.5,-116.5"/>
<text text-anchor="middle" x="72.5" y="-403.5" font-family="Helvetica,sans-Serif" font-size="10.00">ImageOutputStrategy</text>
<polyline fill="none" stroke="black" points="13.5,-396.5 131.5,-396.5 "/>
<text text-anchor="start" x="21.5" y="-384.5" font-family="Helvetica,sans-Serif" font-size="10.00">+ LINETYPE_DIRECT</text>
<text text-anchor="start" x="21.5" y="-373.5" font-family="Helvetica,sans-Serif" font-size="10.00">+ LINETYPE_ROUTED</text>
<text text-anchor="start" x="21.5" y="-362.5" font-family="Helvetica,sans-Serif" font-size="10.00"># $_format</text>
<text text-anchor="start" x="21.5" y="-351.5" font-family="Helvetica,sans-Serif" font-size="10.00"># $_file</text>
<text text-anchor="start" x="21.5" y="-340.5" font-family="Helvetica,sans-Serif" font-size="10.00"># $_map</text>
<text text-anchor="start" x="21.5" y="-329.5" font-family="Helvetica,sans-Serif" font-size="10.00"># $_img</text>
<text text-anchor="start" x="21.5" y="-318.5" font-family="Helvetica,sans-Serif" font-size="10.00"># $_width</text>
<text text-anchor="start" x="21.5" y="-307.5" font-family="Helvetica,sans-Serif" font-size="10.00"># $_height</text>
<text text-anchor="start" x="21.5" y="-296.5" font-family="Helvetica,sans-Serif" font-size="10.00"># $_xscale</text>
<text text-anchor="start" x="21.5" y="-285.5" font-family="Helvetica,sans-Serif" font-size="10.00"># $_yscale</text>
<text text-anchor="start" x="21.5" y="-274.5" font-family="Helvetica,sans-Serif" font-size="10.00"># $_border</text>
<text text-anchor="start" x="21.5" y="-263.5" font-family="Helvetica,sans-Serif" font-size="10.00"># $_bgColor</text>
<text text-anchor="start" x="21.5" y="-252.5" font-family="Helvetica,sans-Serif" font-size="10.00"># $_txtColor</text>
<text text-anchor="start" x="21.5" y="-241.5" font-family="Helvetica,sans-Serif" font-size="10.00"># $_lineColor</text>
<text text-anchor="start" x="21.5" y="-230.5" font-family="Helvetica,sans-Serif" font-size="10.00"># $_labelDim</text>
<text text-anchor="start" x="21.5" y="-219.5" font-family="Helvetica,sans-Serif" font-size="10.00"># $_textPos</text>
<text text-anchor="start" x="21.5" y="-208.5" font-family="Helvetica,sans-Serif" font-size="10.00"># $_usemap</text>
<polyline fill="none" stroke="black" points="13.5,-201.5 131.5,-201.5 "/>
<text text-anchor="start" x="21.5" y="-189.5" font-family="Helvetica,sans-Serif" font-size="10.00">+ __construct()</text>
<text text-anchor="start" x="21.5" y="-178.5" font-family="Helvetica,sans-Serif" font-size="10.00">+ writeHeader()</text>
<text text-anchor="start" x="21.5" y="-167.5" font-family="Helvetica,sans-Serif" font-size="10.00">+ writeFooter()</text>
<text text-anchor="start" x="21.5" y="-156.5" font-family="Helvetica,sans-Serif" font-size="10.00">+ writeObject()</text>
<text text-anchor="start" x="21.5" y="-145.5" font-family="Helvetica,sans-Serif" font-size="10.00"># drawConnectionLine()</text>
<text text-anchor="start" x="21.5" y="-134.5" font-family="Helvetica,sans-Serif" font-size="10.00"># drawDirectLine()</text>
<text text-anchor="start" x="21.5" y="-123.5" font-family="Helvetica,sans-Serif" font-size="10.00"># drawRoutedLine()</text>
</g>
<!-- Node3 -->
<g id="node3" class="node"><title>Node3</title>
<g id="a_node3"><a xlink:href="classwcmf_1_1lib_1_1model_1_1output_1_1_element_image_output_strategy.html" target="_top" xlink:title="ElementImageOutputStrategy outputs a tree of objects into an image file. ">
<polygon fill="white" stroke="black" points="0,-0.5 0,-79.5 145,-79.5 145,-0.5 0,-0.5"/>
<text text-anchor="middle" x="72.5" y="-67.5" font-family="Helvetica,sans-Serif" font-size="10.00">ElementImageOutputStrategy</text>
<polyline fill="none" stroke="black" points="0,-60.5 145,-60.5 "/>
<text text-anchor="middle" x="72.5" y="-48.5" font-family="Helvetica,sans-Serif" font-size="10.00"> </text>
<polyline fill="none" stroke="black" points="0,-41.5 145,-41.5 "/>
<text text-anchor="start" x="8" y="-29.5" font-family="Helvetica,sans-Serif" font-size="10.00">+ __construct()</text>
<text text-anchor="start" x="8" y="-18.5" font-family="Helvetica,sans-Serif" font-size="10.00">+ writeHeader()</text>
<text text-anchor="start" x="8" y="-7.5" font-family="Helvetica,sans-Serif" font-size="10.00">+ writeObject()</text>
</a>
</g>
</g>
<!-- Node1&#45;&gt;Node3 -->
<g id="edge2" class="edge"><title>Node1&#45;&gt;Node3</title>
<path fill="none" stroke="midnightblue" d="M72.5,-106.131C72.5,-96.6338 72.5,-87.6851 72.5,-79.6384"/>
<polygon fill="none" stroke="midnightblue" points="69.0001,-106.212 72.5,-116.212 76.0001,-106.212 69.0001,-106.212"/>
</g>
<!-- Node2 -->
<g id="node2" class="node"><title>Node2</title>
<g id="a_node2"><a xlink:href="interfacewcmf_1_1lib_1_1persistence_1_1output_1_1_output_strategy.html" target="_top" xlink:title="OutputStrategy defines the interface for classes that write an object&#39;s content to a destination (cal...">
<polygon fill="white" stroke="black" points="31,-452.5 31,-531.5 114,-531.5 114,-452.5 31,-452.5"/>
<text text-anchor="middle" x="72.5" y="-519.5" font-family="Helvetica,sans-Serif" font-size="10.00">OutputStrategy</text>
<polyline fill="none" stroke="black" points="31,-512.5 114,-512.5 "/>
<text text-anchor="middle" x="72.5" y="-500.5" font-family="Helvetica,sans-Serif" font-size="10.00"> </text>
<polyline fill="none" stroke="black" points="31,-493.5 114,-493.5 "/>
<text text-anchor="start" x="39" y="-481.5" font-family="Helvetica,sans-Serif" font-size="10.00">+ writeHeader()</text>
<text text-anchor="start" x="39" y="-470.5" font-family="Helvetica,sans-Serif" font-size="10.00">+ writeFooter()</text>
<text text-anchor="start" x="39" y="-459.5" font-family="Helvetica,sans-Serif" font-size="10.00">+ writeObject()</text>
</a>
</g>
</g>
<!-- Node2&#45;&gt;Node1 -->
<g id="edge1" class="edge"><title>Node2&#45;&gt;Node1</title>
<path fill="none" stroke="midnightblue" d="M72.5,-442.385C72.5,-434.096 72.5,-425.116 72.5,-415.75"/>
<polygon fill="none" stroke="midnightblue" points="69.0001,-442.493 72.5,-452.493 76.0001,-442.493 69.0001,-442.493"/>
</g>
</g>
</svg>
