<?xml version="1.0" encoding="UTF-8" standalone="no"?>
<!DOCTYPE svg PUBLIC "-//W3C//DTD SVG 1.1//EN"
 "http://www.w3.org/Graphics/SVG/1.1/DTD/svg11.dtd">
<!-- Generated by graphviz version 2.38.0 (20140413.2041)
 -->
<!-- Title: PersistenceOperation Pages: 1 -->
<svg width="303pt" height="226pt"
 viewBox="0.00 0.00 302.50 226.00" xmlns="http://www.w3.org/2000/svg" xmlns:xlink="http://www.w3.org/1999/xlink">
<g id="graph0" class="graph" transform="scale(1 1) rotate(0) translate(4 222)">
<title>PersistenceOperation</title>
<polygon fill="white" stroke="none" points="-4,4 -4,-222 298.5,-222 298.5,4 -4,4"/>
<!-- Node1 -->
<g id="node1" class="node"><title>Node1</title>
<polygon fill="#bfbfbf" stroke="black" points="91,-94.5 91,-217.5 201,-217.5 201,-94.5 91,-94.5"/>
<text text-anchor="middle" x="146" y="-205.5" font-family="Helvetica,sans-Serif" font-size="10.00">PersistenceOperation</text>
<polyline fill="none" stroke="black" points="91,-198.5 201,-198.5 "/>
<text text-anchor="start" x="99" y="-186.5" font-family="Helvetica,sans-Serif" font-size="10.00"># $type</text>
<text text-anchor="start" x="99" y="-175.5" font-family="Helvetica,sans-Serif" font-size="10.00"># $values</text>
<text text-anchor="start" x="99" y="-164.5" font-family="Helvetica,sans-Serif" font-size="10.00"># $criteria</text>
<polyline fill="none" stroke="black" points="91,-157.5 201,-157.5 "/>
<text text-anchor="start" x="99" y="-145.5" font-family="Helvetica,sans-Serif" font-size="10.00">+ __construct()</text>
<text text-anchor="start" x="99" y="-134.5" font-family="Helvetica,sans-Serif" font-size="10.00">+ getType()</text>
<text text-anchor="start" x="99" y="-123.5" font-family="Helvetica,sans-Serif" font-size="10.00">+ getValues()</text>
<text text-anchor="start" x="99" y="-112.5" font-family="Helvetica,sans-Serif" font-size="10.00">+ getCriteria()</text>
<text text-anchor="start" x="99" y="-101.5" font-family="Helvetica,sans-Serif" font-size="10.00">+ __toString()</text>
</g>
<!-- Node2 -->
<g id="node2" class="node"><title>Node2</title>
<g id="a_node2"><a xlink:href="classwcmf_1_1lib_1_1persistence_1_1_delete_operation.html" target="_top" xlink:title="DeleteOperation holds data necessary to accomplish an delete operation on the persistent store...">
<polygon fill="white" stroke="black" points="0,-0.5 0,-57.5 86,-57.5 86,-0.5 0,-0.5"/>
<text text-anchor="middle" x="43" y="-45.5" font-family="Helvetica,sans-Serif" font-size="10.00">DeleteOperation</text>
<polyline fill="none" stroke="black" points="0,-38.5 86,-38.5 "/>
<text text-anchor="middle" x="43" y="-26.5" font-family="Helvetica,sans-Serif" font-size="10.00"> </text>
<polyline fill="none" stroke="black" points="0,-19.5 86,-19.5 "/>
<text text-anchor="start" x="8" y="-7.5" font-family="Helvetica,sans-Serif" font-size="10.00">+ __construct()</text>
</a>
</g>
</g>
<!-- Node1&#45;&gt;Node2 -->
<g id="edge1" class="edge"><title>Node1&#45;&gt;Node2</title>
<path fill="none" stroke="midnightblue" d="M89.5788,-86.5277C81.1959,-76.3543 72.9885,-66.3939 65.856,-57.7379"/>
<polygon fill="none" stroke="midnightblue" points="86.9482,-88.839 96.0086,-94.3308 92.3505,-84.3875 86.9482,-88.839"/>
</g>
<!-- Node3 -->
<g id="node3" class="node"><title>Node3</title>
<g id="a_node3"><a xlink:href="classwcmf_1_1lib_1_1persistence_1_1_insert_operation.html" target="_top" xlink:title="InsertOperation holds data necessary to accomplish an insert operation on the persistent store...">
<polygon fill="white" stroke="black" points="104.5,-0.5 104.5,-57.5 187.5,-57.5 187.5,-0.5 104.5,-0.5"/>
<text text-anchor="middle" x="146" y="-45.5" font-family="Helvetica,sans-Serif" font-size="10.00">InsertOperation</text>
<polyline fill="none" stroke="black" points="104.5,-38.5 187.5,-38.5 "/>
<text text-anchor="middle" x="146" y="-26.5" font-family="Helvetica,sans-Serif" font-size="10.00"> </text>
<polyline fill="none" stroke="black" points="104.5,-19.5 187.5,-19.5 "/>
<text text-anchor="start" x="112.5" y="-7.5" font-family="Helvetica,sans-Serif" font-size="10.00">+ __construct()</text>
</a>
</g>
</g>
<!-- Node1&#45;&gt;Node3 -->
<g id="edge2" class="edge"><title>Node1&#45;&gt;Node3</title>
<path fill="none" stroke="midnightblue" d="M146,-84.1384C146,-74.7999 146,-65.715 146,-57.7379"/>
<polygon fill="none" stroke="midnightblue" points="142.5,-84.3308 146,-94.3308 149.5,-84.3309 142.5,-84.3308"/>
</g>
<!-- Node4 -->
<g id="node4" class="node"><title>Node4</title>
<g id="a_node4"><a xlink:href="classwcmf_1_1lib_1_1persistence_1_1_update_operation.html" target="_top" xlink:title="UpdateOperation instances hold data necessary to accomplish an update operation on the persistent sto...">
<polygon fill="white" stroke="black" points="205.5,-0.5 205.5,-57.5 294.5,-57.5 294.5,-0.5 205.5,-0.5"/>
<text text-anchor="middle" x="250" y="-45.5" font-family="Helvetica,sans-Serif" font-size="10.00">UpdateOperation</text>
<polyline fill="none" stroke="black" points="205.5,-38.5 294.5,-38.5 "/>
<text text-anchor="middle" x="250" y="-26.5" font-family="Helvetica,sans-Serif" font-size="10.00"> </text>
<polyline fill="none" stroke="black" points="205.5,-19.5 294.5,-19.5 "/>
<text text-anchor="middle" x="250" y="-7.5" font-family="Helvetica,sans-Serif" font-size="10.00"> </text>
</a>
</g>
</g>
<!-- Node1&#45;&gt;Node4 -->
<g id="edge3" class="edge"><title>Node1&#45;&gt;Node4</title>
<path fill="none" stroke="midnightblue" d="M202.969,-86.5277C211.433,-76.3543 219.72,-66.3939 226.922,-57.7379"/>
<polygon fill="none" stroke="midnightblue" points="200.182,-84.405 196.477,-94.3308 205.563,-88.8821 200.182,-84.405"/>
</g>
</g>
</svg>
