<?xml version="1.0" encoding="UTF-8" standalone="no"?>
<!DOCTYPE svg PUBLIC "-//W3C//DTD SVG 1.1//EN"
 "http://www.w3.org/Graphics/SVG/1.1/DTD/svg11.dtd">
<!-- Generated by graphviz version 2.38.0 (20140413.2041)
 -->
<!-- Title: DionysosNodeSerializer Pages: 1 -->
<svg width="128pt" height="320pt"
 viewBox="0.00 0.00 128.00 320.00" xmlns="http://www.w3.org/2000/svg" xmlns:xlink="http://www.w3.org/1999/xlink">
<g id="graph0" class="graph" transform="scale(1 1) rotate(0) translate(4 316)">
<title>DionysosNodeSerializer</title>
<polygon fill="white" stroke="none" points="-4,4 -4,-316 124,-316 124,4 -4,4"/>
<!-- Node1 -->
<g id="node1" class="node"><title>Node1</title>
<polygon fill="#bfbfbf" stroke="black" points="0,-0.5 0,-90.5 120,-90.5 120,-0.5 0,-0.5"/>
<text text-anchor="middle" x="60" y="-78.5" font-family="Helvetica,sans-Serif" font-size="10.00">DionysosNodeSerializer</text>
<polyline fill="none" stroke="black" points="0,-71.5 120,-71.5 "/>
<text text-anchor="middle" x="60" y="-59.5" font-family="Helvetica,sans-Serif" font-size="10.00"> </text>
<polyline fill="none" stroke="black" points="0,-52.5 120,-52.5 "/>
<text text-anchor="start" x="8" y="-40.5" font-family="Helvetica,sans-Serif" font-size="10.00">+ __construct()</text>
<text text-anchor="start" x="8" y="-29.5" font-family="Helvetica,sans-Serif" font-size="10.00">+ isSerializedNode()</text>
<text text-anchor="start" x="8" y="-18.5" font-family="Helvetica,sans-Serif" font-size="10.00">+ deserializeNode()</text>
<text text-anchor="start" x="8" y="-7.5" font-family="Helvetica,sans-Serif" font-size="10.00">+ serializeNode()</text>
</g>
<!-- Node2 -->
<g id="node2" class="node"><title>Node2</title>
<g id="a_node2"><a xlink:href="classwcmf_1_1lib_1_1model_1_1impl_1_1_abstract_node_serializer.html" target="_top" xlink:title="NodeSerializerBase is a base class for NodeSerialize implementations. ">
<polygon fill="white" stroke="black" points="2,-127.5 2,-195.5 118,-195.5 118,-127.5 2,-127.5"/>
<text text-anchor="middle" x="60" y="-183.5" font-family="Helvetica,sans-Serif" font-size="10.00">AbstractNodeSerializer</text>
<polyline fill="none" stroke="black" points="2,-176.5 118,-176.5 "/>
<text text-anchor="middle" x="60" y="-164.5" font-family="Helvetica,sans-Serif" font-size="10.00"> </text>
<polyline fill="none" stroke="black" points="2,-157.5 118,-157.5 "/>
<text text-anchor="start" x="10" y="-145.5" font-family="Helvetica,sans-Serif" font-size="10.00"># deserializeValue()</text>
<text text-anchor="start" x="10" y="-134.5" font-family="Helvetica,sans-Serif" font-size="10.00"># isMultiValued()</text>
</a>
</g>
</g>
<!-- Node2&#45;&gt;Node1 -->
<g id="edge1" class="edge"><title>Node2&#45;&gt;Node1</title>
<path fill="none" stroke="midnightblue" d="M60,-116.972C60,-108.346 60,-99.2838 60,-90.6378"/>
<polygon fill="none" stroke="midnightblue" points="56.5001,-117.22 60,-127.22 63.5001,-117.22 56.5001,-117.22"/>
</g>
<!-- Node3 -->
<g id="node3" class="node"><title>Node3</title>
<g id="a_node3"><a xlink:href="interfacewcmf_1_1lib_1_1model_1_1_node_serializer.html" target="_top" xlink:title="NodeSerializer implementations are used to serialize Nodes into an array representation or deserializ...">
<polygon fill="white" stroke="black" points="8,-232.5 8,-311.5 112,-311.5 112,-232.5 8,-232.5"/>
<text text-anchor="middle" x="60" y="-299.5" font-family="Helvetica,sans-Serif" font-size="10.00">NodeSerializer</text>
<polyline fill="none" stroke="black" points="8,-292.5 112,-292.5 "/>
<text text-anchor="middle" x="60" y="-280.5" font-family="Helvetica,sans-Serif" font-size="10.00"> </text>
<polyline fill="none" stroke="black" points="8,-273.5 112,-273.5 "/>
<text text-anchor="start" x="16" y="-261.5" font-family="Helvetica,sans-Serif" font-size="10.00">+ isSerializedNode()</text>
<text text-anchor="start" x="16" y="-250.5" font-family="Helvetica,sans-Serif" font-size="10.00">+ deserializeNode()</text>
<text text-anchor="start" x="16" y="-239.5" font-family="Helvetica,sans-Serif" font-size="10.00">+ serializeNode()</text>
</a>
</g>
</g>
<!-- Node3&#45;&gt;Node2 -->
<g id="edge2" class="edge"><title>Node3&#45;&gt;Node2</title>
<path fill="none" stroke="midnightblue" d="M60,-222.349C60,-213.282 60,-204.005 60,-195.544"/>
<polygon fill="none" stroke="midnightblue" points="56.5001,-222.441 60,-232.441 63.5001,-222.441 56.5001,-222.441"/>
</g>
</g>
</svg>
