<?xml version="1.0" encoding="UTF-8" standalone="no"?>
<!DOCTYPE svg PUBLIC "-//W3C//DTD SVG 1.1//EN"
 "http://www.w3.org/Graphics/SVG/1.1/DTD/svg11.dtd">
<!-- Generated by graphviz version 2.38.0 (20140413.2041)
 -->
<!-- Title: PDF Pages: 1 -->
<svg width="115pt" height="270pt"
 viewBox="0.00 0.00 115.00 270.00" xmlns="http://www.w3.org/2000/svg" xmlns:xlink="http://www.w3.org/1999/xlink">
<g id="graph0" class="graph" transform="scale(1 1) rotate(0) translate(4 266)">
<title>PDF</title>
<polygon fill="white" stroke="none" points="-4,4 -4,-266 111,-266 111,4 -4,4"/>
<!-- Node1 -->
<g id="node1" class="node"><title>Node1</title>
<polygon fill="#bfbfbf" stroke="black" points="0,-0.5 0,-167.5 107,-167.5 107,-0.5 0,-0.5"/>
<text text-anchor="middle" x="53.5" y="-155.5" font-family="Helvetica,sans-Serif" font-size="10.00">PDF</text>
<polyline fill="none" stroke="black" points="0,-148.5 107,-148.5 "/>
<text text-anchor="start" x="8" y="-136.5" font-family="Helvetica,sans-Serif" font-size="10.00">+ $_pageStarted</text>
<text text-anchor="start" x="8" y="-125.5" font-family="Helvetica,sans-Serif" font-size="10.00">+ $_pageEnded</text>
<polyline fill="none" stroke="black" points="0,-118.5 107,-118.5 "/>
<text text-anchor="start" x="8" y="-106.5" font-family="Helvetica,sans-Serif" font-size="10.00">+ Header()</text>
<text text-anchor="start" x="8" y="-95.5" font-family="Helvetica,sans-Serif" font-size="10.00">+ startPage()</text>
<text text-anchor="start" x="8" y="-84.5" font-family="Helvetica,sans-Serif" font-size="10.00">+ endPage()</text>
<text text-anchor="start" x="8" y="-73.5" font-family="Helvetica,sans-Serif" font-size="10.00">+ isPageStarted()</text>
<text text-anchor="start" x="8" y="-62.5" font-family="Helvetica,sans-Serif" font-size="10.00">+ isPageEnded()</text>
<text text-anchor="start" x="8" y="-51.5" font-family="Helvetica,sans-Serif" font-size="10.00">+ moveDown()</text>
<text text-anchor="start" x="8" y="-40.5" font-family="Helvetica,sans-Serif" font-size="10.00">+ moveRight()</text>
<text text-anchor="start" x="8" y="-29.5" font-family="Helvetica,sans-Serif" font-size="10.00">+ numberOfLines()</text>
<text text-anchor="start" x="8" y="-18.5" font-family="Helvetica,sans-Serif" font-size="10.00">+ CheckPageBreak()</text>
<text text-anchor="start" x="8" y="-7.5" font-family="Helvetica,sans-Serif" font-size="10.00">+ NbLines()</text>
</g>
<!-- Node2 -->
<g id="node2" class="node"><title>Node2</title>
<polygon fill="white" stroke="#bfbfbf" points="34.5,-204.5 34.5,-261.5 72.5,-261.5 72.5,-204.5 34.5,-204.5"/>
<text text-anchor="middle" x="53.5" y="-249.5" font-family="Helvetica,sans-Serif" font-size="10.00">FPDI</text>
<polyline fill="none" stroke="#bfbfbf" points="34.5,-242.5 72.5,-242.5 "/>
<text text-anchor="middle" x="53.5" y="-230.5" font-family="Helvetica,sans-Serif" font-size="10.00"> </text>
<polyline fill="none" stroke="#bfbfbf" points="34.5,-223.5 72.5,-223.5 "/>
<text text-anchor="middle" x="53.5" y="-211.5" font-family="Helvetica,sans-Serif" font-size="10.00"> </text>
</g>
<!-- Node2&#45;&gt;Node1 -->
<g id="edge1" class="edge"><title>Node2&#45;&gt;Node1</title>
<path fill="none" stroke="midnightblue" d="M53.5,-194.35C53.5,-186.08 53.5,-177.008 53.5,-167.738"/>
<polygon fill="none" stroke="midnightblue" points="50.0001,-194.35 53.5,-204.35 57.0001,-194.35 50.0001,-194.35"/>
</g>
</g>
</svg>
