<?xml version="1.0" encoding="UTF-8" standalone="no"?>
<!DOCTYPE svg PUBLIC "-//W3C//DTD SVG 1.1//EN"
 "http://www.w3.org/Graphics/SVG/1.1/DTD/svg11.dtd">
<!-- Generated by graphviz version 2.38.0 (20140413.2041)
 -->
<!-- Title: LuceneSearch Pages: 1 -->
<svg width="112pt" height="496pt"
 viewBox="0.00 0.00 112.00 496.00" xmlns="http://www.w3.org/2000/svg" xmlns:xlink="http://www.w3.org/1999/xlink">
<g id="graph0" class="graph" transform="scale(1 1) rotate(0) translate(4 492)">
<title>LuceneSearch</title>
<polygon fill="white" stroke="none" points="-4,4 -4,-492 108,-492 108,4 -4,4"/>
<!-- Node1 -->
<g id="node1" class="node"><title>Node1</title>
<polygon fill="#bfbfbf" stroke="black" points="0,-0.5 0,-233.5 104,-233.5 104,-0.5 0,-0.5"/>
<text text-anchor="middle" x="52" y="-221.5" font-family="Helvetica,sans-Serif" font-size="10.00">LuceneSearch</text>
<polyline fill="none" stroke="black" points="0,-214.5 104,-214.5 "/>
<text text-anchor="middle" x="52" y="-202.5" font-family="Helvetica,sans-Serif" font-size="10.00"> </text>
<polyline fill="none" stroke="black" points="0,-195.5 104,-195.5 "/>
<text text-anchor="start" x="8" y="-183.5" font-family="Helvetica,sans-Serif" font-size="10.00">+ __construct()</text>
<text text-anchor="start" x="8" y="-172.5" font-family="Helvetica,sans-Serif" font-size="10.00">+ __destruct()</text>
<text text-anchor="start" x="8" y="-161.5" font-family="Helvetica,sans-Serif" font-size="10.00">+ setIndexPath()</text>
<text text-anchor="start" x="8" y="-150.5" font-family="Helvetica,sans-Serif" font-size="10.00">+ getIndexPath()</text>
<text text-anchor="start" x="8" y="-139.5" font-family="Helvetica,sans-Serif" font-size="10.00">+ setLiveUpdate()</text>
<text text-anchor="start" x="8" y="-128.5" font-family="Helvetica,sans-Serif" font-size="10.00">+ getLiveUpdate()</text>
<text text-anchor="start" x="8" y="-117.5" font-family="Helvetica,sans-Serif" font-size="10.00">+ check()</text>
<text text-anchor="start" x="8" y="-106.5" font-family="Helvetica,sans-Serif" font-size="10.00">+ find()</text>
<text text-anchor="start" x="8" y="-95.5" font-family="Helvetica,sans-Serif" font-size="10.00">+ isSearchable()</text>
<text text-anchor="start" x="8" y="-84.5" font-family="Helvetica,sans-Serif" font-size="10.00">+ resetIndex()</text>
<text text-anchor="start" x="8" y="-73.5" font-family="Helvetica,sans-Serif" font-size="10.00">+ commitIndex()</text>
<text text-anchor="start" x="8" y="-62.5" font-family="Helvetica,sans-Serif" font-size="10.00">+ optimizeIndex()</text>
<text text-anchor="start" x="8" y="-51.5" font-family="Helvetica,sans-Serif" font-size="10.00">+ addToIndex()</text>
<text text-anchor="start" x="8" y="-40.5" font-family="Helvetica,sans-Serif" font-size="10.00">+ deleteFromIndex()</text>
<text text-anchor="start" x="8" y="-29.5" font-family="Helvetica,sans-Serif" font-size="10.00">+ stateChanged()</text>
<text text-anchor="start" x="8" y="-18.5" font-family="Helvetica,sans-Serif" font-size="10.00"># encodeValue()</text>
<text text-anchor="start" x="8" y="-7.5" font-family="Helvetica,sans-Serif" font-size="10.00"># getStopWords()</text>
</g>
<!-- Node2 -->
<g id="node2" class="node"><title>Node2</title>
<g id="a_node2"><a xlink:href="interfacewcmf_1_1lib_1_1search_1_1_indexed_search.html" target="_top" xlink:title="IndexedSearch implementations are used to search entity objects in a search index. ">
<polygon fill="white" stroke="black" points="0,-270.5 0,-371.5 104,-371.5 104,-270.5 0,-270.5"/>
<text text-anchor="middle" x="52" y="-359.5" font-family="Helvetica,sans-Serif" font-size="10.00">IndexedSearch</text>
<polyline fill="none" stroke="black" points="0,-352.5 104,-352.5 "/>
<text text-anchor="middle" x="52" y="-340.5" font-family="Helvetica,sans-Serif" font-size="10.00"> </text>
<polyline fill="none" stroke="black" points="0,-333.5 104,-333.5 "/>
<text text-anchor="start" x="8" y="-321.5" font-family="Helvetica,sans-Serif" font-size="10.00">+ resetIndex()</text>
<text text-anchor="start" x="8" y="-310.5" font-family="Helvetica,sans-Serif" font-size="10.00">+ addToIndex()</text>
<text text-anchor="start" x="8" y="-299.5" font-family="Helvetica,sans-Serif" font-size="10.00">+ deleteFromIndex()</text>
<text text-anchor="start" x="8" y="-288.5" font-family="Helvetica,sans-Serif" font-size="10.00">+ commitIndex()</text>
<text text-anchor="start" x="8" y="-277.5" font-family="Helvetica,sans-Serif" font-size="10.00">+ optimizeIndex()</text>
</a>
</g>
</g>
<!-- Node2&#45;&gt;Node1 -->
<g id="edge1" class="edge"><title>Node2&#45;&gt;Node1</title>
<path fill="none" stroke="midnightblue" d="M52,-260.227C52,-251.739 52,-242.782 52,-233.663"/>
<polygon fill="none" stroke="midnightblue" points="48.5001,-260.326 52,-270.327 55.5001,-260.327 48.5001,-260.326"/>
</g>
<!-- Node3 -->
<g id="node3" class="node"><title>Node3</title>
<g id="a_node3"><a xlink:href="interfacewcmf_1_1lib_1_1search_1_1_search.html" target="_top" xlink:title="Search implementations are used to search entity objects. ">
<polygon fill="white" stroke="black" points="8,-408.5 8,-487.5 96,-487.5 96,-408.5 8,-408.5"/>
<text text-anchor="middle" x="52" y="-475.5" font-family="Helvetica,sans-Serif" font-size="10.00">Search</text>
<polyline fill="none" stroke="black" points="8,-468.5 96,-468.5 "/>
<text text-anchor="middle" x="52" y="-456.5" font-family="Helvetica,sans-Serif" font-size="10.00"> </text>
<polyline fill="none" stroke="black" points="8,-449.5 96,-449.5 "/>
<text text-anchor="start" x="16" y="-437.5" font-family="Helvetica,sans-Serif" font-size="10.00">+ check()</text>
<text text-anchor="start" x="16" y="-426.5" font-family="Helvetica,sans-Serif" font-size="10.00">+ find()</text>
<text text-anchor="start" x="16" y="-415.5" font-family="Helvetica,sans-Serif" font-size="10.00">+ isSearchable()</text>
</a>
</g>
</g>
<!-- Node3&#45;&gt;Node2 -->
<g id="edge2" class="edge"><title>Node3&#45;&gt;Node2</title>
<path fill="none" stroke="midnightblue" d="M52,-398.406C52,-389.639 52,-380.488 52,-371.691"/>
<polygon fill="none" stroke="midnightblue" points="48.5001,-398.476 52,-408.476 55.5001,-398.476 48.5001,-398.476"/>
</g>
</g>
</svg>
