<?xml version="1.0" encoding="UTF-8" standalone="no"?>
<!DOCTYPE svg PUBLIC "-//W3C//DTD SVG 1.1//EN"
 "http://www.w3.org/Graphics/SVG/1.1/DTD/svg11.dtd">
<!-- Generated by graphviz version 2.38.0 (20140413.2041)
 -->
<!-- Title: DefaultAuthenticationManager Pages: 1 -->
<svg width="154pt" height="171pt"
 viewBox="0.00 0.00 154.00 171.00" xmlns="http://www.w3.org/2000/svg" xmlns:xlink="http://www.w3.org/1999/xlink">
<g id="graph0" class="graph" transform="scale(1 1) rotate(0) translate(4 167)">
<title>DefaultAuthenticationManager</title>
<polygon fill="white" stroke="none" points="-4,4 -4,-167 150,-167 150,4 -4,4"/>
<!-- Node1 -->
<g id="node1" class="node"><title>Node1</title>
<polygon fill="#bfbfbf" stroke="black" points="0,-0.5 0,-68.5 146,-68.5 146,-0.5 0,-0.5"/>
<text text-anchor="middle" x="73" y="-56.5" font-family="Helvetica,sans-Serif" font-size="10.00">DefaultAuthenticationManager</text>
<polyline fill="none" stroke="black" points="0,-49.5 146,-49.5 "/>
<text text-anchor="middle" x="73" y="-37.5" font-family="Helvetica,sans-Serif" font-size="10.00"> </text>
<polyline fill="none" stroke="black" points="0,-30.5 146,-30.5 "/>
<text text-anchor="start" x="8" y="-18.5" font-family="Helvetica,sans-Serif" font-size="10.00">+ __construct()</text>
<text text-anchor="start" x="8" y="-7.5" font-family="Helvetica,sans-Serif" font-size="10.00">+ login()</text>
</g>
<!-- Node2 -->
<g id="node2" class="node"><title>Node2</title>
<g id="a_node2"><a xlink:href="interfacewcmf_1_1lib_1_1security_1_1_authentication_manager.html" target="_top" xlink:title="AuthenticationManager implementations are used to handle all authentication requests. ">
<polygon fill="white" stroke="black" points="15,-105.5 15,-162.5 131,-162.5 131,-105.5 15,-105.5"/>
<text text-anchor="middle" x="73" y="-150.5" font-family="Helvetica,sans-Serif" font-size="10.00">AuthenticationManager</text>
<polyline fill="none" stroke="black" points="15,-143.5 131,-143.5 "/>
<text text-anchor="middle" x="73" y="-131.5" font-family="Helvetica,sans-Serif" font-size="10.00"> </text>
<polyline fill="none" stroke="black" points="15,-124.5 131,-124.5 "/>
<text text-anchor="start" x="23" y="-112.5" font-family="Helvetica,sans-Serif" font-size="10.00">+ login()</text>
</a>
</g>
</g>
<!-- Node2&#45;&gt;Node1 -->
<g id="edge1" class="edge"><title>Node2&#45;&gt;Node1</title>
<path fill="none" stroke="midnightblue" d="M73,-95.0631C73,-86.3933 73,-77.2431 73,-68.7855"/>
<polygon fill="none" stroke="midnightblue" points="69.5001,-95.3212 73,-105.321 76.5001,-95.3212 69.5001,-95.3212"/>
</g>
</g>
</svg>
