<?xml version="1.0" encoding="UTF-8" standalone="no"?>
<!DOCTYPE svg PUBLIC "-//W3C//DTD SVG 1.1//EN"
 "http://www.w3.org/Graphics/SVG/1.1/DTD/svg11.dtd">
<!-- Generated by graphviz version 2.38.0 (20140413.2041)
 -->
<!-- Title: lib/persistence Pages: 1 -->
<svg width="428pt" height="111pt"
 viewBox="0.00 0.00 428.00 111.00" xmlns="http://www.w3.org/2000/svg" xmlns:xlink="http://www.w3.org/1999/xlink">
<g id="graph0" class="graph" transform="scale(1 1) rotate(0) translate(4 107)">
<title>lib/persistence</title>
<polygon fill="white" stroke="none" points="-4,4 -4,-107 424,-107 424,4 -4,4"/>
<g id="clust1" class="cluster"><title>clusterdir_adbc723cc94464b010849d4ce776bdfe</title>
<g id="a_clust1"><a xlink:href="dir_adbc723cc94464b010849d4ce776bdfe.html" target="_top" xlink:title="lib">
<polygon fill="#ddddee" stroke="black" points="8,-8 8,-95 412,-95 412,-8 8,-8"/>
<text text-anchor="middle" x="210" y="-83" font-family="Helvetica,sans-Serif" font-size="10.00">lib</text>
</a>
</g>
</g>
<g id="clust2" class="cluster"><title>clusterdir_b898f28a4f0daa19846b3fa3194bc50a</title>
<g id="a_clust2"><a xlink:href="dir_b898f28a4f0daa19846b3fa3194bc50a.html" target="_top">
<polygon fill="#eeeeff" stroke="black" points="16,-16 16,-68 404,-68 404,-16 16,-16"/>
</a>
</g>
</g>
<!-- dir_b898f28a4f0daa19846b3fa3194bc50a -->
<g id="node1" class="node"><title>dir_b898f28a4f0daa19846b3fa3194bc50a</title>
<text text-anchor="middle" x="362" y="-39.5" font-family="Helvetica,sans-Serif" font-size="10.00">persistence</text>
</g>
<!-- dir_eff3050593238ede4964081d524f65a5 -->
<g id="node2" class="node"><title>dir_eff3050593238ede4964081d524f65a5</title>
<g id="a_node2"><a xlink:href="dir_eff3050593238ede4964081d524f65a5.html" target="_top" xlink:title="concurrency">
<polygon fill="white" stroke="red" points="310,-60 240,-60 240,-24 310,-24 310,-60"/>
<text text-anchor="middle" x="275" y="-39.5" font-family="Helvetica,sans-Serif" font-size="10.00">concurrency</text>
</a>
</g>
</g>
<!-- dir_54d04965f39b64c5c709d99ba7f128a3 -->
<g id="node3" class="node"><title>dir_54d04965f39b64c5c709d99ba7f128a3</title>
<g id="a_node3"><a xlink:href="dir_54d04965f39b64c5c709d99ba7f128a3.html" target="_top" xlink:title="impl">
<polygon fill="white" stroke="black" points="222,-60 168,-60 168,-24 222,-24 222,-60"/>
<text text-anchor="middle" x="195" y="-39.5" font-family="Helvetica,sans-Serif" font-size="10.00">impl</text>
</a>
</g>
</g>
<!-- dir_0681cba35b315aa9d0566c93f539ac31 -->
<g id="node4" class="node"><title>dir_0681cba35b315aa9d0566c93f539ac31</title>
<g id="a_node4"><a xlink:href="dir_0681cba35b315aa9d0566c93f539ac31.html" target="_top" xlink:title="output">
<polygon fill="white" stroke="red" points="150,-60 96,-60 96,-24 150,-24 150,-60"/>
<text text-anchor="middle" x="123" y="-39.5" font-family="Helvetica,sans-Serif" font-size="10.00">output</text>
</a>
</g>
</g>
<!-- dir_f41ff2adac3d15335bba618c579a6fb6 -->
<g id="node5" class="node"><title>dir_f41ff2adac3d15335bba618c579a6fb6</title>
<g id="a_node5"><a xlink:href="dir_f41ff2adac3d15335bba618c579a6fb6.html" target="_top" xlink:title="validator">
<polygon fill="white" stroke="red" points="78,-60 24,-60 24,-24 78,-24 78,-60"/>
<text text-anchor="middle" x="51" y="-39.5" font-family="Helvetica,sans-Serif" font-size="10.00">validator</text>
</a>
</g>
</g>
</g>
</svg>
