<?xml version="1.0" encoding="UTF-8" standalone="no"?>
<!DOCTYPE svg PUBLIC "-//W3C//DTD SVG 1.1//EN"
 "http://www.w3.org/Graphics/SVG/1.1/DTD/svg11.dtd">
<!-- Generated by graphviz version 2.38.0 (20140413.2041)
 -->
<!-- Title: wcmf/wcmf Pages: 1 -->
<svg width="254pt" height="111pt"
 viewBox="0.00 0.00 254.00 111.00" xmlns="http://www.w3.org/2000/svg" xmlns:xlink="http://www.w3.org/1999/xlink">
<g id="graph0" class="graph" transform="scale(1 1) rotate(0) translate(4 107)">
<title>wcmf/wcmf</title>
<polygon fill="white" stroke="none" points="-4,4 -4,-107 250,-107 250,4 -4,4"/>
<g id="clust1" class="cluster"><title>clusterdir_2f37eedf7d35aaf3dbd03bc72596cb1d</title>
<g id="a_clust1"><a xlink:href="dir_2f37eedf7d35aaf3dbd03bc72596cb1d.html" target="_top" xlink:title="wcmf_older">
<polygon fill="#ddddee" stroke="black" points="8,-8 8,-95 238,-95 238,-8 8,-8"/>
<text text-anchor="middle" x="123" y="-83" font-family="Helvetica,sans-Serif" font-size="10.00">wcmf_older</text>
</a>
</g>
</g>
<g id="clust2" class="cluster"><title>clusterdir_f8c980795719a21d127c2aa54d5f48a2</title>
<g id="a_clust2"><a xlink:href="dir_f8c980795719a21d127c2aa54d5f48a2.html" target="_top">
<polygon fill="#eeeeff" stroke="black" points="16,-16 16,-68 230,-68 230,-16 16,-16"/>
</a>
</g>
</g>
<!-- dir_f8c980795719a21d127c2aa54d5f48a2 -->
<g id="node1" class="node"><title>dir_f8c980795719a21d127c2aa54d5f48a2</title>
<text text-anchor="middle" x="195" y="-39.5" font-family="Helvetica,sans-Serif" font-size="10.00">wcmf</text>
</g>
<!-- dir_e553a6d946262193868080cc62adc1b1 -->
<g id="node2" class="node"><title>dir_e553a6d946262193868080cc62adc1b1</title>
<g id="a_node2"><a xlink:href="dir_e553a6d946262193868080cc62adc1b1.html" target="_top" xlink:title="docs">
<polygon fill="white" stroke="red" points="150,-60 96,-60 96,-24 150,-24 150,-60"/>
<text text-anchor="middle" x="123" y="-39.5" font-family="Helvetica,sans-Serif" font-size="10.00">docs</text>
</a>
</g>
</g>
<!-- dir_887d14fad5e0ff768536a703b20a65b6 -->
<g id="node3" class="node"><title>dir_887d14fad5e0ff768536a703b20a65b6</title>
<g id="a_node3"><a xlink:href="dir_887d14fad5e0ff768536a703b20a65b6.html" target="_top" xlink:title="src">
<polygon fill="white" stroke="red" points="78,-60 24,-60 24,-24 78,-24 78,-60"/>
<text text-anchor="middle" x="51" y="-39.5" font-family="Helvetica,sans-Serif" font-size="10.00">src</text>
</a>
</g>
</g>
</g>
</svg>
