<?xml version="1.0" encoding="UTF-8" standalone="no"?>
<!DOCTYPE svg PUBLIC "-//W3C//DTD SVG 1.1//EN"
 "http://www.w3.org/Graphics/SVG/1.1/DTD/svg11.dtd">
<!-- Generated by graphviz version 2.38.0 (20140413.2041)
 -->
<!-- Title: lib/security Pages: 1 -->
<svg width="254pt" height="111pt"
 viewBox="0.00 0.00 254.00 111.00" xmlns="http://www.w3.org/2000/svg" xmlns:xlink="http://www.w3.org/1999/xlink">
<g id="graph0" class="graph" transform="scale(1 1) rotate(0) translate(4 107)">
<title>lib/security</title>
<polygon fill="white" stroke="none" points="-4,4 -4,-107 250,-107 250,4 -4,4"/>
<g id="clust1" class="cluster"><title>clusterdir_adbc723cc94464b010849d4ce776bdfe</title>
<g id="a_clust1"><a xlink:href="dir_adbc723cc94464b010849d4ce776bdfe.html" target="_top" xlink:title="lib">
<polygon fill="#ddddee" stroke="black" points="8,-8 8,-95 238,-95 238,-8 8,-8"/>
<text text-anchor="middle" x="123" y="-83" font-family="Helvetica,sans-Serif" font-size="10.00">lib</text>
</a>
</g>
</g>
<g id="clust2" class="cluster"><title>clusterdir_811c0487b4efa7ac2869540a5398eb76</title>
<g id="a_clust2"><a xlink:href="dir_811c0487b4efa7ac2869540a5398eb76.html" target="_top">
<polygon fill="#eeeeff" stroke="black" points="16,-16 16,-68 230,-68 230,-16 16,-16"/>
</a>
</g>
</g>
<!-- dir_811c0487b4efa7ac2869540a5398eb76 -->
<g id="node1" class="node"><title>dir_811c0487b4efa7ac2869540a5398eb76</title>
<text text-anchor="middle" x="195" y="-39.5" font-family="Helvetica,sans-Serif" font-size="10.00">security</text>
</g>
<!-- dir_2929d4553b71448d32edc7ef86e383c4 -->
<g id="node2" class="node"><title>dir_2929d4553b71448d32edc7ef86e383c4</title>
<g id="a_node2"><a xlink:href="dir_2929d4553b71448d32edc7ef86e383c4.html" target="_top" xlink:title="impl">
<polygon fill="white" stroke="black" points="150,-60 96,-60 96,-24 150,-24 150,-60"/>
<text text-anchor="middle" x="123" y="-39.5" font-family="Helvetica,sans-Serif" font-size="10.00">impl</text>
</a>
</g>
</g>
<!-- dir_7cd844c6b96601d518c5e12cd0deb434 -->
<g id="node3" class="node"><title>dir_7cd844c6b96601d518c5e12cd0deb434</title>
<g id="a_node3"><a xlink:href="dir_7cd844c6b96601d518c5e12cd0deb434.html" target="_top" xlink:title="principal">
<polygon fill="white" stroke="red" points="78,-60 24,-60 24,-24 78,-24 78,-60"/>
<text text-anchor="middle" x="51" y="-39.5" font-family="Helvetica,sans-Serif" font-size="10.00">principal</text>
</a>
</g>
</g>
</g>
</svg>
