<?xml version="1.0" encoding="UTF-8" standalone="no"?>
<!DOCTYPE svg PUBLIC "-//W3C//DTD SVG 1.1//EN"
 "http://www.w3.org/Graphics/SVG/1.1/DTD/svg11.dtd">
<!-- Generated by graphviz version 2.38.0 (20140413.2041)
 -->
<!-- Title: RemotingClient Pages: 1 -->
<svg width="270pt" height="226pt"
 viewBox="0.00 0.00 269.50 226.00" xmlns="http://www.w3.org/2000/svg" xmlns:xlink="http://www.w3.org/1999/xlink">
<g id="graph0" class="graph" transform="scale(1 1) rotate(0) translate(4 222)">
<title>RemotingClient</title>
<polygon fill="white" stroke="none" points="-4,4 -4,-222 265.5,-222 265.5,4 -4,4"/>
<!-- Node1 -->
<g id="node1" class="node"><title>Node1</title>
<polygon fill="#bfbfbf" stroke="black" points="74.5,-160.5 74.5,-217.5 157.5,-217.5 157.5,-160.5 74.5,-160.5"/>
<text text-anchor="middle" x="116" y="-205.5" font-family="Helvetica,sans-Serif" font-size="10.00">RemotingClient</text>
<polyline fill="none" stroke="black" points="74.5,-198.5 157.5,-198.5 "/>
<text text-anchor="middle" x="116" y="-186.5" font-family="Helvetica,sans-Serif" font-size="10.00"> </text>
<polyline fill="none" stroke="black" points="74.5,-179.5 157.5,-179.5 "/>
<text text-anchor="start" x="82.5" y="-167.5" font-family="Helvetica,sans-Serif" font-size="10.00">+ call()</text>
</g>
<!-- Node2 -->
<g id="node2" class="node"><title>Node2</title>
<g id="a_node2"><a xlink:href="classwcmf_1_1lib_1_1service_1_1impl_1_1_h_t_t_p_client.html" target="_top" xlink:title="HTTPClient is used to do calls to other wCMF instances over HTTP. ">
<polygon fill="white" stroke="black" points="0,-11.5 0,-112.5 92,-112.5 92,-11.5 0,-11.5"/>
<text text-anchor="middle" x="46" y="-100.5" font-family="Helvetica,sans-Serif" font-size="10.00">HTTPClient</text>
<polyline fill="none" stroke="black" points="0,-93.5 92,-93.5 "/>
<text text-anchor="middle" x="46" y="-81.5" font-family="Helvetica,sans-Serif" font-size="10.00"> </text>
<polyline fill="none" stroke="black" points="0,-74.5 92,-74.5 "/>
<text text-anchor="start" x="8" y="-62.5" font-family="Helvetica,sans-Serif" font-size="10.00">+ __construct()</text>
<text text-anchor="start" x="8" y="-51.5" font-family="Helvetica,sans-Serif" font-size="10.00">+ call()</text>
<text text-anchor="start" x="8" y="-40.5" font-family="Helvetica,sans-Serif" font-size="10.00"># doRemoteCall()</text>
<text text-anchor="start" x="8" y="-29.5" font-family="Helvetica,sans-Serif" font-size="10.00"># doLogin()</text>
<text text-anchor="start" x="8" y="-18.5" font-family="Helvetica,sans-Serif" font-size="10.00"># handleError()</text>
</a>
</g>
</g>
<!-- Node1&#45;&gt;Node2 -->
<g id="edge1" class="edge"><title>Node1&#45;&gt;Node2</title>
<path fill="none" stroke="midnightblue" d="M95.4896,-151.374C88.7326,-139.308 81.1005,-125.68 73.889,-112.802"/>
<polygon fill="none" stroke="midnightblue" points="92.5249,-153.244 100.465,-160.258 98.6324,-149.823 92.5249,-153.244"/>
</g>
<!-- Node3 -->
<g id="node3" class="node"><title>Node3</title>
<g id="a_node3"><a xlink:href="classwcmf_1_1lib_1_1service_1_1impl_1_1_r_p_c_client.html" target="_top" xlink:title="RPCClient is used to do calls to other wCMF instances on the same mashine. ">
<polygon fill="white" stroke="black" points="110.5,-0.5 110.5,-123.5 261.5,-123.5 261.5,-0.5 110.5,-0.5"/>
<text text-anchor="middle" x="186" y="-111.5" font-family="Helvetica,sans-Serif" font-size="10.00">RPCClient</text>
<polyline fill="none" stroke="black" points="110.5,-104.5 261.5,-104.5 "/>
<text text-anchor="start" x="118.5" y="-92.5" font-family="Helvetica,sans-Serif" font-size="10.00">+ SIDS_SESSION_VARNAME</text>
<polyline fill="none" stroke="black" points="110.5,-85.5 261.5,-85.5 "/>
<text text-anchor="start" x="118.5" y="-73.5" font-family="Helvetica,sans-Serif" font-size="10.00">+ __construct()</text>
<text text-anchor="start" x="118.5" y="-62.5" font-family="Helvetica,sans-Serif" font-size="10.00">+ call()</text>
<text text-anchor="start" x="118.5" y="-51.5" font-family="Helvetica,sans-Serif" font-size="10.00"># doRemoteCall()</text>
<text text-anchor="start" x="118.5" y="-40.5" font-family="Helvetica,sans-Serif" font-size="10.00"># doLogin()</text>
<text text-anchor="start" x="118.5" y="-29.5" font-family="Helvetica,sans-Serif" font-size="10.00"># setSessionId()</text>
<text text-anchor="start" x="118.5" y="-18.5" font-family="Helvetica,sans-Serif" font-size="10.00"># getSessionId()</text>
<text text-anchor="start" x="118.5" y="-7.5" font-family="Helvetica,sans-Serif" font-size="10.00"># handleError()</text>
</a>
</g>
</g>
<!-- Node1&#45;&gt;Node3 -->
<g id="edge2" class="edge"><title>Node1&#45;&gt;Node3</title>
<path fill="none" stroke="midnightblue" d="M136.448,-151.486C141.342,-142.746 146.699,-133.181 152.024,-123.672"/>
<polygon fill="none" stroke="midnightblue" points="133.368,-149.823 131.535,-160.258 139.475,-153.244 133.368,-149.823"/>
</g>
</g>
</svg>
