<?xml version="1.0" encoding="UTF-8" standalone="no"?>
<!DOCTYPE svg PUBLIC "-//W3C//DTD SVG 1.1//EN"
 "http://www.w3.org/Graphics/SVG/1.1/DTD/svg11.dtd">
<!-- Generated by graphviz version 2.38.0 (20140413.2041)
 -->
<!-- Title: LockHandler Pages: 1 -->
<svg width="250pt" height="336pt"
 viewBox="0.00 0.00 250.00 336.00" xmlns="http://www.w3.org/2000/svg" xmlns:xlink="http://www.w3.org/1999/xlink">
<g id="graph0" class="graph" transform="scale(1 1) rotate(0) translate(4 332)">
<title>LockHandler</title>
<polygon fill="white" stroke="none" points="-4,4 -4,-332 246,-332 246,4 -4,4"/>
<!-- Node1 -->
<g id="node1" class="node"><title>Node1</title>
<polygon fill="#bfbfbf" stroke="black" points="76,-215.5 76,-327.5 177,-327.5 177,-215.5 76,-215.5"/>
<text text-anchor="middle" x="126.5" y="-315.5" font-family="Helvetica,sans-Serif" font-size="10.00">LockHandler</text>
<polyline fill="none" stroke="black" points="76,-308.5 177,-308.5 "/>
<text text-anchor="middle" x="126.5" y="-296.5" font-family="Helvetica,sans-Serif" font-size="10.00"> </text>
<polyline fill="none" stroke="black" points="76,-289.5 177,-289.5 "/>
<text text-anchor="start" x="84" y="-277.5" font-family="Helvetica,sans-Serif" font-size="10.00">+ aquireLock()</text>
<text text-anchor="start" x="84" y="-266.5" font-family="Helvetica,sans-Serif" font-size="10.00">+ releaseLock()</text>
<text text-anchor="start" x="84" y="-255.5" font-family="Helvetica,sans-Serif" font-size="10.00">+ releaseLocks()</text>
<text text-anchor="start" x="84" y="-244.5" font-family="Helvetica,sans-Serif" font-size="10.00">+ releaseAllLocks()</text>
<text text-anchor="start" x="84" y="-233.5" font-family="Helvetica,sans-Serif" font-size="10.00">+ getLock()</text>
<text text-anchor="start" x="84" y="-222.5" font-family="Helvetica,sans-Serif" font-size="10.00">+ updateLock()</text>
</g>
<!-- Node2 -->
<g id="node2" class="node"><title>Node2</title>
<g id="a_node2"><a xlink:href="classwcmf_1_1lib_1_1persistence_1_1concurrency_1_1impl_1_1_default_lock_handler.html" target="_top" xlink:title="DefaultLockHandler implements the LockHandler interface for relational databases. ...">
<polygon fill="white" stroke="black" points="0,-0.5 0,-178.5 123,-178.5 123,-0.5 0,-0.5"/>
<text text-anchor="middle" x="61.5" y="-166.5" font-family="Helvetica,sans-Serif" font-size="10.00">DefaultLockHandler</text>
<polyline fill="none" stroke="black" points="0,-159.5 123,-159.5 "/>
<text text-anchor="start" x="8" y="-147.5" font-family="Helvetica,sans-Serif" font-size="10.00">+ SESSION_VARNAME</text>
<polyline fill="none" stroke="black" points="0,-140.5 123,-140.5 "/>
<text text-anchor="start" x="8" y="-128.5" font-family="Helvetica,sans-Serif" font-size="10.00">+ __construct()</text>
<text text-anchor="start" x="8" y="-117.5" font-family="Helvetica,sans-Serif" font-size="10.00">+ aquireLock()</text>
<text text-anchor="start" x="8" y="-106.5" font-family="Helvetica,sans-Serif" font-size="10.00">+ releaseLock()</text>
<text text-anchor="start" x="8" y="-95.5" font-family="Helvetica,sans-Serif" font-size="10.00">+ releaseLocks()</text>
<text text-anchor="start" x="8" y="-84.5" font-family="Helvetica,sans-Serif" font-size="10.00">+ releaseAllLocks()</text>
<text text-anchor="start" x="8" y="-73.5" font-family="Helvetica,sans-Serif" font-size="10.00">+ getLock()</text>
<text text-anchor="start" x="8" y="-62.5" font-family="Helvetica,sans-Serif" font-size="10.00">+ updateLock()</text>
<text text-anchor="start" x="8" y="-51.5" font-family="Helvetica,sans-Serif" font-size="10.00"># storeLock()</text>
<text text-anchor="start" x="8" y="-40.5" font-family="Helvetica,sans-Serif" font-size="10.00"># getCurrentUser()</text>
<text text-anchor="start" x="8" y="-29.5" font-family="Helvetica,sans-Serif" font-size="10.00"># getSessionLocks()</text>
<text text-anchor="start" x="8" y="-18.5" font-family="Helvetica,sans-Serif" font-size="10.00"># addSessionLock()</text>
<text text-anchor="start" x="8" y="-7.5" font-family="Helvetica,sans-Serif" font-size="10.00"># removeSessionLock()</text>
</a>
</g>
</g>
<!-- Node1&#45;&gt;Node2 -->
<g id="edge1" class="edge"><title>Node1&#45;&gt;Node2</title>
<path fill="none" stroke="midnightblue" d="M102.975,-205.353C99.8291,-196.642 96.5618,-187.594 93.3038,-178.572"/>
<polygon fill="none" stroke="midnightblue" points="99.779,-206.809 106.467,-215.025 106.363,-204.431 99.779,-206.809"/>
</g>
<!-- Node3 -->
<g id="node3" class="node"><title>Node3</title>
<g id="a_node3"><a xlink:href="classwcmf_1_1lib_1_1persistence_1_1concurrency_1_1impl_1_1_null_lock_handler.html" target="_top" xlink:title="NullLockHandler acts as if no LockHandler was installed. ">
<polygon fill="white" stroke="black" points="141,-33.5 141,-145.5 242,-145.5 242,-33.5 141,-33.5"/>
<text text-anchor="middle" x="191.5" y="-133.5" font-family="Helvetica,sans-Serif" font-size="10.00">NullLockHandler</text>
<polyline fill="none" stroke="black" points="141,-126.5 242,-126.5 "/>
<text text-anchor="middle" x="191.5" y="-114.5" font-family="Helvetica,sans-Serif" font-size="10.00"> </text>
<polyline fill="none" stroke="black" points="141,-107.5 242,-107.5 "/>
<text text-anchor="start" x="149" y="-95.5" font-family="Helvetica,sans-Serif" font-size="10.00">+ aquireLock()</text>
<text text-anchor="start" x="149" y="-84.5" font-family="Helvetica,sans-Serif" font-size="10.00">+ releaseLock()</text>
<text text-anchor="start" x="149" y="-73.5" font-family="Helvetica,sans-Serif" font-size="10.00">+ releaseLocks()</text>
<text text-anchor="start" x="149" y="-62.5" font-family="Helvetica,sans-Serif" font-size="10.00">+ releaseAllLocks()</text>
<text text-anchor="start" x="149" y="-51.5" font-family="Helvetica,sans-Serif" font-size="10.00">+ getLock()</text>
<text text-anchor="start" x="149" y="-40.5" font-family="Helvetica,sans-Serif" font-size="10.00">+ updateLock()</text>
</a>
</g>
</g>
<!-- Node1&#45;&gt;Node3 -->
<g id="edge2" class="edge"><title>Node1&#45;&gt;Node3</title>
<path fill="none" stroke="midnightblue" d="M149.947,-205.569C157.019,-185.987 164.711,-164.684 171.534,-145.792"/>
<polygon fill="none" stroke="midnightblue" points="146.637,-204.431 146.533,-215.025 153.221,-206.809 146.637,-204.431"/>
</g>
</g>
</svg>
