<?xml version="1.0" encoding="UTF-8" standalone="no"?>
<!DOCTYPE svg PUBLIC "-//W3C//DTD SVG 1.1//EN"
 "http://www.w3.org/Graphics/SVG/1.1/DTD/svg11.dtd">
<!-- Generated by graphviz version 2.38.0 (20140413.2041)
 -->
<!-- Title: OutputStrategy Pages: 1 -->
<svg width="654pt" height="540pt"
 viewBox="0.00 0.00 653.50 540.00" xmlns="http://www.w3.org/2000/svg" xmlns:xlink="http://www.w3.org/1999/xlink">
<g id="graph0" class="graph" transform="scale(1 1) rotate(0) translate(4 536)">
<title>OutputStrategy</title>
<polygon fill="white" stroke="none" points="-4,4 -4,-536 649.5,-536 649.5,4 -4,4"/>
<!-- Node1 -->
<g id="node1" class="node"><title>Node1</title>
<polygon fill="#bfbfbf" stroke="black" points="273.5,-452.5 273.5,-531.5 356.5,-531.5 356.5,-452.5 273.5,-452.5"/>
<text text-anchor="middle" x="315" y="-519.5" font-family="Helvetica,sans-Serif" font-size="10.00">OutputStrategy</text>
<polyline fill="none" stroke="black" points="273.5,-512.5 356.5,-512.5 "/>
<text text-anchor="middle" x="315" y="-500.5" font-family="Helvetica,sans-Serif" font-size="10.00"> </text>
<polyline fill="none" stroke="black" points="273.5,-493.5 356.5,-493.5 "/>
<text text-anchor="start" x="281.5" y="-481.5" font-family="Helvetica,sans-Serif" font-size="10.00">+ writeHeader()</text>
<text text-anchor="start" x="281.5" y="-470.5" font-family="Helvetica,sans-Serif" font-size="10.00">+ writeFooter()</text>
<text text-anchor="start" x="281.5" y="-459.5" font-family="Helvetica,sans-Serif" font-size="10.00">+ writeObject()</text>
</g>
<!-- Node2 -->
<g id="node2" class="node"><title>Node2</title>
<g id="a_node2"><a xlink:href="classwcmf_1_1lib_1_1model_1_1output_1_1_dot_output_strategy.html" target="_top" xlink:title="DotOutputStrategy outputs an object&#39;s content in a dot file. ">
<polygon fill="white" stroke="black" points="0,-221 0,-311 98,-311 98,-221 0,-221"/>
<text text-anchor="middle" x="49" y="-299" font-family="Helvetica,sans-Serif" font-size="10.00">DotOutputStrategy</text>
<polyline fill="none" stroke="black" points="0,-292 98,-292 "/>
<text text-anchor="middle" x="49" y="-280" font-family="Helvetica,sans-Serif" font-size="10.00"> </text>
<polyline fill="none" stroke="black" points="0,-273 98,-273 "/>
<text text-anchor="start" x="8" y="-261" font-family="Helvetica,sans-Serif" font-size="10.00">+ __construct()</text>
<text text-anchor="start" x="8" y="-250" font-family="Helvetica,sans-Serif" font-size="10.00">+ writeHeader()</text>
<text text-anchor="start" x="8" y="-239" font-family="Helvetica,sans-Serif" font-size="10.00">+ writeFooter()</text>
<text text-anchor="start" x="8" y="-228" font-family="Helvetica,sans-Serif" font-size="10.00">+ writeObject()</text>
</a>
</g>
</g>
<!-- Node1&#45;&gt;Node2 -->
<g id="edge1" class="edge"><title>Node1&#45;&gt;Node2</title>
<path fill="none" stroke="midnightblue" d="M263.416,-484.606C216.967,-476.301 149.631,-457.572 107,-416 78.2825,-387.996 63.5052,-344.133 56.0804,-311.237"/>
<polygon fill="none" stroke="midnightblue" points="262.843,-488.059 273.286,-486.271 264.007,-481.156 262.843,-488.059"/>
</g>
<!-- Node3 -->
<g id="node3" class="node"><title>Node3</title>
<g id="a_node3"><a xlink:href="classwcmf_1_1lib_1_1model_1_1output_1_1_image_output_strategy.html" target="_top" xlink:title="ImageOutputStrategy outputs a tree of objects into an image file. ">
<polygon fill="white" stroke="black" points="116,-116.5 116,-415.5 234,-415.5 234,-116.5 116,-116.5"/>
<text text-anchor="middle" x="175" y="-403.5" font-family="Helvetica,sans-Serif" font-size="10.00">ImageOutputStrategy</text>
<polyline fill="none" stroke="black" points="116,-396.5 234,-396.5 "/>
<text text-anchor="start" x="124" y="-384.5" font-family="Helvetica,sans-Serif" font-size="10.00">+ LINETYPE_DIRECT</text>
<text text-anchor="start" x="124" y="-373.5" font-family="Helvetica,sans-Serif" font-size="10.00">+ LINETYPE_ROUTED</text>
<text text-anchor="start" x="124" y="-362.5" font-family="Helvetica,sans-Serif" font-size="10.00"># $_format</text>
<text text-anchor="start" x="124" y="-351.5" font-family="Helvetica,sans-Serif" font-size="10.00"># $_file</text>
<text text-anchor="start" x="124" y="-340.5" font-family="Helvetica,sans-Serif" font-size="10.00"># $_map</text>
<text text-anchor="start" x="124" y="-329.5" font-family="Helvetica,sans-Serif" font-size="10.00"># $_img</text>
<text text-anchor="start" x="124" y="-318.5" font-family="Helvetica,sans-Serif" font-size="10.00"># $_width</text>
<text text-anchor="start" x="124" y="-307.5" font-family="Helvetica,sans-Serif" font-size="10.00"># $_height</text>
<text text-anchor="start" x="124" y="-296.5" font-family="Helvetica,sans-Serif" font-size="10.00"># $_xscale</text>
<text text-anchor="start" x="124" y="-285.5" font-family="Helvetica,sans-Serif" font-size="10.00"># $_yscale</text>
<text text-anchor="start" x="124" y="-274.5" font-family="Helvetica,sans-Serif" font-size="10.00"># $_border</text>
<text text-anchor="start" x="124" y="-263.5" font-family="Helvetica,sans-Serif" font-size="10.00"># $_bgColor</text>
<text text-anchor="start" x="124" y="-252.5" font-family="Helvetica,sans-Serif" font-size="10.00"># $_txtColor</text>
<text text-anchor="start" x="124" y="-241.5" font-family="Helvetica,sans-Serif" font-size="10.00"># $_lineColor</text>
<text text-anchor="start" x="124" y="-230.5" font-family="Helvetica,sans-Serif" font-size="10.00"># $_labelDim</text>
<text text-anchor="start" x="124" y="-219.5" font-family="Helvetica,sans-Serif" font-size="10.00"># $_textPos</text>
<text text-anchor="start" x="124" y="-208.5" font-family="Helvetica,sans-Serif" font-size="10.00"># $_usemap</text>
<polyline fill="none" stroke="black" points="116,-201.5 234,-201.5 "/>
<text text-anchor="start" x="124" y="-189.5" font-family="Helvetica,sans-Serif" font-size="10.00">+ __construct()</text>
<text text-anchor="start" x="124" y="-178.5" font-family="Helvetica,sans-Serif" font-size="10.00">+ writeHeader()</text>
<text text-anchor="start" x="124" y="-167.5" font-family="Helvetica,sans-Serif" font-size="10.00">+ writeFooter()</text>
<text text-anchor="start" x="124" y="-156.5" font-family="Helvetica,sans-Serif" font-size="10.00">+ writeObject()</text>
<text text-anchor="start" x="124" y="-145.5" font-family="Helvetica,sans-Serif" font-size="10.00"># drawConnectionLine()</text>
<text text-anchor="start" x="124" y="-134.5" font-family="Helvetica,sans-Serif" font-size="10.00"># drawDirectLine()</text>
<text text-anchor="start" x="124" y="-123.5" font-family="Helvetica,sans-Serif" font-size="10.00"># drawRoutedLine()</text>
</a>
</g>
</g>
<!-- Node1&#45;&gt;Node3 -->
<g id="edge2" class="edge"><title>Node1&#45;&gt;Node3</title>
<path fill="none" stroke="midnightblue" d="M266.849,-444.737C258.675,-435.644 250.682,-425.855 244,-416 240.64,-411.045 237.368,-405.901 234.19,-400.631"/>
<polygon fill="none" stroke="midnightblue" points="264.38,-447.222 273.733,-452.199 269.524,-442.476 264.38,-447.222"/>
</g>
<!-- Node5 -->
<g id="node5" class="node"><title>Node5</title>
<g id="a_node5"><a xlink:href="classwcmf_1_1lib_1_1persistence_1_1output_1_1impl_1_1_array_output_strategy.html" target="_top" xlink:title="ArrayOutputStrategy outputs an object&#39;s content into an array. ">
<polygon fill="white" stroke="black" points="252.5,-221 252.5,-311 377.5,-311 377.5,-221 252.5,-221"/>
<text text-anchor="middle" x="315" y="-299" font-family="Helvetica,sans-Serif" font-size="10.00">ArrayOutputStrategy</text>
<polyline fill="none" stroke="black" points="252.5,-292 377.5,-292 "/>
<text text-anchor="start" x="260.5" y="-280" font-family="Helvetica,sans-Serif" font-size="10.00">+ $_writeValueProperties</text>
<polyline fill="none" stroke="black" points="252.5,-273 377.5,-273 "/>
<text text-anchor="start" x="260.5" y="-261" font-family="Helvetica,sans-Serif" font-size="10.00">+ __construct()</text>
<text text-anchor="start" x="260.5" y="-250" font-family="Helvetica,sans-Serif" font-size="10.00">+ writeHeader()</text>
<text text-anchor="start" x="260.5" y="-239" font-family="Helvetica,sans-Serif" font-size="10.00">+ writeFooter()</text>
<text text-anchor="start" x="260.5" y="-228" font-family="Helvetica,sans-Serif" font-size="10.00">+ writeObject()</text>
</a>
</g>
</g>
<!-- Node1&#45;&gt;Node5 -->
<g id="edge4" class="edge"><title>Node1&#45;&gt;Node5</title>
<path fill="none" stroke="midnightblue" d="M315,-442.414C315,-403.362 315,-348.968 315,-311.144"/>
<polygon fill="none" stroke="midnightblue" points="311.5,-442.493 315,-452.493 318.5,-442.493 311.5,-442.493"/>
</g>
<!-- Node6 -->
<g id="node6" class="node"><title>Node6</title>
<g id="a_node6"><a xlink:href="classwcmf_1_1lib_1_1persistence_1_1output_1_1impl_1_1_auditing_output_strategy.html" target="_top" xlink:title="AuditingOutputStrategy outputs object changes to the logger category AuditingOutputStrategy, loglevel info. ">
<polygon fill="white" stroke="black" points="396,-221 396,-311 514,-311 514,-221 396,-221"/>
<text text-anchor="middle" x="455" y="-299" font-family="Helvetica,sans-Serif" font-size="10.00">AuditingOutputStrategy</text>
<polyline fill="none" stroke="black" points="396,-292 514,-292 "/>
<text text-anchor="middle" x="455" y="-280" font-family="Helvetica,sans-Serif" font-size="10.00"> </text>
<polyline fill="none" stroke="black" points="396,-273 514,-273 "/>
<text text-anchor="start" x="404" y="-261" font-family="Helvetica,sans-Serif" font-size="10.00">+ __construct()</text>
<text text-anchor="start" x="404" y="-250" font-family="Helvetica,sans-Serif" font-size="10.00">+ writeHeader()</text>
<text text-anchor="start" x="404" y="-239" font-family="Helvetica,sans-Serif" font-size="10.00">+ writeFooter()</text>
<text text-anchor="start" x="404" y="-228" font-family="Helvetica,sans-Serif" font-size="10.00">+ writeObject()</text>
</a>
</g>
</g>
<!-- Node1&#45;&gt;Node6 -->
<g id="edge5" class="edge"><title>Node1&#45;&gt;Node6</title>
<path fill="none" stroke="midnightblue" d="M363.606,-445.159C371.991,-435.965 380.187,-426.032 387,-416 409.285,-383.185 427.475,-341.889 439.415,-311.1"/>
<polygon fill="none" stroke="midnightblue" points="360.829,-443.004 356.546,-452.694 365.937,-447.79 360.829,-443.004"/>
</g>
<!-- Node7 -->
<g id="node7" class="node"><title>Node7</title>
<g id="a_node7"><a xlink:href="classwcmf_1_1lib_1_1persistence_1_1output_1_1impl_1_1_default_output_strategy.html" target="_top" xlink:title="DefaultOutputStrategy outputs an object&#39;s content to the Log category DefaultOutputStrategy. ">
<polygon fill="white" stroke="black" points="532.5,-221 532.5,-311 645.5,-311 645.5,-221 532.5,-221"/>
<text text-anchor="middle" x="589" y="-299" font-family="Helvetica,sans-Serif" font-size="10.00">DefaultOutputStrategy</text>
<polyline fill="none" stroke="black" points="532.5,-292 645.5,-292 "/>
<text text-anchor="middle" x="589" y="-280" font-family="Helvetica,sans-Serif" font-size="10.00"> </text>
<polyline fill="none" stroke="black" points="532.5,-273 645.5,-273 "/>
<text text-anchor="start" x="540.5" y="-261" font-family="Helvetica,sans-Serif" font-size="10.00">+ __construct()</text>
<text text-anchor="start" x="540.5" y="-250" font-family="Helvetica,sans-Serif" font-size="10.00">+ writeHeader()</text>
<text text-anchor="start" x="540.5" y="-239" font-family="Helvetica,sans-Serif" font-size="10.00">+ writeFooter()</text>
<text text-anchor="start" x="540.5" y="-228" font-family="Helvetica,sans-Serif" font-size="10.00">+ writeObject()</text>
</a>
</g>
</g>
<!-- Node1&#45;&gt;Node7 -->
<g id="edge6" class="edge"><title>Node1&#45;&gt;Node7</title>
<path fill="none" stroke="midnightblue" d="M366.852,-484.014C412.976,-475.33 479.651,-456.379 523,-416 552.915,-388.135 570.087,-344.254 579.37,-311.316"/>
<polygon fill="none" stroke="midnightblue" points="365.99,-480.613 356.759,-485.813 367.218,-487.504 365.99,-480.613"/>
</g>
<!-- Node4 -->
<g id="node4" class="node"><title>Node4</title>
<g id="a_node4"><a xlink:href="classwcmf_1_1lib_1_1model_1_1output_1_1_element_image_output_strategy.html" target="_top" xlink:title="ElementImageOutputStrategy outputs a tree of objects into an image file. ">
<polygon fill="white" stroke="black" points="102.5,-0.5 102.5,-79.5 247.5,-79.5 247.5,-0.5 102.5,-0.5"/>
<text text-anchor="middle" x="175" y="-67.5" font-family="Helvetica,sans-Serif" font-size="10.00">ElementImageOutputStrategy</text>
<polyline fill="none" stroke="black" points="102.5,-60.5 247.5,-60.5 "/>
<text text-anchor="middle" x="175" y="-48.5" font-family="Helvetica,sans-Serif" font-size="10.00"> </text>
<polyline fill="none" stroke="black" points="102.5,-41.5 247.5,-41.5 "/>
<text text-anchor="start" x="110.5" y="-29.5" font-family="Helvetica,sans-Serif" font-size="10.00">+ __construct()</text>
<text text-anchor="start" x="110.5" y="-18.5" font-family="Helvetica,sans-Serif" font-size="10.00">+ writeHeader()</text>
<text text-anchor="start" x="110.5" y="-7.5" font-family="Helvetica,sans-Serif" font-size="10.00">+ writeObject()</text>
</a>
</g>
</g>
<!-- Node3&#45;&gt;Node4 -->
<g id="edge3" class="edge"><title>Node3&#45;&gt;Node4</title>
<path fill="none" stroke="midnightblue" d="M175,-106.131C175,-96.6338 175,-87.6851 175,-79.6384"/>
<polygon fill="none" stroke="midnightblue" points="171.5,-106.212 175,-116.212 178.5,-106.212 171.5,-106.212"/>
</g>
</g>
</svg>
