<?xml version="1.0" encoding="UTF-8" standalone="no"?>
<!DOCTYPE svg PUBLIC "-//W3C//DTD SVG 1.1//EN"
 "http://www.w3.org/Graphics/SVG/1.1/DTD/svg11.dtd">
<!-- Generated by graphviz version 2.38.0 (20140413.2041)
 -->
<!-- Title: ActionKeyProvider Pages: 1 -->
<svg width="298pt" height="281pt"
 viewBox="0.00 0.00 297.50 281.00" xmlns="http://www.w3.org/2000/svg" xmlns:xlink="http://www.w3.org/1999/xlink">
<g id="graph0" class="graph" transform="scale(1 1) rotate(0) translate(4 277)">
<title>ActionKeyProvider</title>
<polygon fill="white" stroke="none" points="-4,4 -4,-277 293.5,-277 293.5,4 -4,4"/>
<!-- Node1 -->
<g id="node1" class="node"><title>Node1</title>
<polygon fill="#bfbfbf" stroke="black" points="90.5,-193.5 90.5,-272.5 186.5,-272.5 186.5,-193.5 90.5,-193.5"/>
<text text-anchor="middle" x="138.5" y="-260.5" font-family="Helvetica,sans-Serif" font-size="10.00">ActionKeyProvider</text>
<polyline fill="none" stroke="black" points="90.5,-253.5 186.5,-253.5 "/>
<text text-anchor="middle" x="138.5" y="-241.5" font-family="Helvetica,sans-Serif" font-size="10.00"> </text>
<polyline fill="none" stroke="black" points="90.5,-234.5 186.5,-234.5 "/>
<text text-anchor="start" x="98.5" y="-222.5" font-family="Helvetica,sans-Serif" font-size="10.00">+ containsKey()</text>
<text text-anchor="start" x="98.5" y="-211.5" font-family="Helvetica,sans-Serif" font-size="10.00">+ getKeyValue()</text>
<text text-anchor="start" x="98.5" y="-200.5" font-family="Helvetica,sans-Serif" font-size="10.00">+ getId()</text>
</g>
<!-- Node2 -->
<g id="node2" class="node"><title>Node2</title>
<g id="a_node2"><a xlink:href="classwcmf_1_1lib_1_1config_1_1impl_1_1_config_action_key_provider.html" target="_top" xlink:title="ConfigActionKeyProvider searches for action keys in the application configuration. ">
<polygon fill="white" stroke="black" points="0,-33.5 0,-123.5 123,-123.5 123,-33.5 0,-33.5"/>
<text text-anchor="middle" x="61.5" y="-111.5" font-family="Helvetica,sans-Serif" font-size="10.00">ConfigActionKeyProvider</text>
<polyline fill="none" stroke="black" points="0,-104.5 123,-104.5 "/>
<text text-anchor="middle" x="61.5" y="-92.5" font-family="Helvetica,sans-Serif" font-size="10.00"> </text>
<polyline fill="none" stroke="black" points="0,-85.5 123,-85.5 "/>
<text text-anchor="start" x="8" y="-73.5" font-family="Helvetica,sans-Serif" font-size="10.00">+ __construct()</text>
<text text-anchor="start" x="8" y="-62.5" font-family="Helvetica,sans-Serif" font-size="10.00">+ containsKey()</text>
<text text-anchor="start" x="8" y="-51.5" font-family="Helvetica,sans-Serif" font-size="10.00">+ getKeyValue()</text>
<text text-anchor="start" x="8" y="-40.5" font-family="Helvetica,sans-Serif" font-size="10.00">+ getId()</text>
</a>
</g>
</g>
<!-- Node1&#45;&gt;Node2 -->
<g id="edge1" class="edge"><title>Node1&#45;&gt;Node2</title>
<path fill="none" stroke="midnightblue" d="M114.352,-184.174C104.588,-164.837 93.387,-142.653 83.8168,-123.699"/>
<polygon fill="none" stroke="midnightblue" points="111.239,-185.774 118.87,-193.123 117.487,-182.619 111.239,-185.774"/>
</g>
<!-- Node3 -->
<g id="node3" class="node"><title>Node3</title>
<g id="a_node3"><a xlink:href="classwcmf_1_1lib_1_1config_1_1impl_1_1_persistence_action_key_provider.html" target="_top" xlink:title="PersistenceActionKeyProvider searches for action keys in the application storage. ...">
<polygon fill="white" stroke="black" points="141.5,-0.5 141.5,-156.5 289.5,-156.5 289.5,-0.5 141.5,-0.5"/>
<text text-anchor="middle" x="215.5" y="-144.5" font-family="Helvetica,sans-Serif" font-size="10.00">PersistenceActionKeyProvider</text>
<polyline fill="none" stroke="black" points="141.5,-137.5 289.5,-137.5 "/>
<text text-anchor="middle" x="215.5" y="-125.5" font-family="Helvetica,sans-Serif" font-size="10.00"> </text>
<polyline fill="none" stroke="black" points="141.5,-118.5 289.5,-118.5 "/>
<text text-anchor="start" x="149.5" y="-106.5" font-family="Helvetica,sans-Serif" font-size="10.00">+ __construct()</text>
<text text-anchor="start" x="149.5" y="-95.5" font-family="Helvetica,sans-Serif" font-size="10.00">+ __destruct()</text>
<text text-anchor="start" x="149.5" y="-84.5" font-family="Helvetica,sans-Serif" font-size="10.00">+ setEntityType()</text>
<text text-anchor="start" x="149.5" y="-73.5" font-family="Helvetica,sans-Serif" font-size="10.00">+ setValueMap()</text>
<text text-anchor="start" x="149.5" y="-62.5" font-family="Helvetica,sans-Serif" font-size="10.00">+ containsKey()</text>
<text text-anchor="start" x="149.5" y="-51.5" font-family="Helvetica,sans-Serif" font-size="10.00">+ getKeyValue()</text>
<text text-anchor="start" x="149.5" y="-40.5" font-family="Helvetica,sans-Serif" font-size="10.00">+ getId()</text>
<text text-anchor="start" x="149.5" y="-29.5" font-family="Helvetica,sans-Serif" font-size="10.00">+ keyChanged()</text>
<text text-anchor="start" x="149.5" y="-18.5" font-family="Helvetica,sans-Serif" font-size="10.00"># getAllKeyValues()</text>
<text text-anchor="start" x="149.5" y="-7.5" font-family="Helvetica,sans-Serif" font-size="10.00"># getSingleKeyValue()</text>
</a>
</g>
</g>
<!-- Node1&#45;&gt;Node3 -->
<g id="edge2" class="edge"><title>Node1&#45;&gt;Node3</title>
<path fill="none" stroke="midnightblue" d="M162.638,-184.194C167.08,-175.397 171.819,-166.011 176.567,-156.608"/>
<polygon fill="none" stroke="midnightblue" points="159.513,-182.619 158.13,-193.123 165.761,-185.774 159.513,-182.619"/>
</g>
</g>
</svg>
