<?xml version="1.0" encoding="UTF-8" standalone="no"?>
<!DOCTYPE svg PUBLIC "-//W3C//DTD SVG 1.1//EN"
 "http://www.w3.org/Graphics/SVG/1.1/DTD/svg11.dtd">
<!-- Generated by graphviz version 2.43.0 (0)
 -->
<!-- Title: ClientSideSession Pages: 1 -->
<svg width="130pt" height="595pt"
 viewBox="0.00 0.00 130.00 595.00" xmlns="http://www.w3.org/2000/svg" xmlns:xlink="http://www.w3.org/1999/xlink">
<g id="graph0" class="graph" transform="scale(1 1) rotate(0) translate(4 591)">
<title>ClientSideSession</title>
<polygon fill="white" stroke="transparent" points="-4,4 -4,-591 126,-591 126,4 -4,4"/>
<!-- Node1 -->
<g id="node1" class="node">
<title>Node1</title>
<g id="a_node1"><a xlink:title="ClientSideSession has no server state as it stores the data in cookies.">
<polygon fill="#bfbfbf" stroke="black" points="0,-0.5 0,-288.5 122,-288.5 122,-0.5 0,-0.5"/>
<text text-anchor="middle" x="61" y="-276.5" font-family="Helvetica,sans-Serif" font-size="10.00">ClientSideSession</text>
<polyline fill="none" stroke="black" points="0,-269.5 122,-269.5 "/>
<text text-anchor="start" x="8" y="-257.5" font-family="Helvetica,sans-Serif" font-size="10.00">+ TOKEN_HEADER</text>
<text text-anchor="start" x="8" y="-246.5" font-family="Helvetica,sans-Serif" font-size="10.00">+ AUTH_TYPE</text>
<text text-anchor="start" x="8" y="-235.5" font-family="Helvetica,sans-Serif" font-size="10.00">+ AUTH_USER_NAME</text>
<polyline fill="none" stroke="black" points="0,-228.5 122,-228.5 "/>
<text text-anchor="start" x="8" y="-216.5" font-family="Helvetica,sans-Serif" font-size="10.00">+ __construct()</text>
<text text-anchor="start" x="8" y="-205.5" font-family="Helvetica,sans-Serif" font-size="10.00">+ getHeaderName()</text>
<text text-anchor="start" x="8" y="-194.5" font-family="Helvetica,sans-Serif" font-size="10.00">+ getCookieName()</text>
<text text-anchor="start" x="8" y="-183.5" font-family="Helvetica,sans-Serif" font-size="10.00">+ isStarted()</text>
<text text-anchor="start" x="8" y="-172.5" font-family="Helvetica,sans-Serif" font-size="10.00">+ getID()</text>
<text text-anchor="start" x="8" y="-161.5" font-family="Helvetica,sans-Serif" font-size="10.00">+ get()</text>
<text text-anchor="start" x="8" y="-150.5" font-family="Helvetica,sans-Serif" font-size="10.00">+ set()</text>
<text text-anchor="start" x="8" y="-139.5" font-family="Helvetica,sans-Serif" font-size="10.00">+ remove()</text>
<text text-anchor="start" x="8" y="-128.5" font-family="Helvetica,sans-Serif" font-size="10.00">+ exist()</text>
<text text-anchor="start" x="8" y="-117.5" font-family="Helvetica,sans-Serif" font-size="10.00">+ clear()</text>
<text text-anchor="start" x="8" y="-106.5" font-family="Helvetica,sans-Serif" font-size="10.00">+ destroy()</text>
<text text-anchor="start" x="8" y="-95.5" font-family="Helvetica,sans-Serif" font-size="10.00">+ setAuthUser()</text>
<text text-anchor="start" x="8" y="-84.5" font-family="Helvetica,sans-Serif" font-size="10.00">+ getAuthUser()</text>
<text text-anchor="start" x="8" y="-73.5" font-family="Helvetica,sans-Serif" font-size="10.00"># getCookiePrefix()</text>
<text text-anchor="start" x="8" y="-62.5" font-family="Helvetica,sans-Serif" font-size="10.00"># createToken()</text>
<text text-anchor="start" x="8" y="-51.5" font-family="Helvetica,sans-Serif" font-size="10.00"># getTokenIssuer()</text>
<text text-anchor="start" x="8" y="-40.5" font-family="Helvetica,sans-Serif" font-size="10.00"># getTokenSigner()</text>
<text text-anchor="start" x="8" y="-29.5" font-family="Helvetica,sans-Serif" font-size="10.00"># getTokenData()</text>
<text text-anchor="start" x="8" y="-18.5" font-family="Helvetica,sans-Serif" font-size="10.00"># serializeValue()</text>
<text text-anchor="start" x="8" y="-7.5" font-family="Helvetica,sans-Serif" font-size="10.00"># unserializeValue()</text>
</a>
</g>
</g>
<!-- Node2 -->
<g id="node2" class="node">
<title>Node2</title>
<g id="a_node2"><a xlink:href="interfacewcmf_1_1lib_1_1core_1_1_token_based_session.html" target="_top" xlink:title="A session that requires clients to send a token for authentication.">
<polygon fill="white" stroke="black" points="3,-325.5 3,-393.5 119,-393.5 119,-325.5 3,-325.5"/>
<text text-anchor="middle" x="61" y="-381.5" font-family="Helvetica,sans-Serif" font-size="10.00">TokenBasedSession</text>
<polyline fill="none" stroke="black" points="3,-374.5 119,-374.5 "/>
<text text-anchor="middle" x="61" y="-362.5" font-family="Helvetica,sans-Serif" font-size="10.00"> </text>
<polyline fill="none" stroke="black" points="3,-355.5 119,-355.5 "/>
<text text-anchor="start" x="11" y="-343.5" font-family="Helvetica,sans-Serif" font-size="10.00">+ getHeaderName()</text>
<text text-anchor="start" x="11" y="-332.5" font-family="Helvetica,sans-Serif" font-size="10.00">+ getCookieName()</text>
</a>
</g>
</g>
<!-- Node2&#45;&gt;Node1 -->
<g id="edge1" class="edge">
<title>Node2&#45;&gt;Node1</title>
<path fill="none" stroke="midnightblue" d="M61,-314.99C61,-306.85 61,-297.94 61,-288.61"/>
<polygon fill="none" stroke="midnightblue" points="57.5,-315.22 61,-325.22 64.5,-315.22 57.5,-315.22"/>
</g>
<!-- Node3 -->
<g id="node3" class="node">
<title>Node3</title>
<g id="a_node3"><a xlink:href="interfacewcmf_1_1lib_1_1core_1_1_session.html" target="_top" xlink:title="Session is the interface for session implementations and defines access to session variables.">
<polygon fill="white" stroke="black" points="13,-430.5 13,-586.5 109,-586.5 109,-430.5 13,-430.5"/>
<text text-anchor="middle" x="61" y="-574.5" font-family="Helvetica,sans-Serif" font-size="10.00">Session</text>
<polyline fill="none" stroke="black" points="13,-567.5 109,-567.5 "/>
<text text-anchor="middle" x="61" y="-555.5" font-family="Helvetica,sans-Serif" font-size="10.00"> </text>
<polyline fill="none" stroke="black" points="13,-548.5 109,-548.5 "/>
<text text-anchor="start" x="21" y="-536.5" font-family="Helvetica,sans-Serif" font-size="10.00">+ isStarted()</text>
<text text-anchor="start" x="21" y="-525.5" font-family="Helvetica,sans-Serif" font-size="10.00">+ getID()</text>
<text text-anchor="start" x="21" y="-514.5" font-family="Helvetica,sans-Serif" font-size="10.00">+ get()</text>
<text text-anchor="start" x="21" y="-503.5" font-family="Helvetica,sans-Serif" font-size="10.00">+ set()</text>
<text text-anchor="start" x="21" y="-492.5" font-family="Helvetica,sans-Serif" font-size="10.00">+ remove()</text>
<text text-anchor="start" x="21" y="-481.5" font-family="Helvetica,sans-Serif" font-size="10.00">+ exist()</text>
<text text-anchor="start" x="21" y="-470.5" font-family="Helvetica,sans-Serif" font-size="10.00">+ clear()</text>
<text text-anchor="start" x="21" y="-459.5" font-family="Helvetica,sans-Serif" font-size="10.00">+ destroy()</text>
<text text-anchor="start" x="21" y="-448.5" font-family="Helvetica,sans-Serif" font-size="10.00">+ setAuthUser()</text>
<text text-anchor="start" x="21" y="-437.5" font-family="Helvetica,sans-Serif" font-size="10.00">+ getAuthUser()</text>
</a>
</g>
</g>
<!-- Node3&#45;&gt;Node2 -->
<g id="edge2" class="edge">
<title>Node3&#45;&gt;Node2</title>
<path fill="none" stroke="midnightblue" d="M61,-419.94C61,-410.63 61,-401.64 61,-393.59"/>
<polygon fill="none" stroke="midnightblue" points="57.5,-420.13 61,-430.13 64.5,-420.13 57.5,-420.13"/>
</g>
</g>
</svg>
