<?xml version="1.0" encoding="UTF-8" standalone="no"?>
<!DOCTYPE svg PUBLIC "-//W3C//DTD SVG 1.1//EN"
 "http://www.w3.org/Graphics/SVG/1.1/DTD/svg11.dtd">
<!-- Generated by graphviz version 2.43.0 (0)
 -->
<!-- Title: DefaultEventManager Pages: 1 -->
<svg width="131pt" height="204pt"
 viewBox="0.00 0.00 131.00 204.00" xmlns="http://www.w3.org/2000/svg" xmlns:xlink="http://www.w3.org/1999/xlink">
<g id="graph0" class="graph" transform="scale(1 1) rotate(0) translate(4 200)">
<title>DefaultEventManager</title>
<polygon fill="white" stroke="transparent" points="-4,4 -4,-200 127,-200 127,4 -4,4"/>
<!-- Node1 -->
<g id="node1" class="node">
<title>Node1</title>
<g id="a_node1"><a xlink:title="DefaultEventManager is a simple EventManager implementation.">
<polygon fill="#bfbfbf" stroke="black" points="0,-0.5 0,-79.5 123,-79.5 123,-0.5 0,-0.5"/>
<text text-anchor="middle" x="61.5" y="-67.5" font-family="Helvetica,sans-Serif" font-size="10.00">DefaultEventManager</text>
<polyline fill="none" stroke="black" points="0,-60.5 123,-60.5 "/>
<text text-anchor="middle" x="61.5" y="-48.5" font-family="Helvetica,sans-Serif" font-size="10.00"> </text>
<polyline fill="none" stroke="black" points="0,-41.5 123,-41.5 "/>
<text text-anchor="start" x="8" y="-29.5" font-family="Helvetica,sans-Serif" font-size="10.00">+ addListener()</text>
<text text-anchor="start" x="8" y="-18.5" font-family="Helvetica,sans-Serif" font-size="10.00">+ removeListener()</text>
<text text-anchor="start" x="8" y="-7.5" font-family="Helvetica,sans-Serif" font-size="10.00">+ dispatch()</text>
</a>
</g>
</g>
<!-- Node2 -->
<g id="node2" class="node">
<title>Node2</title>
<g id="a_node2"><a xlink:href="interfacewcmf_1_1lib_1_1core_1_1_event_manager.html" target="_top" xlink:title="EventManager is responsible for dispatching events to registered listeners.">
<polygon fill="white" stroke="black" points="5.5,-116.5 5.5,-195.5 117.5,-195.5 117.5,-116.5 5.5,-116.5"/>
<text text-anchor="middle" x="61.5" y="-183.5" font-family="Helvetica,sans-Serif" font-size="10.00">EventManager</text>
<polyline fill="none" stroke="black" points="5.5,-176.5 117.5,-176.5 "/>
<text text-anchor="middle" x="61.5" y="-164.5" font-family="Helvetica,sans-Serif" font-size="10.00"> </text>
<polyline fill="none" stroke="black" points="5.5,-157.5 117.5,-157.5 "/>
<text text-anchor="start" x="13.5" y="-145.5" font-family="Helvetica,sans-Serif" font-size="10.00">+ addListener()</text>
<text text-anchor="start" x="13.5" y="-134.5" font-family="Helvetica,sans-Serif" font-size="10.00">+ removeListener()</text>
<text text-anchor="start" x="13.5" y="-123.5" font-family="Helvetica,sans-Serif" font-size="10.00">+ dispatch()</text>
</a>
</g>
</g>
<!-- Node2&#45;&gt;Node1 -->
<g id="edge1" class="edge">
<title>Node2&#45;&gt;Node1</title>
<path fill="none" stroke="midnightblue" d="M61.5,-106.15C61.5,-97.26 61.5,-88.1 61.5,-79.56"/>
<polygon fill="none" stroke="midnightblue" points="58,-106.4 61.5,-116.4 65,-106.4 58,-106.4"/>
</g>
</g>
</svg>
