<?xml version="1.0" encoding="UTF-8" standalone="no"?>
<!DOCTYPE svg PUBLIC "-//W3C//DTD SVG 1.1//EN"
 "http://www.w3.org/Graphics/SVG/1.1/DTD/svg11.dtd">
<!-- Generated by graphviz version 2.43.0 (0)
 -->
<!-- Title: HtmlFormat Pages: 1 -->
<svg width="217pt" height="485pt"
 viewBox="0.00 0.00 217.00 485.00" xmlns="http://www.w3.org/2000/svg" xmlns:xlink="http://www.w3.org/1999/xlink">
<g id="graph0" class="graph" transform="scale(1 1) rotate(0) translate(4 481)">
<title>HtmlFormat</title>
<polygon fill="white" stroke="transparent" points="-4,4 -4,-481 213,-481 213,4 -4,4"/>
<!-- Node1 -->
<g id="node1" class="node">
<title>Node1</title>
<g id="a_node1"><a xlink:title="HtmlFormat implements the HTML request/response format.">
<polygon fill="#bfbfbf" stroke="black" points="0,-0.5 0,-123.5 209,-123.5 209,-0.5 0,-0.5"/>
<text text-anchor="middle" x="104.5" y="-111.5" font-family="Helvetica,sans-Serif" font-size="10.00">HtmlFormat</text>
<polyline fill="none" stroke="black" points="0,-104.5 209,-104.5 "/>
<text text-anchor="middle" x="104.5" y="-92.5" font-family="Helvetica,sans-Serif" font-size="10.00"> </text>
<polyline fill="none" stroke="black" points="0,-85.5 209,-85.5 "/>
<text text-anchor="start" x="8" y="-73.5" font-family="Helvetica,sans-Serif" font-size="10.00">+ getMimeType()</text>
<text text-anchor="start" x="8" y="-62.5" font-family="Helvetica,sans-Serif" font-size="10.00">+ isCached()</text>
<text text-anchor="start" x="8" y="-51.5" font-family="Helvetica,sans-Serif" font-size="10.00">+ getCacheDate()</text>
<text text-anchor="start" x="8" y="-40.5" font-family="Helvetica,sans-Serif" font-size="10.00"># deserializeValues()</text>
<text text-anchor="start" x="8" y="-29.5" font-family="Helvetica,sans-Serif" font-size="10.00"># serializeValues()</text>
<text text-anchor="start" x="8" y="-18.5" font-family="Helvetica,sans-Serif" font-size="10.00"># getTemplateFile()</text>
<text text-anchor="start" x="8" y="-7.5" font-family="Helvetica,sans-Serif" font-size="10.00"># getValueDefFromInputControlName()</text>
</a>
</g>
</g>
<!-- Node2 -->
<g id="node2" class="node">
<title>Node2</title>
<g id="a_node2"><a xlink:href="classwcmf_1_1lib_1_1presentation_1_1format_1_1impl_1_1_abstract_format.html" target="_top" xlink:title="AbstractFormat is used as base class for specialized formats.">
<polygon fill="white" stroke="black" points="35,-160.5 35,-327.5 174,-327.5 174,-160.5 35,-160.5"/>
<text text-anchor="middle" x="104.5" y="-315.5" font-family="Helvetica,sans-Serif" font-size="10.00">AbstractFormat</text>
<polyline fill="none" stroke="black" points="35,-308.5 174,-308.5 "/>
<text text-anchor="middle" x="104.5" y="-296.5" font-family="Helvetica,sans-Serif" font-size="10.00"> </text>
<polyline fill="none" stroke="black" points="35,-289.5 174,-289.5 "/>
<text text-anchor="start" x="43" y="-277.5" font-family="Helvetica,sans-Serif" font-size="10.00">+ deserialize()</text>
<text text-anchor="start" x="43" y="-266.5" font-family="Helvetica,sans-Serif" font-size="10.00">+ serialize()</text>
<text text-anchor="start" x="43" y="-255.5" font-family="Helvetica,sans-Serif" font-size="10.00">+ getResponseHeaders()</text>
<text text-anchor="start" x="43" y="-244.5" font-family="Helvetica,sans-Serif" font-size="10.00"># beforeDeserialize()</text>
<text text-anchor="start" x="43" y="-233.5" font-family="Helvetica,sans-Serif" font-size="10.00"># deserializeValues()</text>
<text text-anchor="start" x="43" y="-222.5" font-family="Helvetica,sans-Serif" font-size="10.00"># afterDeserialize()</text>
<text text-anchor="start" x="43" y="-211.5" font-family="Helvetica,sans-Serif" font-size="10.00"># beforeSerialize()</text>
<text text-anchor="start" x="43" y="-200.5" font-family="Helvetica,sans-Serif" font-size="10.00"># serializeValues()</text>
<text text-anchor="start" x="43" y="-189.5" font-family="Helvetica,sans-Serif" font-size="10.00"># afterSerialize()</text>
<text text-anchor="start" x="43" y="-178.5" font-family="Helvetica,sans-Serif" font-size="10.00"># getNode()</text>
<text text-anchor="start" x="43" y="-167.5" font-family="Helvetica,sans-Serif" font-size="10.00"># filterValue()</text>
</a>
</g>
</g>
<!-- Node2&#45;&gt;Node1 -->
<g id="edge1" class="edge">
<title>Node2&#45;&gt;Node1</title>
<path fill="none" stroke="midnightblue" d="M104.5,-150.19C104.5,-141.17 104.5,-132.19 104.5,-123.61"/>
<polygon fill="none" stroke="midnightblue" points="101,-150.38 104.5,-160.38 108,-150.38 101,-150.38"/>
</g>
<!-- Node3 -->
<g id="node3" class="node">
<title>Node3</title>
<g id="a_node3"><a xlink:href="interfacewcmf_1_1lib_1_1presentation_1_1format_1_1_format.html" target="_top" xlink:title="Format defines the interface for all format classes.">
<polygon fill="white" stroke="black" points="35,-364.5 35,-476.5 174,-476.5 174,-364.5 35,-364.5"/>
<text text-anchor="middle" x="104.5" y="-464.5" font-family="Helvetica,sans-Serif" font-size="10.00">Format</text>
<polyline fill="none" stroke="black" points="35,-457.5 174,-457.5 "/>
<text text-anchor="middle" x="104.5" y="-445.5" font-family="Helvetica,sans-Serif" font-size="10.00"> </text>
<polyline fill="none" stroke="black" points="35,-438.5 174,-438.5 "/>
<text text-anchor="start" x="43" y="-426.5" font-family="Helvetica,sans-Serif" font-size="10.00">+ getMimeType()</text>
<text text-anchor="start" x="43" y="-415.5" font-family="Helvetica,sans-Serif" font-size="10.00">+ deserialize()</text>
<text text-anchor="start" x="43" y="-404.5" font-family="Helvetica,sans-Serif" font-size="10.00">+ serialize()</text>
<text text-anchor="start" x="43" y="-393.5" font-family="Helvetica,sans-Serif" font-size="10.00">+ isCached()</text>
<text text-anchor="start" x="43" y="-382.5" font-family="Helvetica,sans-Serif" font-size="10.00">+ getCacheDate()</text>
<text text-anchor="start" x="43" y="-371.5" font-family="Helvetica,sans-Serif" font-size="10.00">+ getResponseHeaders()</text>
</a>
</g>
</g>
<!-- Node3&#45;&gt;Node2 -->
<g id="edge2" class="edge">
<title>Node3&#45;&gt;Node2</title>
<path fill="none" stroke="midnightblue" d="M104.5,-354.24C104.5,-345.54 104.5,-336.53 104.5,-327.59"/>
<polygon fill="none" stroke="midnightblue" points="101,-354.29 104.5,-364.29 108,-354.29 101,-354.29"/>
</g>
</g>
</svg>
