<?xml version="1.0" encoding="UTF-8" standalone="no"?>
<!DOCTYPE svg PUBLIC "-//W3C//DTD SVG 1.1//EN"
 "http://www.w3.org/Graphics/SVG/1.1/DTD/svg11.dtd">
<!-- Generated by graphviz version 2.43.0 (0)
 -->
<!-- Title: PersistenceEvent Pages: 1 -->
<svg width="123pt" height="204pt"
 viewBox="0.00 0.00 123.00 204.00" xmlns="http://www.w3.org/2000/svg" xmlns:xlink="http://www.w3.org/1999/xlink">
<g id="graph0" class="graph" transform="scale(1 1) rotate(0) translate(4 200)">
<title>PersistenceEvent</title>
<polygon fill="white" stroke="transparent" points="-4,4 -4,-200 119,-200 119,4 -4,4"/>
<!-- Node1 -->
<g id="node1" class="node">
<title>Node1</title>
<g id="a_node1"><a xlink:title="PersistentEvent signals create/update/delete operations on a persistent entity.">
<polygon fill="#bfbfbf" stroke="black" points="7,-0.5 7,-90.5 108,-90.5 108,-0.5 7,-0.5"/>
<text text-anchor="middle" x="57.5" y="-78.5" font-family="Helvetica,sans-Serif" font-size="10.00">PersistenceEvent</text>
<polyline fill="none" stroke="black" points="7,-71.5 108,-71.5 "/>
<text text-anchor="start" x="15" y="-59.5" font-family="Helvetica,sans-Serif" font-size="10.00">+ NAME</text>
<polyline fill="none" stroke="black" points="7,-52.5 108,-52.5 "/>
<text text-anchor="start" x="15" y="-40.5" font-family="Helvetica,sans-Serif" font-size="10.00">+ __construct()</text>
<text text-anchor="start" x="15" y="-29.5" font-family="Helvetica,sans-Serif" font-size="10.00">+ getObject()</text>
<text text-anchor="start" x="15" y="-18.5" font-family="Helvetica,sans-Serif" font-size="10.00">+ getAction()</text>
<text text-anchor="start" x="15" y="-7.5" font-family="Helvetica,sans-Serif" font-size="10.00">+ getOldOid()</text>
</a>
</g>
</g>
<!-- Node2 -->
<g id="node2" class="node">
<title>Node2</title>
<g id="a_node2"><a xlink:href="classwcmf_1_1lib_1_1core_1_1_event.html" target="_top" xlink:title="Event is the base class for all events.">
<polygon fill="white" stroke="black" points="0,-127.5 0,-195.5 115,-195.5 115,-127.5 0,-127.5"/>
<text text-anchor="middle" x="57.5" y="-183.5" font-family="Helvetica,sans-Serif" font-size="10.00">Event</text>
<polyline fill="none" stroke="black" points="0,-176.5 115,-176.5 "/>
<text text-anchor="middle" x="57.5" y="-164.5" font-family="Helvetica,sans-Serif" font-size="10.00"> </text>
<polyline fill="none" stroke="black" points="0,-157.5 115,-157.5 "/>
<text text-anchor="start" x="8" y="-145.5" font-family="Helvetica,sans-Serif" font-size="10.00">+ stopPropagation()</text>
<text text-anchor="start" x="8" y="-134.5" font-family="Helvetica,sans-Serif" font-size="10.00">+ isStopped()</text>
</a>
</g>
</g>
<!-- Node2&#45;&gt;Node1 -->
<g id="edge1" class="edge">
<title>Node2&#45;&gt;Node1</title>
<path fill="none" stroke="midnightblue" d="M57.5,-116.97C57.5,-108.35 57.5,-99.28 57.5,-90.64"/>
<polygon fill="none" stroke="midnightblue" points="54,-117.22 57.5,-127.22 61,-117.22 54,-117.22"/>
</g>
</g>
</svg>
