<?xml version="1.0" encoding="UTF-8" standalone="no"?>
<!DOCTYPE svg PUBLIC "-//W3C//DTD SVG 1.1//EN"
 "http://www.w3.org/Graphics/SVG/1.1/DTD/svg11.dtd">
<!-- Generated by graphviz version 2.43.0 (0)
 -->
<!-- Title: NullNode Pages: 1 -->
<svg width="216pt" height="821pt"
 viewBox="0.00 0.00 216.00 821.00" xmlns="http://www.w3.org/2000/svg" xmlns:xlink="http://www.w3.org/1999/xlink">
<g id="graph0" class="graph" transform="scale(1 1) rotate(0) translate(4 817)">
<title>NullNode</title>
<polygon fill="white" stroke="transparent" points="-4,4 -4,-817 212,-817 212,4 -4,4"/>
<!-- Node1 -->
<g id="node1" class="node">
<title>Node1</title>
<g id="a_node1"><a xlink:title="NullNode is an implementation of the NullObject pattern, It inherits all functionality from Node (act...">
<polygon fill="#bfbfbf" stroke="black" points="73,-0.5 73,-57.5 142,-57.5 142,-0.5 73,-0.5"/>
<text text-anchor="middle" x="107.5" y="-45.5" font-family="Helvetica,sans-Serif" font-size="10.00">NullNode</text>
<polyline fill="none" stroke="black" points="73,-38.5 142,-38.5 "/>
<text text-anchor="middle" x="107.5" y="-26.5" font-family="Helvetica,sans-Serif" font-size="10.00"> </text>
<polyline fill="none" stroke="black" points="73,-19.5 142,-19.5 "/>
<text text-anchor="start" x="81" y="-7.5" font-family="Helvetica,sans-Serif" font-size="10.00">+ getOID()</text>
</a>
</g>
</g>
<!-- Node2 -->
<g id="node2" class="node">
<title>Node2</title>
<g id="a_node2"><a xlink:href="classwcmf_1_1lib_1_1model_1_1_node.html" target="_top" xlink:title="Node adds the concept of relations to PersistentObject.">
<polygon fill="white" stroke="black" points="13,-94.5 13,-338.5 202,-338.5 202,-94.5 13,-94.5"/>
<text text-anchor="middle" x="107.5" y="-326.5" font-family="Helvetica,sans-Serif" font-size="10.00">Node</text>
<polyline fill="none" stroke="black" points="13,-319.5 202,-319.5 "/>
<text text-anchor="start" x="21" y="-307.5" font-family="Helvetica,sans-Serif" font-size="10.00">+ RELATION_STATE_UNINITIALIZED</text>
<text text-anchor="start" x="21" y="-296.5" font-family="Helvetica,sans-Serif" font-size="10.00">+ RELATION_STATE_INITIALIZING</text>
<text text-anchor="start" x="21" y="-285.5" font-family="Helvetica,sans-Serif" font-size="10.00">+ RELATION_STATE_INITIALIZED</text>
<text text-anchor="start" x="21" y="-274.5" font-family="Helvetica,sans-Serif" font-size="10.00">+ RELATION_STATE_LOADED</text>
<polyline fill="none" stroke="black" points="13,-267.5 202,-267.5 "/>
<text text-anchor="start" x="21" y="-255.5" font-family="Helvetica,sans-Serif" font-size="10.00">+ __construct()</text>
<text text-anchor="start" x="21" y="-244.5" font-family="Helvetica,sans-Serif" font-size="10.00">+ __clone()</text>
<text text-anchor="start" x="21" y="-233.5" font-family="Helvetica,sans-Serif" font-size="10.00">+ getValueNames()</text>
<text text-anchor="start" x="21" y="-222.5" font-family="Helvetica,sans-Serif" font-size="10.00">+ getValue()</text>
<text text-anchor="start" x="21" y="-211.5" font-family="Helvetica,sans-Serif" font-size="10.00">+ setValue()</text>
<text text-anchor="start" x="21" y="-200.5" font-family="Helvetica,sans-Serif" font-size="10.00">+ removeValue()</text>
<text text-anchor="start" x="21" y="-189.5" font-family="Helvetica,sans-Serif" font-size="10.00">+ getIndispensableObjects()</text>
<text text-anchor="start" x="21" y="-178.5" font-family="Helvetica,sans-Serif" font-size="10.00">+ mergeValues()</text>
<text text-anchor="start" x="21" y="-167.5" font-family="Helvetica,sans-Serif" font-size="10.00">+ getRelationNames()</text>
<text text-anchor="start" x="21" y="-156.5" font-family="Helvetica,sans-Serif" font-size="10.00">+ addNode()</text>
<text text-anchor="start" x="21" y="-145.5" font-family="Helvetica,sans-Serif" font-size="10.00">and 25 more...</text>
<text text-anchor="start" x="21" y="-134.5" font-family="Helvetica,sans-Serif" font-size="10.00">+ filter()</text>
<text text-anchor="start" x="21" y="-123.5" font-family="Helvetica,sans-Serif" font-size="10.00"># loadRelations()</text>
<text text-anchor="start" x="21" y="-112.5" font-family="Helvetica,sans-Serif" font-size="10.00"># getRelations()</text>
<text text-anchor="start" x="21" y="-101.5" font-family="Helvetica,sans-Serif" font-size="10.00"># mergeObjectLists()</text>
</a>
</g>
</g>
<!-- Node2&#45;&gt;Node1 -->
<g id="edge1" class="edge">
<title>Node2&#45;&gt;Node1</title>
<path fill="none" stroke="midnightblue" d="M107.5,-84.34C107.5,-74.53 107.5,-65.42 107.5,-57.57"/>
<polygon fill="none" stroke="midnightblue" points="104,-84.36 107.5,-94.36 111,-84.36 104,-84.36"/>
</g>
<!-- Node3 -->
<g id="node3" class="node">
<title>Node3</title>
<g id="a_node3"><a xlink:href="classwcmf_1_1lib_1_1persistence_1_1impl_1_1_default_persistent_object.html" target="_top" xlink:title="DefaultPersistentObject is the base class of all persistent objects.">
<polygon fill="white" stroke="black" points="7,-375.5 7,-575.5 208,-575.5 208,-375.5 7,-375.5"/>
<text text-anchor="middle" x="107.5" y="-563.5" font-family="Helvetica,sans-Serif" font-size="10.00">DefaultPersistentObject</text>
<polyline fill="none" stroke="black" points="7,-556.5 208,-556.5 "/>
<text text-anchor="middle" x="107.5" y="-544.5" font-family="Helvetica,sans-Serif" font-size="10.00"> </text>
<polyline fill="none" stroke="black" points="7,-537.5 208,-537.5 "/>
<text text-anchor="start" x="15" y="-525.5" font-family="Helvetica,sans-Serif" font-size="10.00">+ __construct()</text>
<text text-anchor="start" x="15" y="-514.5" font-family="Helvetica,sans-Serif" font-size="10.00">+ getType()</text>
<text text-anchor="start" x="15" y="-503.5" font-family="Helvetica,sans-Serif" font-size="10.00">+ getMapper()</text>
<text text-anchor="start" x="15" y="-492.5" font-family="Helvetica,sans-Serif" font-size="10.00">+ getOID()</text>
<text text-anchor="start" x="15" y="-481.5" font-family="Helvetica,sans-Serif" font-size="10.00">+ setOID()</text>
<text text-anchor="start" x="15" y="-470.5" font-family="Helvetica,sans-Serif" font-size="10.00">+ getState()</text>
<text text-anchor="start" x="15" y="-459.5" font-family="Helvetica,sans-Serif" font-size="10.00">+ setState()</text>
<text text-anchor="start" x="15" y="-448.5" font-family="Helvetica,sans-Serif" font-size="10.00">+ delete()</text>
<text text-anchor="start" x="15" y="-437.5" font-family="Helvetica,sans-Serif" font-size="10.00">+ __clone()</text>
<text text-anchor="start" x="15" y="-426.5" font-family="Helvetica,sans-Serif" font-size="10.00">+ copyValues()</text>
<text text-anchor="start" x="15" y="-415.5" font-family="Helvetica,sans-Serif" font-size="10.00">and 32 more...</text>
<text text-anchor="start" x="15" y="-404.5" font-family="Helvetica,sans-Serif" font-size="10.00"># setOIDInternal()</text>
<text text-anchor="start" x="15" y="-393.5" font-family="Helvetica,sans-Serif" font-size="10.00"># setValueInternal()</text>
<text text-anchor="start" x="15" y="-382.5" font-family="Helvetica,sans-Serif" font-size="10.00"># validateValueAgainstValidateType()</text>
</a>
</g>
</g>
<!-- Node3&#45;&gt;Node2 -->
<g id="edge2" class="edge">
<title>Node3&#45;&gt;Node2</title>
<path fill="none" stroke="midnightblue" d="M107.5,-365.05C107.5,-356.41 107.5,-347.65 107.5,-338.93"/>
<polygon fill="none" stroke="midnightblue" points="104,-365.14 107.5,-375.14 111,-365.14 104,-365.14"/>
</g>
<!-- Node4 -->
<g id="node4" class="node">
<title>Node4</title>
<g id="a_node4"><a xlink:href="interfacewcmf_1_1lib_1_1persistence_1_1_persistent_object.html" target="_top" xlink:title="PersistentObject defines the interface of all persistent objects.">
<polygon fill="white" stroke="black" points="0,-612.5 0,-812.5 107,-812.5 107,-612.5 0,-612.5"/>
<text text-anchor="middle" x="53.5" y="-800.5" font-family="Helvetica,sans-Serif" font-size="10.00">PersistentObject</text>
<polyline fill="none" stroke="black" points="0,-793.5 107,-793.5 "/>
<text text-anchor="start" x="8" y="-781.5" font-family="Helvetica,sans-Serif" font-size="10.00">+ STATE_CLEAN</text>
<text text-anchor="start" x="8" y="-770.5" font-family="Helvetica,sans-Serif" font-size="10.00">+ STATE_DIRTY</text>
<text text-anchor="start" x="8" y="-759.5" font-family="Helvetica,sans-Serif" font-size="10.00">+ STATE_NEW</text>
<text text-anchor="start" x="8" y="-748.5" font-family="Helvetica,sans-Serif" font-size="10.00">+ STATE_DELETED</text>
<polyline fill="none" stroke="black" points="0,-741.5 107,-741.5 "/>
<text text-anchor="start" x="8" y="-729.5" font-family="Helvetica,sans-Serif" font-size="10.00">+ getType()</text>
<text text-anchor="start" x="8" y="-718.5" font-family="Helvetica,sans-Serif" font-size="10.00">+ getMapper()</text>
<text text-anchor="start" x="8" y="-707.5" font-family="Helvetica,sans-Serif" font-size="10.00">+ getOID()</text>
<text text-anchor="start" x="8" y="-696.5" font-family="Helvetica,sans-Serif" font-size="10.00">+ setOID()</text>
<text text-anchor="start" x="8" y="-685.5" font-family="Helvetica,sans-Serif" font-size="10.00">+ getState()</text>
<text text-anchor="start" x="8" y="-674.5" font-family="Helvetica,sans-Serif" font-size="10.00">+ setState()</text>
<text text-anchor="start" x="8" y="-663.5" font-family="Helvetica,sans-Serif" font-size="10.00">+ delete()</text>
<text text-anchor="start" x="8" y="-652.5" font-family="Helvetica,sans-Serif" font-size="10.00">+ __clone()</text>
<text text-anchor="start" x="8" y="-641.5" font-family="Helvetica,sans-Serif" font-size="10.00">+ copyValues()</text>
<text text-anchor="start" x="8" y="-630.5" font-family="Helvetica,sans-Serif" font-size="10.00">+ mergeValues()</text>
<text text-anchor="start" x="8" y="-619.5" font-family="Helvetica,sans-Serif" font-size="10.00">and 28 more...</text>
</a>
</g>
</g>
<!-- Node4&#45;&gt;Node3 -->
<g id="edge3" class="edge">
<title>Node4&#45;&gt;Node3</title>
<path fill="none" stroke="midnightblue" d="M78.6,-602.27C80.63,-593.45 82.66,-584.58 84.67,-575.84"/>
<polygon fill="none" stroke="midnightblue" points="75.15,-601.65 76.32,-612.18 81.97,-603.22 75.15,-601.65"/>
</g>
<!-- Node5 -->
<g id="node5" class="node">
<title>Node5</title>
<g id="a_node5"><a xlink:title=" ">
<polygon fill="white" stroke="#bfbfbf" points="125.5,-684 125.5,-741 199.5,-741 199.5,-684 125.5,-684"/>
<text text-anchor="middle" x="162.5" y="-729" font-family="Helvetica,sans-Serif" font-size="10.00">Serializable</text>
<polyline fill="none" stroke="#bfbfbf" points="125.5,-722 199.5,-722 "/>
<text text-anchor="middle" x="162.5" y="-710" font-family="Helvetica,sans-Serif" font-size="10.00"> </text>
<polyline fill="none" stroke="#bfbfbf" points="125.5,-703 199.5,-703 "/>
<text text-anchor="middle" x="162.5" y="-691" font-family="Helvetica,sans-Serif" font-size="10.00"> </text>
</a>
</g>
</g>
<!-- Node5&#45;&gt;Node3 -->
<g id="edge4" class="edge">
<title>Node5&#45;&gt;Node3</title>
<path fill="none" stroke="midnightblue" d="M153.63,-673.62C147.42,-647.07 138.81,-610.27 130.71,-575.66"/>
<polygon fill="none" stroke="midnightblue" points="150.29,-674.68 155.97,-683.62 157.1,-673.09 150.29,-674.68"/>
</g>
</g>
</svg>
