<?xml version="1.0" encoding="UTF-8" standalone="no"?>
<!DOCTYPE svg PUBLIC "-//W3C//DTD SVG 1.1//EN"
 "http://www.w3.org/Graphics/SVG/1.1/DTD/svg11.dtd">
<!-- Generated by graphviz version 2.43.0 (0)
 -->
<!-- Title: ImageOutputStrategy Pages: 1 -->
<svg width="170pt" height="540pt"
 viewBox="0.00 0.00 170.00 540.00" xmlns="http://www.w3.org/2000/svg" xmlns:xlink="http://www.w3.org/1999/xlink">
<g id="graph0" class="graph" transform="scale(1 1) rotate(0) translate(4 536)">
<title>ImageOutputStrategy</title>
<polygon fill="white" stroke="transparent" points="-4,4 -4,-536 166,-536 166,4 -4,4"/>
<!-- Node1 -->
<g id="node1" class="node">
<title>Node1</title>
<g id="a_node1"><a xlink:title="ImageOutputStrategy outputs a tree of objects into an image file.">
<polygon fill="#bfbfbf" stroke="black" points="14,-116.5 14,-415.5 148,-415.5 148,-116.5 14,-116.5"/>
<text text-anchor="middle" x="81" y="-403.5" font-family="Helvetica,sans-Serif" font-size="10.00">ImageOutputStrategy</text>
<polyline fill="none" stroke="black" points="14,-396.5 148,-396.5 "/>
<text text-anchor="start" x="22" y="-384.5" font-family="Helvetica,sans-Serif" font-size="10.00">+ LINETYPE_DIRECT</text>
<text text-anchor="start" x="22" y="-373.5" font-family="Helvetica,sans-Serif" font-size="10.00">+ LINETYPE_ROUTED</text>
<text text-anchor="start" x="22" y="-362.5" font-family="Helvetica,sans-Serif" font-size="10.00"># $format</text>
<text text-anchor="start" x="22" y="-351.5" font-family="Helvetica,sans-Serif" font-size="10.00"># $file</text>
<text text-anchor="start" x="22" y="-340.5" font-family="Helvetica,sans-Serif" font-size="10.00"># $map</text>
<text text-anchor="start" x="22" y="-329.5" font-family="Helvetica,sans-Serif" font-size="10.00"># $img</text>
<text text-anchor="start" x="22" y="-318.5" font-family="Helvetica,sans-Serif" font-size="10.00"># $width</text>
<text text-anchor="start" x="22" y="-307.5" font-family="Helvetica,sans-Serif" font-size="10.00"># $height</text>
<text text-anchor="start" x="22" y="-296.5" font-family="Helvetica,sans-Serif" font-size="10.00"># $scale</text>
<text text-anchor="start" x="22" y="-285.5" font-family="Helvetica,sans-Serif" font-size="10.00"># $border</text>
<text text-anchor="start" x="22" y="-274.5" font-family="Helvetica,sans-Serif" font-size="10.00"># $bgColor</text>
<text text-anchor="start" x="22" y="-263.5" font-family="Helvetica,sans-Serif" font-size="10.00"># $txtColor</text>
<text text-anchor="start" x="22" y="-252.5" font-family="Helvetica,sans-Serif" font-size="10.00"># $lineColor</text>
<text text-anchor="start" x="22" y="-241.5" font-family="Helvetica,sans-Serif" font-size="10.00"># $lineType</text>
<text text-anchor="start" x="22" y="-230.5" font-family="Helvetica,sans-Serif" font-size="10.00"># $labelDim</text>
<text text-anchor="start" x="22" y="-219.5" font-family="Helvetica,sans-Serif" font-size="10.00"># $textPos</text>
<text text-anchor="start" x="22" y="-208.5" font-family="Helvetica,sans-Serif" font-size="10.00"># $usemap</text>
<polyline fill="none" stroke="black" points="14,-201.5 148,-201.5 "/>
<text text-anchor="start" x="22" y="-189.5" font-family="Helvetica,sans-Serif" font-size="10.00">+ __construct()</text>
<text text-anchor="start" x="22" y="-178.5" font-family="Helvetica,sans-Serif" font-size="10.00">+ writeHeader()</text>
<text text-anchor="start" x="22" y="-167.5" font-family="Helvetica,sans-Serif" font-size="10.00">+ writeFooter()</text>
<text text-anchor="start" x="22" y="-156.5" font-family="Helvetica,sans-Serif" font-size="10.00">+ writeObject()</text>
<text text-anchor="start" x="22" y="-145.5" font-family="Helvetica,sans-Serif" font-size="10.00"># drawConnectionLine()</text>
<text text-anchor="start" x="22" y="-134.5" font-family="Helvetica,sans-Serif" font-size="10.00"># drawDirectLine()</text>
<text text-anchor="start" x="22" y="-123.5" font-family="Helvetica,sans-Serif" font-size="10.00"># drawRoutedLine()</text>
</a>
</g>
</g>
<!-- Node3 -->
<g id="node3" class="node">
<title>Node3</title>
<g id="a_node3"><a xlink:href="classwcmf_1_1lib_1_1model_1_1output_1_1_element_image_output_strategy.html" target="_top" xlink:title="ElementImageOutputStrategy outputs a tree of objects into an image file.">
<polygon fill="white" stroke="black" points="0,-0.5 0,-79.5 162,-79.5 162,-0.5 0,-0.5"/>
<text text-anchor="middle" x="81" y="-67.5" font-family="Helvetica,sans-Serif" font-size="10.00">ElementImageOutputStrategy</text>
<polyline fill="none" stroke="black" points="0,-60.5 162,-60.5 "/>
<text text-anchor="middle" x="81" y="-48.5" font-family="Helvetica,sans-Serif" font-size="10.00"> </text>
<polyline fill="none" stroke="black" points="0,-41.5 162,-41.5 "/>
<text text-anchor="start" x="8" y="-29.5" font-family="Helvetica,sans-Serif" font-size="10.00">+ __construct()</text>
<text text-anchor="start" x="8" y="-18.5" font-family="Helvetica,sans-Serif" font-size="10.00">+ writeHeader()</text>
<text text-anchor="start" x="8" y="-7.5" font-family="Helvetica,sans-Serif" font-size="10.00">+ writeObject()</text>
</a>
</g>
</g>
<!-- Node1&#45;&gt;Node3 -->
<g id="edge2" class="edge">
<title>Node1&#45;&gt;Node3</title>
<path fill="none" stroke="midnightblue" d="M81,-106.13C81,-96.63 81,-87.69 81,-79.64"/>
<polygon fill="none" stroke="midnightblue" points="77.5,-106.21 81,-116.21 84.5,-106.21 77.5,-106.21"/>
</g>
<!-- Node2 -->
<g id="node2" class="node">
<title>Node2</title>
<g id="a_node2"><a xlink:href="interfacewcmf_1_1lib_1_1persistence_1_1output_1_1_output_strategy.html" target="_top" xlink:title="OutputStrategy defines the interface for classes that write an object&#39;s content to a destination (cal...">
<polygon fill="white" stroke="black" points="33.5,-452.5 33.5,-531.5 128.5,-531.5 128.5,-452.5 33.5,-452.5"/>
<text text-anchor="middle" x="81" y="-519.5" font-family="Helvetica,sans-Serif" font-size="10.00">OutputStrategy</text>
<polyline fill="none" stroke="black" points="33.5,-512.5 128.5,-512.5 "/>
<text text-anchor="middle" x="81" y="-500.5" font-family="Helvetica,sans-Serif" font-size="10.00"> </text>
<polyline fill="none" stroke="black" points="33.5,-493.5 128.5,-493.5 "/>
<text text-anchor="start" x="41.5" y="-481.5" font-family="Helvetica,sans-Serif" font-size="10.00">+ writeHeader()</text>
<text text-anchor="start" x="41.5" y="-470.5" font-family="Helvetica,sans-Serif" font-size="10.00">+ writeFooter()</text>
<text text-anchor="start" x="41.5" y="-459.5" font-family="Helvetica,sans-Serif" font-size="10.00">+ writeObject()</text>
</a>
</g>
</g>
<!-- Node2&#45;&gt;Node1 -->
<g id="edge1" class="edge">
<title>Node2&#45;&gt;Node1</title>
<path fill="none" stroke="midnightblue" d="M81,-442.39C81,-434.1 81,-425.12 81,-415.75"/>
<polygon fill="none" stroke="midnightblue" points="77.5,-442.49 81,-452.49 84.5,-442.49 77.5,-442.49"/>
</g>
</g>
</svg>
