<?xml version="1.0" encoding="UTF-8" standalone="no"?>
<!DOCTYPE svg PUBLIC "-//W3C//DTD SVG 1.1//EN"
 "http://www.w3.org/Graphics/SVG/1.1/DTD/svg11.dtd">
<!-- Generated by graphviz version 2.43.0 (0)
 -->
<!-- Title: UnionQueryProvider Pages: 1 -->
<svg width="354pt" height="204pt"
 viewBox="0.00 0.00 353.50 204.00" xmlns="http://www.w3.org/2000/svg" xmlns:xlink="http://www.w3.org/1999/xlink">
<g id="graph0" class="graph" transform="scale(1 1) rotate(0) translate(4 200)">
<title>UnionQueryProvider</title>
<polygon fill="white" stroke="transparent" points="-4,4 -4,-200 349.5,-200 349.5,4 -4,4"/>
<!-- Node1 -->
<g id="node1" class="node">
<title>Node1</title>
<g id="a_node1"><a xlink:title="UnionQueryProvider is used to provide queries to a union query.">
<polygon fill="#bfbfbf" stroke="black" points="121.5,-127.5 121.5,-195.5 236.5,-195.5 236.5,-127.5 121.5,-127.5"/>
<text text-anchor="middle" x="179" y="-183.5" font-family="Helvetica,sans-Serif" font-size="10.00">UnionQueryProvider</text>
<polyline fill="none" stroke="black" points="121.5,-176.5 236.5,-176.5 "/>
<text text-anchor="middle" x="179" y="-164.5" font-family="Helvetica,sans-Serif" font-size="10.00"> </text>
<polyline fill="none" stroke="black" points="121.5,-157.5 236.5,-157.5 "/>
<text text-anchor="start" x="129.5" y="-145.5" font-family="Helvetica,sans-Serif" font-size="10.00">+ getIds()</text>
<text text-anchor="start" x="129.5" y="-134.5" font-family="Helvetica,sans-Serif" font-size="10.00">+ execute()</text>
</a>
</g>
</g>
<!-- Node2 -->
<g id="node2" class="node">
<title>Node2</title>
<g id="a_node2"><a xlink:href="classwcmf_1_1lib_1_1model_1_1_object_query_union_query_provider.html" target="_top" xlink:title="ObjectQueryUnionQueryProvider provides queries as ObjectQuery instances.">
<polygon fill="white" stroke="black" points="0,-0.5 0,-90.5 176,-90.5 176,-0.5 0,-0.5"/>
<text text-anchor="middle" x="88" y="-78.5" font-family="Helvetica,sans-Serif" font-size="10.00">ObjectQueryUnionQueryProvider</text>
<polyline fill="none" stroke="black" points="0,-71.5 176,-71.5 "/>
<text text-anchor="start" x="8" y="-59.5" font-family="Helvetica,sans-Serif" font-size="10.00"># $queries</text>
<polyline fill="none" stroke="black" points="0,-52.5 176,-52.5 "/>
<text text-anchor="start" x="8" y="-40.5" font-family="Helvetica,sans-Serif" font-size="10.00">+ __construct()</text>
<text text-anchor="start" x="8" y="-29.5" font-family="Helvetica,sans-Serif" font-size="10.00">+ getIds()</text>
<text text-anchor="start" x="8" y="-18.5" font-family="Helvetica,sans-Serif" font-size="10.00">+ execute()</text>
<text text-anchor="start" x="8" y="-7.5" font-family="Helvetica,sans-Serif" font-size="10.00">+ getLastQueryStrings()</text>
</a>
</g>
</g>
<!-- Node1&#45;&gt;Node2 -->
<g id="edge1" class="edge">
<title>Node1&#45;&gt;Node2</title>
<path fill="none" stroke="midnightblue" d="M146.06,-119.24C138.64,-109.94 130.74,-100.04 123.23,-90.64"/>
<polygon fill="none" stroke="midnightblue" points="143.46,-121.59 152.43,-127.22 148.93,-117.22 143.46,-121.59"/>
</g>
<!-- Node3 -->
<g id="node3" class="node">
<title>Node3</title>
<g id="a_node3"><a xlink:href="classwcmf_1_1lib_1_1persistence_1_1impl_1_1_default_union_query_provider.html" target="_top" xlink:title="DefaultUnionQueryProvider provides queries for multiple types using the PersistentFacade::loadObjects...">
<polygon fill="white" stroke="black" points="194.5,-6 194.5,-85 345.5,-85 345.5,-6 194.5,-6"/>
<text text-anchor="middle" x="270" y="-73" font-family="Helvetica,sans-Serif" font-size="10.00">DefaultUnionQueryProvider</text>
<polyline fill="none" stroke="black" points="194.5,-66 345.5,-66 "/>
<text text-anchor="start" x="202.5" y="-54" font-family="Helvetica,sans-Serif" font-size="10.00"># $queries</text>
<polyline fill="none" stroke="black" points="194.5,-47 345.5,-47 "/>
<text text-anchor="start" x="202.5" y="-35" font-family="Helvetica,sans-Serif" font-size="10.00">+ __construct()</text>
<text text-anchor="start" x="202.5" y="-24" font-family="Helvetica,sans-Serif" font-size="10.00">+ getIds()</text>
<text text-anchor="start" x="202.5" y="-13" font-family="Helvetica,sans-Serif" font-size="10.00">+ execute()</text>
</a>
</g>
</g>
<!-- Node1&#45;&gt;Node3 -->
<g id="edge2" class="edge">
<title>Node1&#45;&gt;Node3</title>
<path fill="none" stroke="midnightblue" d="M211.88,-119.31C220.75,-108.2 230.31,-96.22 239.07,-85.25"/>
<polygon fill="none" stroke="midnightblue" points="209.07,-117.22 205.57,-127.22 214.54,-121.59 209.07,-117.22"/>
</g>
</g>
</svg>
